<svg width="64" height="74" xmlns="http://www.w3.org/2000/svg">

 <g>
  <title>background</title>
  <rect fill="none" id="canvas_background" height="402" width="582" y="-1" x="-1"/>
 </g>
 <g>
  <title>Layer 1</title>
  <path id="svg_2" fill="#808080" d="m32,0c-1.105,0 -2,0.895 -2,2l0,52c0,3.313 -2.687,6 -6,6c-3.314,0 -6,-2.687 -6,-6c0,-1.104 -0.896,-2 -2,-2s-2,0.896 -2,2c0,5.522 4.477,9.999 10,9.999c5.522,0 10,-4.477 10,-9.999l0,-52c0,-1.105 -0.896,-2 -2,-2z"/>
  <path id="svg_4" fill-rule="evenodd" clip-rule="evenodd" fill="#00a471" d="m54,30c5.522,0 10,2.686 10,6c0,-17.674 -14.327,-32 -32,-32c-17.674,0 -32,14.326 -32,32c0,-3.314 4.477,-6 10,-6c5.522,0 10,2.686 10,6c0,-3.314 5.372,-6 12,-6c6.627,0 12,2.686 12,6c0,-3.314 4.477,-6 10,-6z"/>
  <path id="svg_6" fill-rule="evenodd" clip-rule="evenodd" fill="#00d492" d="m32,30c6.627,0 12,2.686 12,6c0,-17.674 -5.373,-32 -12,-32c-6.628,0 -12,14.326 -12,32c0,-3.314 5.372,-6 12,-6z"/>
 </g>
</svg>