<svg version="1.1" xmlns="http://www.w3.org/2000/svg" xmlns:xlink="http://www.w3.org/1999/xlink" width="602" height="537.16208" viewBox="485.0379,81.83792,602,537.16208"><g id="document" fill-opacity="0" fill="#ffffff" fill-rule="nonzero" stroke-opacity="0.8" stroke="#000000" stroke-width="0" stroke-linecap="butt" stroke-linejoin="miter" stroke-miterlimit="10" stroke-dasharray="" stroke-dashoffset="0" font-family="none" font-weight="none" font-size="none" text-anchor="none" style="mix-blend-mode: normal"><rect x="725.2" y="119" transform="scale(0.71429,1)" width="700" height="500" id="Shape 1 1" vector-effect="non-scaling-stroke"/></g><g fill="none" fill-rule="nonzero" stroke="none" stroke-width="1" stroke-linecap="butt" stroke-linejoin="miter" stroke-miterlimit="10" stroke-dasharray="" stroke-dashoffset="0" font-family="none" font-weight="none" font-size="none" text-anchor="none" style="mix-blend-mode: normal"><g id="stage"><g id="layer1 1"><g id="Group 1"><g id="Group 1" fill="none" stroke="none"><rect x="485.0379" y="81.83792" width="471.92419" height="471.92419" id="Shape 1"/></g><g id="Group 1" stroke="#231815"><path d="M750.7879,382.94792c18.72866,-24.05846 49.22792,-35.7848 79.25,-30.47c3.50966,0.61996 6.97149,1.48542 10.36,2.59c-5.3551,-33.9964 -31.21629,-61.11638 -64.92,-68.08c-33.33,-6.75 -68.27,8.85 -85.8,37.85c-13.88491,23.27564 -15.53124,51.86434 -4.41,76.58c0.47,-0.46 0.94,-0.92 1.42,-1.37c17.18408,-16.02196 41.21884,-22.43373 64.1,-17.1z" id="Path 1" fill="#f8b62d"/><path d="M685.2679,401.41792c-11.12124,-24.71566 -9.47491,-53.30436 4.41,-76.58c17.54,-28.95 52.48,-44.6 85.76,-37.86c33.70371,6.96362 59.5649,34.0836 64.92,68.08c5.53075,1.80066 10.84356,4.21222 15.84,7.19c-2.3161,-38.82678 -27.37513,-72.60899 -63.86,-86.09c-37.69,-13.82 -81.9,-1.62 -107.27,29.43c-25,30.6 -29.26,74.3 -10,108.8c2.85895,-4.72271 6.28434,-9.07832 10.2,-12.97z" id="Path 1" fill="#231815"/><path d="M767.1079,242.37792v-33.65c0,-9.65 -15,-9.67 -15,0v33.65c0,9.65 15,9.67 15,0zM759.6079,208.72792z" id="CompoundPath 1" fill="#231815"/><path d="M690.6979,262.88792c4.83,8.36 17.79,0.81 13,-7.57l-16.83,-29.15c-4.83,-8.36 -17.79,-0.81 -13,7.57z" id="Path 1" fill="#231815"/><path d="M655.2579,298.32792l-29.15,-16.83c-8.37,-4.84 -15.94,8.12 -7.57,13l29.15,16.83c8.35,4.79 15.94,-8.17 7.57,-13zM622.3279,287.97792l29.15,16.86z" id="CompoundPath 1" fill="#231815"/><path d="M601.0979,374.73792h33.65c9.65,0 9.67,-15 0,-15h-33.65c-9.66,0 -9.67,15 0,15zM634.7479,367.23792z" id="CompoundPath 1" fill="#231815"/><path d="M626.1179,452.96792l29.15,-16.83c8.36,-4.83 0.81,-17.79 -7.57,-13l-29.15,16.83c-8.36,4.87 -0.82,17.87 7.57,13zM651.4779,429.66792l-29.15,16.83z" id="CompoundPath 1" fill="#231815"/><path d="M884.4579,374.73792h33.65c9.65,0 9.67,-15 0,-15h-33.65c-9.65,0 -9.67,15 0,15zM884.4579,367.23792z" id="CompoundPath 1" fill="#231815"/><path d="M871.5179,311.27792l29.15,-16.83c8.36,-4.83 0.81,-17.79 -7.57,-13l-29.15,16.83c-8.36,4.88 -0.81,17.84 7.57,13zM896.8779,287.97792l-29.14,16.86z" id="CompoundPath 1" fill="#231815"/><path d="M828.5079,262.88792l16.83,-29.15c4.84,-8.37 -8.12,-15.94 -13,-7.57l-16.83,29.15c-4.79,8.38 8.17,15.94 13,7.57zM838.8579,229.95792l-16.82,29.15z" id="CompoundPath 1" fill="#231815"/><path d="M856.3679,367.23792c0.06,-8.29 -11,-9.46 -14.15,-3.5c4.69219,1.86664 9.17927,4.21239 13.39,7c0.53456,-1.08737 0.79545,-2.28885 0.76,-3.5z" id="Path 1" fill="#231815"/><path d="M856.2579,371.11792c0.06,-1.29 0.11,-2.59 0.12,-3.89c0.02584,1.19852 -0.23833,2.38554 -0.77,3.46z" id="Path 1" fill="#231815"/><path d="M679.5779,421.60792c2.5262,-4.76104 5.65898,-9.17448 9.32,-13.13c-1.32828,-2.29061 -2.53983,-4.64696 -3.63,-7.06c-3.90708,3.90272 -7.32241,8.26844 -10.17,13c0.53,0.94 1.06,1.88 1.62,2.81c0.91,1.48 1.88,2.94 2.86,4.38z" id="Path 1" fill="#231815"/><path d="M841.2479,363.34792l1,0.38c3.17,-6 14.22,-4.79 14.15,3.5c0,-1.67 -0.08,-3.33 -0.18,-5c-4.99644,-2.97778 -10.30925,-5.38934 -15.84,-7.19c0.43087,2.75344 0.72125,5.52703 0.87,8.31z" id="Path 1" fill="#231815"/></g></g><g id="Group 1"><g id="Group 1" fill="none" stroke="none"><rect x="505.0379" y="96.76211" width="582" height="402" id="Shape 1"/></g><g id="Group 1"><g id="Group 1"><path d="M928.7079,462.15227c0.49,14.52 -8.42,28.24 -22.28,33.07c-6.06,2.11 -12.13,1.91 -18.41,1.91h-90.48c-4.59,0 -9.19,0.05 -13.79,0c-15.6285,0.02154 -29.96682,-8.66689 -37.18152,-22.53047c-7.2147,-13.86358 -6.1035,-30.59203 2.88152,-43.37953c10.53,-15.33 30,-21 47.46,-15.64c3.35,1 6.62,-0.74 8.47,-3.45c11.27,-16.48 31.82,-25.42 51.57,-21.55c18.36631,3.59448 33.35144,16.84276 39.17,34.63c0.3822,2.77021 2.52905,4.96577 5.29,5.41c15.01,3.32 26.77,15.79 27.3,31.53z" id="Path 1" fill="#dcdddd" stroke="none"/><path d="M921.2179,422.77227c4.45954,2.87664 8.42695,6.45238 11.75,10.59c-1.15551,2.43353 -2.45791,4.79455 -3.9,7.07c-2.92933,-4.27461 -6.64134,-7.95608 -10.94,-10.85c1.1896,-2.19414 2.22219,-4.46985 3.09,-6.81z" id="Path 1" fill="#231815" stroke="none"/><path d="M882.0379,352.64227c22.46,4.83 40.56,23.46 42.46,46.81c0.64836,7.91702 -0.45793,15.87959 -3.24,23.32c-3.75555,-2.43007 -7.83141,-4.32496 -12.11,-5.63c-8.35,-21 -26.91,-37.41 -49.56,-41.28c-23.9845,-4.16537 -48.3386,5.0263 -63.59,24c-18.03784,-3.86042 -36.83367,1.14709 -50.56,13.47c-12.22272,11.21709 -18.94239,27.20918 -18.4,43.79c-6.23,0 -12.45,0.06 -18.67,0c-35.49961,-0.1039 -64.33059,-28.70699 -64.7162,-64.20465c-0.38561,-35.49766 27.81722,-64.72031 63.3062,-65.59535c7.37082,-0.10129 14.70933,0.9929 21.73,3.24c3.33,1 6.63,-0.74 8.47,-3.45c17.29,-25.5 48.92,-39.18 79.35,-33.28c28.29087,5.50125 51.35922,25.93836 60.23,53.36c0.35446,2.79491 2.51607,5.0177 5.3,5.45z" id="Path 1" fill="#dcdddd" stroke="none"/><path d="M921.2179,422.77227c-0.86781,2.34015 -1.9004,4.61586 -3.09,6.81c-2.31122,-1.56002 -4.77363,-2.88336 -7.35,-3.95c0.39092,-1.39067 0.34201,-2.86822 -0.14,-4.23c-0.46,-1.44 -0.97,-2.86 -1.53,-4.26c4.27859,1.30504 8.35445,3.19993 12.11,5.63z" id="Path 1" fill="#231815" stroke="none"/><path d="M910.6379,421.40227c0.48201,1.36178 0.53092,2.83933 0.14,4.23c-2.37844,-0.98326 -4.84667,-1.73344 -7.37,-2.24c-0.72693,-2.34319 -1.60202,-4.63781 -2.62,-6.87c1.46056,-0.60186 3.07372,-0.72784 4.61,-0.36c1.26,0.28 2.49,0.6 3.71,1c0.56,1.38667 1.07,2.8 1.53,4.24z" id="Path 1" fill="#231815" stroke="none"/><path d="M903.4079,423.39227c2.52333,0.50656 4.99156,1.25674 7.37,2.24c-1.79,5.95 -12.15,7.34 -14.6,-0.24l-0.06,-0.18c-0.51713,-3.60729 1.37632,-7.13064 4.67,-8.69c1.01798,2.23219 1.89307,4.52681 2.62,6.87z" id="Path 1" fill="#231815" stroke="none"/><path d="M896.1779,425.39227c2.45,7.58 12.81,6.19 14.6,0.24c2.57637,1.06664 5.03878,2.38998 7.35,3.95c4.28788,2.89687 7.98953,6.57816 10.91,10.85c1.44209,-2.27545 2.74449,-4.63647 3.9,-7.07c6.59564,8.18474 10.36358,18.28521 10.74,28.79c0.69,20.88 -12.64,39.87 -32.06,47.09c-8,3 -16.31,2.89 -24.7,2.89h-98.43c-10.75,0 -21,-1.36 -30.78,-6.29c-13.56066,-7.00092 -23.74755,-19.14738 -28.28,-33.72h7.88c-1.74499,-4.81762 -2.72355,-9.87913 -2.9,-15c0,-0.61 0,-1.22 0,-1.83c0,-27.24973 22.09027,-49.34 49.34,-49.34c5.16333,0.01208 10.29382,0.82162 15.21,2.4c11.75326,-17.68769 32.1767,-27.60733 53.34535,-25.90976c21.16865,1.69756 39.7503,14.74512 48.53465,34.07976c-3.29368,1.55936 -5.18713,5.08271 -4.67,8.69c-5.81856,-17.78724 -20.80369,-31.03552 -39.17,-34.63c-19.75,-3.87 -40.3,5.07 -51.57,21.55c-1.85,2.71 -5.12,4.47 -8.47,3.45c-17.43,-5.32 -36.93,0.31 -47.46,15.64c-8.98501,12.7875 -10.09621,29.51596 -2.88152,43.37953c7.2147,13.86358 21.55301,22.552 37.18152,22.53047c4.6,0.05 9.2,0 13.79,0h90.45c6.28,0 12.35,0.2 18.41,-1.91c13.86,-4.83 22.77,-18.55 22.28,-33.07c-0.53,-15.74 -12.29,-28.21 -27.3,-31.53c-2.76095,-0.44423 -4.9078,-2.63979 -5.29,-5.41z" id="Path 1" fill="#231815" stroke="none"/><path d="M891.2179,343.42227c2.94,9.23 -11.54,13.15 -14.46,4c0,-0.07 -0.05,-0.14 -0.07,-0.21c-0.66,-4.68 3.17,-10.33 9.3,-9c1.25,0.27 2.5,0.58 3.74,0.92c0.53,1.4 1.03,2.83 1.49,4.29z" id="Path 1" fill="#231815" stroke="none"/><path d="M882.0379,352.64227c-2.78783,-0.42825 -4.95443,-2.65197 -5.31,-5.45c0,0.07 0.05,0.14 0.07,0.21c2.92,9.17 17.4,5.25 14.46,-4c-0.46,-1.46 -1,-2.89 -1.49,-4.32c5.05727,1.3803 9.94179,3.32941 14.56,5.81c23.64,12.76 38,39.69 35,66.43c-0.84905,7.63642 -2.98241,15.07447 -6.31,22c-3.32305,-4.13762 -7.29046,-7.71336 -11.75,-10.59c2.78207,-7.44041 3.88836,-15.40298 3.24,-23.32c-1.95,-23.31 -20.05,-41.94 -42.47,-46.77z" id="Path 1" fill="#231815" stroke="none"/><path d="M800.8979,401.11227c-1.64,-0.5 -3.29,-0.92 -4.94,-1.28c15.2514,-18.9737 39.6055,-28.16537 63.59,-24c22.65,3.87 41.21,20.28 49.56,41.28c-1.22,-0.38 -2.45,-0.7 -3.71,-1c-1.53628,-0.36784 -3.14944,-0.24186 -4.61,0.36c-8.78435,-19.33465 -27.366,-32.3822 -48.53465,-34.07976c-21.16865,-1.69756 -41.59209,8.22208 -53.34535,25.90976c-2.24169,-0.72989 -4.53472,-1.29145 -6.86,-1.68l0.38,-2.11z" id="Path 1" fill="#231815" stroke="none"/><path d="M800.8979,401.11227l-8.47,3.45c1.12,-1.64 2.29667,-3.21667 3.53,-4.73c1.65,0.36 3.3,0.78 4.94,1.28z" id="Path 1" fill="#231815" stroke="none"/><path d="M737.3079,472.12227h-7.88c-0.81031,-2.58903 -1.41879,-5.23696 -1.82,-7.92c-0.3508,-2.34515 -0.55786,-4.70957 -0.62,-7.08h7.42c0.17645,5.12087 1.15501,10.18238 2.9,15z" id="Path 1" fill="#231815" stroke="none"/><path d="M732.6279,316.10227l-8.47,3.44c1.11333,-1.64 2.27,-3.24667 3.47,-4.82c1.68,0.4 3.34,0.86 5,1.38z" id="Path 1" fill="#231815" stroke="none"/><path d="M876.6879,347.19227c-8.86775,-27.42552 -31.93667,-47.86696 -60.23,-53.37c-30.43,-5.9 -62.06,7.78 -79.35,33.28c-1.84,2.71 -5.14,4.49 -8.47,3.45c-7.02067,-2.2471 -14.35918,-3.34129 -21.73,-3.24c-35.48897,0.87504 -63.6918,30.09768 -63.3062,65.59535c0.38561,35.49766 29.21659,64.10076 64.7162,64.20465c6.22,0.06 12.44,0 18.67,0c0.06214,2.37043 0.2692,4.73485 0.62,7.08c0.40121,2.68304 1.00969,5.33097 1.82,7.92h-13.3c-14.32,0 -28,-1.36 -41.3,-7.38c-23.68,-10.72 -41.31,-33.75 -45.31,-59.46c-4.11,-26.39 4.81,-53.69 24.66,-71.83c19.85672,-18.0479 47.37548,-25.06528 73.45,-18.73c-1.2,1.57333 -2.35667,3.18 -3.47,4.82l8.47,-3.44c-1.66,-0.52 -3.32,-1 -5,-1.38c26.24947,-35.00536 73.34974,-46.97923 113.13,-28.76c22.84,10.2 40.34,29.88 49,53.14c-1.24,-0.34 -2.49,-0.65 -3.74,-0.92c-6.16,-1.35 -9.98,4.34 -9.33,9.02z" id="Path 1" fill="#231815" stroke="none"/><path d="M727.0379,457.12227c-0.54869,-16.59274 6.17549,-32.59783 18.41,-43.82c13.71305,-12.31063 32.48648,-17.32084 50.51,-13.48c-1.22667,1.50667 -2.40333,3.08333 -3.53,4.73l-0.38,2.11c-2.75692,-0.48376 -5.55097,-0.72468 -8.35,-0.72c-27.24973,0 -49.34,22.09027 -49.34,49.34c0,0.61 0,1.22 0,1.83h-7.32z" id="Path 1" fill="#231815" stroke="none"/><path d="M727.6279,314.72227c-26.07452,-6.33528 -53.59328,0.6821 -73.45,18.73c-19.85,18.14 -28.77,45.44 -24.66,71.83c4,25.71 21.63,48.74 45.31,59.46c13.28,6 27,7.38 41.3,7.38h13.3" id="Path 1" fill="none" stroke="#231815"/><path d="M727.6279,314.72227c1.68,0.4 3.34,0.86 5,1.38l-8.47,3.44c1.11333,-1.64 2.27,-3.24667 3.47,-4.82z" id="Path 1" fill="none" stroke="#231815"/><path d="M889.7279,339.10227c-8.63,-23.26 -26.13,-42.94 -49,-53.14c-39.77235,-18.20289 -86.85412,-6.23055 -113.1,28.76" id="Path 1" fill="none" stroke="#231815"/><path d="M876.6879,347.19227c0.35557,2.79803 2.52217,5.02175 5.31,5.45c22.46,4.83 40.56,23.46 42.46,46.81c0.64836,7.91702 -0.45793,15.87959 -3.24,23.32" id="Path 1" fill="none" stroke="#231815"/><path d="M932.9679,433.36227c3.32759,-6.92553 5.46095,-14.36358 6.31,-22c3,-26.74 -11.35,-53.67 -35,-66.43c-4.61821,-2.48059 -9.50273,-4.4297 -14.56,-5.81" id="Path 1" fill="none" stroke="#231815"/><path d="M876.6879,347.19227c0,0.07 0.05,0.14 0.07,0.21c2.92,9.17 17.4,5.25 14.46,-4c-0.46,-1.46 -1,-2.89 -1.49,-4.32c-1.24,-0.34 -2.49,-0.65 -3.74,-0.92c-6.13,-1.34 -9.95,4.35 -9.3,9.03z" id="Path 1" fill="none" stroke="#231815"/></g></g></g></g></g></g></svg>