<svg version="1.1" xmlns="http://www.w3.org/2000/svg" xmlns:xlink="http://www.w3.org/1999/xlink" width="624.19277" height="507.74795" viewBox="477,111.25205,624.19277,507.74795"><g id="document" fill-opacity="0" fill="#ffffff" fill-rule="nonzero" stroke-opacity="0.8" stroke="#000000" stroke-width="0" stroke-linecap="butt" stroke-linejoin="miter" stroke-miterlimit="10" stroke-dasharray="" stroke-dashoffset="0" font-family="none" font-weight="none" font-size="none" text-anchor="none" style="mix-blend-mode: normal"><rect x="725.2" y="119" transform="scale(0.71429,1)" width="700" height="500" id="Shape 1 1" vector-effect="non-scaling-stroke"/></g><g fill="none" fill-rule="nonzero" stroke="none" stroke-width="1" stroke-linecap="butt" stroke-linejoin="miter" stroke-miterlimit="10" stroke-dasharray="" stroke-dashoffset="0" font-family="none" font-weight="none" font-size="none" text-anchor="none" style="mix-blend-mode: normal"><g id="stage"><g id="layer1 1"><g id="Group 1"><g id="Group 1" fill="none"><rect x="519.19277" y="135.97597" width="582" height="402" id="Shape 1"/></g><g id="Group 1"><path d="M826.81277,285.50597c-0.39,-7.82 -11,-8.81 -14.14,-3l-1,-0.38c-0.15,-2.8 -0.46,-5.56 -0.88,-8.29c5.52776,1.80019 10.8373,4.21178 15.83,7.19c0.11,1.51 0.18,2.95 0.19,4.48z" id="Path 1" fill="#231815"/><path d="M811.82277,285.97597c0,-0.28 0,-0.56 0,-0.84c0.02588,-0.00915 0.05412,-0.00915 0.08,0c-0.04486,0.27797 -0.07158,0.55856 -0.08,0.84z" id="Path 1" fill="#231815"/><path d="M849.47277,381.31597c0,12.22758 -9.91242,22.14 -22.14,22.14h-111.39l19.63,-7.5h79.27c6.26,0 14.74,1.26 20.26,-2.23c3.50903,-2.23839 5.91247,-5.85173 6.62048,-9.95324c0.70801,-4.10151 -0.34496,-8.3115 -2.90048,-11.59676c-6.32,-8 -17.32,-6.58 -23.48,0.62c-4.14,4.81 -10.1,1.88 -12,-2.77l6.64,-2.54c5.86811,-7.35865 15.74721,-10.20296 24.62986,-7.09122c8.88265,3.11174 14.82705,11.49929 14.82014,20.91122z" id="Path 1" fill="#231815"/><path d="M724.19277,310.30597c-2.26328,-0.73553 -4.5671,-1.33987 -6.9,-1.81l0.42,-2c2.83333,-1.14 5.66,-2.29 8.48,-3.45l2,1.84c-1.41,1.76 -2.73,3.56 -4,5.42z" id="Path 1" fill="#231815"/><path d="M812.67277,282.52597c4.69216,1.86671 9.17924,4.21245 13.39,7c-0.40563,0.77369 -0.96749,1.45474 -1.65,2c-1.31,-0.84 -2.66,-1.63 -4,-2.38c-1,-0.56 -2.06,-1.09 -3.11,-1.59c-1.05,-0.5 -1.83,-0.87 -2.77,-1.28c-0.94,-0.41 -1.74,-0.73 -2.63,-1.07c0.07434,-0.93593 0.3362,-1.84734 0.77,-2.68z" id="Path 1" fill="#231815"/><path d="M649.83277,340.08597c0.8,-1.28 1.65,-2.54 2.56,-3.77l0.12,-0.15c-0.89,1.38 -1.71,2.79 -2.48,4.23z" id="Path 1" fill="#231815"/><path d="M806.19277,460.03597c8.53883,-0.00346 15.94513,5.89877 17.84747,14.22299c1.90234,8.32423 -2.20497,16.85766 -9.89767,20.56361c-7.6927,3.70595 -16.92587,1.59927 -22.24981,-5.07661l-5.87,-4.06c2.41,-3.67 7.51,-5.48 11.18,-1.24c4.35,5 11.55,6.58 16.63,1.52c4.17712,-4.23301 4.17712,-11.03699 0,-15.27c-4.44,-4.44 -12,-3.16 -17.73,-3.16h-36.32l-10.83,-7.51z" id="Path 1" fill="#231815"/><path d="M784.46277,410.97597h37.18c2.35,0 4.74,0.1 7.09,0c11.95283,-0.68635 22.35316,-8.41389 26.46,-19.66c4.64,-12.67 -0.37,-27.14 -11.46,-34.64c-12.35,-8.37 -29.43,-5.7 -39,5.54c-1.91762,2.13754 -2.44223,5.18419 -1.35,7.84c1.85,4.65 7.82,7.58 12,2.77c6.16,-7.2 17.15,-8.59 23.48,-0.62c2.55553,3.28526 3.60849,7.49525 2.90048,11.59676c-0.70801,4.10151 -3.11146,7.71485 -6.62048,9.95324c-5.51,3.49 -14,2.23 -20.26,2.23h-98.9c-9.65,0 -9.67,15 0,15zM759.14277,430.56597c-0.3754,-3.64454 -3.49763,-6.38303 -7.16,-6.28h-20.79c-3.65858,-0.0977 -6.77486,2.6394 -7.15,6.28h-11.85c-0.37001,-3.64065 -3.48175,-6.38194 -7.14,-6.29c-24.51,-0.28 -46.37,-16.61 -52.84,-40.4c-3.25328,-12.18067 -2.19336,-25.11167 3,-36.6c2.17109,-4.85851 5.02674,-9.38108 8.48,-13.43c4.00754,-4.70773 8.79376,-8.69231 14.15,-11.78c12.3582,-7.02072 26.95229,-8.99144 40.73,-5.5c1.24,0.29 2.48,0.64 3.7,1c3.34,1 6.62,-0.74 8.46,-3.46c14.65,-21.53 41.42,-33.14 67.15,-28.1c4.74945,0.93079 9.38343,2.37597 13.82,4.31c0.87,0.38 1.73,0.78 2.57,1.18c0.84,0.4 1.94,1 2.89,1.49c3.0667,1.67727 5.99881,3.58966 8.77,5.72c10.74849,8.28542 18.72158,19.64515 22.86,32.57c0.71038,2.54268 2.69732,4.52962 5.24,5.24c1.6163,0.34805 3.21208,0.78539 4.78,1.31c20,6.6 33.51,26.11 30.82,47.72c-2.75,22.09 -22,38.41 -44,38.7c-3.64219,-0.06307 -6.73269,2.659 -7.13,6.28z" id="CompoundPath 1" fill="#dcdddd"/><path d="M721.19277,301.75597c-1.22,1.54 -2.38667,3.12667 -3.5,4.76l-0.42,2c-21.28335,-4.27969 -43.25944,2.83223 -58,18.77c-1.32,-2.28 -2.52,-4.62 -3.61,-7c17.26849,-16.92268 41.9567,-23.90379 65.53,-18.53z" id="Path 1" fill="#231815"/><path d="M811.88277,285.21597c0.88,0.33 1.76,0.69 2.63,1.07c0.87,0.38 1.85,0.83 2.77,1.28c0.92,0.45 2.09,1 3.11,1.59c1.37,0.75 2.71,1.54 4,2.38c-2.06233,1.61321 -4.77106,2.14455 -7.29,1.43c-0.95,-0.52 -1.91,-1 -2.89,-1.49c-1.57783,-1.3692 -2.46165,-3.37156 -2.41,-5.46c0.01011,-0.26806 0.03683,-0.53524 0.08,-0.8z" id="Path 1" fill="#231815"/><path d="M731.19277,431.74597h-7.25c0.00056,-0.40869 0.034,-0.81667 0.1,-1.22h103.58c0.05727,0.40419 0.08734,0.81178 0.09,1.22z" id="Path 1" fill="#231815"/><path d="M863.26277,327.29597l-5.23,-5.23c1.26,0.27 2.5,0.6 3.73,0.95c0.53,1.41 1.03,2.83 1.5,4.28z" id="Path 1" fill="#231815"/><path d="M854.41277,330.19597c-4.48952,-13.84411 -13.06582,-26.00432 -24.6,-34.88c-1.08,-0.83 -2.18,-1.63 -3.31,-2.39c0.08667,-1 0.15,-2 0.19,-3c13.97363,9.39488 24.31825,23.28179 29.32,39.36c18.17426,3.71676 32.97359,16.86833 38.8,34.48c-6.53654,-14.20626 -19.40877,-24.48254 -34.71,-27.71c-0.21333,-0.04 -0.43,-0.09333 -0.65,-0.16c-2.69129,-0.68445 -4.69023,-2.94515 -5.04,-5.7z" id="Path 1" fill="#231815"/><path d="M826.51277,292.97597c-0.66667,-0.47333 -1.36667,-0.93667 -2.1,-1.39c0.68251,-0.54526 1.24437,-1.22631 1.65,-2l0.65,0.43c-0.04667,0.94 -0.11333,1.92667 -0.2,2.96z" id="Path 1" fill="#231815"/><path d="M817.12277,292.97597c2.51894,0.71455 5.22767,0.18321 7.29,-1.43c0.71333,0.45333 1.41333,0.91667 2.1,1.39c-0.15,1.93 -0.36,3.86 -0.62,5.76c-2.77119,-2.13034 -5.7033,-4.04273 -8.77,-5.72z" id="Path 1" fill="#231815"/><path d="M811.69277,282.14597l1,0.38c-0.44552,0.83347 -0.71766,1.74852 -0.8,2.69c-0.02588,-0.00915 -0.05412,-0.00915 -0.08,0c-0.02,-1.04 -0.06,-2.07 -0.12,-3.07z" id="Path 1" fill="#231815"/><path d="M699.69277,430.53597c4.16,0 8.32,0 12.49,0c0.06602,0.39996 0.09947,0.80463 0.1,1.21h-7.24c-6.2342,0.00378 -12.43352,-0.92999 -18.39,-2.77c4.27728,0.99108 8.64964,1.51416 13.04,1.56z" id="Path 1" fill="#231815"/><path d="M645.52277,333.13597c2.87259,-4.6913 6.30439,-9.01631 10.22,-12.88c1.09,2.39 2.28,4.73 3.61,7c-2.5457,2.74908 -4.8352,5.72475 -6.84,8.89l-0.12,0.15c-0.92,1.23 -1.77,2.49 -2.56,3.77c-0.92667,-1.33333 -1.81,-2.69333 -2.65,-4.08c-0.57,-0.93 -1.12,-1.89 -1.66,-2.85z" id="Path 1" fill="#231815"/><path d="M826.82277,285.97597v0.08c0,0.14 0,0.27 0,0.41v0.1c-0.05242,1.00407 -0.30755,1.98715 -0.75,2.89c-4.21076,-2.78755 -8.69784,-5.13329 -13.39,-7c3.1,-5.83 13.75,-4.84 14.14,3c0,0.22 0,0.4 0,0.52z" id="Path 1" fill="#231815"/><path d="M645.90277,347.50597c-7.80604,17.68519 -6.54975,38.05787 3.37,54.65c8.31751,13.62978 21.80417,23.3064 37.38,26.82c5.95648,1.84001 12.1558,2.77378 18.39,2.77h7.24c0,3.78 -2.38,7.56 -7.24,7.51c-17.56927,-0.12434 -34.46845,-6.75859 -47.43,-18.62c-23.28,-21.42 -28.82,-57.14 -13.65,-84.78c0.5,-0.93 1,-1.82 1.56,-2.71c0.54,1 1.09,1.92 1.66,2.86c0.84,1.38667 1.72333,2.74667 2.65,4.08c-1.48883,2.3744 -2.80232,4.85432 -3.93,7.42z" id="Path 1" fill="#231815"/><path d="M663.65277,333.81597c-3.44621,4.05018 -6.29509,8.57269 -8.46,13.43c-1.8,-2.2 -3.52,-4.48 -5.14,-6.85c0.76,-1.44 1.58,-2.85 2.48,-4.23c0.8,-1.08 1.65,-2.11 2.51,-3.11c1.50305,-1.76354 3.11273,-3.43333 4.82,-5c1.16,2 2.43,3.92 3.79,5.76z" id="Path 1" fill="#231815"/><path d="M663.65277,333.81597c-1.36,-1.86 -2.63,-3.76 -3.8,-5.72c15.54,-14.12 37.86,-18.79 58.34,-12.48l0.53,0.14l-0.19,0.78c-13.77771,-3.49144 -28.3718,-1.52072 -40.73,5.5c-5.35624,3.08769 -10.14246,7.07227 -14.15,11.78z" id="Path 1" fill="#231815"/><path d="M642.80277,369.51597c-0.0074,-10.15305 2.47874,-20.15256 7.24,-29.12c1.62,2.37 3.34,4.65 5.14,6.85c-5.19336,11.48833 -6.25328,24.41933 -3,36.6c6.47,23.8 28.33,40.12 52.84,40.4c3.65825,-0.09194 6.76999,2.64935 7.14,6.29c-4.17,0 -8.34,0 -12.49,0c-4.37661,-0.04545 -8.7354,-0.56515 -13,-1.55c-26.081,-8.06005 -43.86795,-32.17196 -43.87,-59.47z" id="Path 1" fill="#231815"/><path d="M861.24277,429.36597c-6.4,1.26 -12.86,1.16 -19.5,1.16h-3.19c0.39731,-3.621 3.48781,-6.34307 7.13,-6.28c22,-0.29 41.21,-16.62 44,-38.7c2.69,-21.6 -10.87,-41.12 -30.82,-47.72l0.66,-1.94c0.21333,0.06667 0.43,0.12 0.65,0.16c15.30123,3.22746 28.17346,13.50374 34.71,27.71c4.3355,13.1519 3.2233,27.49231 -3.08822,39.81846c-6.31151,12.32615 -17.29657,21.61123 -30.50178,25.78154z" id="Path 1" fill="#231815"/><path d="M731.19277,431.74597h96.51c0,3.75 -2.41,7.51 -7.25,7.51h-89.26c-4.84,0 -7.25,-3.76 -7.25,-7.51z" id="Path 1" fill="#231815"/><path d="M718.72277,315.75597c3.4,0.78 6.7,-1.07 8.59,-3.84c15.77,-23.2 44.6,-35.69 72.31,-30.26c4.15643,0.81405 8.23241,1.99535 12.18,3.53c0,0.28 0,0.56 0,0.84c0,1.43 -0.08,2.85 -0.16,4.28c-4.42617,-1.93881 -9.05,-3.39067 -13.79,-4.33c-25.74,-5 -52.51,6.57 -67.15,28.1c-1.84,2.71 -5.13,4.48 -8.46,3.46c-1.23,-0.38 -2.47,-0.72 -3.7,-1z" id="Path 1" fill="#231815"/><path d="M826.06277,289.49597c0.44245,-0.90285 0.69758,-1.88593 0.75,-2.89c0,1.11 -0.05,2.22 -0.11,3.32z" id="Path 1" fill="#231815"/><path d="M861.24277,429.36597c-5.03432,1.5849 -10.2821,2.38758 -15.56,2.38h-7.24c0.00391,-0.40896 0.0407,-0.81694 0.11,-1.22h3.19c6.64,0.01 13.11,0.1 19.5,-1.16z" id="Path 1" fill="#231815"/><path d="M845.68277,431.74597c5.2779,0.00758 10.52568,-0.7951 15.56,-2.38c2.42787,-0.45453 4.81057,-1.12383 7.12,-2c19.36,-7.41 31.47,-27 30.35,-47.57c-0.30495,-5.52559 -1.62001,-10.94851 -3.88,-16c-5.82641,-17.61167 -20.62574,-30.76324 -38.8,-34.48c-5.00175,-16.07821 -15.34637,-29.96512 -29.32,-39.36c0.05,-1.1 0.1,-2.21 0.11,-3.32v-0.1c0,-0.13 0,-0.27 0,-0.41v-0.15c0,-0.17 0,-0.34 0,-0.52c0,-1.49 -0.09,-3 -0.17,-4.46c16.08013,9.66891 28.44511,24.4604 35.11,42c-1.23,-0.34 -2.47,-0.68 -3.73,-0.95l5.23,5.23c-0.46,-1.44 -1,-2.86 -1.51,-4.29c27.43,7.88 46.27,35.15 42.73,63.9c-3.77461,29.68643 -28.87623,52.03455 -58.8,52.35c-4.87,0.06 -7.28,-3.73 -7.24,-7.51z" id="Path 1" fill="#231815"/><path d="M642.80277,369.51597c0.00373,27.2889 17.78044,51.39388 43.85,59.46c-15.57583,-3.5136 -29.06249,-13.19022 -37.38,-26.82c-9.91975,-16.59213 -11.17604,-36.96481 -3.37,-54.65c1.12768,-2.56568 2.44117,-5.0456 3.93,-7.42l0.2,0.31c-4.75779,8.96833 -7.24048,18.96779 -7.23,29.12z" id="Path 1" fill="#231815"/><path d="M827.33277,403.45597c10.31492,-0.02099 19.24872,-7.16236 21.54122,-17.21932c2.29251,-10.05696 -2.66375,-20.3646 -11.95056,-24.85384c-9.2868,-4.48924 -20.44333,-1.97052 -26.90067,6.07316l-6.64,2.54c-1.09223,-2.65581 -0.56762,-5.70246 1.35,-7.84c9.61,-11.23 26.68,-13.9 39,-5.54c11.09,7.51 16.1,22 11.46,34.64c-4.13023,11.23215 -14.54103,18.93511 -26.49,19.6c-2.35,0.14 -4.74,0 -7.09,0h-105.67c-9.67,0 -9.65,-15 0,-15h19.63l-19.63,7.5z" id="Path 1" fill="#231815"/><path d="M861.24277,429.36597c13.20521,-4.17031 24.19027,-13.45539 30.50178,-25.78154c6.31151,-12.32615 7.42372,-26.66655 3.08822,-39.81846c2.25999,5.05149 3.57505,10.47441 3.88,16c1.12,20.53 -11,40.16 -30.35,47.57c-2.30847,0.88638 -4.69118,1.56573 -7.12,2.03z" id="Path 1" fill="#231815"/><path d="M811.66277,290.29597c0.09,-1.42 0.15,-2.84 0.16,-4.28c-0.05165,2.08844 0.83217,4.0908 2.41,5.46c-0.83,-0.4 -1.7,-0.8 -2.57,-1.18z" id="Path 1" fill="#231815"/><path d="M659.84277,328.09597c-1.70727,1.56667 -3.31695,3.23646 -4.82,5c-0.86,1 -1.71,2 -2.51,3.11c2.0048,-3.16525 4.2943,-6.14092 6.84,-8.89z" id="Path 1" fill="#231815"/><path d="M820.46277,424.25597c3.66237,-0.10303 6.7846,2.63546 7.16,6.28h-103.57c0.37514,-3.6406 3.49142,-6.3777 7.15,-6.28z" id="Path 1" fill="#231815"/><path d="M824.44277,478.33597c0,-10.10681 -8.19319,-18.3 -18.3,-18.3h-57.2l10.83,7.51h-10.82c-9.67,0 -9.65,-15 0,-15h48.63c7.33,0 14.52,-0.41 21.21,3.31c13.48,7.47 17.13,25.88 7.86,38c-4.76384,6.12904 -12.0171,9.80888 -19.77654,10.03334c-7.75944,0.22446 -15.21329,-3.02993 -20.32346,-8.87334c-2.3482,-2.60976 -2.58454,-6.49484 -0.57,-9.37l5.87,4.06c4.85043,6.07403 13.00874,8.42116 20.34542,5.85333c7.33667,-2.56784 12.25064,-9.49027 12.25458,-17.26333z" id="Path 1" fill="#231815"/><path d="M721.19277,301.75597c1.66,0.38 3.33,0.81 5,1.31c-2.82,1.15333 -5.64667,2.30333 -8.48,3.45c1.14,-1.63333 2.3,-3.22 3.48,-4.76z" id="Path 1" fill="#231815"/><path d="M810.81277,273.85597c0.42,2.74 0.73,5.49 0.88,8.29c-29.82901,-11.25989 -63.51621,-2.07357 -83.5,22.77l-2,-1.84c-1.65,-0.51 -3.32,-0.94 -5,-1.31c18.71392,-24.05548 49.19672,-35.78911 79.21,-30.49c3.52515,0.61983 7.00339,1.48187 10.41,2.58z" id="Path 1" fill="#231815"/><path d="M717.32277,308.49597c2.3329,0.47013 4.63672,1.07447 6.9,1.81c1.24,-1.86 2.56,-3.66 4,-5.4c19.98679,-24.85243 53.68528,-34.03962 83.52,-22.77c0.05,1 0.1,2 0.11,3c-3.94759,-1.53465 -8.02357,-2.71595 -12.18,-3.53c-27.71,-5.43 -56.55,7.06 -72.31,30.26c-1.9,2.78 -5.19,4.62 -8.59,3.84l-0.53,-0.14c-20.48,-6.31 -42.8,-1.68 -58.35,12.48l-0.5,-0.83c14.74056,-15.93777 36.71665,-23.04969 58,-18.77z" id="Path 1" fill="#231815"/><path d="M826.81277,286.50597c0,-0.14 0,-0.27 0,-0.41c0.01,0.14 0.01,0.28 0,0.41z" id="Path 1" fill="#231815"/><path d="M859.48277,335.89597l-0.66,1.94c-1.56792,-0.52461 -3.1637,-0.96195 -4.78,-1.31c-2.54268,-0.71038 -4.52962,-2.69732 -5.24,-5.24c-4.14833,-12.93859 -12.1397,-24.3065 -22.91,-32.59c0.27,-1.91 0.47,-3.83 0.62,-5.76c1.13,0.76 2.23,1.56 3.31,2.39c11.53418,8.87568 20.11048,21.03589 24.6,34.88c0.35649,2.75656 2.36395,5.01396 5.06,5.69z" id="Path 1" fill="#231815"/></g></g><g id="Group 1"><g id="Group 1" fill="none"><rect x="477" y="111.25205" width="582" height="402" id="Shape 1"/></g><g id="Group 1" fill="#1f3caf"><path d="M769.87,508.48205c1.46,3.8 -1.62,8.23 -5.24,9.22c-4.18,1.15 -7.77,-1.46 -9.22,-5.23l-7.41,-19.22c-1.46,-3.8 1.62,-8.23 5.24,-9.22c4.18,-1.15 7.77,1.46 9.22,5.24z" id="Path 1"/><path d="M731.91,508.48205c1.46,3.8 -1.63,8.23 -5.24,9.22c-4.18,1.15 -7.78,-1.46 -9.23,-5.23c-2.44667,-6.4 -4.90333,-12.80333 -7.37,-19.21c-1.46,-3.8 1.62,-8.23 5.24,-9.22c4.18,-1.15 7.77,1.46 9.22,5.24z" id="Path 1"/></g></g></g></g></g></svg>