<?xml version="1.0"?>
<svg width="500" height="500" xmlns="http://www.w3.org/2000/svg" xmlns:svg="http://www.w3.org/2000/svg" xmlns:xlink="http://www.w3.org/1999/xlink">
 <title/>
 <defs>
  <symbol height="500" id="svg_20" width="500" xmlns="http://www.w3.org/2000/svg">
   <title/>
   <g>
    <title>background</title>
    <rect fill="none" height="402" id="svg_19" width="582" x="-1" y="-1"/>
   </g>
   <g>
    <title>Layer 1</title>
    <path class="cls-2" d="m336.08,375.24l-17.36,0l0,-7.34l3,-1.73c0.77,0.4 1.51,0.79 2.18,1.18l8.45,4.91a7.42,7.42 0 0 0 3.73,1.07l0,1.91z" fill="#ffffff" id="svg_18"/>
    <path class="cls-2" d="m250.05,372.26l8.44,-4.91c0.66,-0.38 1.41,-0.77 2.19,-1.18l3.19,1.85l0,7.22l-17.56,0l0,-1.91a7.38,7.38 0 0 0 3.74,-1.07z" fill="#ffffff" id="svg_17"/>
    <path class="cls-3" d="m334.05,341.73c8.38,-4.84 15.92,8.13 7.57,12.95l-4.85,2.8l3.15,1.82c7.07,4.11 2.73,14 -3.84,14a7.42,7.42 0 0 1 -3.73,-1.07l-8.45,-4.91c-0.67,-0.39 -1.41,-0.78 -2.18,-1.18l-3,1.73l0,7.34l-15,0l0,-7.31q-2.52,-1.44 -5,-2.9l-2.48,-1.43l-4.92,-2.84l-0.1,0.06l-4.92,2.84l-2.58,1.49l-4.83,2.78l0,7.34l-15,0l0,-7.24l-3.19,-1.85c-0.78,0.41 -1.53,0.8 -2.19,1.18l-8.44,4.91a7.38,7.38 0 0 1 -3.74,1.07c-6.58,0 -10.9,-9.92 -3.84,-14l3.15,-1.82l-4.84,-2.8c-8.37,-4.83 -0.81,-17.79 7.57,-12.95l4.77,2.76c0,-1.2 0,-2.4 0,-3.6c0,-9.67 15,-9.65 15,0l0,9.77c0,0.78 0,1.64 0.07,2.51l3.1,1.8l7.56,-4.36c1.41,-0.82 3.09,-2 4.87,-3.11l0,-3.28c-0.77,-0.48 -1.5,-0.95 -2.19,-1.34l-8.55,-4.89c-8.38,-4.8 -0.82,-17.76 7.57,-12.95l3.09,1.77l0,-5.32a7.12,7.12 0 0 1 8.46,-7.19a7,7 0 0 1 6.54,7.19l0,5.32l3.08,-1.77c8.4,-4.81 15.94,8.15 7.57,12.95l-8.47,4.87c-0.69,0.39 -1.42,0.86 -2.18,1.34l0,3.13c2,1.22 3.91,2.59 5.49,3.5l7,4.06l3,-1.73c0,-0.9 0.07,-1.76 0.07,-2.52l0,-9.77c0,-9.67 15,-9.65 15,0c0,1.2 0,2.4 0,3.59l4.83,-2.74z" fill="#1f3caf" id="svg_16"/>
    <path class="cls-3" d="m341.42,394.29041c8.37,4.83 0.8,17.79 -7.57,13l-4.58,-2.65c0,1.2 0,2.4 0,3.6c0,9.67 -15,9.65 -15,0l0,-9.77c0,-0.78 0,-1.64 -0.07,-2.51l-3.1,-1.8l-7.36,4.25c-1.47,0.85 -3.22,2.09 -5.06,3.23l0,3.19c0.76,0.48 1.5,0.95 2.18,1.34l8.47,4.87c8.38,4.8 0.82,17.76 -7.57,12.95l-3.08,-1.77l0,5.61c0,9.67 -15,9.65 -15,0l0,-5.55l-3.09,1.77c-8.39,4.81 -15.94,-8.15 -7.57,-12.95l8.47,-4.87c0.69,-0.39 1.42,-0.86 2.19,-1.34l0,-3.36c-1.94,-1.2 -3.77,-2.5 -5.3,-3.39l-7,-4.05l-3.19,1.84c0,0.9 -0.08,1.75 -0.08,2.52l0,9.77c0,9.67 -15,9.65 -15,0c0,-1.2 0,-2.4 0,-3.6l-4.57,2.65c-8.39,4.84 -15.93,-8.13 -7.58,-13l4.65,-2.68l-3.14,-1.76c-7.07,-4.11 -2.73,-14 3.84,-14a7.45,7.45 0 0 1 3.74,1.07l8.44,4.91c0.67,0.39 1.42,0.78 2.18,1.18l3.2,-1.85l0,-7l15,0l0,7l4.83,2.69l2.68,1.54l4.82,2.79l0.1,0.06l4.82,-2.79l2.58,-1.49l4.92,-2.84l0.1,-0.06l0,-7l15,0l0,7.12l3,1.73c0.78,-0.41 1.53,-0.8 2.18,-1.18l8.45,-4.91a7.35,7.35 0 0 1 3.74,-1.07c6.57,0 10.89,9.92 3.83,14l-3.15,1.82l4.65,2.74z" fill="#1f3caf" id="svg_15"/>
   </g>
  </symbol>
 </defs>
 <g class="layer">
  <title>background</title>
  <rect fill="none" height="402" id="canvas_background" width="582" x="-1" y="-1"/>
 </g>
 <g class="layer">
  <title>Layer 1</title>
  <path class="cls-1" d="m324.57,347.22a51.75,51.75 0 0 0 10.34,-102.46a73.71,73.71 0 0 0 -131.81,-19a62.24,62.24 0 1 0 -19.18,121.44" fill="#ffffff" id="svg_1"/>
  <path class="cls-2" d="m324.57,354.72a59.9,59.9 0 0 0 58.79,-52.34c3.7,-30 -17,-58.47 -46.46,-64.86l5.24,5.24c-9.07,-28.39 -33.17,-50.81 -62.81,-56a82.4,82.4 0 0 0 -82.71,35.24l8.47,-3.45c-31.4,-9.69 -66.35,3.77 -82.26,32.77c-15.16,27.65 -9.62,63.37 13.66,84.79a70.91,70.91 0 0 0 47.42,18.61c9.66,0.11 9.66,-14.89 0,-15c-24.5,-0.27 -46.36,-16.6 -52.84,-40.4a55.22,55.22 0 0 1 25.59,-61.82c13.58,-7.83 29.54,-9.09 44.43,-4.49c3.34,1 6.63,-0.74 8.47,-3.45c14.64,-21.54 41.42,-33.14 67.15,-28.1a67.05,67.05 0 0 1 50.95,45.29a7.54,7.54 0 0 0 5.24,5.24c22.53,4.89 38.5,25.75 35.61,49c-2.74,22.09 -22,38.41 -44,38.7c-9.64,0.13 -9.67,15.13 0,15l0.06,0.03z" fill="#231815" id="svg_2"/>
  <line class="cls-3" fill="#2ea7e0" id="svg_3" x1="211.97" x2="204.6" y1="336.26" y2="317.06"/>
  <path class="cls-3" d="m219.2,334.27l-7.37,-19.2c-1.45,-3.78 -5,-6.39 -9.23,-5.24c-3.61,1 -6.7,5.42 -5.24,9.23l7.37,19.2c1.45,3.78 5,6.39 9.23,5.24c3.61,-1 6.7,-5.42 5.24,-9.23z" fill="#1f3caf" id="svg_4"/>
  <line class="cls-3" fill="#2ea7e0" id="svg_5" x1="228.44" x2="221.06" y1="379.14" y2="359.94"/>
  <path class="cls-3" d="m235.67,377.15l-7.37,-19.2c-1.45,-3.78 -5,-6.39 -9.23,-5.24c-3.61,1 -6.7,5.42 -5.24,9.23l7.37,19.2c1.45,3.78 5,6.39 9.23,5.24c3.61,-1 6.7,-5.42 5.24,-9.23z" fill="#1f3caf" id="svg_6"/>
  <line class="cls-3" fill="#2ea7e0" id="svg_7" x1="249.93" x2="242.56" y1="336.26" y2="317.06"/>
  <path class="cls-3" d="m257.16,334.27l-7.37,-19.2c-1.45,-3.78 -5,-6.39 -9.23,-5.24c-3.61,1 -6.7,5.42 -5.24,9.23l7.37,19.2c1.45,3.78 5,6.39 9.23,5.24c3.61,-1 6.7,-5.42 5.24,-9.23z" fill="#1f3caf" id="svg_8"/>
  <line class="cls-3" fill="#2ea7e0" id="svg_9" x1="266.4" x2="259.02" y1="379.14" y2="359.94"/>
  <path class="cls-3" d="m273.63,377.15l-7.37,-19.2c-1.45,-3.78 -5,-6.39 -9.23,-5.24c-3.61,1 -6.7,5.42 -5.24,9.23l7.37,19.2c1.45,3.78 5,6.39 9.23,5.24c3.61,-1 6.7,-5.42 5.24,-9.23z" fill="#1f3caf" id="svg_10"/>
  <line class="cls-3" fill="#2ea7e0" id="svg_11" x1="287.89" x2="280.52" y1="336.26" y2="317.06"/>
  <path class="cls-3" d="m294.18015,334.27l-7.37,-19.2c-1.45,-3.78 -5,-6.39 -9.23,-5.24c-3.61,1 -6.7,5.42 -5.24,9.23l7.37,19.2c1.45,3.78 5,6.39 9.23,5.24c3.61,-1 6.7,-5.42 5.24,-9.23z" fill="#1f3caf" id="svg_12"/>
  <line class="cls-3" fill="#2ea7e0" id="svg_13" x1="304.36" x2="296.99" y1="379.14" y2="359.94"/>
  <path class="cls-3" d="m311.59,377.15l-7.37,-19.2c-1.45,-3.78 -5,-6.39 -9.23,-5.24c-3.61,1 -6.7,5.42 -5.24,9.23l7.37,19.2c1.45,3.78 5,6.39 9.23,5.24c3.61,-1 6.7,-5.42 5.24,-9.23z" fill="#1f3caf" id="svg_14"/>
  <use id="svg_21" transform="matrix(0.612748 0 0 0.612748 -218.058 -204.612)" x="667.529822" xlink:href="#svg_20" y="616.208866"/>
  <g id="svg_22"/>
  <use id="svg_23" transform="matrix(0.665539 0 0 0.665539 -513.011 -626.236)" x="708.622874" xlink:href="#svg_20" y="803.683294"/>
 </g>
</svg>