<svg version="1.1" xmlns="http://www.w3.org/2000/svg" xmlns:xlink="http://www.w3.org/1999/xlink" width="549.00198" height="531.19998" viewBox="478.70595,87.80002,549.00198,531.19998"><defs><clipPath id="clip-1"><rect x="478.70595" y="87.80002" width="500" height="500" id="clip-1" fill="none" stroke="none"/></clipPath></defs><g id="document" fill-opacity="0" fill="#ffffff" fill-rule="nonzero" stroke-opacity="0.8" stroke="#000000" stroke-width="0" stroke-linecap="butt" stroke-linejoin="miter" stroke-miterlimit="10" stroke-dasharray="" stroke-dashoffset="0" font-family="none" font-weight="none" font-size="none" text-anchor="none" style="mix-blend-mode: normal"><rect x="725.2" y="119" transform="scale(0.71429,1)" width="700" height="500" id="Shape 1 1" vector-effect="non-scaling-stroke"/></g><g fill="none" fill-rule="nonzero" stroke="none" stroke-width="1" stroke-linecap="butt" stroke-linejoin="miter" stroke-miterlimit="10" stroke-dasharray="" stroke-dashoffset="0" font-family="none" font-weight="none" font-size="none" text-anchor="none" style="mix-blend-mode: normal"><g><g id="stage"><g id="layer1 1"><g id="Group 1" stroke="none"><g id="Group 1" fill="none"><rect x="1023.95574" y="518.86338" transform="scale(0.58763,0.58763)" width="582" height="402" id="Shape 1"/></g><g id="Group 1"><path d="M799.78389,525.98859h-10.20124v-4.3132l1.76289,-1.0166c0.45247,0.23505 0.88732,0.46423 1.28103,0.6934l4.96546,2.88526c0.66191,0.40031 1.4184,0.61731 2.19186,0.62876z" id="Path 1" fill="#ffffff"/><path d="M749.23019,524.23745l4.95959,-2.88526c0.38784,-0.2233 0.82856,-0.45247 1.28691,-0.6934l1.87454,1.08711v4.24268h-10.31876v-1.12237c0.77563,-0.00927 1.53457,-0.2264 2.19773,-0.62876z" id="Path 1" fill="#ffffff"/><path d="M798.59101,506.29715c4.92433,-2.84412 9.35505,4.77742 4.44835,7.60979l-2.85,1.64536l1.85103,1.06948c4.15454,2.41515 1.60423,8.2268 -2.25649,8.2268c-0.77346,-0.01145 -1.52995,-0.22846 -2.19186,-0.62876l-4.96546,-2.88526c-0.39371,-0.22918 -0.82856,-0.45835 -1.28103,-0.6934l-1.76289,1.0166v4.3132h-8.81443v-4.29557c-0.98722,-0.56412 -1.9666,-1.13216 -2.93814,-1.70412l-1.45732,-0.84031l-2.89113,-1.66887l-0.05876,0.03526l-2.89113,1.66887l-1.51608,0.87557l-2.83825,1.63361v4.3132h-8.81443v-4.25443l-1.87454,-1.08711c-0.45835,0.24093 -0.89907,0.4701 -1.28691,0.6934l-4.95959,2.88526c-0.66316,0.40236 -1.42211,0.61949 -2.19773,0.62876c-3.8666,0 -6.40515,-5.82928 -2.25649,-8.2268l1.85103,-1.06948l-2.84412,-1.64536c-4.91845,-2.83825 -0.47598,-10.45392 4.44835,-7.60979l2.80299,1.62186c0,-0.70515 0,-1.41031 0,-2.11546c0,-5.68237 8.81443,-5.67062 8.81443,0v5.74113c0,0.45835 0,0.96371 0.04113,1.47495l1.82165,1.05773l4.44247,-2.56206c0.82856,-0.48186 1.81577,-1.17526 2.86175,-1.82753v-1.92742c-0.45247,-0.28206 -0.88144,-0.55825 -1.28691,-0.78742l-5.02423,-2.87351c-4.92433,-2.82062 -0.48186,-10.43629 4.44835,-7.60979l1.81577,1.0401v-3.12619c-0.03522,-1.26772 0.50646,-2.483 1.47281,-3.30429c0.96636,-0.82129 2.25307,-1.15993 3.49853,-0.92077c2.20935,0.14455 3.90791,2.01193 3.84309,4.22505v3.12619l1.8099,-1.0401c4.93608,-2.82649 9.3668,4.78918 4.44835,7.60979l-4.97722,2.86175c-0.40546,0.22918 -0.83443,0.50536 -1.28103,0.78742v1.83928c1.17526,0.71691 2.29763,1.52196 3.22608,2.0567l4.1134,2.38577l1.76289,-1.0166c0,-0.52887 0.04113,-1.03423 0.04113,-1.48082v-5.74113c0,-5.68237 8.81443,-5.67062 8.81443,0c0,0.70515 0,1.41031 0,2.10959z" id="Path 1" fill="#1f3caf"/><path d="M802.92183,537.18316c4.91845,2.83825 0.4701,10.45392 -4.44835,7.63918l-2.69134,-1.55722c0,0.70515 0,1.41031 0,2.11546c0,5.68237 -8.81443,5.67062 -8.81443,0v-5.74113c0,-0.45835 0,-0.96371 -0.04113,-1.47495l-1.82165,-1.05773l-4.32495,2.49742c-0.86381,0.49948 -1.89216,1.22814 -2.9734,1.89804v1.87454c0.4466,0.28206 0.88144,0.55825 1.28103,0.78742l4.97722,2.86175c4.92433,2.82062 0.48186,10.43629 -4.44835,7.60979l-1.8099,-1.0401v3.2966c0,5.68237 -8.81443,5.67062 -8.81443,0v-3.26134l-1.81577,1.0401c-4.93021,2.82649 -9.3668,-4.78918 -4.44835,-7.60979l4.97722,-2.86175c0.40546,-0.22918 0.83443,-0.50536 1.28691,-0.78742v-1.97443c-1.14,-0.70515 -2.21536,-1.46907 -3.11443,-1.99206l-4.1134,-2.3799l-1.87454,1.08124c0,0.52887 -0.04701,1.02835 -0.04701,1.48082v5.74113c0,5.68237 -8.81443,5.67062 -8.81443,0c0,-0.70515 0,-1.41031 0,-2.11546l-2.68546,1.55722c-4.93021,2.84412 -9.36093,-4.77742 -4.45423,-7.63918l2.73247,-1.57485l-1.84515,-1.03423c-4.15454,-2.41515 -1.60423,-8.2268 2.25649,-8.2268c0.77533,0.01125 1.53377,0.22824 2.19773,0.62876l4.95959,2.88526c0.39371,0.22918 0.83443,0.45835 1.28103,0.6934l1.88041,-1.08711v-4.1134h8.81443v4.1134l2.83825,1.58072l1.57485,0.90495l2.83237,1.63948l0.05876,0.03526l2.83237,-1.63948l1.51608,-0.87557l2.89113,-1.66887l0.05876,-0.03526v-4.1134h8.81443v4.18392l1.76289,1.0166c0.45835,-0.24093 0.89907,-0.4701 1.28103,-0.6934l4.96546,-2.88526c0.66281,-0.40316 1.42198,-0.62036 2.19773,-0.62876c3.86072,0 6.39928,5.82928 2.25062,8.2268l-1.85103,1.06948z" id="Path 1" fill="#1f3caf"/></g></g><g id="Group 1" stroke="none"><g id="Group 1 1" fill="none"><rect x="1166.90311" y="518.86338" transform="scale(0.58763,0.58763)" width="582" height="402" id="Shape 1 1"/></g><g id="Group 1 1"><path d="M883.78389,525.98859h-10.20124v-4.3132l1.76289,-1.0166c0.45247,0.23505 0.88732,0.46423 1.28103,0.6934l4.96546,2.88526c0.66191,0.40031 1.4184,0.61731 2.19186,0.62876z" id="Path 1 1" fill="#ffffff"/><path d="M833.23019,524.23745l4.95959,-2.88526c0.38784,-0.2233 0.82856,-0.45247 1.28691,-0.6934l1.87454,1.08711v4.24268h-10.31876v-1.12237c0.77563,-0.00927 1.53457,-0.2264 2.19773,-0.62876z" id="Path 1 1" fill="#ffffff"/><path d="M882.59101,506.29715c4.92433,-2.84412 9.35505,4.77742 4.44835,7.60979l-2.85,1.64536l1.85103,1.06948c4.15454,2.41515 1.60423,8.2268 -2.25649,8.2268c-0.77346,-0.01145 -1.52995,-0.22846 -2.19186,-0.62876l-4.96546,-2.88526c-0.39371,-0.22918 -0.82856,-0.45835 -1.28103,-0.6934l-1.76289,1.0166v4.3132h-8.81443v-4.29557c-0.98722,-0.56412 -1.9666,-1.13216 -2.93814,-1.70412l-1.45732,-0.84031l-2.89113,-1.66887l-0.05876,0.03526l-2.89113,1.66887l-1.51608,0.87557l-2.83825,1.63361v4.3132h-8.81443v-4.25443l-1.87454,-1.08711c-0.45835,0.24093 -0.89907,0.4701 -1.28691,0.6934l-4.95959,2.88526c-0.66316,0.40236 -1.42211,0.61949 -2.19773,0.62876c-3.8666,0 -6.40515,-5.82928 -2.25649,-8.2268l1.85103,-1.06948l-2.84412,-1.64536c-4.91845,-2.83825 -0.47598,-10.45392 4.44835,-7.60979l2.80299,1.62186c0,-0.70515 0,-1.41031 0,-2.11546c0,-5.68237 8.81443,-5.67062 8.81443,0v5.74113c0,0.45835 0,0.96371 0.04113,1.47495l1.82165,1.05773l4.44247,-2.56206c0.82856,-0.48186 1.81577,-1.17526 2.86175,-1.82753v-1.92742c-0.45247,-0.28206 -0.88144,-0.55825 -1.28691,-0.78742l-5.02423,-2.87351c-4.92433,-2.82062 -0.48186,-10.43629 4.44835,-7.60979l1.81577,1.0401v-3.12619c-0.03522,-1.26772 0.50646,-2.483 1.47281,-3.30429c0.96636,-0.82129 2.25307,-1.15993 3.49853,-0.92077c2.20935,0.14455 3.90791,2.01193 3.84309,4.22505v3.12619l1.8099,-1.0401c4.93608,-2.82649 9.3668,4.78918 4.44835,7.60979l-4.97722,2.86175c-0.40546,0.22918 -0.83443,0.50536 -1.28103,0.78742v1.83928c1.17526,0.71691 2.29763,1.52196 3.22608,2.0567l4.1134,2.38577l1.76289,-1.0166c0,-0.52887 0.04113,-1.03423 0.04113,-1.48082v-5.74113c0,-5.68237 8.81443,-5.67062 8.81443,0c0,0.70515 0,1.41031 0,2.10959z" id="Path 1 1" fill="#1f3caf"/><path d="M886.92183,537.18316c4.91845,2.83825 0.4701,10.45392 -4.44835,7.63918l-2.69134,-1.55722c0,0.70515 0,1.41031 0,2.11546c0,5.68237 -8.81443,5.67062 -8.81443,0v-5.74113c0,-0.45835 0,-0.96371 -0.04113,-1.47495l-1.82165,-1.05773l-4.32495,2.49742c-0.86381,0.49948 -1.89216,1.22814 -2.9734,1.89804v1.87454c0.4466,0.28206 0.88144,0.55825 1.28103,0.78742l4.97722,2.86175c4.92433,2.82062 0.48186,10.43629 -4.44835,7.60979l-1.8099,-1.0401v3.2966c0,5.68237 -8.81443,5.67062 -8.81443,0v-3.26134l-1.81577,1.0401c-4.93021,2.82649 -9.3668,-4.78918 -4.44835,-7.60979l4.97722,-2.86175c0.40546,-0.22918 0.83443,-0.50536 1.28691,-0.78742v-1.97443c-1.14,-0.70515 -2.21536,-1.46907 -3.11443,-1.99206l-4.1134,-2.3799l-1.87454,1.08124c0,0.52887 -0.04701,1.02835 -0.04701,1.48082v5.74113c0,5.68237 -8.81443,5.67062 -8.81443,0c0,-0.70515 0,-1.41031 0,-2.11546l-2.68546,1.55722c-4.93021,2.84412 -9.36093,-4.77742 -4.45423,-7.63918l2.73247,-1.57485l-1.84515,-1.03423c-4.15454,-2.41515 -1.60423,-8.2268 2.25649,-8.2268c0.77533,0.01125 1.53377,0.22824 2.19773,0.62876l4.95959,2.88526c0.39371,0.22918 0.83443,0.45835 1.28103,0.6934l1.88041,-1.08711v-4.1134h8.81443v4.1134l2.83825,1.58072l1.57485,0.90495l2.83237,1.63948l0.05876,0.03526l2.83237,-1.63948l1.51608,-0.87557l2.89113,-1.66887l0.05876,-0.03526v-4.1134h8.81443v4.18392l1.76289,1.0166c0.45835,-0.24093 0.89907,-0.4701 1.28103,-0.6934l4.96546,-2.88526c0.66281,-0.40316 1.42198,-0.62036 2.19773,-0.62876c3.86072,0 6.39928,5.82928 2.25062,8.2268l-1.85103,1.06948z" id="Path 1 1" fill="#1f3caf"/></g></g><g clip-path="url(#clip-1)" id="Group 1"><g id="Group 1"><path d="M917.37595,420.13002c0.49,14.52 -8.42,28.24 -22.28,33.07c-6.06,2.11 -12.13,1.91 -18.41,1.91h-90.48c-4.59,0 -9.19,0.05 -13.79,0c-15.6285,0.02154 -29.96682,-8.66689 -37.18152,-22.53047c-7.2147,-13.86358 -6.1035,-30.59203 2.88152,-43.37953c10.53,-15.33 30,-21 47.46,-15.64c3.35,1 6.62,-0.74 8.47,-3.45c11.27,-16.48 31.82,-25.42 51.57,-21.55c18.36631,3.59448 33.35144,16.84276 39.17,34.63c0.3822,2.77021 2.52905,4.96577 5.29,5.41c15.01,3.32 26.77,15.79 27.3,31.53z" id="Path 1" fill="#ffffff" stroke="none"/><path d="M909.88595,380.75002c4.45954,2.87664 8.42695,6.45238 11.75,10.59c-1.15551,2.43353 -2.45791,4.79455 -3.9,7.07c-2.92933,-4.27461 -6.64134,-7.95608 -10.94,-10.85c1.1896,-2.19414 2.22219,-4.46985 3.09,-6.81z" id="Path 1" fill="#231815" stroke="none"/><path d="M870.70595,310.62002c22.46,4.83 40.56,23.46 42.46,46.81c0.64836,7.91702 -0.45793,15.87959 -3.24,23.32c-3.75555,-2.43007 -7.83141,-4.32496 -12.11,-5.63c-8.35,-21 -26.91,-37.41 -49.56,-41.28c-23.9845,-4.16537 -48.3386,5.0263 -63.59,24c-18.03784,-3.86042 -36.83367,1.14709 -50.56,13.47c-12.22272,11.21709 -18.94239,27.20918 -18.4,43.79c-6.23,0 -12.45,0.06 -18.67,0c-35.49961,-0.1039 -64.33059,-28.70699 -64.7162,-64.20465c-0.38561,-35.49766 27.81722,-64.72031 63.3062,-65.59535c7.37082,-0.10129 14.70933,0.9929 21.73,3.24c3.33,1 6.63,-0.74 8.47,-3.45c17.29,-25.5 48.92,-39.18 79.35,-33.28c28.29087,5.50125 51.35922,25.93836 60.23,53.36c0.35446,2.79491 2.51607,5.0177 5.3,5.45z" id="Path 1" fill="#ffffff" stroke="none"/><path d="M909.88595,380.75002c-0.86781,2.34015 -1.9004,4.61586 -3.09,6.81c-2.31122,-1.56002 -4.77363,-2.88336 -7.35,-3.95c0.39092,-1.39067 0.34201,-2.86822 -0.14,-4.23c-0.46,-1.44 -0.97,-2.86 -1.53,-4.26c4.27859,1.30504 8.35445,3.19993 12.11,5.63z" id="Path 1" fill="#231815" stroke="none"/><path d="M899.30595,379.38002c0.48201,1.36178 0.53092,2.83933 0.14,4.23c-2.37844,-0.98326 -4.84667,-1.73344 -7.37,-2.24c-0.72693,-2.34319 -1.60202,-4.63781 -2.62,-6.87c1.46056,-0.60186 3.07372,-0.72784 4.61,-0.36c1.26,0.28 2.49,0.6 3.71,1c0.56,1.38667 1.07,2.8 1.53,4.24z" id="Path 1" fill="#231815" stroke="none"/><path d="M892.07595,381.37002c2.52333,0.50656 4.99156,1.25674 7.37,2.24c-1.79,5.95 -12.15,7.34 -14.6,-0.24l-0.06,-0.18c-0.51713,-3.60729 1.37632,-7.13064 4.67,-8.69c1.01798,2.23219 1.89307,4.52681 2.62,6.87z" id="Path 1" fill="#231815" stroke="none"/><path d="M884.84595,383.37002c2.45,7.58 12.81,6.19 14.6,0.24c2.57637,1.06664 5.03878,2.38998 7.35,3.95c4.28788,2.89687 7.98953,6.57816 10.91,10.85c1.44209,-2.27545 2.74449,-4.63647 3.9,-7.07c6.59564,8.18474 10.36358,18.28521 10.74,28.79c0.69,20.88 -12.64,39.87 -32.06,47.09c-8,3 -16.31,2.89 -24.7,2.89h-98.43c-10.75,0 -21,-1.36 -30.78,-6.29c-13.56066,-7.00092 -23.74755,-19.14738 -28.28,-33.72h7.88c-1.74499,-4.81762 -2.72355,-9.87913 -2.9,-15c0,-0.61 0,-1.22 0,-1.83c0,-27.24973 22.09027,-49.34 49.34,-49.34c5.16333,0.01208 10.29382,0.82162 15.21,2.4c11.75326,-17.68769 32.1767,-27.60733 53.34535,-25.90976c21.16865,1.69756 39.7503,14.74512 48.53465,34.07976c-3.29368,1.55936 -5.18713,5.08271 -4.67,8.69c-5.81856,-17.78724 -20.80369,-31.03552 -39.17,-34.63c-19.75,-3.87 -40.3,5.07 -51.57,21.55c-1.85,2.71 -5.12,4.47 -8.47,3.45c-17.43,-5.32 -36.93,0.31 -47.46,15.64c-8.98501,12.7875 -10.09621,29.51596 -2.88152,43.37953c7.2147,13.86358 21.55301,22.552 37.18152,22.53047c4.6,0.05 9.2,0 13.79,0h90.45c6.28,0 12.35,0.2 18.41,-1.91c13.86,-4.83 22.77,-18.55 22.28,-33.07c-0.53,-15.74 -12.29,-28.21 -27.3,-31.53c-2.76095,-0.44423 -4.9078,-2.63979 -5.29,-5.41z" id="Path 1" fill="#231815" stroke="none"/><path d="M879.88595,301.40002c2.94,9.23 -11.54,13.15 -14.46,4c0,-0.07 -0.05,-0.14 -0.07,-0.21c-0.66,-4.68 3.17,-10.33 9.3,-9c1.25,0.27 2.5,0.58 3.74,0.92c0.53,1.4 1.03,2.83 1.49,4.29z" id="Path 1" fill="#231815" stroke="none"/><path d="M870.70595,310.62002c-2.78783,-0.42825 -4.95443,-2.65197 -5.31,-5.45c0,0.07 0.05,0.14 0.07,0.21c2.92,9.17 17.4,5.25 14.46,-4c-0.46,-1.46 -1,-2.89 -1.49,-4.32c5.05727,1.3803 9.94179,3.32941 14.56,5.81c23.64,12.76 38,39.69 35,66.43c-0.84905,7.63642 -2.98241,15.07447 -6.31,22c-3.32305,-4.13762 -7.29046,-7.71336 -11.75,-10.59c2.78207,-7.44041 3.88836,-15.40298 3.24,-23.32c-1.95,-23.31 -20.05,-41.94 -42.47,-46.77z" id="Path 1" fill="#231815" stroke="none"/><path d="M789.56595,359.09002c-1.64,-0.5 -3.29,-0.92 -4.94,-1.28c15.2514,-18.9737 39.6055,-28.16537 63.59,-24c22.65,3.87 41.21,20.28 49.56,41.28c-1.22,-0.38 -2.45,-0.7 -3.71,-1c-1.53628,-0.36784 -3.14944,-0.24186 -4.61,0.36c-8.78435,-19.33465 -27.366,-32.3822 -48.53465,-34.07976c-21.16865,-1.69756 -41.59209,8.22208 -53.34535,25.90976c-2.24169,-0.72989 -4.53472,-1.29145 -6.86,-1.68l0.38,-2.11z" id="Path 1" fill="#231815" stroke="none"/><path d="M789.56595,359.09002l-8.47,3.45c1.12,-1.64 2.29667,-3.21667 3.53,-4.73c1.65,0.36 3.3,0.78 4.94,1.28z" id="Path 1" fill="#231815" stroke="none"/><path d="M725.97595,430.10002h-7.88c-0.81031,-2.58903 -1.41879,-5.23696 -1.82,-7.92c-0.3508,-2.34515 -0.55786,-4.70957 -0.62,-7.08h7.42c0.17645,5.12087 1.15501,10.18238 2.9,15z" id="Path 1" fill="#231815" stroke="none"/><path d="M721.29595,274.08002l-8.47,3.44c1.11333,-1.64 2.27,-3.24667 3.47,-4.82c1.68,0.4 3.34,0.86 5,1.38z" id="Path 1" fill="#231815" stroke="none"/><path d="M865.35595,305.17002c-8.86775,-27.42552 -31.93667,-47.86696 -60.23,-53.37c-30.43,-5.9 -62.06,7.78 -79.35,33.28c-1.84,2.71 -5.14,4.49 -8.47,3.45c-7.02067,-2.2471 -14.35918,-3.34129 -21.73,-3.24c-35.48897,0.87504 -63.6918,30.09768 -63.3062,65.59535c0.38561,35.49766 29.21659,64.10076 64.7162,64.20465c6.22,0.06 12.44,0 18.67,0c0.06214,2.37043 0.2692,4.73485 0.62,7.08c0.40121,2.68304 1.00969,5.33097 1.82,7.92h-13.3c-14.32,0 -28,-1.36 -41.3,-7.38c-23.68,-10.72 -41.31,-33.75 -45.31,-59.46c-4.11,-26.39 4.81,-53.69 24.66,-71.83c19.85672,-18.0479 47.37548,-25.06528 73.45,-18.73c-1.2,1.57333 -2.35667,3.18 -3.47,4.82l8.47,-3.44c-1.66,-0.52 -3.32,-1 -5,-1.38c26.24947,-35.00536 73.34974,-46.97923 113.13,-28.76c22.84,10.2 40.34,29.88 49,53.14c-1.24,-0.34 -2.49,-0.65 -3.74,-0.92c-6.16,-1.35 -9.98,4.34 -9.33,9.02z" id="Path 1" fill="#231815" stroke="none"/><path d="M715.70595,415.10002c-0.54869,-16.59274 6.17549,-32.59783 18.41,-43.82c13.71305,-12.31063 32.48648,-17.32084 50.51,-13.48c-1.22667,1.50667 -2.40333,3.08333 -3.53,4.73l-0.38,2.11c-2.75692,-0.48376 -5.55097,-0.72468 -8.35,-0.72c-27.24973,0 -49.34,22.09027 -49.34,49.34c0,0.61 0,1.22 0,1.83h-7.32z" id="Path 1" fill="#231815" stroke="none"/><path d="M716.29595,272.70002c-26.07452,-6.33528 -53.59328,0.6821 -73.45,18.73c-19.85,18.14 -28.77,45.44 -24.66,71.83c4,25.71 21.63,48.74 45.31,59.46c13.28,6 27,7.38 41.3,7.38h13.3" id="Path 1" fill="none" stroke="#231815"/><path d="M716.29595,272.70002c1.68,0.4 3.34,0.86 5,1.38l-8.47,3.44c1.11333,-1.64 2.27,-3.24667 3.47,-4.82z" id="Path 1" fill="none" stroke="#231815"/><path d="M878.39595,297.08002c-8.63,-23.26 -26.13,-42.94 -49,-53.14c-39.77235,-18.20289 -86.85412,-6.23055 -113.1,28.76" id="Path 1" fill="none" stroke="#231815"/><path d="M715.70595,415.10002c-6.23,0 -12.45,0.06 -18.67,0c-35.49961,-0.1039 -64.33059,-28.70699 -64.7162,-64.20465c-0.38561,-35.49766 27.81722,-64.72031 63.3062,-65.59535c7.37082,-0.10129 14.70933,0.9929 21.73,3.24c3.33,1 6.63,-0.74 8.47,-3.45c17.29,-25.5 48.92,-39.18 79.35,-33.28c28.29087,5.50125 51.35922,25.93836 60.23,53.36" id="Path 1" fill="none" stroke="#231815"/><path d="M865.35595,305.17002c0.35557,2.79803 2.52217,5.02175 5.31,5.45c22.46,4.83 40.56,23.46 42.46,46.81c0.64836,7.91702 -0.45793,15.87959 -3.24,23.32" id="Path 1" fill="none" stroke="#231815"/><path d="M921.63595,391.34002c3.32759,-6.92553 5.46095,-14.36358 6.31,-22c3,-26.74 -11.35,-53.67 -35,-66.43c-4.61821,-2.48059 -9.50273,-4.4297 -14.56,-5.81" id="Path 1" fill="none" stroke="#231815"/><path d="M865.35595,305.17002c0,0.07 0.05,0.14 0.07,0.21c2.92,9.17 17.4,5.25 14.46,-4c-0.46,-1.46 -1,-2.89 -1.49,-4.32c-1.24,-0.34 -2.49,-0.65 -3.74,-0.92c-6.13,-1.34 -9.95,4.35 -9.3,9.03z" id="Path 1" fill="none" stroke="#231815"/><path d="M884.78595,383.19002l0.06,0.18c2.45,7.58 12.81,6.19 14.6,0.24c0.39092,-1.39067 0.34201,-2.86822 -0.14,-4.23c-0.46,-1.44 -0.97,-2.86 -1.53,-4.26c-8.35,-21 -26.91,-37.41 -49.56,-41.28c-23.9845,-4.16537 -48.3386,5.0263 -63.59,24c-1.22667,1.50667 -2.40333,3.08333 -3.53,4.73l8.47,-3.45c-1.64,-0.5 -3.29,-0.92 -4.94,-1.28c-18.03784,-3.86042 -36.83367,1.14709 -50.56,13.47c-12.20795,11.22438 -18.91259,27.21546 -18.36,43.79c0.06214,2.37043 0.2692,4.73485 0.62,7.08c0.40121,2.68304 1.00969,5.33097 1.82,7.92c4.52529,14.55617 14.6924,26.69331 28.23,33.7c9.77,4.93 20,6.29 30.78,6.29h98.46c8.39,0 16.67,0.1 24.7,-2.89c19.42,-7.22 32.75,-26.21 32.06,-47.09c-0.37642,-10.50479 -4.14436,-20.60526 -10.74,-28.79c-3.32305,-4.13762 -7.29046,-7.71336 -11.75,-10.59c-3.75555,-2.43007 -7.83141,-4.32496 -12.11,-5.63c-1.22,-0.38 -2.45,-0.7 -3.71,-1c-1.53628,-0.36784 -3.14944,-0.24186 -4.61,0.36c-3.29368,1.55936 -5.18713,5.08271 -4.67,8.69" id="Path 1" fill="none" stroke="#231815"/><path d="M884.78595,383.19002c0.3822,2.77021 2.52905,4.96577 5.29,5.41c15,3.32 26.77,15.79 27.3,31.53c0.49,14.52 -8.42,28.24 -22.28,33.07c-6.06,2.11 -12.13,1.91 -18.41,1.91h-90.48c-4.59,0 -9.19,0.05 -13.79,0c-15.6285,0.02154 -29.96682,-8.66689 -37.18152,-22.53047c-7.2147,-13.86358 -6.1035,-30.59203 2.88152,-43.37953c10.53,-15.33 30,-21 47.46,-15.64c3.35,1 6.62,-0.74 8.47,-3.45c11.27,-16.48 31.82,-25.42 51.57,-21.55c18.36631,3.59448 33.35144,16.84276 39.17,34.63z" id="Path 1" fill="none" stroke="#231815"/></g></g><g id="Group 1" stroke="none"><g id="Group 1 1 1" fill="none"><rect x="886.11363" y="518.86338" transform="scale(0.58763,0.58763)" width="582" height="402" id="Shape 1 1 1"/></g><g id="Group 1 1 1"><path d="M718.78389,525.98859h-10.20124v-4.3132l1.76289,-1.0166c0.45247,0.23505 0.88732,0.46423 1.28103,0.6934l4.96546,2.88526c0.66191,0.40031 1.4184,0.61731 2.19186,0.62876z" id="Path 1 1 1" fill="#ffffff"/><path d="M668.23019,524.23745l4.95959,-2.88526c0.38784,-0.2233 0.82856,-0.45247 1.28691,-0.6934l1.87454,1.08711v4.24268h-10.31876v-1.12237c0.77563,-0.00927 1.53457,-0.2264 2.19773,-0.62876z" id="Path 1 1 1" fill="#ffffff"/><path d="M717.59101,506.29715c4.92433,-2.84412 9.35505,4.77742 4.44835,7.60979l-2.85,1.64536l1.85103,1.06948c4.15454,2.41515 1.60423,8.2268 -2.25649,8.2268c-0.77346,-0.01145 -1.52995,-0.22846 -2.19186,-0.62876l-4.96546,-2.88526c-0.39371,-0.22918 -0.82856,-0.45835 -1.28103,-0.6934l-1.76289,1.0166v4.3132h-8.81443v-4.29557c-0.98722,-0.56412 -1.9666,-1.13216 -2.93814,-1.70412l-1.45732,-0.84031l-2.89113,-1.66887l-0.05876,0.03526l-2.89113,1.66887l-1.51608,0.87557l-2.83825,1.63361v4.3132h-8.81443v-4.25443l-1.87454,-1.08711c-0.45835,0.24093 -0.89907,0.4701 -1.28691,0.6934l-4.95959,2.88526c-0.66316,0.40236 -1.42211,0.61949 -2.19773,0.62876c-3.8666,0 -6.40515,-5.82928 -2.25649,-8.2268l1.85103,-1.06948l-2.84412,-1.64536c-4.91845,-2.83825 -0.47598,-10.45392 4.44835,-7.60979l2.80299,1.62186c0,-0.70515 0,-1.41031 0,-2.11546c0,-5.68237 8.81443,-5.67062 8.81443,0v5.74113c0,0.45835 0,0.96371 0.04113,1.47495l1.82165,1.05773l4.44247,-2.56206c0.82856,-0.48186 1.81577,-1.17526 2.86175,-1.82753v-1.92742c-0.45247,-0.28206 -0.88144,-0.55825 -1.28691,-0.78742l-5.02423,-2.87351c-4.92433,-2.82062 -0.48186,-10.43629 4.44835,-7.60979l1.81577,1.0401v-3.12619c-0.03522,-1.26772 0.50646,-2.483 1.47281,-3.30429c0.96636,-0.82129 2.25307,-1.15993 3.49853,-0.92077c2.20935,0.14455 3.90791,2.01193 3.84309,4.22505v3.12619l1.8099,-1.0401c4.93608,-2.82649 9.3668,4.78918 4.44835,7.60979l-4.97722,2.86175c-0.40546,0.22918 -0.83443,0.50536 -1.28103,0.78742v1.83928c1.17526,0.71691 2.29763,1.52196 3.22608,2.0567l4.1134,2.38577l1.76289,-1.0166c0,-0.52887 0.04113,-1.03423 0.04113,-1.48082v-5.74113c0,-5.68237 8.81443,-5.67062 8.81443,0c0,0.70515 0,1.41031 0,2.10959z" id="Path 1 1 1" fill="#1f3caf"/><path d="M721.92183,537.18316c4.91845,2.83825 0.4701,10.45392 -4.44835,7.63918l-2.69134,-1.55722c0,0.70515 0,1.41031 0,2.11546c0,5.68237 -8.81443,5.67062 -8.81443,0v-5.74113c0,-0.45835 0,-0.96371 -0.04113,-1.47495l-1.82165,-1.05773l-4.32495,2.49742c-0.86381,0.49948 -1.89216,1.22814 -2.9734,1.89804v1.87454c0.4466,0.28206 0.88144,0.55825 1.28103,0.78742l4.97722,2.86175c4.92433,2.82062 0.48186,10.43629 -4.44835,7.60979l-1.8099,-1.0401v3.2966c0,5.68237 -8.81443,5.67062 -8.81443,0v-3.26134l-1.81577,1.0401c-4.93021,2.82649 -9.3668,-4.78918 -4.44835,-7.60979l4.97722,-2.86175c0.40546,-0.22918 0.83443,-0.50536 1.28691,-0.78742v-1.97443c-1.14,-0.70515 -2.21536,-1.46907 -3.11443,-1.99206l-4.1134,-2.3799l-1.87454,1.08124c0,0.52887 -0.04701,1.02835 -0.04701,1.48082v5.74113c0,5.68237 -8.81443,5.67062 -8.81443,0c0,-0.70515 0,-1.41031 0,-2.11546l-2.68546,1.55722c-4.93021,2.84412 -9.36093,-4.77742 -4.45423,-7.63918l2.73247,-1.57485l-1.84515,-1.03423c-4.15454,-2.41515 -1.60423,-8.2268 2.25649,-8.2268c0.77533,0.01125 1.53377,0.22824 2.19773,0.62876l4.95959,2.88526c0.39371,0.22918 0.83443,0.45835 1.28103,0.6934l1.88041,-1.08711v-4.1134h8.81443v4.1134l2.83825,1.58072l1.57485,0.90495l2.83237,1.63948l0.05876,0.03526l2.83237,-1.63948l1.51608,-0.87557l2.89113,-1.66887l0.05876,-0.03526v-4.1134h8.81443v4.18392l1.76289,1.0166c0.45835,-0.24093 0.89907,-0.4701 1.28103,-0.6934l4.96546,-2.88526c0.66281,-0.40316 1.42198,-0.62036 2.19773,-0.62876c3.86072,0 6.39928,5.82928 2.25062,8.2268l-1.85103,1.06948z" id="Path 1 1 1" fill="#1f3caf"/></g></g></g></g></g></g></svg>