<svg version="1.1" xmlns="http://www.w3.org/2000/svg" xmlns:xlink="http://www.w3.org/1999/xlink" width="601" height="545.48727" viewBox="486,73.51273,601,545.48727"><g id="document" fill-opacity="0" fill="#ffffff" fill-rule="nonzero" stroke="#000000" stroke-width="0" stroke-linecap="butt" stroke-linejoin="miter" stroke-miterlimit="10" stroke-dasharray="" stroke-dashoffset="0" font-family="none" font-weight="none" font-size="none" text-anchor="none" style="mix-blend-mode: normal"><rect x="725.2" y="119" transform="scale(0.71429,1)" width="700" height="500" id="Shape 1 1" vector-effect="non-scaling-stroke"/></g><g fill="none" fill-rule="nonzero" stroke="none" stroke-width="1" stroke-linecap="none" stroke-linejoin="none" stroke-miterlimit="10" stroke-dasharray="" stroke-dashoffset="0" font-family="none" font-weight="none" font-size="none" text-anchor="none" style="mix-blend-mode: normal"><g id="stage"><g id="layer1 1"><g id="Group 1" stroke="none" stroke-linecap="butt" stroke-linejoin="miter"><g id="Group 1" fill="none"><rect x="1069.21155" y="589.22577" transform="scale(0.52749,0.52749)" width="582" height="402" id="Shape 1"/></g><g id="Group 1"><path d="M741.8068,509.27506h-9.15725v-3.87179l1.58247,-0.91256c0.40617,0.211 0.79651,0.41672 1.14993,0.62244l4.4573,2.58998c0.59417,0.35934 1.27324,0.55414 1.96754,0.56442z" id="Path 1" fill="#ffffff"/><path d="M696.42672,507.70313l4.45203,-2.58998c0.34814,-0.20045 0.74376,-0.40617 1.15521,-0.62244l1.6827,0.97586v3.80849h-9.26275v-1.00751c0.69625,-0.00832 1.37752,-0.20323 1.97282,-0.56442z" id="Path 1" fill="#ffffff"/><path d="M740.736,491.59882c4.42038,-2.55306 8.39766,4.28851 3.99311,6.83101l-2.55833,1.47698l1.6616,0.96003c3.72936,2.16799 1.44005,7.38488 -2.02557,7.38488c-0.69431,-0.01028 -1.37337,-0.20508 -1.96754,-0.56442l-4.4573,-2.58998c-0.35342,-0.20572 -0.74376,-0.41144 -1.14993,-0.62244l-1.58247,0.91256v3.87179h-7.91237v-3.85596c-0.88619,-0.50639 -1.76534,-1.0163 -2.63746,-1.52973l-1.30818,-0.75431l-2.59526,-1.49808l-0.05275,0.03165l-2.59526,1.49808l-1.36093,0.78596l-2.54778,1.46643v3.87179h-7.91237v-3.81904l-1.6827,-0.97586c-0.41144,0.21627 -0.80706,0.42199 -1.15521,0.62244l-4.45203,2.58998c-0.5953,0.36118 -1.27657,0.5561 -1.97282,0.56442c-3.47089,0 -5.74966,-5.23271 -2.02557,-7.38488l1.6616,-0.96003l-2.55306,-1.47698c-4.4151,-2.54778 -0.42727,-9.38407 3.99311,-6.83101l2.51613,1.45588c0,-0.63299 0,-1.26598 0,-1.89897c0,-5.10084 7.91237,-5.09029 7.91237,0v5.15359c0,0.41144 0,0.86509 0.03692,1.324l1.63522,0.94948l3.98784,-2.29986c0.74376,-0.43254 1.62995,-1.05498 2.56888,-1.6405v-1.73017c-0.40617,-0.2532 -0.79124,-0.50112 -1.15521,-0.70684l-4.51005,-2.57943c-4.42038,-2.53196 -0.43254,-9.36825 3.99311,-6.83101l1.62995,0.93366v-2.80625c-0.03162,-1.13798 0.45463,-2.22889 1.32209,-2.96613c0.86746,-0.73724 2.02249,-1.04123 3.14049,-0.82654c1.98325,0.12975 3.50798,1.80603 3.44979,3.79266v2.80625l1.62467,-0.93366c4.43093,-2.53723 8.40821,4.29905 3.99311,6.83101l-4.46785,2.56888c-0.36397,0.20572 -0.74904,0.45364 -1.14993,0.70684v1.65105c1.05498,0.64354 2.06249,1.3662 2.89593,1.84622l3.69244,2.14162l1.58247,-0.91256c0,-0.47474 0.03692,-0.92838 0.03692,-1.32928v-5.15359c0,-5.10084 7.91237,-5.09029 7.91237,0c0,0.63299 0,1.26598 0,1.89369z" id="Path 1" fill="#1f3caf"/><path d="M744.62361,519.32398c4.4151,2.54778 0.42199,9.38407 -3.99311,6.85739l-2.41591,-1.39785c0,0.63299 0,1.26598 0,1.89897c0,5.10084 -7.91237,5.09029 -7.91237,0v-5.15359c0,-0.41144 0,-0.86509 -0.03692,-1.324l-1.63522,-0.94948l-3.88234,2.24184c-0.77541,0.44837 -1.69852,1.10246 -2.66911,1.7038v1.6827c0.40089,0.2532 0.79124,0.50112 1.14993,0.70684l4.46785,2.56888c4.42038,2.53196 0.43254,9.36825 -3.99311,6.83101l-1.62467,-0.93366v2.95923c0,5.10084 -7.91237,5.09029 -7.91237,0v-2.92758l-1.62995,0.93366c-4.42565,2.53723 -8.40821,-4.29905 -3.99311,-6.83101l4.46785,-2.56888c0.36397,-0.20572 0.74904,-0.45364 1.15521,-0.70684v-1.77237c-1.02333,-0.63299 -1.98864,-1.31873 -2.7957,-1.7882l-3.69244,-2.13634l-1.6827,0.97058c0,0.47474 -0.0422,0.92311 -0.0422,1.32928v5.15359c0,5.10084 -7.91237,5.09029 -7.91237,0c0,-0.63299 0,-1.26598 0,-1.89897l-2.41064,1.39785c-4.42565,2.55306 -8.40294,-4.28851 -3.99838,-6.85739l2.45284,-1.41368l-1.65632,-0.92838c-3.72936,-2.16799 -1.44005,-7.38488 2.02557,-7.38488c0.69599,0.0101 1.3768,0.20488 1.97282,0.56442l4.45203,2.58998c0.35342,0.20572 0.74904,0.41144 1.14993,0.62244l1.68797,-0.97586v-3.69244h7.91237v3.69244l2.54778,1.41895l1.41368,0.81234l2.54251,1.4717l0.05275,0.03165l2.54251,-1.4717l1.36093,-0.78596l2.59526,-1.49808l0.05275,-0.03165v-3.69244h7.91237v3.75574l1.58247,0.91256c0.41144,-0.21627 0.80706,-0.42199 1.14993,-0.62244l4.4573,-2.58998c0.59498,-0.36191 1.27646,-0.55687 1.97282,-0.56442c3.46562,0 5.74438,5.23271 2.02029,7.38488l-1.6616,0.96003z" id="Path 1" fill="#1f3caf"/></g></g><g id="Group 1" stroke="none" stroke-linecap="butt" stroke-linejoin="miter"><g id="Group 1 1" fill="none"><rect x="1315.66171" y="657.47351" transform="scale(0.52749,0.52749)" width="582" height="402" id="Shape 1 1"/></g><g id="Group 1 1"><path d="M871.8068,545.27506h-9.15725v-3.87179l1.58247,-0.91256c0.40617,0.211 0.79651,0.41672 1.14993,0.62244l4.4573,2.58998c0.59417,0.35934 1.27324,0.55414 1.96754,0.56442z" id="Path 1 1" fill="#ffffff"/><path d="M826.42672,543.70313l4.45203,-2.58998c0.34814,-0.20045 0.74376,-0.40617 1.15521,-0.62244l1.6827,0.97586v3.80849h-9.26275v-1.00751c0.69625,-0.00832 1.37752,-0.20323 1.97282,-0.56442z" id="Path 1 1" fill="#ffffff"/><path d="M870.736,527.59882c4.42038,-2.55306 8.39766,4.28851 3.99311,6.83101l-2.55833,1.47698l1.6616,0.96003c3.72936,2.16799 1.44005,7.38488 -2.02557,7.38488c-0.69431,-0.01028 -1.37337,-0.20508 -1.96754,-0.56442l-4.4573,-2.58998c-0.35342,-0.20572 -0.74376,-0.41144 -1.14993,-0.62244l-1.58247,0.91256v3.87179h-7.91237v-3.85596c-0.88619,-0.50639 -1.76534,-1.0163 -2.63746,-1.52973l-1.30818,-0.75431l-2.59526,-1.49808l-0.05275,0.03165l-2.59526,1.49808l-1.36093,0.78596l-2.54778,1.46643v3.87179h-7.91237v-3.81904l-1.6827,-0.97586c-0.41144,0.21627 -0.80706,0.42199 -1.15521,0.62244l-4.45203,2.58998c-0.5953,0.36118 -1.27657,0.5561 -1.97282,0.56442c-3.47089,0 -5.74966,-5.23271 -2.02557,-7.38488l1.6616,-0.96003l-2.55306,-1.47698c-4.4151,-2.54778 -0.42727,-9.38407 3.99311,-6.83101l2.51613,1.45588c0,-0.63299 0,-1.26598 0,-1.89897c0,-5.10084 7.91237,-5.09029 7.91237,0v5.15359c0,0.41144 0,0.86509 0.03692,1.324l1.63522,0.94948l3.98784,-2.29986c0.74376,-0.43254 1.62995,-1.05498 2.56888,-1.6405v-1.73017c-0.40617,-0.2532 -0.79124,-0.50112 -1.15521,-0.70684l-4.51005,-2.57943c-4.42038,-2.53196 -0.43254,-9.36825 3.99311,-6.83101l1.62995,0.93366v-2.80625c-0.03162,-1.13798 0.45463,-2.22889 1.32209,-2.96613c0.86746,-0.73724 2.02249,-1.04123 3.14049,-0.82654c1.98325,0.12975 3.50798,1.80603 3.44979,3.79266v2.80625l1.62467,-0.93366c4.43093,-2.53723 8.40821,4.29905 3.99311,6.83101l-4.46785,2.56888c-0.36397,0.20572 -0.74904,0.45364 -1.14993,0.70684v1.65105c1.05498,0.64354 2.06249,1.3662 2.89593,1.84622l3.69244,2.14162l1.58247,-0.91256c0,-0.47474 0.03692,-0.92838 0.03692,-1.32928v-5.15359c0,-5.10084 7.91237,-5.09029 7.91237,0c0,0.63299 0,1.26598 0,1.89369z" id="Path 1 1" fill="#1f3caf"/><path d="M874.62361,555.32398c4.4151,2.54778 0.42199,9.38407 -3.99311,6.85739l-2.41591,-1.39785c0,0.63299 0,1.26598 0,1.89897c0,5.10084 -7.91237,5.09029 -7.91237,0v-5.15359c0,-0.41144 0,-0.86509 -0.03692,-1.324l-1.63522,-0.94948l-3.88234,2.24184c-0.77541,0.44837 -1.69852,1.10246 -2.66911,1.7038v1.6827c0.40089,0.2532 0.79124,0.50112 1.14993,0.70684l4.46785,2.56888c4.42038,2.53196 0.43254,9.36825 -3.99311,6.83101l-1.62467,-0.93366v2.95923c0,5.10084 -7.91237,5.09029 -7.91237,0v-2.92758l-1.62995,0.93366c-4.42565,2.53723 -8.40821,-4.29905 -3.99311,-6.83101l4.46785,-2.56888c0.36397,-0.20572 0.74904,-0.45364 1.15521,-0.70684v-1.77237c-1.02333,-0.63299 -1.98864,-1.31873 -2.7957,-1.7882l-3.69244,-2.13634l-1.6827,0.97058c0,0.47474 -0.0422,0.92311 -0.0422,1.32928v5.15359c0,5.10084 -7.91237,5.09029 -7.91237,0c0,-0.63299 0,-1.26598 0,-1.89897l-2.41064,1.39785c-4.42565,2.55306 -8.40294,-4.28851 -3.99838,-6.85739l2.45284,-1.41368l-1.65632,-0.92838c-3.72936,-2.16799 -1.44005,-7.38488 2.02557,-7.38488c0.69599,0.0101 1.3768,0.20488 1.97282,0.56442l4.45203,2.58998c0.35342,0.20572 0.74904,0.41144 1.14993,0.62244l1.68797,-0.97586v-3.69244h7.91237v3.69244l2.54778,1.41895l1.41368,0.81234l2.54251,1.4717l0.05275,0.03165l2.54251,-1.4717l1.36093,-0.78596l2.59526,-1.49808l0.05275,-0.03165v-3.69244h7.91237v3.75574l1.58247,0.91256c0.41144,-0.21627 0.80706,-0.42199 1.14993,-0.62244l4.4573,-2.58998c0.59498,-0.36191 1.27646,-0.55687 1.97282,-0.56442c3.46562,0 5.74438,5.23271 2.02029,7.38488l-1.6616,0.96003z" id="Path 1 1" fill="#1f3caf"/></g></g><path d="M486,188" id="Path 1" fill="none" stroke="#000000" stroke-linecap="round" stroke-linejoin="round"/><g id="Group 1" stroke="none" stroke-linecap="butt" stroke-linejoin="miter"><g id="Group 1" fill="none"><rect x="505" y="73.51273" width="582" height="402" id="Shape 1"/></g><g id="Group 1"><path d="M875.54,365.43273c22.53,4.88 38.5,25.74 35.61,49c-2.75,22.09 -22,38.41 -44,38.7c-4.78,0.06 -7.2,3.78 -7.24,7.5h-126.13c0,-3.72 -2.44,-7.45 -7.24,-7.5c-24.5,-0.27 -46.36,-16.6 -52.84,-40.4c-3.25317,-12.18402 -2.19328,-25.11812 3,-36.61c2.16665,-4.85557 5.01907,-9.375 8.47,-13.42c4.00824,-4.70976 8.79423,-8.69751 14.15,-11.79c13.58,-7.83 29.54,-9.08 44.43,-4.49c3.34,1 6.63,-0.74 8.47,-3.45c14.64,-21.53 41.42,-33.13 67.15,-28.1c4.7491,0.93217 9.38293,2.37731 13.82,4.31c0.87,0.38 1.73,0.77 2.57,1.18c0.84,0.41 1.94,1 2.89,1.49c15.07361,8.24255 26.40952,21.95516 31.67,38.31c0.69587,2.55027 2.67648,4.54985 5.22,5.27zM832.54,456.93273c3.61,-1 6.7,-5.42 5.24,-9.22l-7.41,-19.2c-1.45,-3.78 -5,-6.39 -9.22,-5.24c-3.62,1 -6.7,5.42 -5.24,9.22l7.37,19.2c1.45,3.82 5.05,6.39 9.23,5.24zM794.54,456.93273c3.61,-1 6.7,-5.42 5.24,-9.22l-7.37,-19.2c-1.45,-3.78 -5,-6.39 -9.22,-5.24c-3.62,1 -6.7,5.42 -5.24,9.22l7.37,19.2c1.45,3.82 5.05,6.39 9.23,5.24zM756.54,456.93273c3.61,-1 6.69,-5.42 5.23,-9.22c-2.44667,-6.4 -4.90333,-12.8 -7.37,-19.2c-1.45,-3.78 -5,-6.39 -9.23,-5.24c-3.61,1 -6.69,5.42 -5.23,9.22c2.44667,6.4 4.90333,12.8 7.37,19.2c1.5,3.82 5.1,6.39 9.28,5.24z" id="CompoundPath 1" fill="#dcdddd"/><path d="M910.07,307.44273c9.67,0 9.65,15 0,15h-33.65c-9.67,0 -9.65,-15 0,-15z" id="Path 1" fill="#231815"/><path d="M848.21,318.83273c13.98108,9.3915 24.32754,23.28441 29.32,39.37c26.0412,5.30103 43.83413,29.46512 41.16578,55.90609c-2.66835,26.44097 -24.93051,46.5628 -51.50578,46.55391h-7.19c0,-3.72 2.46,-7.44 7.24,-7.5c22,-0.29 41.21,-16.61 44,-38.7c2.89,-23.29 -13.08,-44.15 -35.61,-49c-2.54371,-0.70862 -4.53138,-2.69629 -5.24,-5.24c-4.14775,-12.93888 -12.13923,-24.30694 -22.91,-32.59c0.34667,-2.92 0.59,-5.85333 0.73,-8.8z" id="Path 1" fill="#231815"/><path d="M885.05,229.21273c8.38,-4.84 15.93,8.13 7.57,13l-29.14,16.83c-8.39,4.84 -15.93,-8.13 -7.57,-12.95z" id="Path 1" fill="#231815"/><path d="M883.25,351.92273c27.43,7.88 46.27,35.14 42.73,63.9c-3.77454,29.6809 -28.87172,52.0246 -58.79,52.34c-4.88,0.06 -7.29,-3.72 -7.24,-7.5h7.24c26.57527,0.00888 48.83742,-20.11295 51.50578,-46.55391c2.66835,-26.44097 -15.12458,-50.60505 -41.16578,-55.90609c-4.99246,-16.08559 -15.33892,-29.9785 -29.32,-39.37c0.06,-1.1 0.1,-2.21 0.11,-3.32v-0.08c0,-0.14 0,-0.28 0,-0.42v-0.07c0,-0.17 0,-0.34 0,-0.51c0,-1.5 -0.09,-3 -0.17,-4.47c16.07741,9.66942 28.43904,24.46112 35.1,42c-1.23,-0.36 -2.46,-0.68 -3.73,-1l5.24,5.24c-0.46,-1.44 -0.97,-2.87 -1.51,-4.28z" id="Path 1" fill="#231815"/><path d="M883.25,351.92273c0.54,1.41 1,2.84 1.51,4.28l-5.24,-5.24c1.27,0.28 2.48,0.6 3.73,0.96z" id="Path 1" fill="#231815"/><path d="M854.21,490.59273c1.46,3.8 -1.62,8.23 -5.23,9.22c-4.18,1.15 -7.78,-1.45 -9.23,-5.23c-2.46,-6.4 -4.91667,-12.80333 -7.37,-19.21c-1.46,-3.8 1.62,-8.23 5.23,-9.22c4.18,-1.15 7.78,1.46 9.23,5.24c2.46,6.4 4.91667,12.8 7.37,19.2z" id="Path 1" fill="#1f3caf"/><path d="M848.32,315.43273c0,-0.14 0,-0.28 0,-0.42c0.01,0.14 0.01,0.28 0,0.42z" id="Path 1" fill="#231815"/><path d="M847.56,318.40273c0.44802,-0.90133 0.70667,-1.88488 0.76,-2.89c0,1.11 -0.05,2.22 -0.11,3.32c-0.21,-0.15 -0.43,-0.32 -0.65,-0.43z" id="Path 1" fill="#231815"/><path d="M847.56,318.40273c-1.63,3.23 -5.6,4.39 -8.93,3.48c-1,-0.52 -1.91,-1 -2.89,-1.49c-1.58327,-1.3609 -2.46863,-3.36305 -2.41,-5.45c-0.01028,-1.21779 0.27814,-2.41953 0.84,-3.5c4.69378,1.84683 9.18152,4.17952 13.39,6.96z" id="Path 1" fill="#231815"/><path d="M834.17,311.44273c3.1,-5.84 13.76,-4.84 14.15,3c0,0.17 0,0.34 0,0.51v0.07c0,0.14 0,0.28 0,0.42v0.07c-0.05333,1.00512 -0.31198,1.98867 -0.76,2.89c-4.20848,-2.78048 -8.69622,-5.11317 -13.39,-6.96z" id="Path 1" fill="#231815"/><path d="M838.63,321.88273c3.33,0.91 7.3,-0.25 8.93,-3.48c0.22,0.14 0.44,0.28 0.65,0.43c-0.14,2.95333 -0.41333,5.87667 -0.82,8.77c-2.76618,-2.13245 -5.69514,-4.04496 -8.76,-5.72z" id="Path 1" fill="#231815"/><path d="M837.75,447.71273c1.46,3.8 -1.63,8.23 -5.24,9.22c-4.18,1.15 -7.78,-1.46 -9.23,-5.24l-7.37,-19.18c-1.46,-3.8 1.62,-8.23 5.24,-9.22c4.18,-1.15 7.77,1.46 9.22,5.24z" id="Path 1" fill="#1f3caf"/><path d="M824.34,173.88273c4.83,-8.37 17.79,-0.8 12.95,7.57l-16.82,29.15c-4.83,8.36 -17.79,0.8 -13,-7.57z" id="Path 1" fill="#231815"/><path d="M833.2,311.05273c-0.15488,-2.7734 -0.45194,-5.53703 -0.89,-8.28c5.53045,1.80144 10.84317,4.21295 15.84,7.19c0.08,1.48 0.15,3 0.17,4.47c-0.39,-7.83 -11.05,-8.83 -14.15,-3z" id="Path 1" fill="#231815"/><path d="M834.17,311.44273c-0.56186,1.08047 -0.85028,2.28221 -0.84,3.5c0,-1.3 -0.06,-2.6 -0.13,-3.89z" id="Path 1" fill="#231815"/><path d="M833.33,314.94273c-0.05863,2.08695 0.82673,4.0891 2.41,5.45c-0.84,-0.41 -1.7,-0.8 -2.57,-1.18c0.09,-1.42 0.15,-2.84 0.16,-4.27z" id="Path 1" fill="#231815"/><path d="M726.54,336.19273c4.12701,-0.00226 8.24398,0.40642 12.29,1.22v0c2.32999,0.46433 4.63063,1.06537 6.89,1.8c19.03697,-28.62257 55.31819,-40.30572 87.48,-28.17c0.07,1.29 0.12,2.59 0.13,3.89c0.01,1.3 -0.07,2.85 -0.16,4.27c-4.43707,-1.93269 -9.0709,-3.37783 -13.82,-4.31c-25.73,-5 -52.51,6.57 -67.15,28.1c-1.84,2.71 -5.13,4.48 -8.47,3.45c-14.89,-4.59 -30.85,-3.34 -44.43,4.49c-5.35577,3.09249 -10.14176,7.08024 -14.15,11.79c-1.54624,-2.10495 -2.9783,-4.29143 -4.29,-6.55c11.75995,-12.75872 28.32833,-20.00557 45.68,-19.98z" id="Path 1" fill="#231815"/><path d="M807.11,306.30273c-24.6883,-0.01273 -47.73985,12.34853 -61.39,32.92c-2.25937,-0.73463 -4.56001,-1.33567 -6.89,-1.8v0l0.42,-2l8.47,-3.44c-1.65,-0.51 -3.31,-0.94 -5,-1.33c18.7369,-24.06535 49.24854,-35.792 79.28,-30.47c3.50967,0.6199 6.97151,1.48536 10.36,2.59c0.43806,2.74297 0.73512,5.5066 0.89,8.28c-8.35263,-3.15742 -17.21053,-4.76702 -26.14,-4.75z" id="Path 1" fill="#231815"/><path d="M816.25,490.59273c1.46,3.8 -1.62,8.23 -5.23,9.22c-4.18,1.15 -7.78,-1.45 -9.23,-5.23l-7.38,-19.21c-1.46,-3.8 1.63,-8.23 5.24,-9.22c4.18,-1.15 7.78,1.46 9.23,5.24c2.46,6.4 4.91667,12.8 7.37,19.2z" id="Path 1" fill="#1f3caf"/><path d="M767.39,234.69273c33.70664,6.95833 59.57031,34.08092 64.92,68.08c-3.37216,-1.10238 -6.81721,-1.96782 -10.31,-2.59c-30.01045,-5.29216 -60.48822,6.43568 -79.21,30.48c-23.56027,-5.36424 -48.23209,1.6079 -65.5,18.51c-11.16004,-24.7286 -9.53974,-53.349 4.34,-76.66c17.54,-28.92 52.48,-44.57 85.76,-37.82z" id="Path 1" fill="#f8b62d"/><path d="M800.72985,448.65258c1.46,3.8 -1.63,8.23 -5.24,9.22c-4.18,1.15 -7.78,-1.46 -9.23,-5.24l-7.32,-19.18c-1.46,-3.8 1.62,-8.23 5.24,-9.22c4.18,-1.15 7.77,1.46 9.22,5.24z" id="Path 1" fill="#1f3caf"/><path d="M778.29,490.59273c1.46,3.8 -1.62,8.23 -5.24,9.22c-4.18,1.15 -7.77,-1.45 -9.22,-5.23l-7.38,-19.2c-1.46,-3.81 1.63,-8.24 5.24,-9.23c4.18,-1.15 7.78,1.46 9.23,5.24z" id="Path 1" fill="#1f3caf"/><path d="M762.75985,448.65258c1.46,3.8 -1.62,8.23 -5.23,9.22c-4.18,1.15 -7.78,-1.46 -9.23,-5.24c-2.46,-6.4 -4.91667,-12.8 -7.37,-19.2c-1.46,-3.8 1.62,-8.23 5.23,-9.22c4.18,-1.15 7.78,1.46 9.23,5.24c2.46,6.4 4.91667,12.8 7.37,19.2z" id="Path 1" fill="#1f3caf"/><path d="M759.06,156.43273v33.65c0,9.67 -15,9.66 -15,0v-33.65c0,-9.67 15,-9.65 15,0z" id="Path 1" fill="#231815"/><path d="M747.72,331.99273l-8.47,3.44c1.11,-1.64 2.28,-3.23 3.49,-4.77c1.67,0.39 3.33,0.85 4.98,1.33z" id="Path 1" fill="#231815"/><path d="M677.24,349.17273c17.26791,-16.9021 41.93973,-23.87424 65.5,-18.51c-1.21,1.54 -2.38,3.13 -3.49,4.77l-0.42,2c-21.2837,-4.28575 -43.26271,2.82711 -58,18.77c-1.31346,-2.28183 -2.51163,-4.62811 -3.59,-7.03z" id="Path 1" fill="#231815"/><path d="M695.61,203.03273c4.84,8.38 -8.13,15.92 -13,7.57l-16.83,-29.15c-4.78,-8.38 8.22,-15.94 13,-7.57z" id="Path 1" fill="#231815"/><path d="M664.31,398.43273c0,34.36868 27.86132,62.23 62.23,62.23h7.24c0,3.78 -2.38,7.55 -7.24,7.5c-17.57091,-0.12931 -34.46857,-6.77506 -47.42,-18.65c-23.28,-21.41 -28.82,-57.13 -13.66,-84.78c0.5,-0.92 1,-1.82 1.57,-2.71c0.53,1 1.08,1.91 1.65,2.86c0.91,1.5 1.87,3 2.86,4.4c-4.76525,8.97626 -7.24827,18.98729 -7.23,29.15z" id="Path 1" fill="#231815"/><path d="M680.86,356.18273c1.3117,2.25857 2.74376,4.44505 4.29,6.55c-3.45093,4.045 -6.30335,8.56443 -8.47,13.42c-1.81333,-2.18667 -3.52667,-4.46667 -5.14,-6.84c2.52273,-4.76318 5.65581,-9.17706 9.32,-13.13z" id="Path 1" fill="#231815"/><path d="M848.15,309.96273c-4.99683,-2.97705 -10.30955,-5.38856 -15.84,-7.19c-5.34969,-33.99908 -31.21336,-61.12167 -64.92,-68.08c-33.28,-6.75 -68.22,8.9 -85.76,37.85c-13.88559,23.29494 -15.52443,51.9017 -4.39,76.63c-3.92359,3.86168 -7.36224,8.18686 -10.24,12.88c-19.27,-34.5 -15,-78.17 10,-108.75c25.37,-31 69.58,-43.25 107.27,-29.43c36.49271,13.47468 61.56059,47.25824 63.88,86.09z" id="Path 1" fill="#231815"/><path d="M680.86,356.18273c-3.66419,3.95294 -6.79727,8.36682 -9.32,13.13c-1,-1.44 -1.95,-2.9 -2.86,-4.4c-0.57,-0.95 -1.12,-1.9 -1.65,-2.86c2.86843,-4.69149 6.29694,-9.01659 10.21,-12.88c1.08876,2.3957 2.29694,4.7353 3.62,7.01z" id="Path 1" fill="#231815"/><path d="M726.54,453.16273c4.8,0.05 7.21,3.78 7.24,7.5h-7.24c-21.82409,-0.00454 -42.05143,-11.43945 -53.30841,-30.13627c-11.25698,-18.69682 -11.89884,-41.92376 -1.69159,-61.21373c1.62,2.37333 3.33333,4.65333 5.14,6.84c-5.19328,11.49188 -6.25317,24.42598 -3,36.61c6.5,23.8 28.32,40.13 52.86,40.4z" id="Path 1" fill="#231815"/><path d="M647.22,246.04273c8.37,4.83 0.8,17.78 -7.57,12.95l-29.15,-16.83c-8.36,-4.83 -0.8,-17.79 7.57,-13z" id="Path 1" fill="#231815"/><path d="M639.65,370.89273c8.38,-4.84 15.93,8.13 7.57,12.95l-29.15,16.83c-8.38,4.84 -15.92,-8.13 -7.57,-13z" id="Path 1" fill="#231815"/><path d="M626.71,307.44273c9.66,0 9.65,15 0,15h-33.66c-9.67,0 -9.65,-15 0,-15z" id="Path 1" fill="#231815"/></g></g></g></g></g></svg>