<svg version="1.1" xmlns="http://www.w3.org/2000/svg" xmlns:xlink="http://www.w3.org/1999/xlink" width="721" height="571" viewBox="460,49.80002,721,571"><defs><clipPath id="clip-1"><rect x="460" y="49.80002" width="500" height="500" id="clip-1" fill="none" stroke="none"/></clipPath></defs><g id="document" fill-opacity="0" fill="#ffffff" fill-rule="nonzero" stroke-opacity="0.8" stroke="#000000" stroke-width="0" stroke-linecap="butt" stroke-linejoin="miter" stroke-miterlimit="10" stroke-dasharray="" stroke-dashoffset="0" font-family="none" font-weight="none" font-size="none" text-anchor="none" style="mix-blend-mode: normal"><rect x="725.2" y="119" transform="scale(0.71429,1)" width="700" height="500" id="Shape 1 1" vector-effect="non-scaling-stroke"/></g><g fill="none" fill-rule="nonzero" stroke="none" stroke-width="1" stroke-linecap="butt" stroke-linejoin="miter" stroke-miterlimit="10" stroke-dasharray="" stroke-dashoffset="0" font-family="none" font-weight="none" font-size="none" text-anchor="none" style="mix-blend-mode: normal"><g><g id="stage"><g id="layer1 1"><g id="Group 1" stroke="none"><g id="Group 1" fill="none"><rect x="599" y="218.80002" width="582" height="402" id="Shape 1"/></g><g id="Group 1"><circle cx="795.94" cy="545.81002" r="17.62" id="Shape 1" fill="#ffffff"/><path d="M806.05,545.80002c-0.5,13.09 -20.24,13 -20.24,0c0,-13 19.73,-13.1 20.24,0c0.37,9.62 15.37,9.67 15,0c-0.53,-13.67 -11.07,-25.07 -25.12,-25.12c-13.87339,0 -25.12,11.24661 -25.12,25.12c0,13.87339 11.24661,25.12 25.12,25.12c14,0 24.59,-11.49 25.12,-25.12c0.38,-9.65 -14.63,-9.63 -15,0z" id="Path 1" fill="#231815"/></g></g><g clip-path="url(#clip-1)" id="Group 1"><g id="Group 1"><path d="M743.75,353.91002c18.72866,-24.05846 49.22792,-35.7848 79.25,-30.47c3.50966,0.61996 6.97149,1.48542 10.36,2.59c-5.3551,-33.9964 -31.21629,-61.11638 -64.92,-68.08c-33.33,-6.75 -68.27,8.85 -85.8,37.85c-13.88491,23.27564 -15.53124,51.86434 -4.41,76.58c0.47,-0.46 0.94,-0.92 1.42,-1.37c17.18408,-16.02196 41.21884,-22.43373 64.1,-17.1z" id="Path 1" fill="#f8b62d" stroke="#231815"/><path d="M678.23,372.38002c-11.12124,-24.71566 -9.47491,-53.30436 4.41,-76.58c17.54,-28.95 52.48,-44.6 85.76,-37.86c33.70371,6.96362 59.5649,34.0836 64.92,68.08c5.53075,1.80066 10.84356,4.21222 15.84,7.19c-2.3161,-38.82678 -27.37513,-72.60899 -63.86,-86.09c-37.69,-13.82 -81.9,-1.62 -107.27,29.43c-25,30.6 -29.26,74.3 -10,108.8c2.85895,-4.72271 6.28434,-9.07832 10.2,-12.97z" id="Path 1" fill="#231815" stroke="#231815"/><path d="M760.07,213.34002v-33.65c0,-9.65 -15,-9.67 -15,0v33.65c0,9.65 15,9.67 15,0zM752.57,179.69002z" id="CompoundPath 1" fill="#231815" stroke="#231815"/><path d="M683.66,233.85002c4.83,8.36 17.79,0.81 13,-7.57l-16.83,-29.15c-4.83,-8.36 -17.79,-0.81 -13,7.57zM690.14,230.06002l-16.83,-29.15z" id="CompoundPath 1" fill="#231815" stroke="#231815"/><path d="M648.22,269.29002l-29.15,-16.83c-8.37,-4.84 -15.94,8.12 -7.57,13l29.15,16.83c8.35,4.79 15.94,-8.17 7.57,-13zM615.29,258.94002l29.15,16.86z" id="CompoundPath 1" fill="#231815" stroke="#231815"/><path d="M594.06,345.70002h33.65c9.65,0 9.67,-15 0,-15h-33.65c-9.66,0 -9.67,15 0,15zM627.71,338.20002z" id="CompoundPath 1" fill="#231815" stroke="#231815"/><path d="M619.08,423.93002l29.15,-16.83c8.36,-4.83 0.81,-17.79 -7.57,-13l-29.15,16.83c-8.36,4.87 -0.82,17.87 7.57,13zM644.44,400.63002l-29.15,16.83z" id="CompoundPath 1" fill="#231815" stroke="#231815"/><path d="M877.42,345.70002h33.65c9.65,0 9.67,-15 0,-15h-33.65c-9.65,0 -9.67,15 0,15zM877.42,338.20002z" id="CompoundPath 1" fill="#231815" stroke="#231815"/><path d="M864.48,282.24002l29.15,-16.83c8.36,-4.83 0.81,-17.79 -7.57,-13l-29.15,16.83c-8.36,4.88 -0.81,17.84 7.57,13zM889.84,258.94002l-29.14,16.86z" id="CompoundPath 1" fill="#231815" stroke="#231815"/><path d="M821.47,233.85002l16.83,-29.15c4.84,-8.37 -8.12,-15.94 -13,-7.57l-16.83,29.15c-4.79,8.38 8.17,15.94 13,7.57zM831.82,200.92002l-16.82,29.15z" id="CompoundPath 1" fill="#231815" stroke="#231815"/><path d="M884.25,375.17002c0.54,1.41 1.05,2.84 1.51,4.29c0.45485,1.31785 0.51051,2.74065 0.16,4.09c23.59124,8.60023 37.60447,32.89494 33.23651,57.62208c-4.36796,24.72714 -25.85654,42.75059 -50.96651,42.74792h-140.65c-21.8265,0.00128 -42.05823,-11.43255 -53.31645,-30.13143c-11.25822,-18.69889 -11.89707,-41.92919 -1.68355,-61.21857c-1,-1.44 -1.95,-2.9 -2.86,-4.4c-0.56,-0.93 -1.1,-1.87 -1.62,-2.81c-8.64032,14.41111 -11.90948,31.41219 -9.23,48c3.79347,22.31192 18.17667,41.39631 38.58,51.19c11.68,5.47 23.78,6.86 36.45,6.86h123.45c9.8,0 19.5,0.28 29,-2.82c24.63,-8.06 41.85,-31.83 41.13,-57.87c-0.86699,-25.90899 -18.29415,-48.3234 -43.19,-55.55z" id="Path 1" fill="#231815" stroke="#231815"/><path d="M727.54,359.45002c6.511,-0.01068 12.98324,1.00166 19.18,3c19.03277,-28.62828 55.32079,-40.30947 87.48,-28.16c-0.15605,-2.77662 -0.4531,-5.54353 -0.89,-8.29c-3.37292,-1.09217 -6.81796,-1.94758 -10.31,-2.56c-30.00897,-5.29905 -60.48865,6.42568 -79.21,30.47c1.67,0.38 3.32,0.82 5,1.33l-8.47,3.45c1.12,-1.64 2.28667,-3.23333 3.5,-4.78c-22.88431,-5.33728 -46.9237,1.07473 -64.11,17.1c-0.48,0.45 -1,0.91 -1.42,1.38c1.09017,2.41304 2.30172,4.76939 3.63,7.06c11.74592,-12.74564 28.28743,-19.9975 45.62,-20z" id="Path 1" fill="#231815" stroke="#231815"/><path d="M748.72,355.24002c-1.65,-0.51 -3.3,-0.95 -5,-1.33c-1.21333,1.54667 -2.38,3.14 -3.5,4.78z" id="Path 1" fill="#231815" stroke="#231815"/><path d="M849.22,342.08002c11.88286,8.00574 21.18601,19.28904 26.78,32.48c1.43434,-0.58079 3.01335,-0.70306 4.52,-0.35c1.26,0.27 2.5,0.6 3.73,1c-6.66096,-17.53888 -19.02259,-32.33058 -35.1,-42c0.1,1.65 0.17,3.31 0.18,5c-0.01,1.29 -0.05,2.59 -0.11,3.87z" id="Path 1" fill="#231815" stroke="#231815"/><path d="M876,374.56002c0.95833,2.25279 1.80273,4.55236 2.53,6.89c2.51236,0.5143 4.98262,1.21627 7.39,2.1c0.35051,-1.34935 0.29485,-2.77215 -0.16,-4.09c-0.46,-1.45 -1,-2.87 -1.51,-4.29c-1.23,-0.35 -2.47,-0.68 -3.73,-1c-1.51075,-0.3404 -3.08988,-0.20415 -4.52,0.39z" id="Path 1" fill="#231815" stroke="#231815"/><path d="M849.33,338.20002c0.06,-8.29 -11,-9.46 -14.15,-3.5c4.69219,1.86664 9.17927,4.21239 13.39,7c0.53456,-1.08737 0.79545,-2.28885 0.76,-3.5z" id="Path 1" fill="#231815" stroke="#231815"/><path d="M849.22,342.08002c0.06,-1.29 0.11,-2.59 0.12,-3.89c0.02584,1.19852 -0.23833,2.38554 -0.77,3.46z" id="Path 1" fill="#231815" stroke="#231815"/><path d="M672.54,392.57002c2.5262,-4.76104 5.65898,-9.17448 9.32,-13.13c-1.32828,-2.29061 -2.53983,-4.64696 -3.63,-7.06c-3.90708,3.90272 -7.32241,8.26844 -10.17,13c0.53,0.94 1.06,1.88 1.62,2.81c0.91,1.48 1.88,2.94 2.86,4.38z" id="Path 1" fill="#231815" stroke="#231815"/><path d="M834.21,334.31002l1,0.38c3.17,-6 14.22,-4.79 14.15,3.5c0,-1.67 -0.08,-3.33 -0.18,-5c-4.99644,-2.97778 -10.30925,-5.38934 -15.84,-7.19c0.43087,2.75344 0.72125,5.52703 0.87,8.31z" id="Path 1" fill="#231815" stroke="#231815"/><path d="M912.36,429.30002c1,19.06 -10.19,37.28 -28.18,44.17c-8.12,3.11 -16.25,2.95 -24.71,2.95h-115.47c-5.48,0 -11,0.05 -16.45,0c-18.56998,0.02914 -35.88697,-9.36338 -45.99014,-24.94449c-10.10317,-15.58111 -11.61303,-35.22336 -4.00986,-52.16551c1.60769,-3.6724 3.62014,-7.15394 6,-10.38c0.78,-1.05 1.59,-2.06 2.44,-3c14.38,-16.69 37.56,-22.69 58.65,-16.18c3.34,1 6.63,-0.74 8.47,-3.45c14.64,-21.53 41.42,-33.13 67.15,-28.1c4.7491,0.93217 9.38293,2.37731 13.82,4.31c0.87,0.38 1.73,0.77 2.57,1.18c0.84,0.41 1.94,1 2.89,1.49c15.01246,8.20316 26.31837,21.83823 31.6,38.11c0.37543,2.78651 2.53338,4.9973 5.31,5.44c19.48,4.16 34.8,20.35 35.91,40.57z" id="Path 1" fill="#ffffff" stroke="none"/><path d="M885.92,383.55002c23.59124,8.60023 37.60447,32.89494 33.23651,57.62208c-4.36796,24.72714 -25.85654,42.75059 -50.96651,42.74792h-140.65c-24.58343,0.01342 -46.87149,-14.4445 -56.88107,-36.89785c-10.00959,-22.45336 -5.86507,-48.69477 10.57717,-66.97038c16.44224,-18.27561 42.1012,-25.16086 65.4839,-17.57177c19.03277,-28.62828 55.32079,-40.30947 87.48,-28.16l1,0.38c4.69544,1.85954 9.18325,4.20567 13.39,7c0.22,0.14 0.44,0.28 0.65,0.43c11.8722,7.99491 21.16834,19.26422 26.76,32.44c0.95,2.24 1.8,4.54 2.53,6.89c2.5125,0.50935 4.98288,1.20801 7.39,2.09zM884.18,473.47002c18,-6.89 29.22,-25.11 28.18,-44.17c-1.11,-20.22 -16.43,-36.41 -35.82,-40.61c-2.77662,-0.4427 -4.93457,-2.65349 -5.31,-5.44c-5.28163,-16.27177 -16.58754,-29.90684 -31.6,-38.11c-1,-0.52 -1.91,-1 -2.89,-1.49c-0.98,-0.49 -1.7,-0.8 -2.57,-1.18c-4.43707,-1.93269 -9.0709,-3.37783 -13.82,-4.31c-25.73,-5 -52.51,6.57 -67.15,28.1c-1.84,2.71 -5.13,4.48 -8.47,3.45c-21.09,-6.51 -44.27,-0.51 -58.65,16.18c-0.85,1 -1.66,2 -2.44,3c-2.37986,3.22606 -4.39231,6.7076 -6,10.38c-7.60317,16.94216 -6.0933,36.58441 4.00986,52.16551c10.10317,15.58111 27.42016,24.97363 45.99014,24.94449c5.48,0.05 11,0 16.45,0h115.38c8.46,0.04 16.59,0.2 24.71,-2.91z" id="CompoundPath 1" fill="#231815" stroke="none"/></g></g></g></g></g></g></svg>