<svg version="1.1" xmlns="http://www.w3.org/2000/svg" xmlns:xlink="http://www.w3.org/1999/xlink" width="646.59579" height="545.98665" viewBox="495.40421,73.01335,646.59579,545.98665"><g id="document" fill-opacity="0" fill="#ffffff" fill-rule="nonzero" stroke-opacity="0.8" stroke="#000000" stroke-width="0" stroke-linecap="butt" stroke-linejoin="miter" stroke-miterlimit="10" stroke-dasharray="" stroke-dashoffset="0" font-family="none" font-weight="none" font-size="none" text-anchor="none" style="mix-blend-mode: normal"><rect x="725.2" y="119" transform="scale(0.71429,1)" width="700" height="500" id="Shape 1 1" vector-effect="non-scaling-stroke"/></g><g fill="none" fill-rule="nonzero" stroke="none" stroke-width="1" stroke-linecap="butt" stroke-linejoin="miter" stroke-miterlimit="10" stroke-dasharray="" stroke-dashoffset="0" font-family="none" font-weight="none" font-size="none" text-anchor="none" style="mix-blend-mode: normal"><g id="stage"><g id="layer1 1"><g id="Group 1"><g id="Group 1" fill="none" stroke="none"><rect x="495.40421" y="73.01335" width="471.92419" height="471.92419" id="Shape 1"/></g><g id="Group 1" stroke="#231815"><path d="M754.15421,374.12335c18.72866,-24.05846 49.22792,-35.7848 79.25,-30.47c3.50966,0.61996 6.97149,1.48542 10.36,2.59c-5.3551,-33.9964 -31.21629,-61.11638 -64.92,-68.08c-33.33,-6.75 -68.27,8.85 -85.8,37.85c-13.88491,23.27564 -15.53124,51.86434 -4.41,76.58c0.47,-0.46 0.94,-0.92 1.42,-1.37c17.18408,-16.02196 41.21884,-22.43373 64.1,-17.1z" id="Path 1" fill="#f8b62d"/><path d="M688.63421,392.59335c-11.12124,-24.71566 -9.47491,-53.30436 4.41,-76.58c17.54,-28.95 52.48,-44.6 85.76,-37.86c33.70371,6.96362 59.5649,34.0836 64.92,68.08c5.53075,1.80066 10.84356,4.21222 15.84,7.19c-2.3161,-38.82678 -27.37513,-72.60899 -63.86,-86.09c-37.69,-13.82 -81.9,-1.62 -107.27,29.43c-25,30.6 -29.26,74.3 -10,108.8c2.85895,-4.72271 6.28434,-9.07832 10.2,-12.97z" id="Path 1" fill="#231815"/><path d="M770.47421,233.55335v-33.65c0,-9.65 -15,-9.67 -15,0v33.65c0,9.65 15,9.67 15,0zM762.97421,199.90335z" id="CompoundPath 1" fill="#231815"/><path d="M694.06421,254.06335c4.83,8.36 17.79,0.81 13,-7.57l-16.83,-29.15c-4.83,-8.36 -17.79,-0.81 -13,7.57z" id="Path 1" fill="#231815"/><path d="M658.62421,289.50335l-29.15,-16.83c-8.37,-4.84 -15.94,8.12 -7.57,13l29.15,16.83c8.35,4.79 15.94,-8.17 7.57,-13zM625.69421,279.15335l29.15,16.86z" id="CompoundPath 1" fill="#231815"/><path d="M604.46421,365.91335h33.65c9.65,0 9.67,-15 0,-15h-33.65c-9.66,0 -9.67,15 0,15zM638.11421,358.41335z" id="CompoundPath 1" fill="#231815"/><path d="M629.48421,444.14335l29.15,-16.83c8.36,-4.83 0.81,-17.79 -7.57,-13l-29.15,16.83c-8.36,4.87 -0.82,17.87 7.57,13zM654.84421,420.84335l-29.15,16.83z" id="CompoundPath 1" fill="#231815"/><path d="M887.82421,365.91335h33.65c9.65,0 9.67,-15 0,-15h-33.65c-9.65,0 -9.67,15 0,15zM887.82421,358.41335z" id="CompoundPath 1" fill="#231815"/><path d="M874.88421,302.45335l29.15,-16.83c8.36,-4.83 0.81,-17.79 -7.57,-13l-29.15,16.83c-8.36,4.88 -0.81,17.84 7.57,13zM900.24421,279.15335l-29.14,16.86z" id="CompoundPath 1" fill="#231815"/><path d="M831.87421,254.06335l16.83,-29.15c4.84,-8.37 -8.12,-15.94 -13,-7.57l-16.83,29.15c-4.79,8.38 8.17,15.94 13,7.57zM842.22421,221.13335l-16.82,29.15z" id="CompoundPath 1" fill="#231815"/><path d="M859.73421,358.41335c0.06,-8.29 -11,-9.46 -14.15,-3.5c4.69219,1.86664 9.17927,4.21239 13.39,7c0.53456,-1.08737 0.79545,-2.28885 0.76,-3.5z" id="Path 1" fill="#231815"/><path d="M859.62421,362.29335c0.06,-1.29 0.11,-2.59 0.12,-3.89c0.02584,1.19852 -0.23833,2.38554 -0.77,3.46z" id="Path 1" fill="#231815"/><path d="M682.94421,412.78335c2.5262,-4.76104 5.65898,-9.17448 9.32,-13.13c-1.32828,-2.29061 -2.53983,-4.64696 -3.63,-7.06c-3.90708,3.90272 -7.32241,8.26844 -10.17,13c0.53,0.94 1.06,1.88 1.62,2.81c0.91,1.48 1.88,2.94 2.86,4.38z" id="Path 1" fill="#231815"/><path d="M844.61421,354.52335l1,0.38c3.17,-6 14.22,-4.79 14.15,3.5c0,-1.67 -0.08,-3.33 -0.18,-5c-4.99644,-2.97778 -10.30925,-5.38934 -15.84,-7.19c0.43087,2.75344 0.72125,5.52703 0.87,8.31z" id="Path 1" fill="#231815"/></g></g><g id="Group 1"><g id="Group 1" fill="none" stroke="none"><rect x="530.7888" y="184.53623" width="582" height="402" id="Shape 1"/></g><g id="Group 1"><path d="M828.2688,305.53623c-0.56538,1.08316 -0.8572,2.28818 -0.85,3.51c0,-1.31 -0.05,-2.6 -0.12,-3.89z" id="Path 1" fill="#231815" stroke="none"/><path d="M671.3388,343.29623c1.0859,2.39205 2.29074,4.7283 3.61,7c-3.65771,3.9582 -6.79017,8.3712 -9.32,13.13c-1,-1.44 -1.94,-2.9 -2.86,-4.41c-0.57,-0.94 -1.11,-1.89 -1.65,-2.85c2.87245,-4.68836 6.3043,-9.01008 10.22,-12.87z" id="Path 1" fill="#231815" stroke="none"/><path d="M826.4088,296.90623c0.42667,2.72 0.72333,5.48 0.89,8.28c-29.8299,-11.26371 -63.52034,-2.08164 -83.51,22.76l-2,-1.83c-1.65,-0.51 -3.31,-0.94 -5,-1.32c18.72085,-24.05157 49.20582,-35.78071 79.22,-30.48c3.52394,0.61448 6.99946,1.48002 10.4,2.59z" id="Path 1" fill="#231815" stroke="none"/><path d="M878.8588,350.33623l-5.24,-5.24c1.26,0.27 2.5,0.6 3.73,0.95c0.53,1.42 1.05,2.84 1.51,4.29z" id="Path 1" fill="#231815" stroke="none"/><path d="M662.7888,359.03623c0.92,1.51 1.88,3 2.86,4.41c-10.20863,19.28861 -9.56721,42.51534 1.69039,61.21115c11.2576,18.69581 31.48607,30.12828 53.30961,30.12885h7.24c0,3.78 -2.38,7.56 -7.24,7.5c-17.56705,-0.11075 -34.46668,-6.74302 -47.42,-18.61c-23.29,-21.42 -28.83,-57.13 -13.66,-84.79c0.5,-0.91 1,-1.82 1.56,-2.7c0.53,0.96 1.07,1.91 1.66,2.85z" id="Path 1" fill="#231815" stroke="none"/><path d="M827.2988,305.18623c0.07,1.29 0.11,2.58 0.12,3.89c0.01,1.31 -0.07,2.85 -0.15,4.27c-4.43748,-1.93158 -9.07119,-3.37668 -13.82,-4.31c-25.74,-5 -52.51,6.56 -67.16,28.1c-1.84,2.71 -5.13,4.47 -8.47,3.45c-14.89,-4.6 -30.85,-3.34 -44.43,4.49c-5.3543,3.09459 -10.13995,7.08207 -14.15,11.79c-1.54,-2.13 -3,-4.31 -4.29,-6.55c16.47958,-17.79607 41.78053,-24.4265 64.87,-17c1.24,-1.86 2.57333,-3.66 4,-5.4c19.99266,-24.8505 53.6944,-34.03344 83.53,-22.76z" id="Path 1" fill="#231815" stroke="none"/><path d="M828.2688,305.53623c4.68981,1.87183 9.17637,4.21731 13.39,7c-1.64,3.24 -5.6,4.39 -8.94,3.48c-0.94,-0.52 -1.91,-1 -2.88,-1.48c-1.57881,-1.36505 -2.46615,-3.36341 -2.42,-5.45c-0.01377,-1.23532 0.27823,-2.45487 0.85,-3.55z" id="Path 1" fill="#231815" stroke="none"/><path d="M826.4088,296.90623c5.52891,1.79721 10.83878,4.20896 15.83,7.19c0.09,1.48 0.16,3 0.17,4.46c-0.39,-7.83 -11,-8.82 -14.14,-3l-1,-0.38c-0.14,-2.79333 -0.42667,-5.55 -0.86,-8.27z" id="Path 1" fill="#231815" stroke="none"/><path d="M743.4288,454.78623h45.43c-0.01725,1.24559 -0.31099,2.47179 -0.86,3.59l-15.85,32.16c11.82,-11.93333 23.64667,-23.86 35.48,-35.78h21.16c-25.84,26.06667 -51.68333,52.13 -77.53,78.19c-1.38793,2.38309 -4.18688,3.55816 -6.86,2.88c-4.8,-0.8 -8.68,-6.62 -5.58,-11.4l30.71,-62.37h-18.64c-4.02164,-0.06033 -7.29596,-3.25125 -7.46,-7.27z" id="Path 1" fill="#231815" stroke="none"/><path d="M744.4088,450.80623l10.82,-18.45c4.96,-8.48 9.92333,-16.95333 14.89,-25.42c1,-1.68 1.86,-3.41 2.83,-5c2,-3.29 4.45,-5.94 9.08,-6.11c2.27333,-0.06667 4.54667,-0.12 6.82,-0.16c13,-0.21 26,0.16 38.9,0.16c5.42,0 9.7,6.47 6.48,11.29l-12.06,18h18c6.52,0 9.87,8.2 5.3,12.8l-11.93,12c-1.6,1.61 -3.19,3.22 -4.79,4.82h-21.12l14.54,-14.66h-14c-5.42,0 -9.71,-6.47 -6.48,-11.29l12.06,-18h-28.53l-21.24,36.25h17.55c2.01262,-0.0113 3.94062,0.80885 5.32832,2.2666c1.38771,1.45776 2.11199,3.42377 2.00168,5.4334h-45.43c-0.055,-1.37667 0.28505,-2.74034 0.98,-3.93z" id="Path 1" fill="#231815" stroke="none"/><path d="M832.7188,316.00623c3.34,0.91 7.3,-0.24 8.94,-3.48c0.21,0.15 0.43,0.29 0.65,0.43c-0.14,2.95 -0.42,5.88 -0.82,8.78c-2.76789,-2.13795 -5.70034,-4.05391 -8.77,-5.73z" id="Path 1" fill="#231815" stroke="none"/><path d="M741.7888,326.11623l2,1.83c-1.39333,1.74 -2.72667,3.54 -4,5.4c-2.25753,-0.72665 -4.55458,-1.32429 -6.88,-1.79l0.4,-2z" id="Path 1" fill="#231815" stroke="none"/><path d="M827.4188,309.07623c-0.04615,2.08659 0.84119,4.08495 2.42,5.45c-0.85,-0.41 -1.71,-0.81 -2.57,-1.18c0.08,-1.42 0.14,-2.81 0.15,-4.27z" id="Path 1" fill="#231815" stroke="none"/><path d="M658.3988,392.53623c-0.01211,-10.14923 2.47073,-20.14584 7.23,-29.11c1.62,2.37 3.34,4.65 5.14,6.84c-5.19895,11.49041 -6.259,24.4265 -3,36.61c6.47,23.8 28.33,40.12 52.84,40.39c4.79,0.06 7.2,3.78 7.24,7.5h-7.24c-34.36087,-0.01104 -62.21,-27.86913 -62.21,-62.23z" id="Path 1" fill="#231815" stroke="none"/><path d="M736.7888,324.79623c1.67,0.38 3.33,0.81 5,1.32l-8.45,3.42c1.12,-1.62 2.27,-3.2 3.45,-4.74z" id="Path 1" fill="#231815" stroke="none"/><path d="M840.1688,425.12623h-18l12.06,-18c3.22,-4.82 -1.06,-11.29 -6.48,-11.29c-12.94,0 -25.95,-0.37 -38.9,-0.16c-2.28,0.04 -4.55333,0.09333 -6.82,0.16c-4.63,0.17 -7.06,2.82 -9.08,6.11c-1,1.58 -1.85,3.31 -2.83,5c-4.96667,8.46667 -9.93,16.94 -14.89,25.42l-10.82,18.45c-0.71505,1.20779 -1.06256,2.59781 -1,4h-15.53c0,-3.72 -2.45,-7.44 -7.24,-7.5c-24.51,-0.27 -46.37,-16.59 -52.84,-40.39c-3.259,-12.1835 -2.19895,-25.11959 3,-36.61c2.16567,-4.8561 5.01818,-9.37565 8.47,-13.42c4.01005,-4.70793 8.7957,-8.69541 14.15,-11.79c13.58,-7.83 29.54,-9.09 44.43,-4.49c3.34,1 6.63,-0.74 8.47,-3.45c14.65,-21.54 41.42,-33.14 67.16,-28.1c4.74881,0.93332 9.38252,2.37842 13.82,4.31c0.86,0.37 1.72,0.77 2.57,1.18c0.85,0.41 1.94,1 2.88,1.48c15.07163,8.24495 26.40678,21.95666 31.67,38.31c0.70508,2.54578 2.69422,4.53492 5.24,5.24c22.53,4.89 38.5,25.75 35.61,49c-2.74,22.1 -22,38.41 -44,38.7c-4.78,0.07 -7.19,3.79 -7.24,7.5h-25.24c1.6,-1.6 3.19,-3.21 4.79,-4.82l11.93,-12c4.53,-4.64 1.18,-12.84 -5.34,-12.84z" id="Path 1" fill="#b0b0b0" stroke="none"/><path d="M813.7088,410.83623l-12.06,18c-3.23,4.82 1.06,11.29 6.48,11.29h14l-14.54,14.66h-18.73c0.11031,-2.00963 -0.61397,-3.97564 -2.00168,-5.4334c-1.38771,-1.45776 -3.3157,-2.2779 -5.32832,-2.2666h-17.55l21.24,-36.25z" id="Path 1" fill="#faee00" stroke="none"/><path d="M842.4188,309.14623c0,0.14 0,0.28 0,0.42c0,-0.14 0,-0.28 0,-0.42z" id="Path 1" fill="#231815" stroke="none"/><path d="M674.9488,350.31623c1.31,2.24 2.75,4.42 4.29,6.55c-3.44477,4.04561 -6.29051,8.5651 -8.45,13.42c-1.8,-2.19 -3.52,-4.47 -5.14,-6.84c2.52362,-4.75768 5.64931,-9.17063 9.3,-13.13z" id="Path 1" fill="#231815" stroke="none"/><path d="M841.6588,312.53623c0.44457,-0.89852 0.69985,-1.87877 0.75,-2.88c0,1.11 -0.05,2.21 -0.1,3.31c-0.22,-0.15 -0.44,-0.29 -0.65,-0.43z" id="Path 1" fill="#231815" stroke="none"/><path d="M861.2788,454.78623c26.57719,0.01403 48.84419,-20.10631 51.5153,-46.54893c2.6711,-26.44262 -15.12221,-50.60966 -41.1653,-55.91107c-5.00915,-16.07709 -15.35184,-29.96494 -29.32,-39.37c0.05,-1.1 0.09,-2.2 0.1,-3.31v-0.11c0,-0.14 0,-0.28 0,-0.42v-0.07c0,-0.18 0,-0.35 0,-0.52c0,-1.5 -0.08,-3 -0.17,-4.46c16.07255,9.65503 28.43688,24.42813 35.11,41.95c-1.23,-0.35 -2.47,-0.68 -3.73,-0.95l5.24,5.24c-0.46,-1.45 -1,-2.87 -1.51,-4.29c27.42,7.88 46.27,35.15 42.73,63.9c-3.77507,29.68463 -28.8779,52.02956 -58.8,52.34c-4.87,0.07 -7.28,-3.71 -7.24,-7.5z" id="Path 1" fill="#231815" stroke="none"/><path d="M674.9488,350.31623c-1.31926,-2.2717 -2.5241,-4.60795 -3.61,-7c17.25229,-16.89383 41.9037,-23.8693 65.45,-18.52c-1.21333,1.54 -2.37667,3.13 -3.49,4.77l-0.4,2c-21.28261,-4.30036 -43.26717,2.81051 -58,18.76z" id="Path 1" fill="#231815" stroke="none"/><path d="M828.2688,305.53623c3.1,-5.83 13.75,-4.84 14.14,3c0,0.17 0,0.34 0,0.52v0.07c0,0.14 0,0.28 0,0.42v0.08c-0.05015,1.00123 -0.30543,1.98148 -0.75,2.88c-4.21489,-2.77231 -8.70141,-5.10772 -13.39,-6.97z" id="Path 1" fill="#231815" stroke="none"/><path d="M913.0288,403.04623c0,13.72403 -5.45254,26.88582 -15.15783,36.58924c-9.7053,9.70342 -22.86814,15.15341 -36.59217,15.15076h-7.24c0,-3.71 2.46,-7.43 7.24,-7.5c22,-0.29 41.22,-16.6 44,-38.7c2.89,-23.28 -13.08,-44.14 -35.61,-49c-2.54578,-0.70508 -4.53492,-2.69422 -5.24,-5.24c-4.14053,-12.93708 -12.12949,-24.30303 -22.9,-32.58c0.4,-2.9 0.68,-5.83 0.82,-8.78c13.96816,9.40506 24.31085,23.29291 29.32,39.37c24.06887,4.94072 41.34929,26.11926 41.36,50.69z" id="Path 1" fill="#231815" stroke="none"/><path d="M807.6288,454.78623c-11.82667,11.92667 -23.65333,23.84333 -35.48,35.75l15.85,-32.19c0.54901,-1.11821 0.84275,-2.34441 0.86,-3.59z" id="Path 1" fill="#faee00" stroke="none"/><path d="M661.1188,356.18623c-0.54,0.88 -1.06,1.79 -1.56,2.7c-15.17,27.66 -9.63,63.37 13.66,84.79c12.95332,11.86698 29.85295,18.49925 47.42,18.61c4.86,0.06 7.27,-3.72 7.24,-7.5" id="Path 1" fill="none" stroke="#231815"/><path d="M736.7888,324.79623c-23.55554,-5.36893 -48.22515,1.59989 -65.49,18.5" id="Path 1" fill="none" stroke="#231815"/><path d="M826.4088,296.90623c-3.38748,-1.10814 -6.84957,-1.97366 -10.36,-2.59c-30.02728,-5.31647 -60.53185,6.41428 -79.26,30.48" id="Path 1" fill="none" stroke="#231815"/><path d="M854.0388,454.78623c0,3.79 2.37,7.57 7.24,7.5c29.9221,-0.31044 55.02493,-22.65537 58.8,-52.34c3.54,-28.75 -15.31,-56 -42.73,-63.9" id="Path 1" fill="none" stroke="#231815"/><path d="M877.3488,346.04623c-6.67312,-17.52187 -19.03745,-32.29497 -35.11,-41.95" id="Path 1" fill="none" stroke="#231815"/><path d="M877.3488,346.04623c0.53,1.42 1,2.84 1.51,4.29l-5.24,-5.24c1.26,0.27 2.5,0.6 3.73,0.95z" id="Path 1" fill="none" stroke="#231815"/><path d="M741.7888,326.11623c-1.65,-0.51 -3.31,-0.94 -5,-1.32c-1.21333,1.54 -2.37667,3.13 -3.49,4.77z" id="Path 1" fill="none" stroke="#231815"/><path d="M842.4088,308.53623c0,-1.5 -0.08,-3 -0.17,-4.46c-4.99122,-2.98104 -10.30109,-5.39279 -15.83,-7.19c0.42667,2.72 0.72333,5.48 0.89,8.28" id="Path 1" fill="none" stroke="#231815"/><path d="M828.2688,305.53623c3.1,-5.83 13.75,-4.84 14.14,3" id="Path 1" fill="none" stroke="#231815"/><path d="M674.9488,350.31623c-1.31926,-2.2717 -2.5241,-4.60795 -3.61,-7c-3.91699,3.86614 -7.34889,8.19463 -10.22,12.89c0.54,1 1.08,1.91 1.65,2.85c0.92,1.51 1.88,3 2.86,4.41" id="Path 1" fill="none" stroke="#231815"/><path d="M842.4088,308.53623c0,0.17 0,0.34 0,0.52v0.07" id="Path 1" fill="none" stroke="#231815"/><path d="M842.4088,309.53623c0,-0.14 0,-0.28 0,-0.42" id="Path 1" fill="none" stroke="#231815"/><path d="M842.4088,309.53623v0.08" id="Path 1" fill="none" stroke="#231815"/><path d="M842.3088,312.95623c0.05,-1.1 0.09,-2.2 0.1,-3.31" id="Path 1" fill="none" stroke="#231815"/><path d="M841.4888,321.73623c10.77051,8.27697 18.75947,19.64292 22.9,32.58c0.70508,2.54578 2.69422,4.53492 5.24,5.24c22.53,4.89 38.5,25.75 35.61,49c-2.74,22.1 -22,38.41 -44,38.7c-4.78,0.07 -7.19,3.79 -7.24,7.5h7.24c26.57719,0.01403 48.84419,-20.10631 51.5153,-46.54893c2.6711,-26.44262 -15.12221,-50.60966 -41.1653,-55.91107c-5.00915,-16.07709 -15.35184,-29.96494 -29.32,-39.37" id="Path 1" fill="none" stroke="#231815"/><path d="M827.2988,305.18623c-29.8299,-11.26371 -63.52034,-2.08164 -83.51,22.76c-1.39333,1.74 -2.72667,3.54 -4,5.4c-2.25753,-0.72665 -4.55458,-1.32429 -6.88,-1.79c-21.28261,-4.30036 -43.26717,2.81051 -58,18.76" id="Path 1" fill="none" stroke="#231815"/><path d="M679.2388,356.86623c4.01005,-4.70793 8.7957,-8.69541 14.15,-11.79c13.58,-7.83 29.54,-9.09 44.43,-4.49c3.34,1 6.63,-0.74 8.47,-3.45c14.65,-21.54 41.42,-33.14 67.16,-28.1c4.74881,0.93332 9.38252,2.37842 13.82,4.31" id="Path 1" fill="none" stroke="#231815"/><path d="M665.6288,363.44623c-10.20863,19.28861 -9.56721,42.51534 1.69039,61.21115c11.2576,18.69581 31.48607,30.12828 53.30961,30.12885h7.24c0,-3.72 -2.45,-7.44 -7.24,-7.5c-24.51,-0.27 -46.37,-16.59 -52.84,-40.39c-3.259,-12.1835 -2.19895,-25.11959 3,-36.61" id="Path 1" fill="none" stroke="#231815"/><path d="M841.6588,312.53623c-4.21363,-2.78269 -8.70019,-5.12817 -13.39,-7" id="Path 1" fill="none" stroke="#231815"/><path d="M829.8388,314.53623c1,0.47 1.94,1 2.88,1.48" id="Path 1" fill="none" stroke="#231815"/><path d="M674.9488,350.31623c-3.65771,3.9582 -6.79017,8.3712 -9.32,13.13c1.62,2.37 3.34,4.65 5.14,6.84c2.16567,-4.8561 5.01818,-9.37565 8.47,-13.42c-1.54,-2.13 -2.98,-4.33 -4.29,-6.55z" id="Path 1" fill="none" stroke="#231815"/><path d="M828.2688,305.53623l-1,-0.38c0.07,1.29 0.11,2.58 0.12,3.89c0.00205,-1.22434 0.3042,-2.42951 0.88,-3.51z" id="Path 1" fill="none" stroke="#231815"/><path d="M827.4188,309.07623c0,1.42 -0.07,2.85 -0.15,4.27c0.86,0.37 1.72,0.77 2.57,1.18c-1.57881,-1.36505 -2.46615,-3.36341 -2.42,-5.45z" id="Path 1" fill="none" stroke="#231815"/><path d="M832.7188,316.00623c3.06966,1.67609 6.00211,3.59205 8.77,5.73c0.4,-2.9 0.68,-5.83 0.82,-8.78c-0.22,-0.14 -0.44,-0.28 -0.65,-0.43c-1.64,3.24 -5.6,4.39 -8.94,3.48z" id="Path 1" fill="none" stroke="#231815"/><path d="M828.7888,454.78623c1.6,-1.6 3.19,-3.21 4.79,-4.82l11.93,-12c4.57,-4.6 1.22,-12.8 -5.3,-12.8h-18l12.06,-18c3.22,-4.82 -1.06,-11.29 -6.48,-11.29c-12.94,0 -25.95,-0.37 -38.9,-0.16c-2.28,0.04 -4.55333,0.09333 -6.82,0.16c-4.63,0.17 -7.06,2.82 -9.08,6.11c-1,1.58 -1.85,3.31 -2.83,5c-4.96667,8.46667 -9.93,16.94 -14.89,25.42l-10.82,18.45c-0.71505,1.20779 -1.06256,2.59781 -1,4c0.14852,4.03051 3.42722,7.23888 7.46,7.3h18.6l-30.72,62.3c-3.1,4.78 0.78,10.6 5.58,11.4c2.67312,0.67816 5.47207,-0.49691 6.86,-2.88c25.83333,-26.06 51.68667,-52.12333 77.56,-78.19z" id="Path 1" fill="none" stroke="#231815"/><path d="M807.6288,454.78623c-11.82667,11.92667 -23.65333,23.84333 -35.48,35.75l15.85,-32.19c0.54901,-1.11821 0.84275,-2.34441 0.86,-3.59c0.11031,-2.00963 -0.61397,-3.97564 -2.00168,-5.4334c-1.38771,-1.45776 -3.3157,-2.2779 -5.32832,-2.2666h-17.55l21.24,-36.25h28.49l-12.06,18c-3.23,4.82 1.06,11.29 6.48,11.29h14z" id="Path 1" fill="none" stroke="#231815"/></g></g><g id="Group 1" stroke="none"><g id="Group 1" fill="none"><rect x="560" y="90.43806" width="582" height="402" id="Shape 1"/></g><g id="Group 1" fill="#1f3caf"><path d="M873.87,515.66806c1.46,3.8 -1.62,8.23 -5.24,9.22c-4.18,1.15 -7.77,-1.46 -9.22,-5.23l-7.41,-19.22c-1.46,-3.8 1.62,-8.23 5.24,-9.22c4.18,-1.15 7.77,1.46 9.22,5.24z" id="Path 1"/><path d="M835.91,515.66806c1.46,3.8 -1.63,8.23 -5.24,9.22c-4.18,1.15 -7.78,-1.46 -9.23,-5.23c-2.44667,-6.4 -4.90333,-12.80333 -7.37,-19.21c-1.46,-3.8 1.62,-8.23 5.24,-9.22c4.18,-1.15 7.77,1.46 9.22,5.24z" id="Path 1"/></g></g></g></g></g></svg>