<svg version="1.1" xmlns="http://www.w3.org/2000/svg" xmlns:xlink="http://www.w3.org/1999/xlink" width="604.13386" height="533.99526" viewBox="451.48268,85.00474,604.13386,533.99526"><g id="document" fill-opacity="0" fill="#ffffff" fill-rule="nonzero" stroke-opacity="0.8" stroke="#000000" stroke-width="0" stroke-linecap="butt" stroke-linejoin="miter" stroke-miterlimit="10" stroke-dasharray="" stroke-dashoffset="0" font-family="none" font-weight="none" font-size="none" text-anchor="none" style="mix-blend-mode: normal"><rect x="725.2" y="119" transform="scale(0.71429,1)" width="700" height="500" id="Shape 1 1" vector-effect="non-scaling-stroke"/></g><g fill="none" fill-rule="nonzero" stroke="none" stroke-width="1" stroke-linecap="butt" stroke-linejoin="miter" stroke-miterlimit="10" stroke-dasharray="" stroke-dashoffset="0" font-family="none" font-weight="none" font-size="none" text-anchor="none" style="mix-blend-mode: normal"><g id="stage"><g id="layer1 1"><g id="Group 1" stroke="none"><g id="Group 1" fill="none"><rect x="1017.78258" y="444.21959" transform="scale(0.65985,0.65985)" width="582" height="402" id="Shape 1"/></g><g id="Group 1"><path d="M894.01061,541.38301h-11.45505v-4.84332l1.97956,-1.14155c0.50809,0.26394 0.99638,0.52128 1.43848,0.77863l5.57576,3.23988c0.74326,0.44951 1.59273,0.69319 2.46125,0.70604z" id="Path 1" fill="#ffffff"/><path d="M837.24343,539.41664l5.56916,-3.23988c0.4355,-0.25074 0.93039,-0.50809 1.44508,-0.77863l2.10493,1.22073v4.76414h-11.58702v-1.26032c0.87096,-0.01041 1.72318,-0.25423 2.46785,-0.70604z" id="Path 1" fill="#ffffff"/><path d="M892.67111,519.27132c5.52957,-3.19369 10.50487,5.36461 4.99509,8.5451l-3.20029,1.84759l2.07854,1.20093c4.66516,2.712 1.8014,9.23795 -2.53384,9.23795c-0.86852,-0.01286 -1.71799,-0.25654 -2.46125,-0.70604l-5.57576,-3.23988c-0.4421,-0.25734 -0.93039,-0.51469 -1.43848,-0.77863l-1.97956,1.14155v4.84332h-9.8978v-4.82353c-1.10855,-0.63346 -2.20831,-1.27132 -3.29927,-1.91357l-1.63644,-0.94359l-3.24648,-1.87398l-0.06599,0.03959l-3.24648,1.87398l-1.70242,0.98318l-3.18709,1.83439v4.84332h-9.8978v-4.77734l-2.10493,-1.22073c-0.51469,0.27054 -1.00958,0.52788 -1.44508,0.77863l-5.56916,3.23988c-0.74467,0.45182 -1.5969,0.69564 -2.46785,0.70604c-4.34184,0 -7.1924,-6.54575 -2.53384,-9.23795l2.07854,-1.20093l-3.19369,-1.84759c-5.52297,-3.18709 -0.53448,-11.73879 4.99509,-8.5451l3.1475,1.8212c0,-0.79182 0,-1.58365 0,-2.37547c0,-6.38078 9.8978,-6.36758 9.8978,0v6.44677c0,0.51469 0,1.08216 0.04619,1.65623l2.04555,1.18774l4.98849,-2.87696c0.93039,-0.54108 2.03895,-1.31971 3.21349,-2.05214v-2.16432c-0.50809,-0.31673 -0.98978,-0.62686 -1.44508,-0.8842l-5.64175,-3.22668c-5.52957,-3.1673 -0.54108,-11.719 4.99509,-8.5451l2.03895,1.16794v-3.51042c-0.03955,-1.42353 0.56871,-2.78818 1.65384,-3.71041c1.08513,-0.92223 2.52999,-1.3025 3.92852,-1.03394c2.48089,0.16231 4.38823,2.25921 4.31544,4.74435v3.51042l2.03235,-1.16794c5.54277,-3.17389 10.51806,5.3778 4.99509,8.5451l-5.58896,3.21349c-0.4553,0.25734 -0.93699,0.56747 -1.43848,0.8842v2.06534c1.31971,0.80502 2.58003,1.70902 3.62259,2.30949l4.61897,2.679l1.97956,-1.14155c0,-0.59387 0.04619,-1.16134 0.04619,-1.66283v-6.44677c0,-6.38078 9.8978,-6.36758 9.8978,0c0,0.79182 0,1.58365 0,2.36887z" id="Path 1" fill="#1f3caf"/><path d="M897.53423,553.95348c5.52297,3.18709 0.52788,11.73879 -4.99509,8.57809l-3.02213,-1.74861c0,0.79182 0,1.58365 0,2.37547c0,6.38078 -9.8978,6.36758 -9.8978,0v-6.44677c0,-0.51469 0,-1.08216 -0.04619,-1.65623l-2.04555,-1.18774l-4.85652,2.80438c-0.96998,0.56088 -2.12473,1.37909 -3.33886,2.13133v2.10493c0.50149,0.31673 0.98978,0.62686 1.43848,0.8842l5.58896,3.21349c5.52957,3.1673 0.54108,11.719 -4.99509,8.5451l-2.03235,-1.16794v3.70178c0,6.38078 -9.8978,6.36758 -9.8978,0v-3.66219l-2.03895,1.16794c-5.53617,3.17389 -10.51806,-5.3778 -4.99509,-8.5451l5.58896,-3.21349c0.4553,-0.25734 0.93699,-0.56747 1.44508,-0.8842v-2.21711c-1.28012,-0.79182 -2.48765,-1.64963 -3.49722,-2.2369l-4.61897,-2.67241l-2.10493,1.21413c0,0.59387 -0.05279,1.15474 -0.05279,1.66283v6.44677c0,6.38078 -9.8978,6.36758 -9.8978,0c0,-0.79182 0,-1.58365 0,-2.37547l-3.01553,1.74861c-5.53617,3.19369 -10.51146,-5.36461 -5.00169,-8.57809l3.06832,-1.76841l-2.07194,-1.16134c-4.66516,-2.712 -1.8014,-9.23795 2.53384,-9.23795c0.87063,0.01264 1.72228,0.25629 2.46785,0.70604l5.56916,3.23988c0.4421,0.25734 0.93699,0.51469 1.43848,0.77863l2.11153,-1.22073v-4.61897h9.8978v4.61897l3.18709,1.77501l1.76841,1.01617l3.18049,1.84099l0.06599,0.03959l3.18049,-1.84099l1.70242,-0.98318l3.24648,-1.87398l0.06599,-0.03959v-4.61897h9.8978v4.69816l1.97956,1.14155c0.51469,-0.27054 1.00958,-0.52788 1.43848,-0.77863l5.57576,-3.23988c0.74428,-0.45272 1.59675,-0.69661 2.46785,-0.70604c4.33524,0 7.1858,6.54575 2.52724,9.23795l-2.07854,1.20093z" id="Path 1" fill="#1f3caf"/></g></g><g id="Group 1"><g id="Group 1" fill="none" stroke="none"><rect x="451.48268" y="85.00474" width="433.03465" height="433.03465" id="Shape 1"/></g><g id="Group 1"><path d="M852.12268,330.52474c3.0627,1.67864 5.99139,3.59097 8.76,5.72c10.76845,8.28528 18.75938,19.65255 22.91,32.59c0.70508,2.54578 2.69422,4.53492 5.24,5.24c22.53,4.89 38.5,25.75 35.6,49c-2.74,22.09 -22,38.41 -43.95,38.7c-4.78,0.07 -7.2,3.78 -7.24,7.5h-25.29l4.78,-4.82l11.94,-12c4.57,-4.6 1.21,-12.8 -5.31,-12.8h-18l12.06,-18c3.23,-4.82 -1.06,-11.29 -6.48,-11.29c-12.94,0 -25.94,-0.38 -38.9,-0.16c-2.27,0 -4.55,0.08 -6.82,0.16c-4.63,0.16 -7.06,2.82 -9.07,6.11c-1,1.58 -1.86,3.31 -2.84,5l-14.89,25.41l-10.81,18.45c-0.71614,1.20734 -1.06373,2.59769 -1,4h-15.54c0,-3.72 -2.44,-7.44 -7.24,-7.5c-24.5,-0.27 -46.36,-16.6 -52.84,-40.4c-3.25317,-12.18402 -2.19328,-25.11812 3,-36.61c2.16665,-4.85557 5.01907,-9.375 8.47,-13.42c4.00719,-4.70417 8.78948,-8.68828 14.14,-11.78c13.59,-7.83 29.55,-9.09 44.44,-4.5c3.34,1 6.62,-0.73 8.47,-3.44c14.64,-21.54 41.42,-33.14 67.15,-28.1c4.7476,0.93335 9.38095,2.37499 13.82,4.3c0.87,0.38 1.73,0.77 2.57,1.19c0.84,0.42 1.92,0.93 2.87,1.45z" id="Path 1" fill="#b0b0b0" stroke="none"/><path d="M756.23268,339.31474c18.72261,-24.06777 49.22384,-35.80256 79.25,-30.49c3.50866,0.62466 6.97017,1.49004 10.36,2.59c0.43859,2.74625 0.73565,5.51324 0.89,8.29c-29.83259,-11.27187 -63.53064,-2.08883 -83.52,22.76l-2,-1.83c-1.65,-0.51 -3.32,-0.94 -4.98,-1.32z" id="Path 1" fill="#231815" stroke="none"/><path d="M898.54267,237.85474c8.38,-4.85 15.94,8.15 7.57,12.95l-29.14,16.83c-8.39,4.84 -15.93,-8.13 -7.58,-13z" id="Path 1" fill="#231815" stroke="none"/><path d="M698.64267,371.37474c-3.45093,4.045 -6.30335,8.56443 -8.47,13.42c-1.81333,-2.19333 -3.52667,-4.47333 -5.14,-6.84c2.52281,-4.76065 5.65223,-9.17411 9.31,-13.13c1.31868,2.25649 2.75395,4.44278 4.3,6.55z" id="Path 1" fill="#231815" stroke="none"/><path d="M660.71268,254.68474c8.37,4.83 0.8,17.79 -7.57,13l-29.15,-16.88c-8.36,-4.83 -0.8,-17.78 7.57,-12.95z" id="Path 1" fill="#231815" stroke="none"/><path d="M861.05267,327.00474c0.44802,-0.90133 0.70667,-1.88488 0.76,-2.89c0,1.11 -0.06,2.22 -0.11,3.32z" id="Path 1" fill="#231815" stroke="none"/><path d="M923.56267,316.08474c9.67,0 9.65,15 0,15h-33.65c-9.67,0 -9.65,-15 0,-15z" id="Path 1" fill="#231815" stroke="none"/><path d="M640.20268,316.08474c9.66,0 9.65,15 0,15h-33.66c-9.67,0 -9.65,-15 0,-15z" id="Path 1" fill="#231815" stroke="none"/><path d="M860.88268,336.24474c0.41,-2.89 0.68,-5.82 0.82,-8.77c13.97377,9.39918 24.31809,23.28922 29.32,39.37c26.0412,5.30103 43.83413,29.46512 41.16578,55.90609c-2.66835,26.44097 -24.93051,46.5628 -51.50578,46.55391h-7.2c0,-3.72 2.46,-7.43 7.24,-7.5c22,-0.29 41.21,-16.61 43.95,-38.7c2.9,-23.28 -13.07,-44.14 -35.6,-49c-2.54578,-0.70508 -4.53492,-2.69422 -5.24,-5.24c-4.15602,-12.95356 -12.16178,-24.33256 -22.95,-32.62z" id="Path 1" fill="#231815" stroke="none"/><path d="M847.66268,320.08474c3.1,-5.82 13.72,-4.84 14.15,2.94c0,0.18 0,0.37 0,0.56v0.07c0,0.14 0,0.28 0,0.42v0.08c-0.05333,1.00512 -0.31198,1.98867 -0.76,2.89c-4.2109,-2.77635 -8.69821,-5.10881 -13.39,-6.96z" id="Path 1" fill="#231815" stroke="none"/><path d="M846.69268,319.70474l1,0.38c-0.56071,1.0809 -0.84906,2.28235 -0.84,3.5c-0.04,-1.3 -0.09,-2.58 -0.16,-3.88z" id="Path 1" fill="#231815" stroke="none"/><path d="M861.81267,324.07474c0,-0.14 0,-0.28 0,-0.42c0.01,0.14 0.01,0.28 0,0.42z" id="Path 1" fill="#231815" stroke="none"/><path d="M709.10268,211.67474c4.84,8.38 -8.13,15.93 -13,7.57l-16.78,-29.15c-4.84,-8.38 8.16,-15.92 12.95,-7.57z" id="Path 1" fill="#231815" stroke="none"/><path d="M861.81267,323.00474c-0.43,-7.78 -11.05,-8.76 -14.15,-2.94l-1,-0.38c-0.15435,-2.77676 -0.45141,-5.54375 -0.89,-8.29c5.53076,1.80492 10.84346,4.21979 15.84,7.2c0.11,1.48 0.17,2.96 0.2,4.41z" id="Path 1" fill="#231815" stroke="none"/><path d="M797.78268,232.52474c36.49461,13.46801 61.55917,47.25767 63.86,86.09c-4.99654,-2.98021 -10.30924,-5.39508 -15.84,-7.2c-5.35781,-33.99506 -31.21775,-61.11374 -64.92,-68.08c-33.28,-6.75 -68.22,8.91 -85.76,37.86c-13.8922,23.28928 -15.53127,51.89641 -4.39,76.62c-3.92248,3.86526 -7.36404,8.18987 -10.25,12.88c-19.27,-34.49 -15,-78.16 10,-108.75c25.4,-31.05 69.61,-43.24 107.3,-29.42z" id="Path 1" fill="#231815" stroke="none"/><path d="M932.43268,417.55474c-0.00608,-24.59357 -17.3139,-45.78844 -41.41,-50.71c-5.00191,-16.08078 -15.34623,-29.97082 -29.32,-39.37c0.05,-1.1 0.1,-2.21 0.11,-3.32v-0.08c0,-0.14 0,-0.28 0,-0.42v-0.07c0,-0.19 0,-0.38 0,-0.56c0,-1.47 -0.09,-2.95 -0.17,-4.41c16.08048,9.66583 28.44312,24.45873 35.1,42c-1.23,-0.35 -2.47,-0.68 -3.73,-1l5.24,5.24c-0.46,-1.45 -1,-2.88 -1.51,-4.29c27.43,7.88 46.27,35.15 42.73,63.9c-3.77454,29.6809 -28.87172,52.0246 -58.79,52.34c-4.88,0.07 -7.29,-3.71 -7.24,-7.5h7.24c28.58074,0 51.75,-23.16926 51.75,-51.75z" id="Path 1" fill="#231815" stroke="none"/><path d="M780.88268,243.33474c33.70225,6.96626 59.56219,34.08494 64.92,68.08c-3.37676,-1.09819 -6.82485,-1.96355 -10.32,-2.59c-30.01305,-5.2968 -60.49469,6.43638 -79.21,30.49c-23.55861,-5.36873 -48.23108,1.59983 -65.5,18.5c-11.14127,-24.72359 -9.5022,-53.33072 4.39,-76.62c17.5,-28.95 52.44,-44.61 85.72,-37.86z" id="Path 1" fill="#f8b62d" stroke="none"/><path d="M896.74268,360.56474c0.54,1.41 1,2.84 1.51,4.29l-5.24,-5.24c1.26,0.27 2.47,0.6 3.73,0.95z" id="Path 1" fill="#231815" stroke="none"/><path d="M847.66268,320.08474c4.69344,1.8639 9.18081,4.2098 13.39,7c-1.63,3.23 -5.6,4.39 -8.93,3.48c-1,-0.52 -1.91,-1 -2.89,-1.48c-1.57783,-1.3692 -2.46165,-3.37156 -2.41,-5.46c-0.01562,-1.23115 0.27292,-2.44712 0.84,-3.54z" id="Path 1" fill="#231815" stroke="none"/><path d="M852.12268,330.52474c3.33,0.91 7.3,-0.25 8.93,-3.48l0.65,0.43c-0.14,2.95 -0.41,5.88 -0.82,8.77c-2.76861,-2.12903 -5.6973,-4.04136 -8.76,-5.72z" id="Path 1" fill="#231815" stroke="none"/><path d="M846.82267,323.58474c-0.05165,2.08844 0.83217,4.0908 2.41,5.46c-0.84,-0.42 -1.7,-0.81 -2.57,-1.19c0.08,-1.42 0.15,-2.85 0.16,-4.27z" id="Path 1" fill="#231815" stroke="none"/><path d="M756.23268,339.31474c1.66,0.38 3.33,0.81 5,1.32l-8.47,3.45c1.09,-1.64 2.26,-3.23 3.47,-4.77z" id="Path 1" fill="#231815" stroke="none"/><path d="M690.73268,357.81474c17.26892,-16.90017 41.94139,-23.86873 65.5,-18.5c-1.21,1.54 -2.38,3.13 -3.49,4.77l-0.42,2c-21.28347,-4.28171 -43.26053,2.83052 -58,18.77c-1.30667,-2.3 -2.50333,-4.64667 -3.59,-7.04z" id="Path 1" fill="#231815" stroke="none"/><path d="M837.83268,182.52474c4.83,-8.36 17.79,-0.8 12.95,7.57l-16.82,29.15c-4.83,8.37 -17.79,0.8 -13,-7.57z" id="Path 1" fill="#231815" stroke="none"/><path d="M682.17268,373.55474c0.91,1.5 1.87,3 2.86,4.4c-10.20725,19.28997 -9.56539,42.51691 1.69159,61.21373c11.25698,18.69682 31.48433,30.13173 53.30841,30.13627h7.24c0,3.78 -2.38,7.56 -7.24,7.5c-17.56669,-0.11266 -34.46566,-6.74467 -47.42,-18.61c-23.29,-21.42 -28.82,-57.14 -13.66,-84.79c0.5,-0.92 1,-1.82 1.57,-2.71c0.53,0.96 1.08,1.92 1.65,2.86z" id="Path 1" fill="#231815" stroke="none"/><path d="M685.03267,377.95474c1.62,2.37333 3.33333,4.65333 5.14,6.84c-5.19328,11.49188 -6.25317,24.42598 -3,36.61c6.48,23.8 28.34,40.13 52.84,40.4c4.8,0.06 7.21,3.78 7.24,7.5h-7.24c-21.82409,-0.00454 -42.05143,-11.43945 -53.30841,-30.13627c-11.25698,-18.69682 -11.89884,-41.92376 -1.69159,-61.21373z" id="Path 1" fill="#231815" stroke="none"/><path d="M712.78267,359.59474c-5.35052,3.09172 -10.13281,7.07583 -14.14,11.78c-1.54605,-2.10722 -2.98132,-4.29351 -4.3,-6.55c14.73947,-15.93948 36.71653,-23.05171 58,-18.77v0c2.32999,0.46433 4.63063,1.06537 6.89,1.8c1.24,-1.86 2.57333,-3.66 4,-5.4c19.98936,-24.84883 53.68741,-34.03187 83.52,-22.76c0.07,1.29 0.12,2.58 0.13,3.88c0.01,1.3 -0.08,2.85 -0.16,4.27c-4.43905,-1.92501 -9.0724,-3.36665 -13.82,-4.3c-25.73,-5 -52.51,6.56 -67.15,28.1c-1.85,2.71 -5.13,4.47 -8.47,3.44c-14.95,-4.58 -30.91,-3.32 -44.5,4.51z" id="Path 1" fill="#231815" stroke="none"/><path d="M772.55267,165.07474v33.66c0,9.67 -15,9.65 -15,0v-33.66c0,-9.66 15,-9.65 15,0z" id="Path 1" fill="#231815" stroke="none"/><path d="M653.14267,379.54474c8.38,-4.85 15.93,8.12 7.57,13l-29.15,16.82c-8.38,4.84 -15.92,-8.12 -7.57,-12.95z" id="Path 1" fill="#231815" stroke="none"/><path d="M690.73268,357.81474c1.09333,2.38667 2.29667,4.72 3.61,7c-3.65777,3.95589 -6.78719,8.36935 -9.31,13.13c-1,-1.44 -1.95,-2.9 -2.86,-4.4c-0.57,-0.94 -1.12,-1.9 -1.65,-2.86c2.87416,-4.68444 6.30219,-9.00557 10.21,-12.87z" id="Path 1" fill="#231815" stroke="none"/><path d="M761.21268,340.63474l2,1.83c-1.4,1.74 -2.73333,3.54 -4,5.4c-2.25937,-0.73463 -4.56001,-1.33567 -6.89,-1.8v0l0.42,-2z" id="Path 1" fill="#231815" stroke="none"/><path d="M827.02268,469.30474l-35.48,35.77l15.86,-32.19c0.54569,-1.1154 0.83606,-2.33835 0.85,-3.58z" id="Path 1" fill="#faee00" stroke="none"/><path d="M848.15268,469.30474l-77.54,78.18c-1.38259,2.38958 -4.18429,3.56989 -6.86,2.89c-4.79,-0.8 -8.68,-6.63 -5.58,-11.4l30.72,-62.37h-18.61c-4.03278,-0.06112 -7.31148,-3.26949 -7.46,-7.3h45.43c-0.01394,1.24165 -0.30431,2.4646 -0.85,3.58l-15.86,32.19l35.48,-35.77z" id="Path 1" fill="#231815" stroke="none"/><path d="M841.56267,454.64474c-4.84,4.88667 -9.68667,9.77333 -14.54,14.66h-18.77c0.11031,-2.00963 -0.61397,-3.97564 -2.00168,-5.4334c-1.38771,-1.45776 -3.3157,-2.2779 -5.32832,-2.2666h-17.55l21.24,-36.25h28.5l-12.07,18c-3.22,4.82 1.06,11.29 6.48,11.29z" id="Path 1" fill="#faee00" stroke="none"/><path d="M859.56267,439.64474c6.52,0 9.88,8.2 5.31,12.8l-11.94,12l-4.78,4.82h-21.13c4.85333,-4.89333 9.7,-9.78 14.54,-14.66h-14.08c-5.42,0 -9.7,-6.47 -6.48,-11.29l12.07,-18h-28.5l-21.2,36.29h17.55c2.01262,-0.0113 3.94062,0.80885 5.32832,2.2666c1.38771,1.45776 2.11199,3.42377 2.00168,5.4334h-45.43c-0.06373,-1.40231 0.28386,-2.79266 1,-4l10.81,-18.45l14.85,-25.4c1,-1.68 1.86,-3.41 2.84,-5c2,-3.29 4.44,-5.95 9.07,-6.11c2.27,-0.08 4.55,-0.13 6.82,-0.16c13,-0.22 26,0.16 38.9,0.16c5.42,0 9.71,6.47 6.48,11.29l-12.06,18z" id="Path 1" fill="#231815" stroke="none"/><path d="M861.64268,318.61474c-2.30083,-38.83233 -27.36539,-72.62199 -63.86,-86.09c-37.69,-13.82 -81.9,-1.63 -107.27,29.42c-25,30.59 -29.26,74.26 -10,108.75" id="Path 1" fill="none" stroke="#231815"/><path d="M690.73268,357.81474c-11.14127,-24.72359 -9.5022,-53.33072 4.39,-76.62c17.54,-29 52.48,-44.61 85.76,-37.86c33.70225,6.96626 59.56219,34.08494 64.92,68.08" id="Path 1" fill="none" stroke="#231815"/><path d="M772.55267,198.73474v-33.66c0,-9.65 -15,-9.66 -15,0v33.66c0,9.65 15,9.67 15,0z" id="Path 1" fill="none" stroke="#231815"/><path d="M765.05267,165.07474v33.66" id="Path 1" fill="none" stroke="#231815"/><path d="M696.15267,219.24474c4.82,8.36 17.79,0.81 13,-7.57l-16.88,-29.15c-4.82,-8.35 -17.79,-0.81 -12.95,7.57z" id="Path 1" fill="none" stroke="#231815"/><path d="M702.62267,215.45474l-16.82,-29.14" id="Path 1" fill="none" stroke="#231815"/><path d="M623.99268,250.80474l29.15,16.83c8.37,4.84 15.94,-8.12 7.57,-13l-29.15,-16.83c-8.37,-4.8 -15.93,8.2 -7.57,13z" id="Path 1" fill="none" stroke="#231815"/><path d="M627.78267,244.33474l29.14,16.82" id="Path 1" fill="none" stroke="#231815"/><path d="M640.20268,331.08474c9.65,0 9.66,-15 0,-15h-33.66c-9.65,0 -9.67,15 0,15z" id="Path 1" fill="none" stroke="#231815"/><path d="M606.54267,323.58474h33.66" id="Path 1" fill="none" stroke="#231815"/><path d="M631.56268,409.31474l29.15,-16.82c8.36,-4.83 0.81,-17.8 -7.57,-13l-29.15,16.82c-8.35,4.88 -0.81,17.84 7.57,13z" id="Path 1" fill="none" stroke="#231815"/><path d="M627.78267,402.84474l29.14,-16.83" id="Path 1" fill="none" stroke="#231815"/><path d="M889.91268,331.08474h33.65c9.65,0 9.67,-15 0,-15h-33.65c-9.65,0 -9.67,15 0,15z" id="Path 1" fill="none" stroke="#231815"/><path d="M923.56267,323.58474h-33.65" id="Path 1" fill="none" stroke="#231815"/><path d="M876.97268,267.63474l29.14,-16.83c8.36,-4.82 0.81,-17.79 -7.57,-12.95l-29.15,16.83c-8.35,4.82 -0.81,17.79 7.58,12.95z" id="Path 1" fill="none" stroke="#231815"/><path d="M873.18268,261.15474l29.15,-16.82" id="Path 1" fill="none" stroke="#231815"/><path d="M833.96268,219.24474l16.82,-29.15c4.84,-8.37 -8.12,-15.93 -12.95,-7.57l-16.83,29.15c-4.83,8.33 8.13,15.94 12.96,7.57z" id="Path 1" fill="none" stroke="#231815"/><path d="M827.48268,215.45474l16.83,-29.14" id="Path 1" fill="none" stroke="#231815"/><path d="M680.48268,370.69474c-0.54,0.89 -1.07,1.79 -1.57,2.71c-15.16,27.65 -9.63,63.37 13.66,84.79c12.95434,11.86533 29.85331,18.49734 47.42,18.61c4.86,0.06 7.27,-3.72 7.24,-7.5" id="Path 1" fill="none" stroke="#231815"/><path d="M756.23268,339.31474c-23.55861,-5.36873 -48.23108,1.59983 -65.5,18.5" id="Path 1" fill="none" stroke="#231815"/><path d="M845.80267,311.41474c-3.37676,-1.09819 -6.82485,-1.96355 -10.32,-2.59c-30.01305,-5.2968 -60.49469,6.43638 -79.21,30.49" id="Path 1" fill="none" stroke="#231815"/><path d="M873.48268,469.30474c-0.05,3.79 2.36,7.57 7.24,7.5c29.90683,-0.33028 54.98704,-22.67028 58.76,-52.34c3.54,-28.75 -15.3,-56 -42.73,-63.9" id="Path 1" fill="none" stroke="#231815"/><path d="M896.74268,360.56474c-6.65688,-17.54127 -19.01952,-32.33417 -35.1,-42" id="Path 1" fill="none" stroke="#231815"/><path d="M896.74268,360.56474c0.54,1.41 1,2.84 1.51,4.29l-5.24,-5.24c1.26,0.27 2.47,0.6 3.73,0.95z" id="Path 1" fill="none" stroke="#231815"/><path d="M761.21268,340.63474c-1.65,-0.51 -3.32,-0.94 -5,-1.32c-1.21,1.54 -2.38,3.13 -3.49,4.77z" id="Path 1" fill="none" stroke="#231815"/><path d="M861.81267,323.00474c0,-1.47 -0.09,-2.95 -0.17,-4.41c-4.99654,-2.98021 -10.30924,-5.39508 -15.84,-7.2c0.43859,2.74625 0.73565,5.51324 0.89,8.29" id="Path 1" fill="none" stroke="#231815"/><path d="M847.66268,320.08474c3.1,-5.82 13.72,-4.84 14.15,2.94" id="Path 1" fill="none" stroke="#231815"/><path d="M694.34268,364.82474c-1.33333,-2.28 -2.53667,-4.61333 -3.61,-7c-3.92184,3.86215 -7.36338,8.18338 -10.25,12.87c0.53,1 1.08,1.92 1.65,2.86c0.91,1.5 1.87,3 2.86,4.4" id="Path 1" fill="none" stroke="#231815"/><path d="M861.81267,324.15474c-0.05333,1.00512 -0.31198,1.98867 -0.76,2.89" id="Path 1" fill="none" stroke="#231815"/><path d="M861.81267,323.00474c0,0.18 0,0.37 0,0.56v0.07c0,0.14 0,0.28 0,0.42" id="Path 1" fill="none" stroke="#231815"/><path d="M861.81267,324.07474c0,-0.14 0,-0.28 0,-0.42" id="Path 1" fill="none" stroke="#231815"/><path d="M861.81267,324.07474v0.08" id="Path 1" fill="none" stroke="#231815"/><path d="M861.70268,327.47474c0.05,-1.1 0.1,-2.21 0.11,-3.32" id="Path 1" fill="none" stroke="#231815"/><path d="M860.88268,336.24474c10.76845,8.28528 18.75938,19.65255 22.91,32.59c0.70508,2.54578 2.69422,4.53492 5.24,5.24c22.53,4.89 38.5,25.75 35.6,49c-2.74,22.09 -22,38.41 -43.95,38.7c-4.78,0.07 -7.2,3.78 -7.24,7.5h7.24c26.57527,0.00888 48.83742,-20.11295 51.50578,-46.55391c2.66835,-26.44097 -15.12458,-50.60505 -41.16578,-55.90609c-5.00191,-16.08078 -15.34623,-29.97082 -29.32,-39.37" id="Path 1" fill="none" stroke="#231815"/><path d="M846.69268,319.70474c-29.83259,-11.27187 -63.53064,-2.08883 -83.52,22.76c-1.4,1.74 -2.73333,3.54 -4,5.4c-2.25937,-0.73463 -4.56001,-1.33567 -6.89,-1.8v0c-21.28347,-4.28171 -43.26053,2.83052 -58,18.77" id="Path 1" fill="none" stroke="#231815"/><path d="M698.64267,371.37474c4.00719,-4.70417 8.78948,-8.68828 14.14,-11.78c13.59,-7.83 29.55,-9.09 44.44,-4.5c3.34,1 6.62,-0.73 8.47,-3.44c14.64,-21.54 41.42,-33.14 67.15,-28.1c4.7476,0.93335 9.38095,2.37499 13.82,4.3" id="Path 1" fill="none" stroke="#231815"/><path d="M685.03267,377.95474c-10.20725,19.28997 -9.56539,42.51691 1.69159,61.21373c11.25698,18.69682 31.48433,30.13173 53.30841,30.13627h7.24c0,-3.72 -2.44,-7.44 -7.24,-7.5c-24.5,-0.27 -46.36,-16.6 -52.84,-40.4c-3.25317,-12.18402 -2.19328,-25.11812 3,-36.61" id="Path 1" fill="none" stroke="#231815"/><path d="M861.05267,327.00474c-4.20919,-2.7902 -8.69656,-5.1361 -13.39,-7" id="Path 1" fill="none" stroke="#231815"/><path d="M849.23268,329.00474c1,0.47 1.94,1 2.89,1.48" id="Path 1" fill="none" stroke="#231815"/><path d="M694.34268,364.82474c-3.65777,3.95589 -6.78719,8.36935 -9.31,13.13c1.62,2.37333 3.33333,4.65333 5.14,6.84c2.16665,-4.85557 5.01907,-9.375 8.47,-13.42c-1.54605,-2.10722 -2.98132,-4.29351 -4.3,-6.55z" id="Path 1" fill="none" stroke="#231815"/><path d="M847.66268,320.08474l-1,-0.38c0.07,1.29 0.12,2.58 0.13,3.88c0.00019,-1.22016 0.29887,-2.42175 0.87,-3.5z" id="Path 1" fill="none" stroke="#231815"/><path d="M846.82267,323.58474c0,1.43 -0.08,2.85 -0.16,4.27c0.87,0.38 1.73,0.77 2.57,1.19c-1.57783,-1.3692 -2.46165,-3.37156 -2.41,-5.46z" id="Path 1" fill="none" stroke="#231815"/><path d="M852.12268,330.52474c3.0627,1.67864 5.99139,3.59097 8.76,5.72c0.41,-2.89 0.68,-5.82 0.82,-8.77l-0.65,-0.43c-1.63,3.23 -5.57,4.39 -8.93,3.48z" id="Path 1" fill="none" stroke="#231815"/><path d="M848.15268,469.30474l4.78,-4.82l11.94,-12c4.57,-4.6 1.21,-12.8 -5.31,-12.8h-18l12.06,-18c3.23,-4.82 -1.06,-11.29 -6.48,-11.29c-12.94,0 -25.94,-0.38 -38.9,-0.16c-2.27,0 -4.55,0.08 -6.82,0.16c-4.63,0.16 -7.06,2.82 -9.07,6.11c-1,1.58 -1.86,3.31 -2.84,5l-14.89,25.41l-10.81,18.45c-0.71614,1.20734 -1.06373,2.59769 -1,4c0.14852,4.03051 3.42722,7.23888 7.46,7.3h18.61l-30.71,62.34c-3.1,4.77 0.79,10.6 5.58,11.4c2.67571,0.67989 5.47741,-0.50042 6.86,-2.89z" id="Path 1" fill="none" stroke="#231815"/><path d="M827.02268,469.30474l-35.48,35.77l15.86,-32.19c0.54569,-1.1154 0.83606,-2.33835 0.85,-3.58c0.11031,-2.00963 -0.61397,-3.97564 -2.00168,-5.4334c-1.38771,-1.45776 -3.3157,-2.2779 -5.32832,-2.2666h-17.55l21.24,-36.25h28.5l-12.07,18c-3.22,4.82 1.06,11.29 6.48,11.29h14c-4.81333,4.90667 -9.64667,9.79333 -14.5,14.66z" id="Path 1" fill="none" stroke="#231815"/></g></g></g></g></g></svg>