<svg width="500.00000000000006" height="500.00000000000006" xmlns="http://www.w3.org/2000/svg">

 <title/>
 <g>
  <title>background</title>
  <rect fill="none" id="canvas_background" height="402" width="582" y="-1" x="-1"/>
 </g>
 <g>
  <title>Layer 1</title>
  <path fill="#231815" id="svg_1" d="m233.5,115.74a127.86,127.86 0 0 0 -5.81,17.37a122.29,122.29 0 0 1 16.83,-8.9l-11.02,-8.47z" class="cls-1"/>
  <path fill="#dcdddd" id="svg_2" d="m295.5,266a66.74,66.74 0 0 1 7.39,15.58a6.36,6.36 0 0 0 5.3,5.44a46.89,46.89 0 0 1 15.27,6.28a43.64,43.64 0 0 1 20.54,34.35a44.11,44.11 0 0 1 -0.14,6.61a45.38,45.38 0 0 1 -6.43,19.39a43.63,43.63 0 0 1 -21.61,18.17c-8.12,3.11 -16.26,2.95 -24.72,2.95l-115.44,0c-5.49,0 -11,0.05 -16.46,0a54.77,54.77 0 0 1 -43.91,-87.49c11.19,-15.07 29,-22.65 47.07,-21.71a58.1,58.1 0 0 1 14,2.49a6.7,6.7 0 0 0 2.83,0.23a8.3,8.3 0 0 0 5.64,-3.68a67.14,67.14 0 0 1 58.56,-29.16a62.92,62.92 0 0 1 8.6,1.06a67.21,67.21 0 0 1 43.51,29.49z" class="cls-2"/>
  <path fill="#231815" id="svg_3" d="m409.51,283.83q-1,2.33 -2.1,4.6l-2.41,-1.16l-8.47,-11l-0.56,-1.48c1.69,-0.62 3.37,-1.27 5,-2c6.89,-2.79 10.74,5.95 8.54,11.04z" class="cls-1"/>
  <path fill="#231815" id="svg_4" d="m405,287.27l2.38,1.16a132.51,132.51 0 0 1 -49.78,55.07a57.19,57.19 0 0 0 1.44,-14.42c0,-1.47 -0.14,-2.93 -0.29,-4.38a119.71,119.71 0 0 0 28.89,-31.62a126.8,126.8 0 0 0 17.36,-5.81z" class="cls-1"/>
  <path fill="#231815" id="svg_5" d="m396.56,276.26l8.47,11a126.8,126.8 0 0 1 -17.36,5.81a123.82,123.82 0 0 0 8.89,-16.81z" class="cls-1"/>
  <path fill="#231815" id="svg_6" d="m373.24,183.2a6.73,6.73 0 0 1 -4.65,-6.31c0.63,-0.25 1.26,-0.5 1.89,-0.73a10.73,10.73 0 0 1 2,-0.67c5.59,-0.67 -1.95,7 1.38,7.91l-0.62,-0.2z" class="cls-1"/>
  <path fill="#231815" id="svg_7" d="m372.51,175.49a10.73,10.73 0 0 0 -2,0.67c-0.63,0.23 -1.26,0.48 -1.89,0.73c-0.2,-4.58 3.52,-9.51 9.29,-8c9.27,2.66 5.31,17.13 -4,14.47c-3.35,-0.86 4.19,-8.54 -1.4,-7.87z" class="cls-1"/>
  <path fill="#231815" id="svg_8" d="m365.41,178.24c1,-0.48 2.11,-0.92 3.18,-1.35a6.73,6.73 0 0 0 4.65,6.31a53.23,53.23 0 0 1 -9.75,-4c0.63,-0.33 1.26,-0.66 1.92,-0.96z" class="cls-1"/>
  <path fill="#231815" id="svg_9" d="m359.07,329.08a57.19,57.19 0 0 1 -1.44,14.42q-4.56,2.81 -9.35,5.24a51.49,51.49 0 0 0 3.31,-18.22c0,-0.26 0,-0.52 0,-0.79c2.46,-1.58 4.87,-3.26 7.2,-5c0.14,1.42 0.21,2.88 0.28,4.35z" class="cls-1"/>
  <path fill="#231815" id="svg_10" d="m358.78,324.7c-2.33,1.77 -4.74,3.45 -7.2,5a51.61,51.61 0 0 0 -13.07,-33.6q5,0.63 10,0.89a59.22,59.22 0 0 1 10.27,27.71z" class="cls-1"/>
  <path fill="#f4ec90" id="svg_11" d="m387.67,293.08a119.71,119.71 0 0 1 -28.89,31.62a59.22,59.22 0 0 0 -10.29,-27.7a130.32,130.32 0 0 0 39.18,-3.92z" class="cls-3"/>
  <path fill="#231815" id="svg_12" d="m351.59,330.52a51.49,51.49 0 0 1 -3.31,18.22q-5.29,2.7 -10.83,4.91a45.38,45.38 0 0 0 6.43,-19.39q3.94,-2.12 7.7,-4.53c0,0.27 0.01,0.53 0.01,0.79z" class="cls-1"/>
  <path fill="#231815" id="svg_13" d="m338.51,296.13a51.61,51.61 0 0 1 13.07,33.6q-3.75,2.42 -7.7,4.53a44.11,44.11 0 0 0 0.14,-6.61a43.64,43.64 0 0 0 -20.56,-34.33a132.46,132.46 0 0 0 15.05,2.81z" class="cls-1"/>
  <path fill="#231815" id="svg_14" d="m345.68,146.88c0,1.42 -1.08,3.48 -1.57,4.74c-0.76,1.94 -1.6,3.85 -2.55,5.71a55.79,55.79 0 0 1 -2.62,-5.71a15.57,15.57 0 0 1 -1.17,-3.36c-0.13,-0.46 -0.26,-0.92 -0.4,-1.38l8.31,0z" class="cls-1"/>
  <path fill="#231815" id="svg_15" d="m338.94,151.62a55.79,55.79 0 0 0 2.62,5.71c-0.62,1.22 -1.28,2.42 -2,3.58a53.79,53.79 0 0 1 -14.61,15.19a43.92,43.92 0 0 1 -5.27,3.15a56.12,56.12 0 0 0 -7.76,-3.33a11.34,11.34 0 0 0 -2.73,-0.83l0,4.16c-1.33,3.38 -1.11,4.7 0.68,3.95c1.38,0 3.41,-1.11 4.71,-1.63c1.74,-0.7 3.44,-1.46 5.1,-2.32a53.7,53.7 0 0 1 11.11,7.75a50.46,50.46 0 0 1 10.71,14c-1.54,2.8 -3.32,6.16 -3.73,9.17c-0.35,2.53 -2.14,1.38 3.76,1.38c4.85,0 4.52,1 3.54,-2.06a59.47,59.47 0 0 0 -2.26,-5.77c-0.4,-0.92 -0.84,-1.83 -1.31,-2.72l0.59,-1.07a52.57,52.57 0 0 1 21.4,-20.79a53.23,53.23 0 0 0 9.75,4l0.65,0.2c9.3,2.66 13.26,-11.81 4,-14.47a10.72,10.72 0 0 1 7.7,11.75c-0.71,5.28 -4.46,7.67 -9.08,9.27c-9.45,3.28 -17.06,9.32 -21.79,18.22c-2,3.72 -2.42,8.45 -5.21,11.67a10.65,10.65 0 0 1 -12.16,2.71c-5,-2.12 -5.66,-6.52 -7.43,-11a36.24,36.24 0 0 0 -5.87,-9.89a37.73,37.73 0 0 0 -10.21,-8.53c-3.48,-2 -7.46,-2.6 -10.91,-4.5a10.74,10.74 0 0 1 -5.19,-12.22c1.24,-4.53 4.7,-6.46 8.83,-7.84a37.27,37.27 0 0 0 19.65,-14.61c4.45,-6.8 5.18,-19.28 15.76,-18.87c9.9,0.39 10.56,12.28 14.87,18.87a37.06,37.06 0 0 0 21,15c-5.77,-1.55 -9.49,3.38 -9.29,8c-1.07,0.43 -2.14,0.87 -3.18,1.35c-0.66,0.3 -1.29,0.63 -1.92,1a52.55,52.55 0 0 1 -21.93,-21.87c0.95,-1.86 1.79,-3.77 2.55,-5.71c0.49,-1.26 1.58,-3.32 1.57,-4.74l-8.31,0c0.14,0.46 0.27,0.92 0.4,1.38a15.57,15.57 0 0 0 1.2,3.31z" class="cls-1"/>
  <path fill="#231815" id="svg_16" d="m345.07,209.55c1,3.07 1.31,2.06 -3.54,2.06c-5.9,0 -4.11,1.15 -3.76,-1.38c0.41,-3 2.19,-6.37 3.73,-9.17c0.47,0.89 0.91,1.8 1.31,2.72a59.47,59.47 0 0 1 2.26,5.77z" class="cls-1"/>
  <path fill="#ffffff" id="svg_17" d="m341.56,157.33a52.55,52.55 0 0 0 21.93,21.87a52.57,52.57 0 0 0 -21.4,20.8l-0.59,1.07a50.46,50.46 0 0 0 -10.71,-14a53.7,53.7 0 0 0 -11.13,-7.79a43.92,43.92 0 0 0 5.27,-3.15a53.79,53.79 0 0 0 14.61,-15.19c0.74,-1.19 1.4,-2.39 2.02,-3.61z" class="cls-2"/>
  <path fill="#231815" id="svg_18" d="m316.72,275.76a118.78,118.78 0 0 0 12.69,3.55a60.31,60.31 0 0 1 19.08,17.69q-5,-0.26 -10,-0.89a52,52 0 0 0 -20.93,-14.23a7.13,7.13 0 0 0 -0.16,-4.09c-0.2,-0.67 -0.4,-1.35 -0.68,-2.03z" class="cls-1"/>
  <path fill="#231815" id="svg_19" d="m329.41,279.31a119.09,119.09 0 0 0 66.59,-4.53l0.56,1.48a123.82,123.82 0 0 1 -8.89,16.82a130.32,130.32 0 0 1 -39.18,3.92a60.31,60.31 0 0 0 -19.08,-17.69z" class="cls-1"/>
  <path fill="#231815" id="svg_20" d="m329.41,279.31a118.78,118.78 0 0 1 -12.69,-3.55c-0.26,-0.75 -0.53,-1.49 -0.82,-2.24a59,59 0 0 1 13.51,5.79z" class="cls-1"/>
  <path fill="#231815" id="svg_21" d="m311.9,175.92a56.12,56.12 0 0 1 7.76,3.33c-1.66,0.86 -3.36,1.62 -5.1,2.32c-1.3,0.52 -3.33,1.67 -4.71,1.63c-1.79,0.75 -2,-0.57 -0.68,-3.95l0,-4.16a11.34,11.34 0 0 1 2.73,0.83z" class="cls-1"/>
  <path fill="#231815" id="svg_22" d="m252.62,221.48c0.66,0.1 1.32,0.19 2,0.31c28.13,4.95 51.25,25.4 61.29,51.73c-1.22,-0.35 -2.46,-0.67 -3.72,-0.95a7.75,7.75 0 0 0 -3.63,0.05c-0.43,-0.18 -0.84,-0.38 -1.26,-0.56a73.85,73.85 0 0 0 -49.54,-41.94q-2.76,-4.23 -5.14,-8.64z" class="cls-1"/>
  <path fill="#231815" id="svg_23" d="m308.55,272.62a7.75,7.75 0 0 1 3.63,-0.05c1.26,0.28 2.5,0.6 3.72,0.95c0.29,0.75 0.56,1.49 0.82,2.24q-4.14,-1.41 -8.17,-3.14z" class="cls-1"/>
  <path fill="#231815" id="svg_24" d="m307.65,272.92a6.78,6.78 0 0 1 0.9,-0.3q4,1.72 8.17,3.14c0.24,0.68 0.48,1.36 0.7,2.05a7.13,7.13 0 0 1 0.16,4.09a51,51 0 0 0 -7.4,-2.09a69.85,69.85 0 0 0 -2.53,-6.89z" class="cls-1"/>
  <path fill="#231815" id="svg_25" d="m307.29,272.06c0.42,0.18 0.83,0.38 1.26,0.56a6.78,6.78 0 0 0 -0.9,0.3c-0.12,-0.29 -0.23,-0.58 -0.36,-0.86z" class="cls-1"/>
  <path fill="#231815" id="svg_26" d="m302.89,281.6a8.3,8.3 0 0 1 4.76,-8.68a69.85,69.85 0 0 1 2.53,6.89a51,51 0 0 1 7.4,2.09c-1.68,6.07 -12.18,7.55 -14.63,-0.1l-0.06,-0.2z" class="cls-1"/>
  <path fill="#231815" id="svg_27" d="m303,281.8c2.45,7.65 12.95,6.17 14.63,0.1a52,52 0 0 1 20.93,14.23a132.46,132.46 0 0 1 -15.05,-2.81a46.89,46.89 0 0 0 -15.32,-6.32a6.36,6.36 0 0 1 -5.3,-5.44l0.11,0.24z" class="cls-1"/>
  <path fill="#231815" id="svg_28" d="m307.29,272.06c0.13,0.28 0.24,0.57 0.36,0.86a8.3,8.3 0 0 0 -4.76,8.68a66.74,66.74 0 0 0 -7.39,-15.6a115.94,115.94 0 0 0 11.79,6.06z" class="cls-1"/>
  <path fill="#231815" id="svg_29" d="m257.75,230.12a73.85,73.85 0 0 1 49.54,41.94a115.94,115.94 0 0 1 -11.79,-6a67.19,67.19 0 0 0 -29.95,-25.32a116.07,116.07 0 0 1 -7.8,-10.62z" class="cls-1"/>
  <path fill="#231815" id="svg_30" d="m237,111.26c5.13,-2.21 13.87,1.63 11,8.47c-0.7,1.67 -1.35,3.35 -2,5l-1.47,-0.55l-11,-8.47l-1.14,-2.38q2.24,-1.07 4.61,-2.07z" class="cls-1"/>
  <path fill="#231815" id="svg_31" d="m244.52,124.22l1.47,0.55a118.4,118.4 0 0 0 6.63,96.71a82.37,82.37 0 0 0 -17.06,-0.8a132.39,132.39 0 0 1 -7.87,-87.56a122.18,122.18 0 0 1 16.83,-8.9z" class="cls-1"/>
  <path fill="#231815" id="svg_32" d="m239.76,227.91a73.57,73.57 0 0 1 18,2.21a116.07,116.07 0 0 0 7.8,10.58a66.9,66.9 0 0 0 -13.56,-4.19a62.92,62.92 0 0 0 -8.6,-1.06q-2.28,-3.7 -4.31,-7.53l0.67,-0.01z" class="cls-1"/>
  <path fill="#231815" id="svg_33" d="m178.38,260.83a73.59,73.59 0 0 1 60.72,-32.91q2,3.83 4.31,7.53a67.14,67.14 0 0 0 -58.56,29.16a8.3,8.3 0 0 1 -5.64,3.68c-0.88,-2.61 -1.67,-5.26 -2.36,-7.93c0.51,0.15 1.02,0.3 1.53,0.47z" class="cls-1"/>
  <path fill="#231815" id="svg_34" d="m235.56,220.68a82.37,82.37 0 0 1 17.06,0.8q2.37,4.41 5.13,8.64a73.57,73.57 0 0 0 -18,-2.21l-0.66,0c-1.25,-2.37 -2.42,-4.79 -3.53,-7.23z" class="cls-1"/>
  <path fill="#231815" id="svg_35" d="m235.56,220.68c1.11,2.44 2.28,4.86 3.54,7.24a73.59,73.59 0 0 0 -60.72,32.91c-0.51,-0.17 -1,-0.32 -1.53,-0.47q-0.63,-2.42 -1.16,-4.86l4.68,-1.91c-1.65,-0.5 -3.3,-0.94 -5,-1.33a82.48,82.48 0 0 1 60.19,-31.58z" class="cls-1"/>
  <path fill="#231815" id="svg_36" d="m232.36,113.37l1.14,2.38a126.92,126.92 0 0 0 -5.81,17.37a116.89,116.89 0 0 0 -50.72,68a114.67,114.67 0 0 0 -1.95,51a70.81,70.81 0 0 0 -15.76,-1.74a131.16,131.16 0 0 1 73.1,-137.07l0,0.06z" class="cls-1"/>
  <path fill="#f4ec90" id="svg_37" d="m235.56,220.68a82.48,82.48 0 0 0 -60.16,31.58l-0.38,-0.08a114.67,114.67 0 0 1 1.95,-51a116.89,116.89 0 0 1 50.72,-68a132.39,132.39 0 0 0 7.87,87.5z" class="cls-3"/>
  <path fill="#231815" id="svg_38" d="m176.85,260.36c0.69,2.67 1.48,5.32 2.36,7.93a6.7,6.7 0 0 1 -2.83,-0.23a58.1,58.1 0 0 0 -14,-2.49q-1,-3.84 -1.82,-7.74a62.23,62.23 0 0 1 16.29,2.53z" class="cls-1"/>
  <path fill="#231815" id="svg_39" d="m175.4,252.26c1.67,0.39 3.32,0.83 5,1.33l-4.68,1.91c-0.21,-1 -0.4,-1.9 -0.58,-2.85l0.26,-0.39z" class="cls-1"/>
  <path fill="#231815" id="svg_40" d="m175.11,252.65c0.18,1 0.37,1.9 0.58,2.85l-3.79,1.5q1.55,-2.23 3.21,-4.35z" class="cls-1"/>
  <path fill="#231815" id="svg_41" d="m175.11,252.65l-0.09,-0.47l0.38,0.08l-0.29,0.39z" class="cls-1"/>
  <path fill="#231815" id="svg_42" d="m175.11,252.65q-1.67,2.13 -3.21,4.39l3.79,-1.54q0.52,2.44 1.16,4.86a62.23,62.23 0 0 0 -16.31,-2.53c-0.49,-2.45 -0.92,-4.92 -1.28,-7.39a70.81,70.81 0 0 1 15.74,1.74l0.11,0.47z" class="cls-1"/>
  <path fill="#231815" id="svg_43" d="m97,320a62.23,62.23 0 0 1 62.2,-62.2c0.45,0 0.89,0 1.34,0q0.79,3.9 1.82,7.74c-18,-0.94 -35.88,6.64 -47.07,21.71a54.77,54.77 0 0 0 43.91,87.49c5.49,0.05 11,0 16.46,0l115.46,0c8.46,0 16.6,0.16 24.72,-2.95a43.63,43.63 0 0 0 21.61,-18.17q5.54,-2.2 10.83,-4.91a51.75,51.75 0 0 1 -48.44,33.53l-140.64,0a62.23,62.23 0 0 1 -62.2,-62.24z" class="cls-1"/>
  <path fill="#231815" id="svg_44" d="m97,320a62.23,62.23 0 0 0 62.24,62.23l140.6,0a51.75,51.75 0 0 0 48.44,-33.53q4.79,-2.43 9.35,-5.24a60.29,60.29 0 0 1 -39.69,43.45c-9.48,3.1 -19.19,2.82 -29,2.82l-123.43,0c-12.67,0 -24.76,-1.39 -36.45,-6.86a69.76,69.76 0 0 1 -38.58,-51.19c-3.67,-22.81 3.88,-46.46 20.82,-62.36a70.15,70.15 0 0 1 48,-18.92c0.36,2.47 0.79,4.94 1.28,7.39c-0.45,0 -0.89,0 -1.34,0a62.23,62.23 0 0 0 -62.24,62.21z" class="cls-1"/>
 </g>
</svg>