<svg version="1.1" xmlns="http://www.w3.org/2000/svg" xmlns:xlink="http://www.w3.org/1999/xlink" width="582" height="522.23789" viewBox="474.0379,96.76211,582,522.23789"><g id="document" fill-opacity="0" fill="#ffffff" fill-rule="nonzero" stroke-opacity="0.8" stroke="#000000" stroke-width="0" stroke-linecap="butt" stroke-linejoin="miter" stroke-miterlimit="10" stroke-dasharray="" stroke-dashoffset="0" font-family="none" font-weight="none" font-size="none" text-anchor="none" style="mix-blend-mode: normal"><rect x="725.2" y="119" transform="scale(0.71429,1)" width="700" height="500" id="Shape 1 1" vector-effect="non-scaling-stroke"/></g><g fill="none" fill-rule="nonzero" stroke="none" stroke-width="1" stroke-linecap="butt" stroke-linejoin="miter" stroke-miterlimit="10" stroke-dasharray="" stroke-dashoffset="0" font-family="none" font-weight="none" font-size="none" text-anchor="none" style="mix-blend-mode: normal"><g id="stage"><g id="layer1 1"><g id="Group 1" stroke="none"><g id="Group 1" fill="none"><rect x="555.48276" y="96.76211" width="433.03448" height="433.03448" id="Shape 1"/></g><g id="Group 1"><path d="M758.98276,213.50211c-2.34942,5.64366 -4.29107,11.44855 -5.81,17.37c5.3702,-3.39951 10.99724,-6.37519 16.83,-8.9z" id="Path 1" fill="#231815"/><path d="M934.99276,381.59211c-0.66667,1.55333 -1.36667,3.08667 -2.1,4.6l-2.41,-1.16l-8.47,-11l-0.56,-1.48c1.69,-0.62 3.37,-1.27 5,-2c6.89,-2.79 10.74,5.95 8.54,11.04z" id="Path 1" fill="#231815"/><path d="M930.48276,385.03211l2.38,1.16c-11.00753,22.72461 -28.27869,41.83113 -49.78,55.07c1.08952,-4.72616 1.5734,-9.57172 1.44,-14.42c0,-1.47 -0.14,-2.93 -0.29,-4.38c11.45256,-8.71755 21.23917,-19.42896 28.89,-31.62c5.91909,-1.51587 11.72087,-3.4576 17.36,-5.81z" id="Path 1" fill="#231815"/><path d="M922.04276,374.02211l8.47,11c-5.63913,2.3524 -11.44091,4.29413 -17.36,5.81c3.38986,-5.36716 6.36196,-10.98706 8.89,-16.81z" id="Path 1" fill="#231815"/><path d="M898.72276,280.96211c-2.7413,-0.89056 -4.61115,-3.42793 -4.65,-6.31c0.63,-0.25 1.26,-0.5 1.89,-0.73c0.64304,-0.28848 1.31295,-0.51289 2,-0.67c5.59,-0.67 -1.95,7 1.38,7.91z" id="Path 1" fill="#231815"/><path d="M897.99276,273.25211c-0.68705,0.15711 -1.35696,0.38152 -2,0.67c-0.63,0.23 -1.26,0.48 -1.89,0.73c-0.2,-4.58 3.52,-9.51 9.29,-8c9.27,2.66 5.31,17.13 -4,14.47c-3.35,-0.86 4.19,-8.54 -1.4,-7.87z" id="Path 1" fill="#231815"/><path d="M890.89276,276.00211c1,-0.48 2.11,-0.92 3.18,-1.35c0.03885,2.88207 1.9087,5.41944 4.65,6.31c-3.37431,-1.00754 -6.64031,-2.34744 -9.75,-4c0.63,-0.33 1.26,-0.66 1.92,-0.96z" id="Path 1" fill="#231815"/><path d="M884.55276,426.84211c0.1334,4.84828 -0.35048,9.69384 -1.44,14.42c-3.04,1.87333 -6.15667,3.62 -9.35,5.24c2.19537,-5.82339 3.31684,-11.99654 3.31,-18.22c0,-0.26 0,-0.52 0,-0.79c2.46,-1.58 4.87,-3.26 7.2,-5c0.14,1.42 0.21,2.88 0.28,4.35z" id="Path 1" fill="#231815"/><path d="M884.26276,422.46211c-2.33,1.77 -4.74,3.45 -7.2,5c-0.1759,-12.40701 -4.81587,-24.33533 -13.07,-33.6c3.33333,0.42 6.66667,0.71667 10,0.89c5.71,8.22037 9.24334,17.75387 10.27,27.71z" id="Path 1" fill="#231815"/><path d="M913.15276,390.84211c-7.65083,12.19104 -17.43744,22.90245 -28.89,31.62c-1.03427,-9.95449 -4.57448,-19.4845 -10.29,-27.7c13.18316,0.68527 26.39392,-0.63648 39.18,-3.92z" id="Path 1" fill="#f4ec90"/><path d="M877.07276,428.28211c0.00684,6.22346 -1.11463,12.39661 -3.31,18.22c-3.52667,1.8 -7.13667,3.43667 -10.83,4.91c3.58916,-5.89064 5.7882,-12.52198 6.43,-19.39c2.62667,-1.41333 5.19333,-2.92333 7.7,-4.53c0,0.27 0.01,0.53 0.01,0.79z" id="Path 1" fill="#231815"/><path d="M863.99276,393.89211c8.25413,9.26467 12.8941,21.19299 13.07,33.6c-2.5,1.61333 -5.06667,3.12333 -7.7,4.53c0.21196,-2.19673 0.25876,-4.40627 0.14,-6.61c-0.89385,-14.09627 -8.55486,-26.88821 -20.56,-34.33c4.95829,1.22605 9.98335,2.16428 15.05,2.81z" id="Path 1" fill="#231815"/><path d="M871.16276,244.64211c0,1.42 -1.08,3.48 -1.57,4.74c-0.76,1.94 -1.6,3.85 -2.55,5.71c-0.97989,-1.85261 -1.85461,-3.75897 -2.62,-5.71c-0.5171,-1.07162 -0.90967,-2.19897 -1.17,-3.36c-0.13,-0.46 -0.26,-0.92 -0.4,-1.38z" id="Path 1" fill="#231815"/><path d="M864.42276,249.38211c0.76539,1.95103 1.64011,3.85739 2.62,5.71c-0.62,1.22 -1.28,2.42 -2,3.58c-3.8207,5.9772 -8.78599,11.13961 -14.61,15.19c-1.68104,1.17165 -3.442,2.22422 -5.27,3.15c-2.49937,-1.30331 -5.09338,-2.41646 -7.76,-3.33c-0.87142,-0.39051 -1.78868,-0.66938 -2.73,-0.83v4.16c-1.33,3.38 -1.11,4.7 0.68,3.95c1.38,0 3.41,-1.11 4.71,-1.63c1.74,-0.7 3.44,-1.46 5.1,-2.32c4.01562,2.10401 7.74865,4.70806 11.11,7.75c4.36375,4.00215 7.98905,8.74111 10.71,14c-1.54,2.8 -3.32,6.16 -3.73,9.17c-0.35,2.53 -2.14,1.38 3.76,1.38c4.85,0 4.52,1 3.54,-2.06c-0.65255,-1.9613 -1.4069,-3.88725 -2.26,-5.77c-0.4,-0.92 -0.84,-1.83 -1.31,-2.72l0.59,-1.07c4.97582,-8.8513 12.40854,-16.07216 21.4,-20.79c3.10969,1.65256 6.37569,2.99246 9.75,4l0.65,0.2c9.3,2.66 13.26,-11.81 4,-14.47c5.13295,1.4549 8.41482,6.46294 7.7,11.75c-0.71,5.28 -4.46,7.67 -9.08,9.27c-9.45,3.28 -17.06,9.32 -21.79,18.22c-2,3.72 -2.42,8.45 -5.21,11.67c-3.04712,3.42717 -7.94595,4.51893 -12.16,2.71c-5,-2.12 -5.66,-6.52 -7.43,-11c-1.41776,-3.58811 -3.39937,-6.9268 -5.87,-9.89c-2.8712,-3.42566 -6.32827,-6.31389 -10.21,-8.53c-3.48,-2 -7.46,-2.6 -10.91,-4.5c-4.34199,-2.38821 -6.48633,-7.43712 -5.19,-12.22c1.24,-4.53 4.7,-6.46 8.83,-7.84c8.00851,-2.51795 14.93237,-7.66592 19.65,-14.61c4.45,-6.8 5.18,-19.28 15.76,-18.87c9.9,0.39 10.56,12.28 14.87,18.87c4.97681,7.35448 12.42896,12.67744 21,15c-5.77,-1.55 -9.49,3.38 -9.29,8c-1.07,0.43 -2.14,0.87 -3.18,1.35c-0.66,0.3 -1.29,0.63 -1.92,1c-9.34104,-4.92141 -16.98301,-12.54248 -21.93,-21.87c0.95,-1.86 1.79,-3.77 2.55,-5.71c0.49,-1.26 1.58,-3.32 1.57,-4.74h-8.31c0.14,0.46 0.27,0.92 0.4,1.38c0.27357,1.14516 0.67614,2.25559 1.2,3.31z" id="Path 1" fill="#231815"/><path d="M870.55276,307.31211c1,3.07 1.31,2.06 -3.54,2.06c-5.9,0 -4.11,1.15 -3.76,-1.38c0.41,-3 2.19,-6.37 3.73,-9.17c0.47,0.89 0.91,1.8 1.31,2.72c0.8531,1.88275 1.60745,3.8087 2.26,5.77z" id="Path 1" fill="#231815"/><path d="M867.04276,255.09211c4.94699,9.32752 12.58896,16.94859 21.93,21.87c-8.99284,4.72053 -16.42571,11.945 -21.4,20.8l-0.59,1.07c-2.72095,-5.25889 -6.34625,-9.99785 -10.71,-14c-3.36526,-3.05738 -7.10518,-5.67498 -11.13,-7.79c1.828,-0.92578 3.58896,-1.97835 5.27,-3.15c5.82401,-4.05039 10.7893,-9.2128 14.61,-15.19c0.74,-1.19 1.4,-2.39 2.02,-3.61z" id="Path 1" fill="#ffffff"/><path d="M842.20276,373.52211c4.16105,1.41724 8.39757,2.60239 12.69,3.55c7.57136,4.43817 14.08288,10.47532 19.08,17.69c-3.33333,-0.17333 -6.66667,-0.47 -10,-0.89c-5.69825,-6.39468 -12.88786,-11.28279 -20.93,-14.23c0.34755,-1.34967 0.29192,-2.77161 -0.16,-4.09c-0.2,-0.67 -0.4,-1.35 -0.68,-2.03z" id="Path 1" fill="#231815"/><path d="M854.89276,377.07211c22.17471,4.86807 45.27887,3.29634 66.59,-4.53l0.56,1.48c-2.52758,5.82636 -5.49968,11.44962 -8.89,16.82c-12.78608,3.28352 -25.99684,4.60527 -39.18,3.92c-4.99712,-7.21468 -11.50864,-13.25183 -19.08,-17.69z" id="Path 1" fill="#231815"/><path d="M854.89276,377.07211c-4.29243,-0.94761 -8.52895,-2.13276 -12.69,-3.55c-0.26,-0.75 -0.53,-1.49 -0.82,-2.24c4.72707,1.35931 9.26562,3.3044 13.51,5.79z" id="Path 1" fill="#231815"/><path d="M837.38276,273.68211c2.66662,0.91354 5.26063,2.02669 7.76,3.33c-1.66,0.86 -3.36,1.62 -5.1,2.32c-1.3,0.52 -3.33,1.67 -4.71,1.63c-1.79,0.75 -2,-0.57 -0.68,-3.95v-4.16c0.94132,0.16062 1.85858,0.43949 2.73,0.83z" id="Path 1" fill="#231815"/><path d="M762.48276,209.02211c5.13,-2.21 13.87,1.63 11,8.47c-0.7,1.67 -1.35,3.35 -2,5l-1.47,-0.55l-11,-8.47l-1.14,-2.38c1.49333,-0.71333 3.03,-1.40333 4.61,-2.07z" id="Path 1" fill="#231815"/><path d="M770.00276,221.98211l1.47,0.55c-11.69243,31.70567 -9.2799,66.89662 6.63,96.71c-5.64358,-0.85708 -11.36098,-1.12519 -17.06,-0.8c-12.52028,-27.43821 -15.29678,-58.32893 -7.87,-87.56c5.36997,-3.3999 10.99705,-6.3756 16.83,-8.9z" id="Path 1" fill="#231815"/><path d="M765.24276,325.67211c6.06818,-0.00849 12.1141,0.73382 18,2.21c2.39806,3.67117 5.00224,7.2035 7.8,10.58c-4.35865,-1.87352 -8.90422,-3.27809 -13.56,-4.19c-2.8389,-0.55054 -5.71238,-0.90471 -8.6,-1.06c-1.52,-2.46667 -2.95667,-4.97667 -4.31,-7.53z" id="Path 1" fill="#231815"/><path d="M703.86276,358.59211c13.51569,-20.37631 36.26949,-32.70878 60.72,-32.91c1.33333,2.55333 2.77,5.06333 4.31,7.53c-23.25545,-1.09033 -45.41587,9.94447 -58.56,29.16c-1.27554,1.96851 -3.32446,3.3054 -5.64,3.68c-0.88,-2.61 -1.67,-5.26 -2.36,-7.93c0.51,0.15 1.02,0.3 1.53,0.47z" id="Path 1" fill="#231815"/><path d="M761.04276,318.44211c5.69902,-0.32519 11.41642,-0.05708 17.06,0.8c1.58,2.94 3.29,5.82 5.13,8.64c-5.8859,-1.47618 -11.93182,-2.21849 -18,-2.21h-0.66c-1.25,-2.37 -2.42,-4.79 -3.53,-7.23z" id="Path 1" fill="#231815"/><path d="M761.04276,318.44211c1.11,2.44 2.28,4.86 3.54,7.24c-24.45051,0.20122 -47.20431,12.53369 -60.72,32.91c-0.51,-0.17 -1,-0.32 -1.53,-0.47c-0.42,-1.61333 -0.80667,-3.23333 -1.16,-4.86l4.68,-1.91c-1.65,-0.5 -3.3,-0.94 -5,-1.33c14.59159,-18.6887 36.52016,-30.19401 60.19,-31.58z" id="Path 1" fill="#231815"/><path d="M757.84276,211.13211l1.14,2.38c-2.35246,5.64252 -4.29419,11.44763 -5.81,17.37c-24.82546,15.5155 -42.92516,39.78166 -50.72,68c-4.47296,16.63766 -5.13947,34.06937 -1.95,51c-5.17163,-1.16819 -10.45809,-1.75185 -15.76,-1.74c-8.22102,-56.7579 21.38666,-112.27534 73.1,-137.07z" id="Path 1" fill="#231815"/><path d="M761.04276,318.44211c-23.65915,1.39443 -45.5752,12.8989 -60.16,31.58l-0.38,-0.08c-3.18947,-16.93063 -2.52296,-34.36234 1.95,-51c7.79484,-28.21834 25.89454,-52.4845 50.72,-68c-7.41265,29.21224 -4.63637,60.07934 7.87,87.5z" id="Path 1" fill="#f4ec90"/><path d="M702.33276,358.12211c0.69,2.67 1.48,5.32 2.36,7.93c-0.94893,0.12639 -1.91393,0.04796 -2.83,-0.23c-4.54711,-1.4001 -9.24898,-2.23636 -14,-2.49c-0.66667,-2.56 -1.27333,-5.14 -1.82,-7.74c5.51817,0.11719 10.99623,0.96799 16.29,2.53z" id="Path 1" fill="#231815"/><path d="M700.88276,350.02211c1.67,0.39 3.32,0.83 5,1.33l-4.68,1.91c-0.21,-1 -0.4,-1.9 -0.58,-2.85z" id="Path 1" fill="#231815"/><path d="M700.59276,350.41211c0.18,1 0.37,1.9 0.58,2.85l-3.79,1.5c1.03333,-1.48667 2.10333,-2.93667 3.21,-4.35z" id="Path 1" fill="#231815"/><path d="M700.59276,350.41211l-0.09,-0.47l0.38,0.08z" id="Path 1" fill="#231815"/><path d="M700.59276,350.41211c-1.11333,1.42 -2.18333,2.88333 -3.21,4.39l3.79,-1.54c0.34667,1.62667 0.73333,3.24667 1.16,4.86c-5.30022,-1.56377 -10.78512,-2.41458 -16.31,-2.53c-0.49,-2.45 -0.92,-4.92 -1.28,-7.39c5.29522,-0.01035 10.5749,0.5733 15.74,1.74z" id="Path 1" fill="#231815"/></g></g><g id="Group 1"><g id="Group 1" fill="none" stroke="none"><rect x="474.0379" y="96.76211" width="582" height="402" id="Shape 1"/></g><g id="Group 1"><g id="Group 1"><path d="M897.7079,462.15227c0.49,14.52 -8.42,28.24 -22.28,33.07c-6.06,2.11 -12.13,1.91 -18.41,1.91h-90.48c-4.59,0 -9.19,0.05 -13.79,0c-15.6285,0.02154 -29.96682,-8.66689 -37.18152,-22.53047c-7.2147,-13.86358 -6.1035,-30.59203 2.88152,-43.37953c10.53,-15.33 30,-21 47.46,-15.64c3.35,1 6.62,-0.74 8.47,-3.45c11.27,-16.48 31.82,-25.42 51.57,-21.55c18.36631,3.59448 33.35144,16.84276 39.17,34.63c0.3822,2.77021 2.52905,4.96577 5.29,5.41c15.01,3.32 26.77,15.79 27.3,31.53z" id="Path 1" fill="#dcdddd" stroke="none"/><path d="M890.2179,422.77227c4.45954,2.87664 8.42695,6.45238 11.75,10.59c-1.15551,2.43353 -2.45791,4.79455 -3.9,7.07c-2.92933,-4.27461 -6.64134,-7.95608 -10.94,-10.85c1.1896,-2.19414 2.22219,-4.46985 3.09,-6.81z" id="Path 1" fill="#231815" stroke="none"/><path d="M851.0379,352.64227c22.46,4.83 40.56,23.46 42.46,46.81c0.64836,7.91702 -0.45793,15.87959 -3.24,23.32c-3.75555,-2.43007 -7.83141,-4.32496 -12.11,-5.63c-8.35,-21 -26.91,-37.41 -49.56,-41.28c-23.9845,-4.16537 -48.3386,5.0263 -63.59,24c-18.03784,-3.86042 -36.83367,1.14709 -50.56,13.47c-12.22272,11.21709 -18.94239,27.20918 -18.4,43.79c-6.23,0 -12.45,0.06 -18.67,0c-35.49961,-0.1039 -64.33059,-28.70699 -64.7162,-64.20465c-0.38561,-35.49766 27.81722,-64.72031 63.3062,-65.59535c7.37082,-0.10129 14.70933,0.9929 21.73,3.24c3.33,1 6.63,-0.74 8.47,-3.45c17.29,-25.5 48.92,-39.18 79.35,-33.28c28.29087,5.50125 51.35922,25.93836 60.23,53.36c0.35446,2.79491 2.51607,5.0177 5.3,5.45z" id="Path 1" fill="#dcdddd" stroke="none"/><path d="M890.2179,422.77227c-0.86781,2.34015 -1.9004,4.61586 -3.09,6.81c-2.31122,-1.56002 -4.77363,-2.88336 -7.35,-3.95c0.39092,-1.39067 0.34201,-2.86822 -0.14,-4.23c-0.46,-1.44 -0.97,-2.86 -1.53,-4.26c4.27859,1.30504 8.35445,3.19993 12.11,5.63z" id="Path 1" fill="#231815" stroke="none"/><path d="M879.6379,421.40227c0.48201,1.36178 0.53092,2.83933 0.14,4.23c-2.37844,-0.98326 -4.84667,-1.73344 -7.37,-2.24c-0.72693,-2.34319 -1.60202,-4.63781 -2.62,-6.87c1.46056,-0.60186 3.07372,-0.72784 4.61,-0.36c1.26,0.28 2.49,0.6 3.71,1c0.56,1.38667 1.07,2.8 1.53,4.24z" id="Path 1" fill="#231815" stroke="none"/><path d="M872.4079,423.39227c2.52333,0.50656 4.99156,1.25674 7.37,2.24c-1.79,5.95 -12.15,7.34 -14.6,-0.24l-0.06,-0.18c-0.51713,-3.60729 1.37632,-7.13064 4.67,-8.69c1.01798,2.23219 1.89307,4.52681 2.62,6.87z" id="Path 1" fill="#231815" stroke="none"/><path d="M865.1779,425.39227c2.45,7.58 12.81,6.19 14.6,0.24c2.57637,1.06664 5.03878,2.38998 7.35,3.95c4.28788,2.89687 7.98953,6.57816 10.91,10.85c1.44209,-2.27545 2.74449,-4.63647 3.9,-7.07c6.59564,8.18474 10.36358,18.28521 10.74,28.79c0.69,20.88 -12.64,39.87 -32.06,47.09c-8,3 -16.31,2.89 -24.7,2.89h-98.43c-10.75,0 -21,-1.36 -30.78,-6.29c-13.56066,-7.00092 -23.74755,-19.14738 -28.28,-33.72h7.88c-1.74499,-4.81762 -2.72355,-9.87913 -2.9,-15c0,-0.61 0,-1.22 0,-1.83c0,-27.24973 22.09027,-49.34 49.34,-49.34c5.16333,0.01208 10.29382,0.82162 15.21,2.4c11.75326,-17.68769 32.1767,-27.60733 53.34535,-25.90976c21.16865,1.69756 39.7503,14.74512 48.53465,34.07976c-3.29368,1.55936 -5.18713,5.08271 -4.67,8.69c-5.81856,-17.78724 -20.80369,-31.03552 -39.17,-34.63c-19.75,-3.87 -40.3,5.07 -51.57,21.55c-1.85,2.71 -5.12,4.47 -8.47,3.45c-17.43,-5.32 -36.93,0.31 -47.46,15.64c-8.98501,12.7875 -10.09621,29.51596 -2.88152,43.37953c7.2147,13.86358 21.55301,22.552 37.18152,22.53047c4.6,0.05 9.2,0 13.79,0h90.45c6.28,0 12.35,0.2 18.41,-1.91c13.86,-4.83 22.77,-18.55 22.28,-33.07c-0.53,-15.74 -12.29,-28.21 -27.3,-31.53c-2.76095,-0.44423 -4.9078,-2.63979 -5.29,-5.41z" id="Path 1" fill="#231815" stroke="none"/><path d="M860.2179,343.42227c2.94,9.23 -11.54,13.15 -14.46,4c0,-0.07 -0.05,-0.14 -0.07,-0.21c-0.66,-4.68 3.17,-10.33 9.3,-9c1.25,0.27 2.5,0.58 3.74,0.92c0.53,1.4 1.03,2.83 1.49,4.29z" id="Path 1" fill="#231815" stroke="none"/><path d="M851.0379,352.64227c-2.78783,-0.42825 -4.95443,-2.65197 -5.31,-5.45c0,0.07 0.05,0.14 0.07,0.21c2.92,9.17 17.4,5.25 14.46,-4c-0.46,-1.46 -1,-2.89 -1.49,-4.32c5.05727,1.3803 9.94179,3.32941 14.56,5.81c23.64,12.76 38,39.69 35,66.43c-0.84905,7.63642 -2.98241,15.07447 -6.31,22c-3.32305,-4.13762 -7.29046,-7.71336 -11.75,-10.59c2.78207,-7.44041 3.88836,-15.40298 3.24,-23.32c-1.95,-23.31 -20.05,-41.94 -42.47,-46.77z" id="Path 1" fill="#231815" stroke="none"/><path d="M769.8979,401.11227c-1.64,-0.5 -3.29,-0.92 -4.94,-1.28c15.2514,-18.9737 39.6055,-28.16537 63.59,-24c22.65,3.87 41.21,20.28 49.56,41.28c-1.22,-0.38 -2.45,-0.7 -3.71,-1c-1.53628,-0.36784 -3.14944,-0.24186 -4.61,0.36c-8.78435,-19.33465 -27.366,-32.3822 -48.53465,-34.07976c-21.16865,-1.69756 -41.59209,8.22208 -53.34535,25.90976c-2.24169,-0.72989 -4.53472,-1.29145 -6.86,-1.68l0.38,-2.11z" id="Path 1" fill="#231815" stroke="none"/><path d="M769.8979,401.11227l-8.47,3.45c1.12,-1.64 2.29667,-3.21667 3.53,-4.73c1.65,0.36 3.3,0.78 4.94,1.28z" id="Path 1" fill="#231815" stroke="none"/><path d="M706.3079,472.12227h-7.88c-0.81031,-2.58903 -1.41879,-5.23696 -1.82,-7.92c-0.3508,-2.34515 -0.55786,-4.70957 -0.62,-7.08h7.42c0.17645,5.12087 1.15501,10.18238 2.9,15z" id="Path 1" fill="#231815" stroke="none"/><path d="M701.6279,316.10227l-8.47,3.44c1.11333,-1.64 2.27,-3.24667 3.47,-4.82c1.68,0.4 3.34,0.86 5,1.38z" id="Path 1" fill="#231815" stroke="none"/><path d="M845.6879,347.19227c-8.86775,-27.42552 -31.93667,-47.86696 -60.23,-53.37c-30.43,-5.9 -62.06,7.78 -79.35,33.28c-1.84,2.71 -5.14,4.49 -8.47,3.45c-7.02067,-2.2471 -14.35918,-3.34129 -21.73,-3.24c-35.48897,0.87504 -63.6918,30.09768 -63.3062,65.59535c0.38561,35.49766 29.21659,64.10076 64.7162,64.20465c6.22,0.06 12.44,0 18.67,0c0.06214,2.37043 0.2692,4.73485 0.62,7.08c0.40121,2.68304 1.00969,5.33097 1.82,7.92h-13.3c-14.32,0 -28,-1.36 -41.3,-7.38c-23.68,-10.72 -41.31,-33.75 -45.31,-59.46c-4.11,-26.39 4.81,-53.69 24.66,-71.83c19.85672,-18.0479 47.37548,-25.06528 73.45,-18.73c-1.2,1.57333 -2.35667,3.18 -3.47,4.82l8.47,-3.44c-1.66,-0.52 -3.32,-1 -5,-1.38c26.24947,-35.00536 73.34974,-46.97923 113.13,-28.76c22.84,10.2 40.34,29.88 49,53.14c-1.24,-0.34 -2.49,-0.65 -3.74,-0.92c-6.16,-1.35 -9.98,4.34 -9.33,9.02z" id="Path 1" fill="#231815" stroke="none"/><path d="M696.0379,457.12227c-0.54869,-16.59274 6.17549,-32.59783 18.41,-43.82c13.71305,-12.31063 32.48648,-17.32084 50.51,-13.48c-1.22667,1.50667 -2.40333,3.08333 -3.53,4.73l-0.38,2.11c-2.75692,-0.48376 -5.55097,-0.72468 -8.35,-0.72c-27.24973,0 -49.34,22.09027 -49.34,49.34c0,0.61 0,1.22 0,1.83h-7.32z" id="Path 1" fill="#231815" stroke="none"/><path d="M696.6279,314.72227c-26.07452,-6.33528 -53.59328,0.6821 -73.45,18.73c-19.85,18.14 -28.77,45.44 -24.66,71.83c4,25.71 21.63,48.74 45.31,59.46c13.28,6 27,7.38 41.3,7.38h13.3" id="Path 1" fill="none" stroke="#231815"/><path d="M696.6279,314.72227c1.68,0.4 3.34,0.86 5,1.38l-8.47,3.44c1.11333,-1.64 2.27,-3.24667 3.47,-4.82z" id="Path 1" fill="none" stroke="#231815"/><path d="M858.7279,339.10227c-8.63,-23.26 -26.13,-42.94 -49,-53.14c-39.77235,-18.20289 -86.85412,-6.23055 -113.1,28.76" id="Path 1" fill="none" stroke="#231815"/><path d="M845.6879,347.19227c0.35557,2.79803 2.52217,5.02175 5.31,5.45c22.46,4.83 40.56,23.46 42.46,46.81c0.64836,7.91702 -0.45793,15.87959 -3.24,23.32" id="Path 1" fill="none" stroke="#231815"/><path d="M901.9679,433.36227c3.32759,-6.92553 5.46095,-14.36358 6.31,-22c3,-26.74 -11.35,-53.67 -35,-66.43c-4.61821,-2.48059 -9.50273,-4.4297 -14.56,-5.81" id="Path 1" fill="none" stroke="#231815"/><path d="M845.6879,347.19227c0,0.07 0.05,0.14 0.07,0.21c2.92,9.17 17.4,5.25 14.46,-4c-0.46,-1.46 -1,-2.89 -1.49,-4.32c-1.24,-0.34 -2.49,-0.65 -3.74,-0.92c-6.13,-1.34 -9.95,4.35 -9.3,9.03z" id="Path 1" fill="none" stroke="#231815"/></g></g></g></g></g></g></svg>