<svg width="500" height="500" xmlns="http://www.w3.org/2000/svg">

 <title/>
 <g>
  <title>background</title>
  <rect fill="none" id="canvas_background" height="402" width="582" y="-1" x="-1"/>
 </g>
 <g>
  <title>Layer 1</title>
  <path fill="#ffffff" id="svg_1" d="m394.67,337.33c0.49,14.52 -8.42,28.24 -22.28,33.07c-6.06,2.11 -12.13,1.91 -18.41,1.91l-90.48,0c-4.59,0 -9.19,0.05 -13.79,0a41.85,41.85 0 0 1 -34.3,-65.91c10.53,-15.33 30,-21 47.46,-15.64c3.35,1 6.62,-0.74 8.47,-3.45c11.27,-16.48 31.82,-25.42 51.57,-21.55a51.65,51.65 0 0 1 39.17,34.63a6.36,6.36 0 0 0 5.29,5.41c15.01,3.32 26.77,15.79 27.3,31.53z" class="cls-1"/>
  <path fill="#231815" id="svg_2" d="m387.18,297.95a49.45,49.45 0 0 1 11.75,10.59a66.46,66.46 0 0 1 -3.9,7.07a41.06,41.06 0 0 0 -10.94,-10.85a52.82,52.82 0 0 0 3.09,-6.81z" class="cls-2"/>
  <path fill="#b0b0b0" id="svg_3" d="m347.815219,227.396271c22.46,4.83 40.56,23.46 42.46,46.81a54,54 0 0 1 -3.24,23.32a48.15,48.15 0 0 0 -12.11,-5.63c-8.35,-21 -26.91,-37.41 -49.56,-41.28a66.9,66.9 0 0 0 -63.59,24a57.63,57.63 0 0 0 -50.56,13.47a56.91,56.91 0 0 0 -18.4,43.79c-6.23,0 -12.45,0.06 -18.67,0a64.91,64.91 0 0 1 -1.41,-129.8a68.21,68.21 0 0 1 21.73,3.24c3.33,1 6.63,-0.74 8.47,-3.45c17.29,-25.5 48.92,-39.18 79.35,-33.28a79.19,79.19 0 0 1 60.23,53.36a6.32,6.32 0 0 0 5.3,5.45z" class="cls-1"/>
  <path fill="#231815" id="svg_4" d="m387.18,297.95a52.82,52.82 0 0 1 -3.09,6.81a41.54,41.54 0 0 0 -7.35,-3.95a7,7 0 0 0 -0.14,-4.23q-0.69,-2.16 -1.53,-4.26a48.15,48.15 0 0 1 12.11,5.63z" class="cls-2"/>
  <path fill="#231815" id="svg_5" d="m376.6,296.58a7,7 0 0 1 0.14,4.23a39.79,39.79 0 0 0 -7.37,-2.24a57.91,57.91 0 0 0 -2.62,-6.87a7.51,7.51 0 0 1 4.61,-0.36c1.26,0.28 2.49,0.6 3.71,1q0.84,2.08 1.53,4.24z" class="cls-2"/>
  <path fill="#231815" id="svg_6" d="m369.37,298.57a39.79,39.79 0 0 1 7.37,2.24c-1.79,5.95 -12.15,7.34 -14.6,-0.24l-0.06,-0.18a8.31,8.31 0 0 1 4.67,-8.69a57.91,57.91 0 0 1 2.62,6.87z" class="cls-2"/>
  <path fill="#231815" id="svg_7" d="m362.14,300.57c2.45,7.58 12.81,6.19 14.6,0.24a41.54,41.54 0 0 1 7.35,3.95a41.06,41.06 0 0 1 10.91,10.85a66.46,66.46 0 0 0 3.9,-7.07a48.66,48.66 0 0 1 10.74,28.79c0.69,20.88 -12.64,39.87 -32.06,47.09c-8,3 -16.31,2.89 -24.7,2.89l-98.43,0c-10.75,0 -21,-1.36 -30.78,-6.29a57,57 0 0 1 -28.28,-33.72l7.88,0a49,49 0 0 1 -2.9,-15c0,-0.61 0,-1.22 0,-1.83a49.34,49.34 0 0 1 49.34,-49.34a50.14,50.14 0 0 1 15.21,2.4a58.44,58.44 0 0 1 101.88,8.17a8.31,8.31 0 0 0 -4.67,8.69a51.65,51.65 0 0 0 -39.17,-34.63c-19.75,-3.87 -40.3,5.07 -51.57,21.55c-1.85,2.71 -5.12,4.47 -8.47,3.45c-17.43,-5.32 -36.93,0.31 -47.46,15.64a41.85,41.85 0 0 0 34.3,65.91c4.6,0.05 9.2,0 13.79,0l90.45,0c6.28,0 12.35,0.2 18.41,-1.91c13.86,-4.83 22.77,-18.55 22.28,-33.07c-0.53,-15.74 -12.29,-28.21 -27.3,-31.53a6.36,6.36 0 0 1 -5.29,-5.41l0.04,0.18z" class="cls-2"/>
  <path fill="#231815" id="svg_8" d="m357.18,218.6c2.94,9.23 -11.54,13.15 -14.46,4c0,-0.07 -0.05,-0.14 -0.07,-0.21c-0.66,-4.68 3.17,-10.33 9.3,-9c1.25,0.27 2.5,0.58 3.74,0.92c0.53,1.4 1.03,2.83 1.49,4.29z" class="cls-2"/>
  <path fill="#231815" id="svg_9" d="m348,227.82a6.32,6.32 0 0 1 -5.31,-5.45c0,0.07 0.05,0.14 0.07,0.21c2.92,9.17 17.4,5.25 14.46,-4c-0.46,-1.46 -1,-2.89 -1.49,-4.32a69.37,69.37 0 0 1 14.56,5.81c23.64,12.76 38,39.69 35,66.43a68.2,68.2 0 0 1 -6.31,22a49.45,49.45 0 0 0 -11.75,-10.59a54,54 0 0 0 3.24,-23.32c-1.95,-23.31 -20.05,-41.94 -42.47,-46.77z" class="cls-2"/>
  <path fill="#231815" id="svg_10" d="m266.86,276.29c-1.64,-0.5 -3.29,-0.92 -4.94,-1.28a66.9,66.9 0 0 1 63.59,-24c22.65,3.87 41.21,20.28 49.56,41.28c-1.22,-0.38 -2.45,-0.7 -3.71,-1a7.51,7.51 0 0 0 -4.61,0.36a58.44,58.44 0 0 0 -101.88,-8.17a47.38,47.38 0 0 0 -6.86,-1.68l0.38,-2.11l8.47,-3.4z" class="cls-2"/>
  <path fill="#231815" id="svg_11" d="m266.86,276.29l-8.47,3.45q1.68,-2.46 3.53,-4.73c1.65,0.36 3.3,0.78 4.94,1.28z" class="cls-2"/>
  <path fill="#231815" id="svg_12" d="m203.27,347.3l-7.88,0a52.52,52.52 0 0 1 -1.82,-7.92a58.16,58.16 0 0 1 -0.62,-7.08l7.42,0a49,49 0 0 0 2.9,15z" class="cls-2"/>
  <path fill="#231815" id="svg_13" d="m198.59,191.28l-8.47,3.44q1.67,-2.46 3.47,-4.82c1.68,0.4 3.34,0.86 5,1.38z" class="cls-2"/>
  <path fill="#231815" id="svg_14" d="m342.65,222.37a79.19,79.19 0 0 0 -60.23,-53.37c-30.43,-5.9 -62.06,7.78 -79.35,33.28c-1.84,2.71 -5.14,4.49 -8.47,3.45a68.21,68.21 0 0 0 -21.73,-3.24a64.91,64.91 0 0 0 1.41,129.8c6.22,0.06 12.44,0 18.67,0a58.16,58.16 0 0 0 0.62,7.08a52.52,52.52 0 0 0 1.82,7.92l-13.3,0c-14.32,0 -28,-1.36 -41.3,-7.38c-23.68,-10.72 -41.31,-33.75 -45.31,-59.46c-4.11,-26.39 4.81,-53.69 24.66,-71.83a80.83,80.83 0 0 1 73.45,-18.73q-1.8,2.36 -3.47,4.82l8.47,-3.44c-1.66,-0.52 -3.32,-1 -5,-1.38a93,93 0 0 1 113.13,-28.76c22.84,10.2 40.34,29.88 49,53.14c-1.24,-0.34 -2.49,-0.65 -3.74,-0.92c-6.16,-1.35 -9.98,4.34 -9.33,9.02z" class="cls-2"/>
  <path fill="#231815" id="svg_15" d="m193,332.3a56.91,56.91 0 0 1 18.41,-43.82a57.63,57.63 0 0 1 50.51,-13.48q-1.84,2.26 -3.53,4.73l-0.38,2.11a47.85,47.85 0 0 0 -8.35,-0.72a49.34,49.34 0 0 0 -49.34,49.34c0,0.61 0,1.22 0,1.83l-7.32,0l0,0.01z" class="cls-2"/>
  <path stroke-miterlimit="10" stroke="#231815" fill="none" id="svg_16" d="m193.59,189.9a80.83,80.83 0 0 0 -73.45,18.73c-19.85,18.14 -28.77,45.44 -24.66,71.83c4,25.71 21.63,48.74 45.31,59.46c13.28,6 27,7.38 41.3,7.38l13.3,0" class="cls-3"/>
  <path stroke-miterlimit="10" stroke="#231815" fill="none" id="svg_17" d="m193.59,189.9c1.68,0.4 3.34,0.86 5,1.38l-8.47,3.44q1.67,-2.46 3.47,-4.82z" class="cls-3"/>
  <path stroke-miterlimit="10" stroke="#231815" fill="none" id="svg_18" d="m355.69,214.28c-8.63,-23.26 -26.13,-42.94 -49,-53.14a93,93 0 0 0 -113.1,28.76" class="cls-3"/>
  <path stroke-miterlimit="10" fill="#b0b0b0" id="svg_20" d="m342.65,222.37a6.32,6.32 0 0 0 5.31,5.45c22.46,4.83 40.56,23.46 42.46,46.81a54,54 0 0 1 -3.24,23.32" class="cls-3"/>
  <path stroke-miterlimit="10" stroke="#231815" fill="none" id="svg_21" d="m398.93,308.54a68.2,68.2 0 0 0 6.31,-22c3,-26.74 -11.35,-53.67 -35,-66.43a69.37,69.37 0 0 0 -14.56,-5.81" class="cls-3"/>
  <path stroke-miterlimit="10" stroke="#231815" fill="none" id="svg_22" d="m342.65,222.37c0,0.07 0.05,0.14 0.07,0.21c2.92,9.17 17.4,5.25 14.46,-4c-0.46,-1.46 -1,-2.89 -1.49,-4.32c-1.24,-0.34 -2.49,-0.65 -3.74,-0.92c-6.13,-1.34 -9.95,4.35 -9.3,9.03z" class="cls-3"/>
  <path stroke-miterlimit="10" fill="#b0b0b0" id="svg_24" d="m362.08,300.39a6.36,6.36 0 0 0 5.29,5.41c15,3.32 26.77,15.79 27.3,31.53c0.49,14.52 -8.42,28.24 -22.28,33.07c-6.06,2.11 -12.13,1.91 -18.41,1.91l-90.48,0c-4.59,0 -9.19,0.05 -13.79,0a41.85,41.85 0 0 1 -34.3,-65.91c10.53,-15.33 30,-21 47.46,-15.64c3.35,1 6.62,-0.74 8.47,-3.45c11.27,-16.48 31.82,-25.42 51.57,-21.55a51.65,51.65 0 0 1 39.17,34.63z" class="cls-3"/>
  <path stroke-miterlimit="10" stroke="#231815" fill="none" id="svg_23" d="m362.08,300.39l0.06,0.18c2.45,7.58 12.81,6.19 14.6,0.24a7,7 0 0 0 -0.14,-4.23q-0.69,-2.16 -1.53,-4.26c-8.35,-21 -26.91,-37.41 -49.56,-41.28a66.9,66.9 0 0 0 -63.59,24q-1.84,2.26 -3.53,4.73l8.47,-3.45c-1.64,-0.5 -3.29,-0.92 -4.94,-1.28a57.63,57.63 0 0 0 -50.56,13.47a56.91,56.91 0 0 0 -18.36,43.79a58.16,58.16 0 0 0 0.62,7.08a52.52,52.52 0 0 0 1.82,7.92a57,57 0 0 0 28.23,33.7c9.77,4.93 20,6.29 30.78,6.29l98.46,0c8.39,0 16.67,0.1 24.7,-2.89c19.42,-7.22 32.75,-26.21 32.06,-47.09a48.66,48.66 0 0 0 -10.74,-28.79a49.45,49.45 0 0 0 -11.75,-10.59a48.15,48.15 0 0 0 -12.11,-5.63c-1.22,-0.38 -2.45,-0.7 -3.71,-1a7.51,7.51 0 0 0 -4.61,0.36a8.31,8.31 0 0 0 -4.67,8.69" class="cls-3"/>
 </g>
</svg>