<svg width="500.00000000000006" height="500.00000000000006" xmlns="http://www.w3.org/2000/svg">

 <title/>
 <g>
  <title>background</title>
  <rect fill="none" id="canvas_background" height="402" width="582" y="-1" x="-1"/>
 </g>
 <g>
  <title>Layer 1</title>
  <path fill="#b0b0b0" id="svg_1" d="m325.57,301.28a51.75,51.75 0 0 0 10.34,-102.46a73.71,73.71 0 0 0 -131.81,-19a62.24,62.24 0 1 0 -19.18,121.44" class="cls-1"/>
  <path fill="#231815" id="svg_2" d="m325.57,308.78a59.9,59.9 0 0 0 58.79,-52.34c3.7,-30 -17,-58.47 -46.46,-64.86l5.24,5.24c-9.07,-28.39 -33.17,-50.81 -62.81,-56a82.4,82.4 0 0 0 -82.71,35.25l8.47,-3.45c-31.4,-9.69 -66.35,3.77 -82.26,32.77c-15.16,27.65 -9.62,63.37 13.66,84.79a70.91,70.91 0 0 0 47.42,18.61c9.66,0.11 9.66,-14.89 0,-15c-24.5,-0.27 -46.36,-16.6 -52.84,-40.4a55.22,55.22 0 0 1 25.59,-61.82c13.58,-7.83 29.54,-9.09 44.43,-4.49c3.34,1 6.63,-0.74 8.47,-3.45c14.64,-21.54 41.42,-33.14 67.15,-28.1a67.05,67.05 0 0 1 50.95,45.29a7.54,7.54 0 0 0 5.24,5.24c22.53,4.89 38.5,25.75 35.61,49c-2.74,22.09 -22,38.41 -44,38.7c-9.64,0.13 -9.67,15.13 0,15l0.06,0.02z" class="cls-2"/>
  <line fill="#2ea7e0" id="svg_3" y2="248.12" y1="267.32" x2="197.59" x1="204.97" class="cls-3"/>
  <path fill="#1f3caf" id="svg_4" d="m212.2,265.32l-7.37,-19.2c-1.45,-3.78 -5,-6.39 -9.23,-5.24c-3.61,1 -6.7,5.42 -5.24,9.23l7.37,19.2c1.45,3.78 5,6.39 9.23,5.24c3.61,-1 6.7,-5.42 5.24,-9.23z" class="cls-3"/>
  <line fill="#2ea7e0" id="svg_5" y2="248.12" y1="267.32" x2="235.56" x1="242.93" class="cls-3"/>
  <path fill="#1f3caf" id="svg_6" d="m250.16,264.390151l-7.37,-19.2c-1.45,-3.78 -5,-6.39 -9.23,-5.24c-3.61,1 -6.7,5.42 -5.24,9.23l7.37,19.2c1.45,3.78 5,6.39 9.23,5.24c3.61,-1 6.7,-5.42 5.24,-9.23z" class="cls-3"/>
  <line fill="#2ea7e0" id="svg_7" y2="248.12" y1="267.32" x2="273.52" x1="280.89" class="cls-3"/>
  <path fill="#1f3caf" id="svg_8" d="m288.12,264.390151l-7.37,-19.2c-1.45,-3.78 -5,-6.39 -9.23,-5.24c-3.61,1 -6.7,5.42 -5.24,9.23l7.37,19.2c1.45,3.78 5,6.39 9.23,5.24c3.61,-1 6.7,-5.42 5.24,-9.23z" class="cls-3"/>
  <line fill="#2ea7e0" id="svg_9" y2="291" y1="310.2" x2="214.06" x1="221.44" class="cls-3"/>
  <path fill="#1f3caf" id="svg_10" d="m228.67,307.270151l-7.38,-19.21c-1.45,-3.78 -5,-6.39 -9.23,-5.24c-3.61,1 -6.7,5.42 -5.24,9.23l7.37,19.2c1.45,3.78 5,6.39 9.23,5.24c3.61,-1 6.7,-5.42 5.24,-9.23l0.01,0.01z" class="cls-3"/>
  <line fill="#2ea7e0" id="svg_11" y2="291" y1="310.2" x2="252.02" x1="259.4" class="cls-3"/>
  <path fill="#1f3caf" id="svg_12" d="m266.63,307.270151l-7.37,-19.21c-1.45,-3.78 -5,-6.39 -9.23,-5.24c-3.61,1 -6.7,5.42 -5.24,9.23l7.37,19.2c1.45,3.78 5,6.39 9.23,5.24c3.61,-1 6.7,-5.42 5.24,-9.23l0,0.01z" class="cls-3"/>
  <line fill="#2ea7e0" id="svg_13" y2="291" y1="310.2" x2="289.98" x1="297.36" class="cls-3"/>
  <path fill="#1f3caf" id="svg_14" d="m304.59,307.270151l-7.37,-19.21c-1.45,-3.78 -5,-6.39 -9.23,-5.24c-3.61,1 -6.7,5.42 -5.24,9.23l7.37,19.2c1.45,3.78 5,6.39 9.23,5.24c3.61,-1 6.7,-5.42 5.24,-9.23l0,0.01z" class="cls-3"/>
  <line fill="#2ea7e0" id="svg_15" y2="333.88" y1="353.08" x2="230.53" x1="237.9" class="cls-3"/>
  <path fill="#1f3caf" id="svg_16" d="m245.14,350.150151l-7.37,-19.2c-1.45,-3.78 -5,-6.39 -9.23,-5.24c-3.61,1 -6.7,5.42 -5.24,9.23l7.37,19.2c1.45,3.78 5,6.39 9.23,5.24c3.61,-1 6.7,-5.42 5.24,-9.23z" class="cls-3"/>
  <line fill="#2ea7e0" id="svg_17" y2="333.88" y1="353.08" x2="268.49" x1="275.86" class="cls-3"/>
  <path fill="#1f3caf" id="svg_18" d="m283.1,350.150151l-7.37,-19.2c-1.45,-3.78 -5,-6.39 -9.23,-5.24c-3.61,1 -6.7,5.42 -5.24,9.23l7.37,19.2c1.45,3.78 5,6.39 9.23,5.24c3.61,-1 6.7,-5.42 5.24,-9.23z" class="cls-3"/>
  <line fill="#2ea7e0" id="svg_19" y2="333.88" y1="353.08" x2="306.45" x1="313.83" class="cls-3"/>
  <path fill="#1f3caf" id="svg_20" d="m321.06,350.150151l-7.37,-19.2c-1.45,-3.78 -5,-6.39 -9.23,-5.24c-3.61,1 -6.7,5.42 -5.24,9.23l7.37,19.2c1.45,3.78 5,6.39 9.23,5.24c3.61,-1 6.7,-5.42 5.24,-9.23z" class="cls-3"/>
 </g>
</svg>