<svg version="1.1" xmlns="http://www.w3.org/2000/svg" xmlns:xlink="http://www.w3.org/1999/xlink" width="655" height="538.56194" viewBox="486,80.43806,655,538.56194"><g id="document" fill-opacity="0" fill="#ffffff" fill-rule="nonzero" stroke="#000000" stroke-width="0" stroke-linecap="butt" stroke-linejoin="miter" stroke-miterlimit="10" stroke-dasharray="" stroke-dashoffset="0" font-family="none" font-weight="none" font-size="none" text-anchor="none" style="mix-blend-mode: normal"><rect x="725.2" y="119" transform="scale(0.71429,1)" width="700" height="500" id="Shape 1 1" vector-effect="non-scaling-stroke"/></g><g fill="none" fill-rule="nonzero" stroke="none" stroke-width="1" stroke-linecap="none" stroke-linejoin="none" stroke-miterlimit="10" stroke-dasharray="" stroke-dashoffset="0" font-family="none" font-weight="none" font-size="none" text-anchor="none" style="mix-blend-mode: normal"><g id="stage"><g id="layer1 1"><g id="Group 1" stroke="none" stroke-linecap="butt" stroke-linejoin="miter"><g id="Group 1" fill="none"><rect x="1035.08768" y="589.22577" transform="scale(0.52749,0.52749)" width="582" height="402" id="Shape 1"/></g><g id="Group 1"><path d="M723.8068,509.27506h-9.15725v-3.87179l1.58247,-0.91256c0.40617,0.211 0.79651,0.41672 1.14993,0.62244l4.4573,2.58998c0.59417,0.35934 1.27324,0.55414 1.96754,0.56442z" id="Path 1" fill="#ffffff"/><path d="M678.42672,507.70313l4.45203,-2.58998c0.34814,-0.20045 0.74376,-0.40617 1.15521,-0.62244l1.6827,0.97586v3.80849h-9.26275v-1.00751c0.69625,-0.00832 1.37752,-0.20323 1.97282,-0.56442z" id="Path 1" fill="#ffffff"/><path d="M722.736,491.59882c4.42038,-2.55306 8.39766,4.28851 3.99311,6.83101l-2.55833,1.47698l1.6616,0.96003c3.72936,2.16799 1.44005,7.38488 -2.02557,7.38488c-0.69431,-0.01028 -1.37337,-0.20508 -1.96754,-0.56442l-4.4573,-2.58998c-0.35342,-0.20572 -0.74376,-0.41144 -1.14993,-0.62244l-1.58247,0.91256v3.87179h-7.91237v-3.85596c-0.88619,-0.50639 -1.76534,-1.0163 -2.63746,-1.52973l-1.30818,-0.75431l-2.59526,-1.49808l-0.05275,0.03165l-2.59526,1.49808l-1.36093,0.78596l-2.54778,1.46643v3.87179h-7.91237v-3.81904l-1.6827,-0.97586c-0.41144,0.21627 -0.80706,0.42199 -1.15521,0.62244l-4.45203,2.58998c-0.5953,0.36118 -1.27657,0.5561 -1.97282,0.56442c-3.47089,0 -5.74966,-5.23271 -2.02557,-7.38488l1.6616,-0.96003l-2.55306,-1.47698c-4.4151,-2.54778 -0.42727,-9.38407 3.99311,-6.83101l2.51613,1.45588c0,-0.63299 0,-1.26598 0,-1.89897c0,-5.10084 7.91237,-5.09029 7.91237,0v5.15359c0,0.41144 0,0.86509 0.03692,1.324l1.63522,0.94948l3.98784,-2.29986c0.74376,-0.43254 1.62995,-1.05498 2.56888,-1.6405v-1.73017c-0.40617,-0.2532 -0.79124,-0.50112 -1.15521,-0.70684l-4.51005,-2.57943c-4.42038,-2.53196 -0.43254,-9.36825 3.99311,-6.83101l1.62995,0.93366v-2.80625c-0.03162,-1.13798 0.45463,-2.22889 1.32209,-2.96613c0.86746,-0.73724 2.02249,-1.04123 3.14049,-0.82654c1.98325,0.12975 3.50798,1.80603 3.44979,3.79266v2.80625l1.62467,-0.93366c4.43093,-2.53723 8.40821,4.29905 3.99311,6.83101l-4.46785,2.56888c-0.36397,0.20572 -0.74904,0.45364 -1.14993,0.70684v1.65105c1.05498,0.64354 2.06249,1.3662 2.89593,1.84622l3.69244,2.14162l1.58247,-0.91256c0,-0.47474 0.03692,-0.92838 0.03692,-1.32928v-5.15359c0,-5.10084 7.91237,-5.09029 7.91237,0c0,0.63299 0,1.26598 0,1.89369z" id="Path 1" fill="#1f3caf"/><path d="M726.62361,519.32398c4.4151,2.54778 0.42199,9.38407 -3.99311,6.85739l-2.41591,-1.39785c0,0.63299 0,1.26598 0,1.89897c0,5.10084 -7.91237,5.09029 -7.91237,0v-5.15359c0,-0.41144 0,-0.86509 -0.03692,-1.324l-1.63522,-0.94948l-3.88234,2.24184c-0.77541,0.44837 -1.69852,1.10246 -2.66911,1.7038v1.6827c0.40089,0.2532 0.79124,0.50112 1.14993,0.70684l4.46785,2.56888c4.42038,2.53196 0.43254,9.36825 -3.99311,6.83101l-1.62467,-0.93366v2.95923c0,5.10084 -7.91237,5.09029 -7.91237,0v-2.92758l-1.62995,0.93366c-4.42565,2.53723 -8.40821,-4.29905 -3.99311,-6.83101l4.46785,-2.56888c0.36397,-0.20572 0.74904,-0.45364 1.15521,-0.70684v-1.77237c-1.02333,-0.63299 -1.98864,-1.31873 -2.7957,-1.7882l-3.69244,-2.13634l-1.6827,0.97058c0,0.47474 -0.0422,0.92311 -0.0422,1.32928v5.15359c0,5.10084 -7.91237,5.09029 -7.91237,0c0,-0.63299 0,-1.26598 0,-1.89897l-2.41064,1.39785c-4.42565,2.55306 -8.40294,-4.28851 -3.99838,-6.85739l2.45284,-1.41368l-1.65632,-0.92838c-3.72936,-2.16799 -1.44005,-7.38488 2.02557,-7.38488c0.69599,0.0101 1.3768,0.20488 1.97282,0.56442l4.45203,2.58998c0.35342,0.20572 0.74904,0.41144 1.14993,0.62244l1.68797,-0.97586v-3.69244h7.91237v3.69244l2.54778,1.41895l1.41368,0.81234l2.54251,1.4717l0.05275,0.03165l2.54251,-1.4717l1.36093,-0.78596l2.59526,-1.49808l0.05275,-0.03165v-3.69244h7.91237v3.75574l1.58247,0.91256c0.41144,-0.21627 0.80706,-0.42199 1.14993,-0.62244l4.4573,-2.58998c0.59498,-0.36191 1.27646,-0.55687 1.97282,-0.56442c3.46562,0 5.74438,5.23271 2.02029,7.38488l-1.6616,0.96003z" id="Path 1" fill="#1f3caf"/></g></g><g id="Group 1" stroke="none" stroke-linecap="butt" stroke-linejoin="miter"><g id="Group 1 1" fill="none"><rect x="1281.53784" y="657.47351" transform="scale(0.52749,0.52749)" width="582" height="402" id="Shape 1 1"/></g><g id="Group 1 1"><path d="M853.8068,545.27506h-9.15725v-3.87179l1.58247,-0.91256c0.40617,0.211 0.79651,0.41672 1.14993,0.62244l4.4573,2.58998c0.59417,0.35934 1.27324,0.55414 1.96754,0.56442z" id="Path 1 1" fill="#ffffff"/><path d="M808.42672,543.70313l4.45203,-2.58998c0.34814,-0.20045 0.74376,-0.40617 1.15521,-0.62244l1.6827,0.97586v3.80849h-9.26275v-1.00751c0.69625,-0.00832 1.37752,-0.20323 1.97282,-0.56442z" id="Path 1 1" fill="#ffffff"/><path d="M852.736,527.59882c4.42038,-2.55306 8.39766,4.28851 3.99311,6.83101l-2.55833,1.47698l1.6616,0.96003c3.72936,2.16799 1.44005,7.38488 -2.02557,7.38488c-0.69431,-0.01028 -1.37337,-0.20508 -1.96754,-0.56442l-4.4573,-2.58998c-0.35342,-0.20572 -0.74376,-0.41144 -1.14993,-0.62244l-1.58247,0.91256v3.87179h-7.91237v-3.85596c-0.88619,-0.50639 -1.76534,-1.0163 -2.63746,-1.52973l-1.30818,-0.75431l-2.59526,-1.49808l-0.05275,0.03165l-2.59526,1.49808l-1.36093,0.78596l-2.54778,1.46643v3.87179h-7.91237v-3.81904l-1.6827,-0.97586c-0.41144,0.21627 -0.80706,0.42199 -1.15521,0.62244l-4.45203,2.58998c-0.5953,0.36118 -1.27657,0.5561 -1.97282,0.56442c-3.47089,0 -5.74966,-5.23271 -2.02557,-7.38488l1.6616,-0.96003l-2.55306,-1.47698c-4.4151,-2.54778 -0.42727,-9.38407 3.99311,-6.83101l2.51613,1.45588c0,-0.63299 0,-1.26598 0,-1.89897c0,-5.10084 7.91237,-5.09029 7.91237,0v5.15359c0,0.41144 0,0.86509 0.03692,1.324l1.63522,0.94948l3.98784,-2.29986c0.74376,-0.43254 1.62995,-1.05498 2.56888,-1.6405v-1.73017c-0.40617,-0.2532 -0.79124,-0.50112 -1.15521,-0.70684l-4.51005,-2.57943c-4.42038,-2.53196 -0.43254,-9.36825 3.99311,-6.83101l1.62995,0.93366v-2.80625c-0.03162,-1.13798 0.45463,-2.22889 1.32209,-2.96613c0.86746,-0.73724 2.02249,-1.04123 3.14049,-0.82654c1.98325,0.12975 3.50798,1.80603 3.44979,3.79266v2.80625l1.62467,-0.93366c4.43093,-2.53723 8.40821,4.29905 3.99311,6.83101l-4.46785,2.56888c-0.36397,0.20572 -0.74904,0.45364 -1.14993,0.70684v1.65105c1.05498,0.64354 2.06249,1.3662 2.89593,1.84622l3.69244,2.14162l1.58247,-0.91256c0,-0.47474 0.03692,-0.92838 0.03692,-1.32928v-5.15359c0,-5.10084 7.91237,-5.09029 7.91237,0c0,0.63299 0,1.26598 0,1.89369z" id="Path 1 1" fill="#1f3caf"/><path d="M856.62361,555.32398c4.4151,2.54778 0.42199,9.38407 -3.99311,6.85739l-2.41591,-1.39785c0,0.63299 0,1.26598 0,1.89897c0,5.10084 -7.91237,5.09029 -7.91237,0v-5.15359c0,-0.41144 0,-0.86509 -0.03692,-1.324l-1.63522,-0.94948l-3.88234,2.24184c-0.77541,0.44837 -1.69852,1.10246 -2.66911,1.7038v1.6827c0.40089,0.2532 0.79124,0.50112 1.14993,0.70684l4.46785,2.56888c4.42038,2.53196 0.43254,9.36825 -3.99311,6.83101l-1.62467,-0.93366v2.95923c0,5.10084 -7.91237,5.09029 -7.91237,0v-2.92758l-1.62995,0.93366c-4.42565,2.53723 -8.40821,-4.29905 -3.99311,-6.83101l4.46785,-2.56888c0.36397,-0.20572 0.74904,-0.45364 1.15521,-0.70684v-1.77237c-1.02333,-0.63299 -1.98864,-1.31873 -2.7957,-1.7882l-3.69244,-2.13634l-1.6827,0.97058c0,0.47474 -0.0422,0.92311 -0.0422,1.32928v5.15359c0,5.10084 -7.91237,5.09029 -7.91237,0c0,-0.63299 0,-1.26598 0,-1.89897l-2.41064,1.39785c-4.42565,2.55306 -8.40294,-4.28851 -3.99838,-6.85739l2.45284,-1.41368l-1.65632,-0.92838c-3.72936,-2.16799 -1.44005,-7.38488 2.02557,-7.38488c0.69599,0.0101 1.3768,0.20488 1.97282,0.56442l4.45203,2.58998c0.35342,0.20572 0.74904,0.41144 1.14993,0.62244l1.68797,-0.97586v-3.69244h7.91237v3.69244l2.54778,1.41895l1.41368,0.81234l2.54251,1.4717l0.05275,0.03165l2.54251,-1.4717l1.36093,-0.78596l2.59526,-1.49808l0.05275,-0.03165v-3.69244h7.91237v3.75574l1.58247,0.91256c0.41144,-0.21627 0.80706,-0.42199 1.14993,-0.62244l4.4573,-2.58998c0.59498,-0.36191 1.27646,-0.55687 1.97282,-0.56442c3.46562,0 5.74438,5.23271 2.02029,7.38488l-1.6616,0.96003z" id="Path 1 1" fill="#1f3caf"/></g></g><path d="M486,188" id="Path 1" fill="none" stroke="#000000" stroke-linecap="round" stroke-linejoin="round"/><g id="Group 1" stroke="none" stroke-linecap="butt" stroke-linejoin="miter"><g id="Group 1" fill="none"><rect x="559" y="80.43806" width="582" height="402" id="Shape 1"/></g><g id="Group 1"><path d="M846.41,338.43806c1.39134,2.85414 2.57443,5.80517 3.54,8.83c0.71214,2.54166 2.69834,4.52786 5.24,5.24c6.88792,1.50096 13.34204,4.5553 18.87,8.93c10.00914,7.79653 16.19799,19.50803 17,32.17c0.40972,6.62482 -0.71977,13.25456 -3.3,19.37c-7.05191,16.3793 -23.07864,27.07816 -40.91,27.31c-4.78,0.06 -7.19,3.78 -7.24,7.5h-126.17c0,-3.73 -2.45,-7.45 -7.24,-7.5c-24.51,-0.27 -46.37,-16.6 -52.84,-40.4c-6.36206,-24.04418 4.13519,-49.37433 25.64,-61.87c6.29508,-3.61467 13.25957,-5.91121 20.47,-6.75c5.36226,-0.62819 10.78663,-0.49014 16.11,0.41c2.65498,0.44097 5.2775,1.05901 7.85,1.85c3.34,1 6.63,-0.74 8.47,-3.45c11.19419,-16.3271 28.99836,-26.90941 48.69,-28.94c6.16466,-0.62333 12.38737,-0.34032 18.47,0.84l0.28,0.06c20.50611,4.13297 37.91161,17.59293 47.07,36.4zM812.16,444.00806c3.62,-1 6.7,-5.42 5.24,-9.22c-0.9,-2.36 -1.80333,-4.71333 -2.71,-7.06l-4.69,-12.15c-0.56541,-1.49848 -1.50941,-2.82491 -2.74,-3.85c-1.79814,-1.51288 -4.23187,-2.03038 -6.49,-1.38l-0.26,0.08c-3.5,1.14 -6.4,5.43 -5,9.14l2.13,5.54l5.25,13.66c1.5,3.78 5.11,6.39 9.27,5.24zM774.16,444.00806c3.62,-1 6.7,-5.42 5.24,-9.22l-6.88,-17.92l-0.49,-1.29c-1.45,-3.77 -5,-6.38 -9.23,-5.23c-0.60923,0.17159 -1.19151,0.42739 -1.73,0.76c-2.78,1.69 -4.73,5.29 -3.51,8.46l7.38,19.2c1.49,3.78 5.06,6.39 9.26,5.24zM736.16,444.00806c3.62,-1 6.7,-5.42 5.24,-9.22c-2.46,-6.4 -4.91667,-12.80333 -7.37,-19.21c-1.46,-3.77 -5.05,-6.38 -9.23,-5.23c-3.62,1 -6.7,5.42 -5.24,9.22c2.46,6.4 4.91667,12.8 7.37,19.2c1.54,3.78 5.13,6.39 9.31,5.24z" id="CompoundPath 1" fill="#dcdddd"/><path d="M942,352.73806c-2.83333,-3.67333 -5.65667,-7.34 -8.47,-11l-0.53,-1.5c1.69,-0.61 3.36,-1.26 5,-2c6.82,-2.85 10.67,5.93 8.47,11c-8.94061,20.50523 -22.94977,38.39951 -40.71,52c0.57753,-6.17157 0.14861,-12.39598 -1.27,-18.43c7.74595,-7.18177 14.51697,-15.34802 20.14,-24.29c5.9217,-1.50565 11.72682,-3.43735 17.37,-5.78z" id="Path 1" fill="#231815"/><path d="M933.56,341.71806c2.82,3.68 5.64333,7.34667 8.47,11c-5.63913,2.3524 -11.44091,4.29413 -17.36,5.81c3.39148,-5.36623 6.36364,-10.98626 8.89,-16.81z" id="Path 1" fill="#231815"/><path d="M933,340.23806l0.55,1.48c-2.52544,5.8306 -5.49761,11.45735 -8.89,16.83c-9.52786,2.45439 -19.3041,3.81648 -29.14,4.06c-4.24334,-6.15503 -9.58614,-11.4741 -15.76,-15.69c18.02371,1.84848 36.23164,-0.43606 53.24,-6.68z" id="Path 1" fill="#231815"/><path d="M909.51,240.95806c5.59,-0.67 -1.95,7 1.38,7.91l-0.65,-0.2c-2.7413,-0.89056 -4.61115,-3.42793 -4.65,-6.31c0.63,-0.25 1.26,-0.5 1.89,-0.73c0.65095,-0.2948 1.33146,-0.5194 2.03,-0.67z" id="Path 1" fill="#231815"/><path d="M914.88,234.43806c9.27,2.66 5.3,17.13 -4,14.47c-3.33,-0.9 4.21,-8.58 -1.38,-7.91c-0.6883,0.15263 -1.35865,0.3772 -2,0.67c-0.63,0.23 -1.26,0.48 -1.89,0.73c-0.22,-4.62 3.5,-9.55 9.27,-7.96z" id="Path 1" fill="#231815"/><path d="M895.53,362.60806c9.8359,-0.24352 19.61214,-1.60561 29.14,-4.06c-5.62303,8.94198 -12.39405,17.10823 -20.14,24.29c-1.71545,-7.24448 -4.76769,-14.10523 -9,-20.23z" id="Path 1" fill="#f4ec90"/><path d="M905.64,402.89806c-3.77918,29.68246 -28.87958,52.02523 -58.8,52.34c-4.87,0.06 -7.28,-3.72 -7.24,-7.5h7.24c24.24079,-0.00382 45.23191,-16.8308 50.51,-40.49c2.88667,-1.88 5.70333,-3.88 8.45,-6c-0.05,0.56 -0.1,1.1 -0.16,1.65z" id="Path 1" fill="#231815"/><path d="M902.41,243.70806c1,-0.48 2.11,-0.92 3.18,-1.35c0.03885,2.88207 1.9087,5.41944 4.65,6.31c-3.37431,-1.00754 -6.64031,-2.34744 -9.75,-4c0.63,-0.33 1.26,-0.66 1.92,-0.96z" id="Path 1" fill="#231815"/><path d="M898,388.43806c2.24,-1.78 4.4,-3.65 6.5,-5.58c1.41861,6.03402 1.84753,12.25843 1.27,18.43c-2.74,2.1 -5.55667,4.1 -8.45,6c1.38247,-6.18824 1.61298,-12.57823 0.68,-18.85z" id="Path 1" fill="#231815"/><path d="M898,388.43806c-1.3993,-9.56683 -5.46446,-18.54622 -11.73,-25.91c3.07,0.14 6.15,0.18 9.23,0.1c4.23231,6.12477 7.28455,12.98552 9,20.23c-2.07,1.91 -4.23,3.78 -6.5,5.58z" id="Path 1" fill="#231815"/><path d="M898.59,395.98806c0.00116,3.78747 -0.41467,7.56355 -1.24,11.26c-3.11,2 -6.32,3.92 -9.6,5.68c2.58023,-6.11544 3.70972,-12.74518 3.3,-19.37c2.4,-1.62667 4.73333,-3.34 7,-5.14c0.36739,2.50646 0.54789,5.03677 0.54,7.57z" id="Path 1" fill="#231815"/><path d="M897.35,407.24806c-5.27809,23.6592 -26.26921,40.48618 -50.51,40.49h-7.24c0,-3.72 2.46,-7.44 7.24,-7.5c17.83136,-0.23184 33.85809,-10.9307 40.91,-27.31c3.25,-1.76 6.49,-3.65 9.6,-5.68z" id="Path 1" fill="#231815"/><path d="M898,388.43806c-2.26,1.8 -4.59333,3.51333 -7,5.14c-0.80201,-12.66197 -6.99086,-24.37347 -17,-32.17c4.06,0.56 8.14,0.93333 12.24,1.12c6.27637,7.36031 10.35207,16.34001 11.76,25.91z" id="Path 1" fill="#231815"/><path d="M886.3,362.50806c-7.50084,-8.84708 -17.75586,-14.91839 -29.12,-17.24c-0.34,-1.1 -0.71,-2.19 -1.11,-3.28c7.70818,2.45879 15.65072,4.11097 23.7,4.93c6.17386,4.2159 11.51666,9.53497 15.76,15.69c-3.08,0.08 -6.16,0.04 -9.23,-0.1z" id="Path 1" fill="#231815"/><path d="M881.11,217.08806c-0.75353,1.9417 -1.60461,3.84413 -2.55,5.7c-0.98173,-1.84828 -1.85651,-3.75141 -2.62,-5.7c-0.5171,-1.07162 -0.90967,-2.19897 -1.17,-3.36c-0.13,-0.46 -0.26,-0.92 -0.4,-1.38h8.31c0.01,1.42 -1.08,3.48 -1.57,4.74z" id="Path 1" fill="#231815"/><path d="M856.66,244.71806c4.02482,2.11502 7.76474,4.73262 11.13,7.79c4.36375,4.00215 7.98905,8.74111 10.71,14c-1.54,2.8 -3.32,6.16 -3.73,9.17c-0.35,2.53 -2.14,1.38 3.76,1.38c4.85,0 4.52,1 3.54,-2.06c-0.65423,-1.96396 -1.40855,-3.89315 -2.26,-5.78c-0.4,-0.91 -0.85,-1.82 -1.31,-2.71l0.59,-1.07c4.97582,-8.8513 12.40854,-16.07216 21.4,-20.79c3.10969,1.65256 6.37569,2.99246 9.75,4l0.65,0.2c9.29,2.66 13.26,-11.81 4,-14.47c5.13295,1.4549 8.41482,6.46294 7.7,11.75c-0.71,5.28 -4.46,7.67 -9.08,9.27c-9.45,3.28 -17.06,9.31 -21.79,18.22c-2,3.72 -2.42,8.45 -5.21,11.67c-3.04712,3.42717 -7.94595,4.51893 -12.16,2.71c-5,-2.12 -5.66,-6.52 -7.43,-11c-1.41776,-3.58811 -3.39937,-6.9268 -5.87,-9.89c-2.87345,-3.42341 -6.33009,-6.31128 -10.21,-8.53c-3.48,-2 -7.46,-2.6 -10.91,-4.5c-4.34199,-2.38821 -6.48633,-7.43712 -5.19,-12.22c1.24,-4.53 4.7,-6.46 8.83,-7.84c8.00047,-2.51215 14.91998,-7.64893 19.64,-14.58c4.45,-6.8 5.18,-19.28 15.76,-18.87c9.9,0.39 10.56,12.28 14.87,18.87c4.97681,7.35448 12.42896,12.67744 21,15c-5.77,-1.55 -9.49,3.38 -9.29,8c-1.07,0.43 -2.14,0.87 -3.18,1.35c-0.66,0.3 -1.29,0.63 -1.92,1c-9.34361,-4.92255 -16.98614,-12.54765 -21.93,-21.88c0.94539,-1.85587 1.79647,-3.7583 2.55,-5.7c0.49,-1.26 1.58,-3.32 1.57,-4.74h-8.31c0.14,0.46 0.27,0.92 0.4,1.38c0.26033,1.16103 0.6529,2.28838 1.17,3.36c0.76349,1.94859 1.63827,3.85172 2.62,5.7c-0.63,1.23 -1.28,2.43 -2,3.59c-3.82361,5.97491 -8.78839,11.1368 -14.61,15.19c-1.68104,1.17165 -3.442,2.22422 -5.27,3.15c-2.48883,-1.33048 -5.07649,-2.46718 -7.74,-3.4c-0.87142,-0.39051 -1.78868,-0.66938 -2.73,-0.83v4.15c-1.33333,3.38667 -1.10667,4.72 0.68,4c1.38,0 3.4,-1.11 4.71,-1.63c1.74,-0.76 3.44,-1.56333 5.1,-2.41z" id="Path 1" fill="#231815"/><path d="M879.81,269.23806c0.85145,1.88685 1.60577,3.81604 2.26,5.78c1,3.07 1.31,2.06 -3.54,2.06c-5.9,0 -4.11,1.15 -3.76,-1.38c0.41,-3 2.19,-6.37 3.73,-9.17c0.5,0.91 0.91,1.8 1.31,2.71z" id="Path 1" fill="#231815"/><path d="M892.48,249.84806c-5.47035,4.2391 -10.02528,9.54241 -13.39,15.59l-0.59,1.07c-2.72095,-5.25889 -6.34625,-9.99785 -10.71,-14c-3.36526,-3.05738 -7.10518,-5.67498 -11.13,-7.79c1.828,-0.92578 3.58896,-1.97835 5.27,-3.15c5.82161,-4.0532 10.78639,-9.21509 14.61,-15.19c0.74,-1.16 1.39,-2.36 2,-3.59c4.94386,9.33235 12.58639,16.95745 21.93,21.88c-2.81707,1.4771 -5.49175,3.21113 -7.99,5.18z" id="Path 1" fill="#ffffff"/><path d="M857.18,345.26806c11.36414,2.32161 21.61916,8.39292 29.12,17.24c-4.1,-0.18 -8.18,-0.55333 -12.24,-1.12c-5.53265,-4.35683 -11.98642,-7.3939 -18.87,-8.88c-2.54166,-0.71214 -4.52786,-2.69834 -5.24,-5.24c-0.96557,-3.02483 -2.14866,-5.97586 -3.54,-8.83c3.17,1.33 6.4,2.51 9.66,3.55c0.4,1.09 0.77,2.18 1.11,3.28z" id="Path 1" fill="#231815"/><path d="M864.42,343.27806l-5.24,-5.24c1.26,0.28 2.5,0.6 3.73,1c0.53,1.4 1.09,2.8 1.51,4.24z" id="Path 1" fill="#231815"/><path d="M848.9,241.43806c2.66828,0.90924 5.26261,2.02253 7.76,3.33c-1.66,0.85333 -3.36,1.62667 -5.1,2.32c-1.31,0.52 -3.33,1.67 -4.71,1.63c-1.79333,0.75333 -2.02,-0.58 -0.68,-4v-4.15c0.94312,0.17341 1.86044,0.46574 2.73,0.87z" id="Path 1" fill="#231815"/><path d="M833.87,477.66806c1.46,3.8 -1.62,8.23 -5.24,9.22c-4.18,1.15 -7.77,-1.46 -9.22,-5.23l-7.41,-19.22c-1.46,-3.8 1.62,-8.23 5.24,-9.22c4.18,-1.15 7.77,1.46 9.22,5.24z" id="Path 1" fill="#1f3caf"/><path d="M856.07,341.98806c-3.26,-1 -6.49,-2.22 -9.66,-3.55c-9.16866,-18.81933 -26.5952,-32.28125 -47.12,-36.4c-2.05,-2.71 -4,-5.49 -5.76,-8.35c28.44171,2.62889 52.80714,21.44644 62.54,48.3z" id="Path 1" fill="#231815"/><path d="M807.29,411.72806c1.23059,1.02509 2.17459,2.35152 2.74,3.85l4.66,12.15c-2.8,-0.25 -5.6,-0.59 -8.38,-1c-2.78,-0.41 -5.77,-1 -8.62,-1.61l-2.13,-5.54c-1.42,-3.71 1.48,-8 5,-9.14c2.22,0.49 4.44,0.93 6.73,1.29z" id="Path 1" fill="#1f3caf"/><path d="M797.69,425.10806c2.85,0.63 5.73,1.17 8.62,1.61c2.89,0.44 5.58,0.76 8.38,1c0.91333,2.34667 1.81667,4.7 2.71,7.06c1.46,3.8 -1.62,8.23 -5.24,9.22c-4.18,1.15 -7.77,-1.46 -9.22,-5.24z" id="Path 1" fill="#1f3caf"/><path d="M800.8,410.34806c2.25813,-0.65038 4.69186,-0.13288 6.49,1.38c-2.26,-0.36 -4.51,-0.8 -6.75,-1.3z" id="Path 1" fill="#1f3caf"/><path d="M795.91,477.66806c1.46,3.8 -1.63,8.23 -5.24,9.22c-4.18,1.15 -7.78,-1.46 -9.23,-5.23c-2.44667,-6.4 -4.90333,-12.80333 -7.37,-19.21c-1.46,-3.8 1.62,-8.23 5.24,-9.22c4.18,-1.15 7.77,1.46 9.22,5.24z" id="Path 1" fill="#1f3caf"/><path d="M793.53,293.68806c1.78,2.86 3.71,5.64 5.76,8.35l-0.28,-0.06c-6.08263,-1.18032 -12.30534,-1.46333 -18.47,-0.84c-1.43,-2.31 -2.77,-4.66 -4,-7c3.40251,-0.47775 6.83412,-0.71833 10.27,-0.72c2.24,-0.04 4.49,0.07 6.72,0.27z" id="Path 1" fill="#231815"/><path d="M789.12,286.02806c4.1884,0.09442 8.36364,0.5056 12.49,1.23c28.13,5 51.25,25.4 61.3,51.74c-1.23,-0.36 -2.47,-0.68 -3.73,-1l5.24,5.24c-0.47,-1.44 -1,-2.87 -1.51,-4.28c6.00482,1.72818 11.6961,4.40166 16.86,7.92c-8.04928,-0.81903 -15.99182,-2.47121 -23.7,-4.93c-9.73286,-26.85356 -34.09829,-45.67111 -62.54,-48.3c-1.56667,-2.47333 -3.03667,-5.01333 -4.41,-7.62z" id="Path 1" fill="#231815"/><path d="M789.12,286.02806c1.37333,2.6 2.84333,5.15333 4.41,7.66c-2.23,-0.2 -4.48,-0.31 -6.77,-0.31c-3.43588,0.00167 -6.86749,0.24225 -10.27,0.72c-1.20667,-2.26 -2.34667,-4.54333 -3.42,-6.85c5.29673,-0.9345 10.67287,-1.34315 16.05,-1.22z" id="Path 1" fill="#231815"/><path d="M789.12,286.02806c-5.37713,-0.12315 -10.75327,0.2855 -16.05,1.22c-12.94438,-27.69984 -15.90523,-59.02541 -8.38,-88.66c5.3688,-3.40191 10.99604,-6.3777 16.83,-8.9l1.47,0.55c-11.56759,31.36412 -9.3411,66.1562 6.13,95.79z" id="Path 1" fill="#231815"/><path d="M774,176.72806c5.13,-2.22 13.87,1.63 11,8.47c-0.7,1.66667 -1.36667,3.33333 -2,5l-1.47,-0.55l-11,-8.47l-1.14,-2.38c1.49333,-0.71333 3.03,-1.40333 4.61,-2.07z" id="Path 1" fill="#231815"/><path d="M770.5,181.21806l11,8.47c-5.83396,2.5223 -11.4612,5.49809 -16.83,8.9c1.52233,-5.92289 3.47073,-11.72801 5.83,-17.37z" id="Path 1" fill="#231815"/><path d="M776.49,294.09806c1.28,2.38 2.62,4.73 4,7c-19.69164,2.03059 -37.49581,12.6129 -48.69,28.94c-1.84,2.71 -5.13,4.48 -8.47,3.45c-2.5725,-0.79099 -5.19502,-1.40903 -7.85,-1.85c-0.84,-2.66667 -1.58,-5.33333 -2.22,-8c4.10064,0.46862 8.14411,1.34632 12.07,2.62c11.67074,-17.54171 30.29286,-29.24788 51.16,-32.16z" id="Path 1" fill="#231815"/><path d="M772.07,415.57806l0.49,1.29c-1.37,-0.6 -2.73,-1.22 -4.07,-1.87c-2.51,-1.21 -5,-2.52 -7.38,-3.89c0.53849,-0.33261 1.12077,-0.58841 1.73,-0.76c4.16,-1.15 7.78,1.46 9.23,5.23z" id="Path 1" fill="#1f3caf"/><path d="M761.11,411.10806c2.41,1.37 4.87,2.68 7.38,3.89c1.34,0.65 2.7,1.27 4.07,1.87l6.88,17.92c1.46,3.8 -1.62,8.23 -5.24,9.22c-4.18,1.15 -7.77,-1.46 -9.22,-5.24l-7.38,-19.2c-1.22,-3.13 0.73,-6.77 3.51,-8.46z" id="Path 1" fill="#1f3caf"/><path d="M769.36,178.83806l1.14,2.38c-2.35246,5.64252 -4.29419,11.44763 -5.81,17.37c-24.82546,15.5155 -42.92516,39.78166 -50.72,68c-4.34839,16.15314 -5.10614,33.06266 -2.22,49.54c-5.12887,-0.36665 -10.28238,-0.17553 -15.37,0.57c-8.61244,-57.00595 21.01013,-112.95203 73,-137.87z" id="Path 1" fill="#231815"/><path d="M764.69,198.58806c-7.52523,29.63459 -4.56438,60.96016 8.38,88.66c-20.07596,3.56399 -38.12596,14.4232 -50.68,30.49c-3.50072,-0.80367 -7.05775,-1.33856 -10.64,-1.6c-2.87636,-16.47952 -2.10837,-33.38906 2.25,-49.54c7.78515,-28.2172 25.87385,-52.48653 50.69,-68.01z" id="Path 1" fill="#f4ec90"/><path d="M758,477.66806c1.46,3.8 -1.63,8.23 -5.24,9.22c-4.18,1.15 -7.78,-1.46 -9.23,-5.23c-2.46,-6.4 -4.91667,-12.80333 -7.37,-19.21c-1.46,-3.8 1.62,-8.23 5.24,-9.22c4.18,-1.15 7.77,1.46 9.22,5.24z" id="Path 1" fill="#1f3caf"/><path d="M741.48,434.78806c1.46,3.8 -1.62,8.23 -5.24,9.22c-4.18,1.15 -7.77,-1.46 -9.23,-5.24c-2.44667,-6.4 -4.90333,-12.8 -7.37,-19.2c-1.46,-3.8 1.62,-8.23 5.24,-9.22c4.18,-1.15 7.77,1.46 9.23,5.23c2.45333,6.4 4.91,12.80333 7.37,19.21z" id="Path 1" fill="#1f3caf"/><path d="M727.37,319.05806l-8.47,3.45c1.12,-1.64 2.28333,-3.23 3.49,-4.77c1.67333,0.38 3.33333,0.82 4.98,1.32z" id="Path 1" fill="#231815"/><path d="M773.07,287.24806c1.06667,2.31333 2.20667,4.59667 3.42,6.85c-20.8558,2.93515 -39.45853,14.65513 -51.11,32.2c-3.92589,-1.27368 -7.96936,-2.15138 -12.07,-2.62c-0.6,-2.49333 -1.12,-5.00667 -1.56,-7.54c3.58225,0.26144 7.13928,0.79633 10.64,1.6c-1.20667,1.54 -2.37,3.13 -3.49,4.77l8.47,-3.45c-1.65333,-0.5 -3.32,-0.94 -5,-1.32c12.55895,-16.071 30.6168,-26.93064 50.7,-30.49z" id="Path 1" fill="#231815"/><path d="M706.2,323.26806c2.3759,0.00032 4.74981,0.13722 7.11,0.41c0.66667,2.66667 1.40667,5.33333 2.22,8c-5.32337,-0.90014 -10.74774,-1.03819 -16.11,-0.41c-0.66667,-2.44667 -1.25333,-4.91333 -1.76,-7.4c2.82932,-0.39765 5.68287,-0.59813 8.54,-0.6z" id="Path 1" fill="#231815"/><path d="M696.38,316.70806c5.08762,-0.74553 10.24113,-0.93665 15.37,-0.57c0.44,2.54 0.96,5.05333 1.56,7.54c-5.20343,-0.6042 -10.46277,-0.54034 -15.65,0.19c-0.5,-2.37 -0.92,-4.76 -1.28,-7.16z" id="Path 1" fill="#231815"/><path d="M706.2,440.23806c4.79,0.05 7.2,3.77 7.24,7.5h-7.24c-32.70411,-0.00466 -59.82437,-25.32316 -62.07376,-57.94982c-2.24939,-32.62666 21.13972,-61.42744 53.53376,-65.92018c0.50667,2.48 1.09333,4.94667 1.76,7.4c-7.19322,0.84539 -14.14007,3.14173 -20.42,6.75c-21.46409,12.50499 -31.93611,37.80315 -25.59,61.82c6.42,23.8 28.28,40.13 52.79,40.4z" id="Path 1" fill="#231815"/><path d="M713.44,447.73806c0,3.78 -2.38,7.55 -7.24,7.5c-17.56728,-0.1192 -34.4651,-6.75432 -47.42,-18.62c-23.29,-21.41 -28.78,-57.13 -13.66,-84.78c10.63224,-19.10053 29.60977,-32.10639 51.26,-35.13c0.36,2.4 0.78,4.79 1.28,7.16c-32.39404,4.49274 -55.78315,33.29352 -53.53376,65.92018c2.24939,32.62666 29.36965,57.94516 62.07376,57.94982z" id="Path 1" fill="#231815"/></g></g></g></g></g></svg>