<svg width="499.9999999999999" height="499.9999999999999" xmlns="http://www.w3.org/2000/svg">
 <title/>

 <g>
  <title>background</title>
  <rect x="-1" y="-1" width="471.924315" height="471.924315" id="canvas_background" fill="none"/>
 </g>
 <g>
  <title>Layer 1</title>
  <path class="cls-1" d="m336.56,130.45c-0.62,1.22 -1.28,2.42 -2,3.58a53.72,53.72 0 0 1 -14.6,15.19a44.46,44.46 0 0 1 -5.27,3.16a53.31,53.31 0 0 1 11.13,7.79a50.35,50.35 0 0 1 10.71,14l0.59,-1.07a51.17,51.17 0 0 1 13.39,-15.6a51.88,51.88 0 0 1 8,-5.19a52.51,52.51 0 0 1 -21.95,-21.86z" id="svg_1" fill="#ffffff"/>
  <path class="cls-2" d="m367.51,148.62a10.41,10.41 0 0 0 -2,0.68c-0.64,0.23 -1.27,0.48 -1.9,0.73a6.79,6.79 0 0 0 5.3,6.51c-3.35,-0.91 4.19,-8.59 -1.4,-7.92z" id="svg_2" fill="#231815"/>
  <path class="cls-2" d="m363.59,150c-1.07,0.42 -2.13,0.87 -3.18,1.35c-0.66,0.3 -1.29,0.63 -1.92,1a54.2,54.2 0 0 0 10.4,4.2a6.79,6.79 0 0 1 -5.3,-6.55z" id="svg_3" fill="#231815"/>
  <path class="cls-2" d="m363.59,150c0.63,-0.25 1.26,-0.5 1.9,-0.73a10.41,10.41 0 0 1 2,-0.68c5.59,-0.67 -2,7 1.38,7.91c9.3,2.66 13.27,-11.81 4,-14.46c-5.75,-1.53 -9.47,3.4 -9.28,7.96z" id="svg_4" fill="#231815"/>
  <path class="cls-2" d="m340.68,120l-8.31,0l0.39,1.38a15.26,15.26 0 0 0 1.18,3.36a53.92,53.92 0 0 0 2.61,5.71a61.86,61.86 0 0 0 2.55,-5.71c0.5,-1.25 1.59,-3.31 1.58,-4.74z" id="svg_5" fill="#231815"/>
  <path class="cls-2" d="m304.17,148.22l0,4.15q-2,5.08 0.69,4c1.37,0 3.4,-1.11 4.7,-1.63c1.74,-0.7 3.44,-1.46 5.1,-2.32a54.23,54.23 0 0 0 -7.76,-3.33a10.83,10.83 0 0 0 -2.73,-0.87z" id="svg_6" fill="#231815"/>
  <path class="cls-2" d="m228.5,88.87a127.93,127.93 0 0 0 -5.81,17.37a122.38,122.38 0 0 1 16.83,-8.9l-11.02,-8.47z" id="svg_7" fill="#231815"/>
  <path class="cls-1" d="m276,352.4a7.38,7.38 0 0 0 3.74,1.07l0,1.92l-17.37,0l0,-7.34c1,-0.58 2,-1.16 3,-1.73c0.76,0.4 1.5,0.79 2.18,1.18l8.45,4.9z" id="svg_8" fill="#dcdddd"/>
  <path class="cls-1" d="m247.37,353.85l0,1.54l-24.84,0l0,-6.39l0.74,-0.43l4.08,-2.35l3.42,-2l4.08,-2.35l0.1,-0.06l4.05,2.39l3.32,1.92l4.18,2.42l0.84,0.48l0.03,4.83z" id="svg_9" fill="#dcdddd"/>
  <path class="cls-1" d="m207.53,355.39l-17.53,0l0,-1.91a7.4,7.4 0 0 0 3.75,-1.08l8.45,-4.9c0.65,-0.38 1.4,-0.77 2.18,-1.18l3.2,1.85l-0.05,7.22z" id="svg_10" fill="#dcdddd"/>
  <path class="cls-1" d="m304.41,246.1a65.19,65.19 0 0 1 3.54,8.82a7.54,7.54 0 0 0 5.24,5.24a46.29,46.29 0 0 1 18.87,8.84a44.35,44.35 0 0 1 17,32.18a43.61,43.61 0 0 1 -0.25,8a43,43 0 0 1 -3.05,11.39a45.18,45.18 0 0 1 -40.91,27.31c-4.78,0.07 -7.19,3.78 -7.24,7.5l-17.87,0l0,-1.92c6.58,0 10.91,-9.91 3.83,-14l-3.14,-1.82l3,-1.72l1.87,-1.08c6.75,-3.9 3.12,-13.11 -3,-13.95a6.16,6.16 0 0 0 -1.55,0a7.7,7.7 0 0 0 -3.07,1l-4.77,2.75c0,-1.19 0,-2.39 0,-3.59c0,-0.24 0,-0.46 0,-0.68c-0.63,-7.9 -11.78,-8.67 -14.41,-2.28a7.59,7.59 0 0 0 -0.55,3q0,4.88 0,9.77c0,0.74 0,1.56 -0.07,2.42l0,0.1l-3.88,2.16l-6.16,-3.54c-1,-0.61 -2.24,-1.41 -3.51,-2.24c-0.64,-0.43 -1.31,-0.85 -2,-1.26l0,-4.1c0.76,-0.48 1.5,-0.95 2.18,-1.35l8.48,-4.86a8.06,8.06 0 0 0 1.45,-1.05c5.91,-5.39 -1.18,-16.4 -9,-11.9l-3.09,1.76l0,-5.32c0,-9.65 -15,-9.67 -15,0l0,5.32l-3.09,-1.77c-7.22,-4.14 -13.82,4.89 -10.16,10.55a7.28,7.28 0 0 0 2.59,2.4l8.48,4.86c0.68,0.4 1.41,0.86 2.18,1.35l0,4.25c-1.77,1.1 -3.45,2.28 -4.87,3.1l-6.71,3.88l-3.95,-2.28c0,-0.88 -0.06,-1.73 -0.06,-2.51q0,-4.89 0,-9.77c0,-9.66 -15,-9.67 -15,0c0,1.2 0,2.4 0,3.59l-4.76,-2.77c-8.37,-4.84 -15.94,8.12 -7.57,12.95l4.84,2.8l-3.14,1.82c-7.07,4.1 -2.74,14 3.82,14l0,1.91l-18.52,0c0,-3.72 -2.44,-7.44 -7.24,-7.5c-24.5,-0.27 -46.36,-16.59 -52.83,-40.4a55.21,55.21 0 0 1 25.64,-61.78a53.49,53.49 0 0 1 20.47,-6.76a57.21,57.21 0 0 1 16.1,0.41a60.13,60.13 0 0 1 7.86,1.85c3.34,1 6.63,-0.73 8.47,-3.44a67.39,67.39 0 0 1 48.69,-28.94a63,63 0 0 1 18.46,0.84c0.1,0 0.19,0 0.29,0.06a67.07,67.07 0 0 1 47.07,36.4z" id="svg_11" fill="#dcdddd"/>
  <path class="cls-2" d="m400,260.4q-4.23,-5.52 -8.47,-11l-0.53,-1.5c1.69,-0.61 3.38,-1.27 5.05,-2c6.81,-2.84 10.67,5.93 8.47,11a131.89,131.89 0 0 1 -40.71,52a57.25,57.25 0 0 0 -1.27,-18.43a120.86,120.86 0 0 0 20.14,-24.29a127.53,127.53 0 0 0 17.32,-5.78z" id="svg_12" fill="#231815"/>
  <path class="cls-2" d="m391.55,249.38q4.25,5.51 8.47,11a127.53,127.53 0 0 1 -17.35,5.8a122.08,122.08 0 0 0 8.88,-16.8z" id="svg_13" fill="#231815"/>
  <path class="cls-2" d="m391,247.9l0.56,1.48a122.08,122.08 0 0 1 -8.88,16.82a129.79,129.79 0 0 1 -29.15,4.07a60.56,60.56 0 0 0 -15.75,-15.69a119.29,119.29 0 0 0 53.22,-6.68z" id="svg_14" fill="#231815"/>
  <path class="cls-3" d="m362.53,290.49a59.53,59.53 0 0 0 -9,-20.22a129.79,129.79 0 0 0 29.15,-4.07a120.86,120.86 0 0 1 -20.15,24.29z" id="svg_15" fill="#f4ec90"/>
  <path class="cls-2" d="m355.35,314.9q4.33,-2.82 8.45,-6c-0.06,0.54 -0.1,1.09 -0.16,1.63a59.91,59.91 0 0 1 -58.8,52.34c-4.87,0.07 -7.28,-3.71 -7.24,-7.5l7.24,0a51.76,51.76 0 0 0 50.51,-40.47z" id="svg_16" fill="#231815"/>
  <path class="cls-2" d="m356,296.07q3.36,-2.67 6.5,-5.58a57.25,57.25 0 0 1 1.27,18.43q-4.11,3.15 -8.45,6a52.15,52.15 0 0 0 1.24,-11.26a51.2,51.2 0 0 0 -0.56,-7.59z" id="svg_17" fill="#231815"/>
  <path class="cls-2" d="m362.53,290.49q-3.15,2.91 -6.5,5.58a51.49,51.49 0 0 0 -11.73,-25.9c3.07,0.14 6.15,0.17 9.22,0.1a59.53,59.53 0 0 1 9.01,20.22z" id="svg_18" fill="#231815"/>
  <path class="cls-2" d="m356.59,303.64a52.15,52.15 0 0 1 -1.24,11.26q-4.68,3 -9.6,5.68a43,43 0 0 0 3.05,-11.39a43.61,43.61 0 0 0 0.25,-8q3.58,-2.44 7,-5.15a51.2,51.2 0 0 1 0.54,7.6z" id="svg_19" fill="#231815"/>
  <path class="cls-2" d="m345.75,320.58q4.92,-2.64 9.6,-5.68a51.76,51.76 0 0 1 -50.51,40.49l-7.24,0c0.05,-3.72 2.46,-7.43 7.24,-7.5a45.18,45.18 0 0 0 40.91,-27.31z" id="svg_20" fill="#231815"/>
  <path class="cls-2" d="m344.3,270.17a51.49,51.49 0 0 1 11.7,25.9q-3.39,2.7 -7,5.15a44.35,44.35 0 0 0 -17,-32.18q6.15,0.86 12.3,1.13z" id="svg_21" fill="#231815"/>
  <path class="cls-2" d="m337.77,254.58a60.56,60.56 0 0 1 15.75,15.69c-3.07,0.07 -6.15,0 -9.22,-0.1a51.76,51.76 0 0 0 -29.12,-17.24c-0.34,-1.11 -0.71,-2.2 -1.11,-3.28a118.31,118.31 0 0 0 23.7,4.93z" id="svg_22" fill="#231815"/>
  <path class="cls-2" d="m336.53,184.73c4.85,0 4.52,1 3.54,-2.06a60.49,60.49 0 0 0 -2.26,-5.77c-0.4,-0.92 -0.85,-1.82 -1.31,-2.72l0.59,-1.07a51.08,51.08 0 0 1 13.39,-15.6a52.13,52.13 0 0 1 8,-5.19a54.49,54.49 0 0 0 10.41,4.2c9.29,2.67 13.26,-11.8 4,-14.46a10.71,10.71 0 0 1 7.71,11.75c-0.71,5.27 -4.46,7.66 -9.08,9.27c-9.45,3.28 -17.06,9.31 -21.79,18.22c-2,3.71 -2.43,8.45 -5.21,11.66a10.64,10.64 0 0 1 -12.16,2.72c-5,-2.13 -5.66,-6.52 -7.44,-11a36,36 0 0 0 -5.86,-9.88a37.92,37.92 0 0 0 -10.21,-8.54c-3.48,-2 -7.46,-2.59 -10.91,-4.5a10.74,10.74 0 0 1 -5.2,-12.21c1.25,-4.54 4.71,-6.47 8.83,-7.85a37.2,37.2 0 0 0 19.66,-14.61c4.45,-6.8 5.18,-19.28 15.76,-18.87c9.9,0.39 10.56,12.28 14.87,18.87a37.06,37.06 0 0 0 21,15c-5.76,-1.55 -9.48,3.37 -9.28,8c-1.07,0.42 -2.14,0.87 -3.18,1.34c-0.66,0.3 -1.29,0.63 -1.93,1a52.53,52.53 0 0 1 -21.92,-21.87a62.06,62.06 0 0 0 2.55,-5.71c0.49,-1.26 1.58,-3.32 1.57,-4.73l-8.31,0c0.13,0.46 0.27,0.92 0.4,1.38a15.49,15.49 0 0 0 1.17,3.35a53.73,53.73 0 0 0 2.62,5.71c-0.63,1.22 -1.29,2.42 -2,3.58a53.66,53.66 0 0 1 -14.61,15.19a44,44 0 0 1 -5.27,3.16a53.8,53.8 0 0 0 -7.76,-3.33a10.45,10.45 0 0 0 -2.74,-0.83l0,4.15q-2,5.08 0.69,4c1.38,0 3.4,-1.12 4.71,-1.64c1.73,-0.69 3.44,-1.46 5.1,-2.31a53.32,53.32 0 0 1 11.13,7.79a50.41,50.41 0 0 1 10.71,14c-1.54,2.8 -3.32,6.16 -3.73,9.17c-0.36,2.39 -2.15,1.24 3.75,1.24z" id="svg_23" fill="#231815"/>
  <path class="cls-2" d="m340.07,182.67c1,3.07 1.31,2.06 -3.54,2.06c-5.9,0 -4.11,1.15 -3.76,-1.38c0.41,-3 2.19,-6.37 3.73,-9.17c0.46,0.9 0.91,1.8 1.31,2.72a60.49,60.49 0 0 1 2.26,5.77z" id="svg_24" fill="#231815"/>
  <path class="cls-2" d="m315.18,252.93a51.76,51.76 0 0 1 29.12,17.24q-6.15,-0.29 -12.24,-1.13a46.29,46.29 0 0 0 -18.87,-8.88a7.54,7.54 0 0 1 -5.24,-5.24a65.19,65.19 0 0 0 -3.54,-8.82c3.17,1.33 6.4,2.51 9.66,3.55c0.4,1.08 0.77,2.17 1.11,3.28z" id="svg_25" fill="#231815"/>
  <path class="cls-2" d="m322.42,250.94l-5.24,-5.24c1.26,0.27 2.5,0.6 3.72,1c0.54,1.36 1.1,2.79 1.52,4.24z" id="svg_26" fill="#231815"/>
  <path class="cls-2" d="m320.9,246.65a58.81,58.81 0 0 1 16.87,7.93a118.31,118.31 0 0 1 -23.7,-4.93a73.73,73.73 0 0 0 -62.54,-48.3q-2.36,-3.76 -4.41,-7.67a84.38,84.38 0 0 1 12.49,1.23c28.13,4.95 51.25,25.4 61.29,51.74c-1.22,-0.35 -2.46,-0.68 -3.72,-1l5.24,5.24c-0.42,-1.4 -0.98,-2.83 -1.52,-4.24z" id="svg_27" fill="#231815"/>
  <path class="cls-2" d="m314.07,249.65c-3.26,-1 -6.49,-2.22 -9.66,-3.55a67.07,67.07 0 0 0 -47.12,-36.4c-2.05,-2.72 -4,-5.5 -5.76,-8.35a73.73,73.73 0 0 1 62.54,48.3z" id="svg_28" fill="#231815"/>
  <path class="cls-4" d="m282.32,320.88c6.07,0.84 9.7,10.05 3,13.95l-1.87,1.08l-3,1.72l3.14,1.82c7.08,4.11 2.75,14 -3.83,14a7.38,7.38 0 0 1 -3.76,-1.05l-8.44,-4.9c-0.68,-0.39 -1.42,-0.78 -2.18,-1.18c-1,0.57 -2,1.15 -3,1.73l0,7.34l-15,0l0,-6.39l-0.84,-0.48l-4.18,-2.42l-3.36,-1.9l-4,-2.35l-0.1,0.06l-4.08,2.35l-3.42,2l-4.08,2.35l-0.74,0.43l0,6.37l-15,0l0,-7.22l-3.2,-1.85c-0.78,0.41 -1.53,0.8 -2.18,1.18l-8.45,4.9a7.4,7.4 0 0 1 -3.75,1.08c-6.56,0 -10.89,-9.93 -3.82,-14l3.14,-1.82l-4.84,-2.8c-8.37,-4.83 -0.8,-17.79 7.57,-12.95l4.77,2.75c0,-1.19 0,-2.39 0,-3.59c0,-9.67 15,-9.66 15,0q0,4.88 0,9.77c0,0.78 0,1.63 0.06,2.51l3.95,2.28l6.71,-3.88c1.42,-0.82 3.1,-2 4.87,-3.1l0,-4.25c-0.77,-0.49 -1.5,-0.95 -2.18,-1.35l-8.48,-4.86a7.28,7.28 0 0 1 -2.59,-2.4c-3.66,-5.66 2.94,-14.69 10.16,-10.55l3.09,1.77l0,-5.32c0,-9.67 15,-9.65 15,0l0,5.29l3.09,-1.77c7.84,-4.5 14.93,6.51 9,11.9a8.06,8.06 0 0 1 -1.45,1.05l-8.52,4.82c-0.68,0.4 -1.42,0.87 -2.18,1.35l0,4.1c0.67,0.41 1.34,0.83 2,1.26c1.27,0.83 2.46,1.63 3.51,2.24l6.19,3.57l3.84,-2.21l0,-0.1c0,-0.86 0.07,-1.68 0.07,-2.42q0,-4.89 0,-9.77a7.59,7.59 0 0 1 0.55,-3c2.63,-6.39 13.78,-5.62 14.41,2.28c0,0.22 0,0.44 0,0.68c0,1.2 0,2.4 0,3.59l4.77,-2.75a7.7,7.7 0 0 1 3.07,-1a6.16,6.16 0 0 1 1.56,0.06z" id="svg_29" fill="#1f3caf"/>
  <path class="cls-4" d="m285.07,374.747932c8.37,4.83 0.81,17.79 -7.57,13l-4.57,-2.65c0,1.2 0,2.4 0,3.6c0,9.67 -15,9.65 -15,0c0,-3.26 0,-6.51 0,-9.77c0,-0.79 0,-1.64 -0.06,-2.52l-2.27,-1.3l-8.19,4.73c-1.47,0.85 -3.22,2.09 -5.07,3.22l0,2.31c0.77,0.48 1.5,0.95 2.18,1.34l8.48,4.86c8.38,4.81 0.81,17.77 -7.57,13l-3.09,-1.77l0,5.55c0,9.66 -15,9.65 -15,0l0,-5.55l-3.09,1.77c-8.39,4.81 -15.94,-8.15 -7.57,-13l8.48,-4.86c0.68,-0.39 1.42,-0.86 2.18,-1.34l0,-2.4c-1.94,-1.19 -3.77,-2.5 -5.3,-3.38l-7.86,-4.54l-2.36,1.36c0,0.9 -0.07,1.75 -0.07,2.52c0,3.26 0,6.51 0,9.77c0,9.67 -15,9.65 -15,0c0,-1.2 0,-2.4 0,-3.6l-4.57,2.65c-8.38,4.84 -15.93,-8.13 -7.57,-13l4.64,-2.68l-3.14,-1.82c-7.07,-4.11 -2.74,-14 3.83,-14a7.35,7.35 0 0 1 3.74,1.07l8.45,4.91c0.67,0.39 1.41,0.78 2.17,1.18l3.21,-1.85l0,-7l15,0l0,8l4.82,2.79l1.84,1.06l5.66,3.27l0.1,0l5.66,-3.26l1.74,-1l5,-2.9l0,-8l15,0l0,7.12l3,1.73c0.78,-0.41 1.53,-0.8 2.19,-1.18l8.44,-4.91a7.35,7.35 0 0 1 3.74,-1.07c6.57,0 10.9,9.92 3.83,14l-3.14,1.82l4.68,2.72z" id="svg_30" fill="#1f3caf"/>
  <path class="cls-2" d="m251.53,201.35c1.78,2.85 3.71,5.63 5.76,8.35c-0.1,0 -0.19,0 -0.29,-0.06a63,63 0 0 0 -18.46,-0.84c-1.43,-2.31 -2.77,-4.67 -4.05,-7.05a74.12,74.12 0 0 1 10.27,-0.72q3.42,-0.03 6.77,0.32z" id="svg_31" fill="#231815"/>
  <path class="cls-2" d="m231.07,194.9a82.4,82.4 0 0 1 16,-1.22q2.06,3.9 4.41,7.67q-3.35,-0.32 -6.77,-0.32a74.12,74.12 0 0 0 -10.27,0.72c-1.16,-2.25 -2.3,-4.54 -3.37,-6.85z" id="svg_32" fill="#231815"/>
  <path class="cls-2" d="m247.12,193.68a82.4,82.4 0 0 0 -16,1.22a132.43,132.43 0 0 1 -8.38,-88.66a122.7,122.7 0 0 1 16.83,-8.9l1.47,0.55a118.43,118.43 0 0 0 6.08,95.79z" id="svg_33" fill="#231815"/>
  <path class="cls-2" d="m231.94,84.39c5.14,-2.22 13.88,1.63 11,8.47c-0.7,1.67 -1.35,3.34 -2,5l-1.47,-0.55l-11,-8.47l-1.14,-2.38c1.54,-0.71 3.07,-1.4 4.61,-2.07z" id="svg_34" fill="#231815"/>
  <path class="cls-2" d="m183.38,234a73.69,73.69 0 0 1 51.11,-32.2c1.28,2.38 2.62,4.74 4.05,7.05a67.39,67.39 0 0 0 -48.69,28.94c-1.84,2.71 -5.13,4.47 -8.47,3.44a60.13,60.13 0 0 0 -7.86,-1.85q-1.24,-4 -2.21,-8a62,62 0 0 1 12.07,2.62z" id="svg_35" fill="#231815"/>
  <path class="cls-2" d="m227.36,86.49l1.14,2.38a126.92,126.92 0 0 0 -5.81,17.37a117,117 0 0 0 -50.72,68a114.59,114.59 0 0 0 -2.22,49.55a71.7,71.7 0 0 0 -15.37,0.56a131.17,131.17 0 0 1 73,-137.87l-0.02,0.01z" id="svg_36" fill="#231815"/>
  <path class="cls-3" d="m222.69,106.24a132.43,132.43 0 0 0 8.38,88.66a82.66,82.66 0 0 0 -50.68,30.5a70.48,70.48 0 0 0 -10.64,-1.6a114.59,114.59 0 0 1 2.25,-49.55a117,117 0 0 1 50.69,-68.01z" id="svg_37" fill="#f4ec90"/>
  <path class="cls-2" d="m185.37,226.72l-8.47,3.45c1.11,-1.64 2.28,-3.23 3.49,-4.77c1.67,0.38 3.33,0.81 4.98,1.32z" id="svg_38" fill="#231815"/>
  <path class="cls-2" d="m231.07,194.9c1.07,2.31 2.21,4.6 3.42,6.85a73.69,73.69 0 0 0 -51.11,32.25a62,62 0 0 0 -12.07,-2.61q-0.9,-3.75 -1.56,-7.54a70.48,70.48 0 0 1 10.64,1.6c-1.21,1.54 -2.38,3.13 -3.49,4.77l8.47,-3.45c-1.65,-0.51 -3.31,-0.94 -5,-1.32a82.66,82.66 0 0 1 50.7,-30.55z" id="svg_39" fill="#231815"/>
  <path class="cls-2" d="m164.19,230.92a62,62 0 0 1 7.12,0.42q1,4 2.21,8a57.21,57.21 0 0 0 -16.1,-0.41q-1,-3.66 -1.77,-7.4a63.46,63.46 0 0 1 8.54,-0.61z" id="svg_40" fill="#231815"/>
  <path class="cls-2" d="m169.75,223.8q0.66,3.79 1.56,7.54a62,62 0 0 0 -7.12,-0.42a63.46,63.46 0 0 0 -8.54,0.6q-0.73,-3.56 -1.27,-7.16a71.7,71.7 0 0 1 15.37,-0.56z" id="svg_41" fill="#231815"/>
  <path class="cls-2" d="m102,293.16a62.25,62.25 0 0 1 53.69,-61.64q0.78,3.73 1.77,7.4a53.49,53.49 0 0 0 -20.46,6.76a55.21,55.21 0 0 0 -25.59,61.81c6.47,23.81 28.33,40.13 52.83,40.4c4.8,0.06 7.21,3.78 7.24,7.5l-7.24,0a62.23,62.23 0 0 1 -62.24,-62.23z" id="svg_42" fill="#231815"/>
  <path class="cls-2" d="m154.38,224.36q0.54,3.6 1.27,7.16a62.23,62.23 0 0 0 8.54,123.87l7.24,0c0,3.78 -2.37,7.56 -7.24,7.5a70.85,70.85 0 0 1 -47.41,-18.61c-23.29,-21.42 -28.78,-57.14 -13.67,-84.79a69.76,69.76 0 0 1 51.27,-35.13z" id="svg_43" fill="#231815"/>
 </g>
</svg>