<svg version="1.1" xmlns="http://www.w3.org/2000/svg" xmlns:xlink="http://www.w3.org/1999/xlink" width="645" height="520.19998" viewBox="486,98.80002,645,520.19998"><g id="document" fill-opacity="0" fill="#ffffff" fill-rule="nonzero" stroke="#000000" stroke-width="0" stroke-linecap="butt" stroke-linejoin="miter" stroke-miterlimit="10" stroke-dasharray="" stroke-dashoffset="0" font-family="none" font-weight="none" font-size="none" text-anchor="none" style="mix-blend-mode: normal"><rect x="725.2" y="119" transform="scale(0.71429,1)" width="700" height="500" id="Shape 1 1" vector-effect="non-scaling-stroke"/></g><g fill="none" fill-rule="nonzero" stroke="none" stroke-width="1" stroke-linecap="none" stroke-linejoin="none" stroke-miterlimit="10" stroke-dasharray="" stroke-dashoffset="0" font-family="none" font-weight="none" font-size="none" text-anchor="none" style="mix-blend-mode: normal"><g id="stage"><g id="layer1 1"><g id="Group 1" stroke="none" stroke-linecap="butt" stroke-linejoin="miter"><g id="Group 1" fill="none"><rect x="1038.87922" y="644.20312" transform="scale(0.52749,0.52749)" width="582" height="402" id="Shape 1"/></g><g id="Group 1"><path d="M725.8068,538.27506h-9.15725v-3.87179l1.58247,-0.91256c0.40617,0.211 0.79651,0.41672 1.14993,0.62244l4.4573,2.58998c0.59417,0.35934 1.27324,0.55414 1.96754,0.56442z" id="Path 1" fill="#ffffff"/><path d="M680.42672,536.70313l4.45203,-2.58998c0.34814,-0.20045 0.74376,-0.40617 1.15521,-0.62244l1.6827,0.97586v3.80849h-9.26275v-1.00751c0.69625,-0.00832 1.37752,-0.20323 1.97282,-0.56442z" id="Path 1" fill="#ffffff"/><path d="M724.736,520.59882c4.42038,-2.55306 8.39766,4.28851 3.99311,6.83101l-2.55833,1.47698l1.6616,0.96003c3.72936,2.16799 1.44005,7.38488 -2.02557,7.38488c-0.69431,-0.01028 -1.37337,-0.20508 -1.96754,-0.56442l-4.4573,-2.58998c-0.35342,-0.20572 -0.74376,-0.41144 -1.14993,-0.62244l-1.58247,0.91256v3.87179h-7.91237v-3.85596c-0.88619,-0.50639 -1.76534,-1.0163 -2.63746,-1.52973l-1.30818,-0.75431l-2.59526,-1.49808l-0.05275,0.03165l-2.59526,1.49808l-1.36093,0.78596l-2.54778,1.46643v3.87179h-7.91237v-3.81904l-1.6827,-0.97586c-0.41144,0.21627 -0.80706,0.42199 -1.15521,0.62244l-4.45203,2.58998c-0.5953,0.36118 -1.27657,0.5561 -1.97282,0.56442c-3.47089,0 -5.74966,-5.23271 -2.02557,-7.38488l1.6616,-0.96003l-2.55306,-1.47698c-4.4151,-2.54778 -0.42727,-9.38407 3.99311,-6.83101l2.51613,1.45588c0,-0.63299 0,-1.26598 0,-1.89897c0,-5.10084 7.91237,-5.09029 7.91237,0v5.15359c0,0.41144 0,0.86509 0.03692,1.324l1.63522,0.94948l3.98784,-2.29986c0.74376,-0.43254 1.62995,-1.05498 2.56888,-1.6405v-1.73017c-0.40617,-0.2532 -0.79124,-0.50112 -1.15521,-0.70684l-4.51005,-2.57943c-4.42038,-2.53196 -0.43254,-9.36825 3.99311,-6.83101l1.62995,0.93366v-2.80625c-0.03162,-1.13798 0.45463,-2.22889 1.32209,-2.96613c0.86746,-0.73724 2.02249,-1.04123 3.14049,-0.82654c1.98325,0.12975 3.50798,1.80603 3.44979,3.79266v2.80625l1.62467,-0.93366c4.43093,-2.53723 8.40821,4.29905 3.99311,6.83101l-4.46785,2.56888c-0.36397,0.20572 -0.74904,0.45364 -1.14993,0.70684v1.65105c1.05498,0.64354 2.06249,1.3662 2.89593,1.84622l3.69244,2.14162l1.58247,-0.91256c0,-0.47474 0.03692,-0.92838 0.03692,-1.32928v-5.15359c0,-5.10084 7.91237,-5.09029 7.91237,0c0,0.63299 0,1.26598 0,1.89369z" id="Path 1" fill="#1f3caf"/><path d="M728.62361,548.32398c4.4151,2.54778 0.42199,9.38407 -3.99311,6.85739l-2.41591,-1.39785c0,0.63299 0,1.26598 0,1.89897c0,5.10084 -7.91237,5.09029 -7.91237,0v-5.15359c0,-0.41144 0,-0.86509 -0.03692,-1.324l-1.63522,-0.94948l-3.88234,2.24184c-0.77541,0.44837 -1.69852,1.10246 -2.66911,1.7038v1.6827c0.40089,0.2532 0.79124,0.50112 1.14993,0.70684l4.46785,2.56888c4.42038,2.53196 0.43254,9.36825 -3.99311,6.83101l-1.62467,-0.93366v2.95923c0,5.10084 -7.91237,5.09029 -7.91237,0v-2.92758l-1.62995,0.93366c-4.42565,2.53723 -8.40821,-4.29905 -3.99311,-6.83101l4.46785,-2.56888c0.36397,-0.20572 0.74904,-0.45364 1.15521,-0.70684v-1.77237c-1.02333,-0.63299 -1.98864,-1.31873 -2.7957,-1.7882l-3.69244,-2.13634l-1.6827,0.97058c0,0.47474 -0.0422,0.92311 -0.0422,1.32928v5.15359c0,5.10084 -7.91237,5.09029 -7.91237,0c0,-0.63299 0,-1.26598 0,-1.89897l-2.41064,1.39785c-4.42565,2.55306 -8.40294,-4.28851 -3.99838,-6.85739l2.45284,-1.41368l-1.65632,-0.92838c-3.72936,-2.16799 -1.44005,-7.38488 2.02557,-7.38488c0.69599,0.0101 1.3768,0.20488 1.97282,0.56442l4.45203,2.58998c0.35342,0.20572 0.74904,0.41144 1.14993,0.62244l1.68797,-0.97586v-3.69244h7.91237v3.69244l2.54778,1.41895l1.41368,0.81234l2.54251,1.4717l0.05275,0.03165l2.54251,-1.4717l1.36093,-0.78596l2.59526,-1.49808l0.05275,-0.03165v-3.69244h7.91237v3.75574l1.58247,0.91256c0.41144,-0.21627 0.80706,-0.42199 1.14993,-0.62244l4.4573,-2.58998c0.59498,-0.36191 1.27646,-0.55687 1.97282,-0.56442c3.46562,0 5.74438,5.23271 2.02029,7.38488l-1.6616,0.96003z" id="Path 1" fill="#1f3caf"/></g></g><g id="Group 1" stroke="none" stroke-linecap="butt" stroke-linejoin="miter"><g id="Group 1 1" fill="none"><rect x="1228.45627" y="646.09889" transform="scale(0.52749,0.52749)" width="582" height="402" id="Shape 1 1"/></g><g id="Group 1 1"><path d="M825.8068,539.27506h-9.15725v-3.87179l1.58247,-0.91256c0.40617,0.211 0.79651,0.41672 1.14993,0.62244l4.4573,2.58998c0.59417,0.35934 1.27324,0.55414 1.96754,0.56442z" id="Path 1 1" fill="#ffffff"/><path d="M780.42672,537.70313l4.45203,-2.58998c0.34814,-0.20045 0.74376,-0.40617 1.15521,-0.62244l1.6827,0.97586v3.80849h-9.26275v-1.00751c0.69625,-0.00832 1.37752,-0.20323 1.97282,-0.56442z" id="Path 1 1" fill="#ffffff"/><path d="M824.736,521.59882c4.42038,-2.55306 8.39766,4.28851 3.99311,6.83101l-2.55833,1.47698l1.6616,0.96003c3.72936,2.16799 1.44005,7.38488 -2.02557,7.38488c-0.69431,-0.01028 -1.37337,-0.20508 -1.96754,-0.56442l-4.4573,-2.58998c-0.35342,-0.20572 -0.74376,-0.41144 -1.14993,-0.62244l-1.58247,0.91256v3.87179h-7.91237v-3.85596c-0.88619,-0.50639 -1.76534,-1.0163 -2.63746,-1.52973l-1.30818,-0.75431l-2.59526,-1.49808l-0.05275,0.03165l-2.59526,1.49808l-1.36093,0.78596l-2.54778,1.46643v3.87179h-7.91237v-3.81904l-1.6827,-0.97586c-0.41144,0.21627 -0.80706,0.42199 -1.15521,0.62244l-4.45203,2.58998c-0.5953,0.36118 -1.27657,0.5561 -1.97282,0.56442c-3.47089,0 -5.74966,-5.23271 -2.02557,-7.38488l1.6616,-0.96003l-2.55306,-1.47698c-4.4151,-2.54778 -0.42727,-9.38407 3.99311,-6.83101l2.51613,1.45588c0,-0.63299 0,-1.26598 0,-1.89897c0,-5.10084 7.91237,-5.09029 7.91237,0v5.15359c0,0.41144 0,0.86509 0.03692,1.324l1.63522,0.94948l3.98784,-2.29986c0.74376,-0.43254 1.62995,-1.05498 2.56888,-1.6405v-1.73017c-0.40617,-0.2532 -0.79124,-0.50112 -1.15521,-0.70684l-4.51005,-2.57943c-4.42038,-2.53196 -0.43254,-9.36825 3.99311,-6.83101l1.62995,0.93366v-2.80625c-0.03162,-1.13798 0.45463,-2.22889 1.32209,-2.96613c0.86746,-0.73724 2.02249,-1.04123 3.14049,-0.82654c1.98325,0.12975 3.50798,1.80603 3.44979,3.79266v2.80625l1.62467,-0.93366c4.43093,-2.53723 8.40821,4.29905 3.99311,6.83101l-4.46785,2.56888c-0.36397,0.20572 -0.74904,0.45364 -1.14993,0.70684v1.65105c1.05498,0.64354 2.06249,1.3662 2.89593,1.84622l3.69244,2.14162l1.58247,-0.91256c0,-0.47474 0.03692,-0.92838 0.03692,-1.32928v-5.15359c0,-5.10084 7.91237,-5.09029 7.91237,0c0,0.63299 0,1.26598 0,1.89369z" id="Path 1 1" fill="#1f3caf"/><path d="M828.62361,549.32398c4.4151,2.54778 0.42199,9.38407 -3.99311,6.85739l-2.41591,-1.39785c0,0.63299 0,1.26598 0,1.89897c0,5.10084 -7.91237,5.09029 -7.91237,0v-5.15359c0,-0.41144 0,-0.86509 -0.03692,-1.324l-1.63522,-0.94948l-3.88234,2.24184c-0.77541,0.44837 -1.69852,1.10246 -2.66911,1.7038v1.6827c0.40089,0.2532 0.79124,0.50112 1.14993,0.70684l4.46785,2.56888c4.42038,2.53196 0.43254,9.36825 -3.99311,6.83101l-1.62467,-0.93366v2.95923c0,5.10084 -7.91237,5.09029 -7.91237,0v-2.92758l-1.62995,0.93366c-4.42565,2.53723 -8.40821,-4.29905 -3.99311,-6.83101l4.46785,-2.56888c0.36397,-0.20572 0.74904,-0.45364 1.15521,-0.70684v-1.77237c-1.02333,-0.63299 -1.98864,-1.31873 -2.7957,-1.7882l-3.69244,-2.13634l-1.6827,0.97058c0,0.47474 -0.0422,0.92311 -0.0422,1.32928v5.15359c0,5.10084 -7.91237,5.09029 -7.91237,0c0,-0.63299 0,-1.26598 0,-1.89897l-2.41064,1.39785c-4.42565,2.55306 -8.40294,-4.28851 -3.99838,-6.85739l2.45284,-1.41368l-1.65632,-0.92838c-3.72936,-2.16799 -1.44005,-7.38488 2.02557,-7.38488c0.69599,0.0101 1.3768,0.20488 1.97282,0.56442l4.45203,2.58998c0.35342,0.20572 0.74904,0.41144 1.14993,0.62244l1.68797,-0.97586v-3.69244h7.91237v3.69244l2.54778,1.41895l1.41368,0.81234l2.54251,1.4717l0.05275,0.03165l2.54251,-1.4717l1.36093,-0.78596l2.59526,-1.49808l0.05275,-0.03165v-3.69244h7.91237v3.75574l1.58247,0.91256c0.41144,-0.21627 0.80706,-0.42199 1.14993,-0.62244l4.4573,-2.58998c0.59498,-0.36191 1.27646,-0.55687 1.97282,-0.56442c3.46562,0 5.74438,5.23271 2.02029,7.38488l-1.6616,0.96003z" id="Path 1 1" fill="#1f3caf"/></g></g><path d="M486,188" id="Path 1" fill="none" stroke="#000000" stroke-linecap="round" stroke-linejoin="round"/><g id="Group 1" stroke="none" stroke-linecap="butt" stroke-linejoin="miter"><g id="Group 1" fill="none"><rect x="549" y="98.80002" width="582" height="402" id="Shape 1"/></g><g id="Group 1"><path d="M764.5,212.54002c-2.34942,5.64366 -4.29107,11.44855 -5.81,17.37c5.3702,-3.39951 10.99724,-6.37519 16.83,-8.9z" id="Path 1" fill="#231815"/><path d="M826.5,362.80002c3.1267,4.85191 5.61076,10.08895 7.39,15.58c0.37117,2.78493 2.52569,4.99637 5.3,5.44c5.42139,1.17365 10.59152,3.29994 15.27,6.28c12.00303,7.4504 19.65689,20.25031 20.54,34.35c0.11876,2.20373 0.07196,4.41327 -0.14,6.61c-0.6418,6.86802 -2.84084,13.49936 -6.43,19.39c-4.99039,8.28438 -12.59191,14.67585 -21.61,18.17c-8.12,3.11 -16.26,2.95 -24.72,2.95h-115.44c-5.49,0 -11,0.05 -16.46,0c-20.71123,-0.00459 -39.64839,-11.69158 -48.93865,-30.20228c-9.29026,-18.5107 -7.34439,-40.67859 5.02865,-57.28772c11.19,-15.07 29,-22.65 47.07,-21.71c4.75102,0.25364 9.45289,1.0899 14,2.49c0.91607,0.27796 1.88107,0.35639 2.83,0.23c2.31554,-0.3746 4.36446,-1.71149 5.64,-3.68c13.14413,-19.21553 35.30455,-30.25033 58.56,-29.16c2.88762,0.15529 5.7611,0.50946 8.6,1.06c17.90519,3.51607 33.61118,14.1612 43.51,29.49z" id="Path 1" fill="#dcdddd"/><path d="M940.51,380.63002c-0.66667,1.55333 -1.36667,3.08667 -2.1,4.6l-2.41,-1.16l-8.47,-11l-0.56,-1.48c1.69,-0.62 3.37,-1.27 5,-2c6.89,-2.79 10.74,5.95 8.54,11.04z" id="Path 1" fill="#231815"/><path d="M936,384.07002l2.38,1.16c-11.00753,22.72461 -28.27869,41.83113 -49.78,55.07c1.08952,-4.72616 1.5734,-9.57172 1.44,-14.42c0,-1.47 -0.14,-2.93 -0.29,-4.38c11.45256,-8.71755 21.23917,-19.42896 28.89,-31.62c5.91909,-1.51587 11.72087,-3.4576 17.36,-5.81z" id="Path 1" fill="#231815"/><path d="M927.56,373.06002l8.47,11c-5.63913,2.3524 -11.44091,4.29413 -17.36,5.81c3.38986,-5.36716 6.36196,-10.98706 8.89,-16.81z" id="Path 1" fill="#231815"/><path d="M904.24,280.00002c-2.7413,-0.89056 -4.61115,-3.42793 -4.65,-6.31c0.63,-0.25 1.26,-0.5 1.89,-0.73c0.64304,-0.28848 1.31295,-0.51289 2,-0.67c5.59,-0.67 -1.95,7 1.38,7.91z" id="Path 1" fill="#231815"/><path d="M903.51,272.29002c-0.68705,0.15711 -1.35696,0.38152 -2,0.67c-0.63,0.23 -1.26,0.48 -1.89,0.73c-0.2,-4.58 3.52,-9.51 9.29,-8c9.27,2.66 5.31,17.13 -4,14.47c-3.35,-0.86 4.19,-8.54 -1.4,-7.87z" id="Path 1" fill="#231815"/><path d="M896.41,275.04002c1,-0.48 2.11,-0.92 3.18,-1.35c0.03885,2.88207 1.9087,5.41944 4.65,6.31c-3.37431,-1.00754 -6.64031,-2.34744 -9.75,-4c0.63,-0.33 1.26,-0.66 1.92,-0.96z" id="Path 1" fill="#231815"/><path d="M890.07,425.88002c0.1334,4.84828 -0.35048,9.69384 -1.44,14.42c-3.04,1.87333 -6.15667,3.62 -9.35,5.24c2.19537,-5.82339 3.31684,-11.99654 3.31,-18.22c0,-0.26 0,-0.52 0,-0.79c2.46,-1.58 4.87,-3.26 7.2,-5c0.14,1.42 0.21,2.88 0.28,4.35z" id="Path 1" fill="#231815"/><path d="M889.78,421.50002c-2.33,1.77 -4.74,3.45 -7.2,5c-0.1759,-12.40701 -4.81587,-24.33533 -13.07,-33.6c3.33333,0.42 6.66667,0.71667 10,0.89c5.71,8.22037 9.24334,17.75387 10.27,27.71z" id="Path 1" fill="#231815"/><path d="M918.67,389.88002c-7.65083,12.19104 -17.43744,22.90245 -28.89,31.62c-1.03427,-9.95449 -4.57448,-19.4845 -10.29,-27.7c13.18316,0.68527 26.39392,-0.63648 39.18,-3.92z" id="Path 1" fill="#f4ec90"/><path d="M882.59,427.32002c0.00684,6.22346 -1.11463,12.39661 -3.31,18.22c-3.52667,1.8 -7.13667,3.43667 -10.83,4.91c3.58916,-5.89064 5.7882,-12.52198 6.43,-19.39c2.62667,-1.41333 5.19333,-2.92333 7.7,-4.53c0,0.27 0.01,0.53 0.01,0.79z" id="Path 1" fill="#231815"/><path d="M869.51,392.93002c8.25413,9.26467 12.8941,21.19299 13.07,33.6c-2.5,1.61333 -5.06667,3.12333 -7.7,4.53c0.21196,-2.19673 0.25876,-4.40627 0.14,-6.61c-0.89385,-14.09627 -8.55486,-26.88821 -20.56,-34.33c4.95829,1.22605 9.98335,2.16428 15.05,2.81z" id="Path 1" fill="#231815"/><path d="M876.68,243.68002c0,1.42 -1.08,3.48 -1.57,4.74c-0.76,1.94 -1.6,3.85 -2.55,5.71c-0.97989,-1.85261 -1.85461,-3.75897 -2.62,-5.71c-0.5171,-1.07162 -0.90967,-2.19897 -1.17,-3.36c-0.13,-0.46 -0.26,-0.92 -0.4,-1.38z" id="Path 1" fill="#231815"/><path d="M869.94,248.42002c0.76539,1.95103 1.64011,3.85739 2.62,5.71c-0.62,1.22 -1.28,2.42 -2,3.58c-3.8207,5.9772 -8.78599,11.13961 -14.61,15.19c-1.68104,1.17165 -3.442,2.22422 -5.27,3.15c-2.49937,-1.30331 -5.09338,-2.41646 -7.76,-3.33c-0.87142,-0.39051 -1.78868,-0.66938 -2.73,-0.83v4.16c-1.33,3.38 -1.11,4.7 0.68,3.95c1.38,0 3.41,-1.11 4.71,-1.63c1.74,-0.7 3.44,-1.46 5.1,-2.32c4.01562,2.10401 7.74865,4.70806 11.11,7.75c4.36375,4.00215 7.98905,8.74111 10.71,14c-1.54,2.8 -3.32,6.16 -3.73,9.17c-0.35,2.53 -2.14,1.38 3.76,1.38c4.85,0 4.52,1 3.54,-2.06c-0.65255,-1.9613 -1.4069,-3.88725 -2.26,-5.77c-0.4,-0.92 -0.84,-1.83 -1.31,-2.72l0.59,-1.07c4.97582,-8.8513 12.40854,-16.07216 21.4,-20.79c3.10969,1.65256 6.37569,2.99246 9.75,4l0.65,0.2c9.3,2.66 13.26,-11.81 4,-14.47c5.13295,1.4549 8.41482,6.46294 7.7,11.75c-0.71,5.28 -4.46,7.67 -9.08,9.27c-9.45,3.28 -17.06,9.32 -21.79,18.22c-2,3.72 -2.42,8.45 -5.21,11.67c-3.04712,3.42717 -7.94595,4.51893 -12.16,2.71c-5,-2.12 -5.66,-6.52 -7.43,-11c-1.41776,-3.58811 -3.39937,-6.9268 -5.87,-9.89c-2.8712,-3.42566 -6.32827,-6.31389 -10.21,-8.53c-3.48,-2 -7.46,-2.6 -10.91,-4.5c-4.34199,-2.38821 -6.48633,-7.43712 -5.19,-12.22c1.24,-4.53 4.7,-6.46 8.83,-7.84c8.00851,-2.51795 14.93237,-7.66592 19.65,-14.61c4.45,-6.8 5.18,-19.28 15.76,-18.87c9.9,0.39 10.56,12.28 14.87,18.87c4.97681,7.35448 12.42896,12.67744 21,15c-5.77,-1.55 -9.49,3.38 -9.29,8c-1.07,0.43 -2.14,0.87 -3.18,1.35c-0.66,0.3 -1.29,0.63 -1.92,1c-9.34104,-4.92141 -16.98301,-12.54248 -21.93,-21.87c0.95,-1.86 1.79,-3.77 2.55,-5.71c0.49,-1.26 1.58,-3.32 1.57,-4.74h-8.31c0.14,0.46 0.27,0.92 0.4,1.38c0.27357,1.14516 0.67614,2.25559 1.2,3.31z" id="Path 1" fill="#231815"/><path d="M876.07,306.35002c1,3.07 1.31,2.06 -3.54,2.06c-5.9,0 -4.11,1.15 -3.76,-1.38c0.41,-3 2.19,-6.37 3.73,-9.17c0.47,0.89 0.91,1.8 1.31,2.72c0.8531,1.88275 1.60745,3.8087 2.26,5.77z" id="Path 1" fill="#231815"/><path d="M872.56,254.13002c4.94699,9.32752 12.58896,16.94859 21.93,21.87c-8.99284,4.72053 -16.42571,11.945 -21.4,20.8l-0.59,1.07c-2.72095,-5.25889 -6.34625,-9.99785 -10.71,-14c-3.36526,-3.05738 -7.10518,-5.67498 -11.13,-7.79c1.828,-0.92578 3.58896,-1.97835 5.27,-3.15c5.82401,-4.05039 10.7893,-9.2128 14.61,-15.19c0.74,-1.19 1.4,-2.39 2.02,-3.61z" id="Path 1" fill="#ffffff"/><path d="M847.72,372.56002c4.16105,1.41724 8.39757,2.60239 12.69,3.55c7.57136,4.43817 14.08288,10.47532 19.08,17.69c-3.33333,-0.17333 -6.66667,-0.47 -10,-0.89c-5.69825,-6.39468 -12.88786,-11.28279 -20.93,-14.23c0.34755,-1.34967 0.29192,-2.77161 -0.16,-4.09c-0.2,-0.67 -0.4,-1.35 -0.68,-2.03z" id="Path 1" fill="#231815"/><path d="M860.41,376.11002c22.17471,4.86807 45.27887,3.29634 66.59,-4.53l0.56,1.48c-2.52758,5.82636 -5.49968,11.44962 -8.89,16.82c-12.78608,3.28352 -25.99684,4.60527 -39.18,3.92c-4.99712,-7.21468 -11.50864,-13.25183 -19.08,-17.69z" id="Path 1" fill="#231815"/><path d="M860.41,376.11002c-4.29243,-0.94761 -8.52895,-2.13276 -12.69,-3.55c-0.26,-0.75 -0.53,-1.49 -0.82,-2.24c4.72707,1.35931 9.26562,3.3044 13.51,5.79z" id="Path 1" fill="#231815"/><path d="M842.9,272.72002c2.66662,0.91354 5.26063,2.02669 7.76,3.33c-1.66,0.86 -3.36,1.62 -5.1,2.32c-1.3,0.52 -3.33,1.67 -4.71,1.63c-1.79,0.75 -2,-0.57 -0.68,-3.95v-4.16c0.94132,0.16062 1.85858,0.43949 2.73,0.83z" id="Path 1" fill="#231815"/><path d="M783.62,318.28002c0.66,0.1 1.32,0.19 2,0.31c28.13,4.95 51.25,25.4 61.29,51.73c-1.22,-0.35 -2.46,-0.67 -3.72,-0.95c-1.19689,-0.27097 -2.44102,-0.25383 -3.63,0.05c-0.43,-0.18 -0.84,-0.38 -1.26,-0.56c-9.15527,-20.8767 -27.43872,-36.35526 -49.54,-41.94c-1.84,-2.82 -3.55333,-5.7 -5.14,-8.64z" id="Path 1" fill="#231815"/><path d="M839.55,369.42002c1.18898,-0.30383 2.43311,-0.32097 3.63,-0.05c1.26,0.28 2.5,0.6 3.72,0.95c0.29,0.75 0.56,1.49 0.82,2.24c-2.76,-0.94 -5.48333,-1.98667 -8.17,-3.14z" id="Path 1" fill="#231815"/><path d="M838.65,369.72002c0.29263,-0.12089 0.59336,-0.22114 0.9,-0.3c2.66667,1.14667 5.39,2.19333 8.17,3.14c0.24,0.68 0.48,1.36 0.7,2.05c0.45192,1.31839 0.50755,2.74033 0.16,4.09c-2.41056,-0.88189 -4.88425,-1.58055 -7.4,-2.09c-0.722,-2.33942 -1.5665,-4.63926 -2.53,-6.89z" id="Path 1" fill="#231815"/><path d="M838.29,368.86002c0.42,0.18 0.83,0.38 1.26,0.56c-0.30664,0.07886 -0.60737,0.17911 -0.9,0.3c-0.12,-0.29 -0.23,-0.58 -0.36,-0.86z" id="Path 1" fill="#231815"/><path d="M833.89,378.40002c-0.50125,-3.62647 1.43269,-7.15306 4.76,-8.68c0.9635,2.25074 1.808,4.55058 2.53,6.89c2.51575,0.50945 4.98944,1.20811 7.4,2.09c-1.68,6.07 -12.18,7.55 -14.63,-0.1z" id="Path 1" fill="#231815"/><path d="M834,378.60002c2.45,7.65 12.95,6.17 14.63,0.1c8.04214,2.94721 15.23175,7.83532 20.93,14.23c-5.06665,-0.64572 -10.09171,-1.58395 -15.05,-2.81c-4.69093,-2.99954 -9.8786,-5.13963 -15.32,-6.32c-2.77431,-0.44363 -4.92883,-2.65507 -5.3,-5.44z" id="Path 1" fill="#231815"/><path d="M838.29,368.86002c0.13,0.28 0.24,0.57 0.36,0.86c-3.32731,1.52694 -5.26125,5.05353 -4.76,8.68c-1.77764,-5.49798 -4.26174,-10.74183 -7.39,-15.6c3.81121,2.2432 7.74764,4.26651 11.79,6.06z" id="Path 1" fill="#231815"/><path d="M788.75,326.92002c22.10128,5.58474 40.38473,21.0633 49.54,41.94c-4.04099,-1.77398 -7.9774,-3.77724 -11.79,-6c-7.24316,-11.23065 -17.6708,-20.04627 -29.95,-25.32c-2.799,-3.38944 -5.4032,-6.93516 -7.8,-10.62z" id="Path 1" fill="#231815"/><path d="M768,208.06002c5.13,-2.21 13.87,1.63 11,8.47c-0.7,1.67 -1.35,3.35 -2,5l-1.47,-0.55l-11,-8.47l-1.14,-2.38c1.49333,-0.71333 3.03,-1.40333 4.61,-2.07z" id="Path 1" fill="#231815"/><path d="M775.52,221.02002l1.47,0.55c-11.69243,31.70567 -9.2799,66.89662 6.63,96.71c-5.64358,-0.85708 -11.36098,-1.12519 -17.06,-0.8c-12.52028,-27.43821 -15.29678,-58.32893 -7.87,-87.56c5.36997,-3.3999 10.99705,-6.3756 16.83,-8.9z" id="Path 1" fill="#231815"/><path d="M770.76,324.71002c6.06818,-0.00849 12.1141,0.73382 18,2.21c2.39806,3.67117 5.00224,7.2035 7.8,10.58c-4.35865,-1.87352 -8.90422,-3.27809 -13.56,-4.19c-2.8389,-0.55054 -5.71238,-0.90471 -8.6,-1.06c-1.52,-2.46667 -2.95667,-4.97667 -4.31,-7.53z" id="Path 1" fill="#231815"/><path d="M709.38,357.63002c13.51569,-20.37631 36.26949,-32.70878 60.72,-32.91c1.33333,2.55333 2.77,5.06333 4.31,7.53c-23.25545,-1.09033 -45.41587,9.94447 -58.56,29.16c-1.27554,1.96851 -3.32446,3.3054 -5.64,3.68c-0.88,-2.61 -1.67,-5.26 -2.36,-7.93c0.51,0.15 1.02,0.3 1.53,0.47z" id="Path 1" fill="#231815"/><path d="M766.56,317.48002c5.69902,-0.32519 11.41642,-0.05708 17.06,0.8c1.58,2.94 3.29,5.82 5.13,8.64c-5.8859,-1.47618 -11.93182,-2.21849 -18,-2.21h-0.66c-1.25,-2.37 -2.42,-4.79 -3.53,-7.23z" id="Path 1" fill="#231815"/><path d="M766.56,317.48002c1.11,2.44 2.28,4.86 3.54,7.24c-24.45051,0.20122 -47.20431,12.53369 -60.72,32.91c-0.51,-0.17 -1,-0.32 -1.53,-0.47c-0.42,-1.61333 -0.80667,-3.23333 -1.16,-4.86l4.68,-1.91c-1.65,-0.5 -3.3,-0.94 -5,-1.33c14.59159,-18.6887 36.52016,-30.19401 60.19,-31.58z" id="Path 1" fill="#231815"/><path d="M763.36,210.17002l1.14,2.38c-2.35246,5.64252 -4.29419,11.44763 -5.81,17.37c-24.82546,15.5155 -42.92516,39.78166 -50.72,68c-4.47296,16.63766 -5.13947,34.06937 -1.95,51c-5.17163,-1.16819 -10.45809,-1.75185 -15.76,-1.74c-8.22102,-56.7579 21.38666,-112.27534 73.1,-137.07z" id="Path 1" fill="#231815"/><path d="M766.56,317.48002c-23.65915,1.39443 -45.5752,12.8989 -60.16,31.58l-0.38,-0.08c-3.18947,-16.93063 -2.52296,-34.36234 1.95,-51c7.79484,-28.21834 25.89454,-52.4845 50.72,-68c-7.41265,29.21224 -4.63637,60.07934 7.87,87.5z" id="Path 1" fill="#f4ec90"/><path d="M707.85,357.16002c0.69,2.67 1.48,5.32 2.36,7.93c-0.94893,0.12639 -1.91393,0.04796 -2.83,-0.23c-4.54711,-1.4001 -9.24898,-2.23636 -14,-2.49c-0.66667,-2.56 -1.27333,-5.14 -1.82,-7.74c5.51817,0.11719 10.99623,0.96799 16.29,2.53z" id="Path 1" fill="#231815"/><path d="M706.4,349.06002c1.67,0.39 3.32,0.83 5,1.33l-4.68,1.91c-0.21,-1 -0.4,-1.9 -0.58,-2.85z" id="Path 1" fill="#231815"/><path d="M706.11,349.45002c0.18,1 0.37,1.9 0.58,2.85l-3.79,1.5c1.03333,-1.48667 2.10333,-2.93667 3.21,-4.35z" id="Path 1" fill="#231815"/><path d="M706.11,349.45002l-0.09,-0.47l0.38,0.08z" id="Path 1" fill="#231815"/><path d="M706.11,349.45002c-1.11333,1.42 -2.18333,2.88333 -3.21,4.39l3.79,-1.54c0.34667,1.62667 0.73333,3.24667 1.16,4.86c-5.30022,-1.56377 -10.78512,-2.41458 -16.31,-2.53c-0.49,-2.45 -0.92,-4.92 -1.28,-7.39c5.29522,-0.01035 10.5749,0.5733 15.74,1.74z" id="Path 1" fill="#231815"/><path d="M628,416.80002c0.01655,-34.34525 27.85475,-62.18345 62.2,-62.2c0.45,0 0.89,0 1.34,0c0.52667,2.6 1.13333,5.18 1.82,7.74c-18,-0.94 -35.88,6.64 -47.07,21.71c-12.37304,16.60912 -14.31892,38.77701 -5.02865,57.28772c9.29026,18.5107 28.22742,30.19769 48.93865,30.20228c5.49,0.05 11,0 16.46,0h115.46c8.46,0 16.6,0.16 24.72,-2.95c9.01809,-3.49415 16.61961,-9.88562 21.61,-18.17c3.69333,-1.46667 7.30333,-3.10333 10.83,-4.91c-7.58857,20.17363 -26.8863,33.53146 -48.44,33.53h-140.64c-34.36087,-0.01656 -62.20553,-27.87913 -62.2,-62.24z" id="Path 1" fill="#231815"/><path d="M628,416.80002c0,16.50615 6.55773,32.33611 18.23028,44.00679c11.67255,11.67068 27.50356,18.22586 44.00972,18.22321h140.6c21.5537,0.00146 40.85143,-13.35637 48.44,-33.53c3.19333,-1.62 6.31,-3.36667 9.35,-5.24c-4.78294,20.39514 -19.80985,36.84561 -39.69,43.45c-9.48,3.1 -19.19,2.82 -29,2.82h-123.43c-12.67,0 -24.76,-1.39 -36.45,-6.86c-20.40224,-9.79503 -34.78494,-28.87876 -38.58,-51.19c-3.67,-22.81 3.88,-46.46 20.82,-62.36c13.01563,-12.17519 30.1775,-18.93983 48,-18.92c0.36,2.47 0.79,4.94 1.28,7.39c-0.45,0 -0.89,0 -1.34,0c-34.36478,-0.00552 -62.22896,27.84523 -62.24,62.21z" id="Path 1" fill="#231815"/></g></g></g></g></g></svg>