<svg version="1.1" xmlns="http://www.w3.org/2000/svg" xmlns:xlink="http://www.w3.org/1999/xlink" width="624" height="534.56194" viewBox="518,84.43806,624,534.56194"><g id="document" fill-opacity="0" fill="#ffffff" fill-rule="nonzero" stroke-opacity="0.8" stroke="#000000" stroke-width="0" stroke-linecap="butt" stroke-linejoin="miter" stroke-miterlimit="10" stroke-dasharray="" stroke-dashoffset="0" font-family="none" font-weight="none" font-size="none" text-anchor="none" style="mix-blend-mode: normal"><rect x="725.2" y="119" transform="scale(0.71429,1)" width="700" height="500" id="Shape 1 1" vector-effect="non-scaling-stroke"/></g><g fill="none" fill-rule="nonzero" stroke="none" stroke-width="1" stroke-linecap="butt" stroke-linejoin="miter" stroke-miterlimit="10" stroke-dasharray="" stroke-dashoffset="0" font-family="none" font-weight="none" font-size="none" text-anchor="none" style="mix-blend-mode: normal"><g id="stage"><g id="layer1 1"><g id="Group 1" stroke="none"><g id="Group 1" fill="none"><rect x="544.7888" y="84.43806" width="433.03448" height="433.03448" id="Shape 1"/></g><g id="Group 1"><path d="M779.2888,201.17806c-2.34942,5.64366 -4.29107,11.44855 -5.81,17.37c5.3702,-3.39951 10.99724,-6.37519 16.83,-8.9z" id="Path 1" fill="#231815"/><path d="M955.2988,369.26806c-0.66667,1.55333 -1.36667,3.08667 -2.1,4.6l-2.41,-1.16l-8.47,-11l-0.56,-1.48c1.69,-0.62 3.37,-1.27 5,-2c6.89,-2.79 10.74,5.95 8.54,11.04z" id="Path 1" fill="#231815"/><path d="M950.7888,372.70806l2.38,1.16c-11.00753,22.72461 -28.27869,41.83113 -49.78,55.07c1.08952,-4.72616 1.5734,-9.57172 1.44,-14.42c0,-1.47 -0.14,-2.93 -0.29,-4.38c11.45256,-8.71755 21.23917,-19.42896 28.89,-31.62c5.91909,-1.51587 11.72087,-3.4576 17.36,-5.81z" id="Path 1" fill="#231815"/><path d="M942.3488,361.69806l8.47,11c-5.63913,2.3524 -11.44091,4.29413 -17.36,5.81c3.38986,-5.36716 6.36196,-10.98706 8.89,-16.81z" id="Path 1" fill="#231815"/><path d="M919.0288,268.63806c-2.7413,-0.89056 -4.61115,-3.42793 -4.65,-6.31c0.63,-0.25 1.26,-0.5 1.89,-0.73c0.64304,-0.28848 1.31295,-0.51289 2,-0.67c5.59,-0.67 -1.95,7 1.38,7.91z" id="Path 1" fill="#231815"/><path d="M918.2988,260.92806c-0.68705,0.15711 -1.35696,0.38152 -2,0.67c-0.63,0.23 -1.26,0.48 -1.89,0.73c-0.2,-4.58 3.52,-9.51 9.29,-8c9.27,2.66 5.31,17.13 -4,14.47c-3.35,-0.86 4.19,-8.54 -1.4,-7.87z" id="Path 1" fill="#231815"/><path d="M911.1988,263.67806c1,-0.48 2.11,-0.92 3.18,-1.35c0.03885,2.88207 1.9087,5.41944 4.65,6.31c-3.37431,-1.00754 -6.64031,-2.34744 -9.75,-4c0.63,-0.33 1.26,-0.66 1.92,-0.96z" id="Path 1" fill="#231815"/><path d="M904.8588,414.51806c0.1334,4.84828 -0.35048,9.69384 -1.44,14.42c-3.04,1.87333 -6.15667,3.62 -9.35,5.24c2.19537,-5.82339 3.31684,-11.99654 3.31,-18.22c0,-0.26 0,-0.52 0,-0.79c2.46,-1.58 4.87,-3.26 7.2,-5c0.14,1.42 0.21,2.88 0.28,4.35z" id="Path 1" fill="#231815"/><path d="M904.5688,410.13806c-2.33,1.77 -4.74,3.45 -7.2,5c-0.1759,-12.40701 -4.81587,-24.33533 -13.07,-33.6c3.33333,0.42 6.66667,0.71667 10,0.89c5.71,8.22037 9.24334,17.75387 10.27,27.71z" id="Path 1" fill="#231815"/><path d="M933.4588,378.51806c-7.65083,12.19104 -17.43744,22.90245 -28.89,31.62c-1.03427,-9.95449 -4.57448,-19.4845 -10.29,-27.7c13.18316,0.68527 26.39392,-0.63648 39.18,-3.92z" id="Path 1" fill="#f4ec90"/><path d="M897.3788,415.95806c0.00684,6.22346 -1.11463,12.39661 -3.31,18.22c-3.52667,1.8 -7.13667,3.43667 -10.83,4.91c3.58916,-5.89064 5.7882,-12.52198 6.43,-19.39c2.62667,-1.41333 5.19333,-2.92333 7.7,-4.53c0,0.27 0.01,0.53 0.01,0.79z" id="Path 1" fill="#231815"/><path d="M884.2988,381.56806c8.25413,9.26467 12.8941,21.19299 13.07,33.6c-2.5,1.61333 -5.06667,3.12333 -7.7,4.53c0.21196,-2.19673 0.25876,-4.40627 0.14,-6.61c-0.89385,-14.09627 -8.55486,-26.88821 -20.56,-34.33c4.95829,1.22605 9.98335,2.16428 15.05,2.81z" id="Path 1" fill="#231815"/><path d="M891.4688,232.31806c0,1.42 -1.08,3.48 -1.57,4.74c-0.76,1.94 -1.6,3.85 -2.55,5.71c-0.97989,-1.85261 -1.85461,-3.75897 -2.62,-5.71c-0.5171,-1.07162 -0.90967,-2.19897 -1.17,-3.36c-0.13,-0.46 -0.26,-0.92 -0.4,-1.38z" id="Path 1" fill="#231815"/><path d="M884.7288,237.05806c0.76539,1.95103 1.64011,3.85739 2.62,5.71c-0.62,1.22 -1.28,2.42 -2,3.58c-3.8207,5.9772 -8.78599,11.13961 -14.61,15.19c-1.68104,1.17165 -3.442,2.22422 -5.27,3.15c-2.49937,-1.30331 -5.09338,-2.41646 -7.76,-3.33c-0.87142,-0.39051 -1.78868,-0.66938 -2.73,-0.83v4.16c-1.33,3.38 -1.11,4.7 0.68,3.95c1.38,0 3.41,-1.11 4.71,-1.63c1.74,-0.7 3.44,-1.46 5.1,-2.32c4.01562,2.10401 7.74865,4.70806 11.11,7.75c4.36375,4.00215 7.98905,8.74111 10.71,14c-1.54,2.8 -3.32,6.16 -3.73,9.17c-0.35,2.53 -2.14,1.38 3.76,1.38c4.85,0 4.52,1 3.54,-2.06c-0.65255,-1.9613 -1.4069,-3.88725 -2.26,-5.77c-0.4,-0.92 -0.84,-1.83 -1.31,-2.72l0.59,-1.07c4.97582,-8.8513 12.40854,-16.07216 21.4,-20.79c3.10969,1.65256 6.37569,2.99246 9.75,4l0.65,0.2c9.3,2.66 13.26,-11.81 4,-14.47c5.13295,1.4549 8.41482,6.46294 7.7,11.75c-0.71,5.28 -4.46,7.67 -9.08,9.27c-9.45,3.28 -17.06,9.32 -21.79,18.22c-2,3.72 -2.42,8.45 -5.21,11.67c-3.04712,3.42717 -7.94595,4.51893 -12.16,2.71c-5,-2.12 -5.66,-6.52 -7.43,-11c-1.41776,-3.58811 -3.39937,-6.9268 -5.87,-9.89c-2.8712,-3.42566 -6.32827,-6.31389 -10.21,-8.53c-3.48,-2 -7.46,-2.6 -10.91,-4.5c-4.34199,-2.38821 -6.48633,-7.43712 -5.19,-12.22c1.24,-4.53 4.7,-6.46 8.83,-7.84c8.00851,-2.51795 14.93237,-7.66592 19.65,-14.61c4.45,-6.8 5.18,-19.28 15.76,-18.87c9.9,0.39 10.56,12.28 14.87,18.87c4.97681,7.35448 12.42896,12.67744 21,15c-5.77,-1.55 -9.49,3.38 -9.29,8c-1.07,0.43 -2.14,0.87 -3.18,1.35c-0.66,0.3 -1.29,0.63 -1.92,1c-9.34104,-4.92141 -16.98301,-12.54248 -21.93,-21.87c0.95,-1.86 1.79,-3.77 2.55,-5.71c0.49,-1.26 1.58,-3.32 1.57,-4.74h-8.31c0.14,0.46 0.27,0.92 0.4,1.38c0.27357,1.14516 0.67614,2.25559 1.2,3.31z" id="Path 1" fill="#231815"/><path d="M890.8588,294.98806c1,3.07 1.31,2.06 -3.54,2.06c-5.9,0 -4.11,1.15 -3.76,-1.38c0.41,-3 2.19,-6.37 3.73,-9.17c0.47,0.89 0.91,1.8 1.31,2.72c0.8531,1.88275 1.60745,3.8087 2.26,5.77z" id="Path 1" fill="#231815"/><path d="M887.3488,242.76806c4.94699,9.32752 12.58896,16.94859 21.93,21.87c-8.99284,4.72053 -16.42571,11.945 -21.4,20.8l-0.59,1.07c-2.72095,-5.25889 -6.34625,-9.99785 -10.71,-14c-3.36526,-3.05738 -7.10518,-5.67498 -11.13,-7.79c1.828,-0.92578 3.58896,-1.97835 5.27,-3.15c5.82401,-4.05039 10.7893,-9.2128 14.61,-15.19c0.74,-1.19 1.4,-2.39 2.02,-3.61z" id="Path 1" fill="#ffffff"/><path d="M862.5088,361.19806c4.16105,1.41724 8.39757,2.60239 12.69,3.55c7.57136,4.43817 14.08288,10.47532 19.08,17.69c-3.33333,-0.17333 -6.66667,-0.47 -10,-0.89c-5.69825,-6.39468 -12.88786,-11.28279 -20.93,-14.23c0.34755,-1.34967 0.29192,-2.77161 -0.16,-4.09c-0.2,-0.67 -0.4,-1.35 -0.68,-2.03z" id="Path 1" fill="#231815"/><path d="M875.1988,364.74806c22.17471,4.86807 45.27887,3.29634 66.59,-4.53l0.56,1.48c-2.52758,5.82636 -5.49968,11.44962 -8.89,16.82c-12.78608,3.28352 -25.99684,4.60527 -39.18,3.92c-4.99712,-7.21468 -11.50864,-13.25183 -19.08,-17.69z" id="Path 1" fill="#231815"/><path d="M875.1988,364.74806c-4.29243,-0.94761 -8.52895,-2.13276 -12.69,-3.55c-0.26,-0.75 -0.53,-1.49 -0.82,-2.24c4.72707,1.35931 9.26562,3.3044 13.51,5.79z" id="Path 1" fill="#231815"/><path d="M857.6888,261.35806c2.66662,0.91354 5.26063,2.02669 7.76,3.33c-1.66,0.86 -3.36,1.62 -5.1,2.32c-1.3,0.52 -3.33,1.67 -4.71,1.63c-1.79,0.75 -2,-0.57 -0.68,-3.95v-4.16c0.94132,0.16062 1.85858,0.43949 2.73,0.83z" id="Path 1" fill="#231815"/><path d="M782.7888,196.69806c5.13,-2.21 13.87,1.63 11,8.47c-0.7,1.67 -1.35,3.35 -2,5l-1.47,-0.55l-11,-8.47l-1.14,-2.38c1.49333,-0.71333 3.03,-1.40333 4.61,-2.07z" id="Path 1" fill="#231815"/><path d="M790.3088,209.65806l1.47,0.55c-11.69243,31.70567 -9.2799,66.89662 6.63,96.71c-5.64358,-0.85708 -11.36098,-1.12519 -17.06,-0.8c-12.52028,-27.43821 -15.29678,-58.32893 -7.87,-87.56c5.36997,-3.3999 10.99705,-6.3756 16.83,-8.9z" id="Path 1" fill="#231815"/><path d="M785.5488,313.34806c6.06818,-0.00849 12.1141,0.73382 18,2.21c2.39806,3.67117 5.00224,7.2035 7.8,10.58c-4.35865,-1.87352 -8.90422,-3.27809 -13.56,-4.19c-2.8389,-0.55054 -5.71238,-0.90471 -8.6,-1.06c-1.52,-2.46667 -2.95667,-4.97667 -4.31,-7.53z" id="Path 1" fill="#231815"/><path d="M724.1688,346.26806c13.51569,-20.37631 36.26949,-32.70878 60.72,-32.91c1.33333,2.55333 2.77,5.06333 4.31,7.53c-23.25545,-1.09033 -45.41587,9.94447 -58.56,29.16c-1.27554,1.96851 -3.32446,3.3054 -5.64,3.68c-0.88,-2.61 -1.67,-5.26 -2.36,-7.93c0.51,0.15 1.02,0.3 1.53,0.47z" id="Path 1" fill="#231815"/><path d="M781.3488,306.11806c5.69902,-0.32519 11.41642,-0.05708 17.06,0.8c1.58,2.94 3.29,5.82 5.13,8.64c-5.8859,-1.47618 -11.93182,-2.21849 -18,-2.21h-0.66c-1.25,-2.37 -2.42,-4.79 -3.53,-7.23z" id="Path 1" fill="#231815"/><path d="M781.3488,306.11806c1.11,2.44 2.28,4.86 3.54,7.24c-24.45051,0.20122 -47.20431,12.53369 -60.72,32.91c-0.51,-0.17 -1,-0.32 -1.53,-0.47c-0.42,-1.61333 -0.80667,-3.23333 -1.16,-4.86l4.68,-1.91c-1.65,-0.5 -3.3,-0.94 -5,-1.33c14.59159,-18.6887 36.52016,-30.19401 60.19,-31.58z" id="Path 1" fill="#231815"/><path d="M778.1488,198.80806l1.14,2.38c-2.35246,5.64252 -4.29419,11.44763 -5.81,17.37c-24.82546,15.5155 -42.92516,39.78166 -50.72,68c-4.47296,16.63766 -5.13947,34.06937 -1.95,51c-5.17163,-1.16819 -10.45809,-1.75185 -15.76,-1.74c-8.22102,-56.7579 21.38666,-112.27534 73.1,-137.07z" id="Path 1" fill="#231815"/><path d="M781.3488,306.11806c-23.65915,1.39443 -45.5752,12.8989 -60.16,31.58l-0.38,-0.08c-3.18947,-16.93063 -2.52296,-34.36234 1.95,-51c7.79484,-28.21834 25.89454,-52.4845 50.72,-68c-7.41265,29.21224 -4.63637,60.07934 7.87,87.5z" id="Path 1" fill="#f4ec90"/><path d="M722.6388,345.79806c0.69,2.67 1.48,5.32 2.36,7.93c-0.94893,0.12639 -1.91393,0.04796 -2.83,-0.23c-4.54711,-1.4001 -9.24898,-2.23636 -14,-2.49c-0.66667,-2.56 -1.27333,-5.14 -1.82,-7.74c5.51817,0.11719 10.99623,0.96799 16.29,2.53z" id="Path 1" fill="#231815"/><path d="M721.1888,337.69806c1.67,0.39 3.32,0.83 5,1.33l-4.68,1.91c-0.21,-1 -0.4,-1.9 -0.58,-2.85z" id="Path 1" fill="#231815"/><path d="M720.8988,338.08806c0.18,1 0.37,1.9 0.58,2.85l-3.79,1.5c1.03333,-1.48667 2.10333,-2.93667 3.21,-4.35z" id="Path 1" fill="#231815"/><path d="M720.8988,338.08806l-0.09,-0.47l0.38,0.08z" id="Path 1" fill="#231815"/><path d="M720.8988,338.08806c-1.11333,1.42 -2.18333,2.88333 -3.21,4.39l3.79,-1.54c0.34667,1.62667 0.73333,3.24667 1.16,4.86c-5.30022,-1.56377 -10.78512,-2.41458 -16.31,-2.53c-0.49,-2.45 -0.92,-4.92 -1.28,-7.39c5.29522,-0.01035 10.5749,0.5733 15.74,1.74z" id="Path 1" fill="#231815"/></g></g><g id="Group 1"><g id="Group 1" fill="none" stroke="none"><rect x="530.7888" y="184.53623" width="582" height="402" id="Shape 1"/></g><g id="Group 1"><path d="M828.2688,305.53623c-0.56538,1.08316 -0.8572,2.28818 -0.85,3.51c0,-1.31 -0.05,-2.6 -0.12,-3.89z" id="Path 1" fill="#231815" stroke="none"/><path d="M671.3388,343.29623c1.0859,2.39205 2.29074,4.7283 3.61,7c-3.65771,3.9582 -6.79017,8.3712 -9.32,13.13c-1,-1.44 -1.94,-2.9 -2.86,-4.41c-0.57,-0.94 -1.11,-1.89 -1.65,-2.85c2.87245,-4.68836 6.3043,-9.01008 10.22,-12.87z" id="Path 1" fill="#231815" stroke="none"/><path d="M826.4088,296.90623c0.42667,2.72 0.72333,5.48 0.89,8.28c-29.8299,-11.26371 -63.52034,-2.08164 -83.51,22.76l-2,-1.83c-1.65,-0.51 -3.31,-0.94 -5,-1.32c18.72085,-24.05157 49.20582,-35.78071 79.22,-30.48c3.52394,0.61448 6.99946,1.48002 10.4,2.59z" id="Path 1" fill="#231815" stroke="none"/><path d="M878.8588,350.33623l-5.24,-5.24c1.26,0.27 2.5,0.6 3.73,0.95c0.53,1.42 1.05,2.84 1.51,4.29z" id="Path 1" fill="#231815" stroke="none"/><path d="M662.7888,359.03623c0.92,1.51 1.88,3 2.86,4.41c-10.20863,19.28861 -9.56721,42.51534 1.69039,61.21115c11.2576,18.69581 31.48607,30.12828 53.30961,30.12885h7.24c0,3.78 -2.38,7.56 -7.24,7.5c-17.56705,-0.11075 -34.46668,-6.74302 -47.42,-18.61c-23.29,-21.42 -28.83,-57.13 -13.66,-84.79c0.5,-0.91 1,-1.82 1.56,-2.7c0.53,0.96 1.07,1.91 1.66,2.85z" id="Path 1" fill="#231815" stroke="none"/><path d="M827.2988,305.18623c0.07,1.29 0.11,2.58 0.12,3.89c0.01,1.31 -0.07,2.85 -0.15,4.27c-4.43748,-1.93158 -9.07119,-3.37668 -13.82,-4.31c-25.74,-5 -52.51,6.56 -67.16,28.1c-1.84,2.71 -5.13,4.47 -8.47,3.45c-14.89,-4.6 -30.85,-3.34 -44.43,4.49c-5.3543,3.09459 -10.13995,7.08207 -14.15,11.79c-1.54,-2.13 -3,-4.31 -4.29,-6.55c16.47958,-17.79607 41.78053,-24.4265 64.87,-17c1.24,-1.86 2.57333,-3.66 4,-5.4c19.99266,-24.8505 53.6944,-34.03344 83.53,-22.76z" id="Path 1" fill="#231815" stroke="none"/><path d="M828.2688,305.53623c4.68981,1.87183 9.17637,4.21731 13.39,7c-1.64,3.24 -5.6,4.39 -8.94,3.48c-0.94,-0.52 -1.91,-1 -2.88,-1.48c-1.57881,-1.36505 -2.46615,-3.36341 -2.42,-5.45c-0.01377,-1.23532 0.27823,-2.45487 0.85,-3.55z" id="Path 1" fill="#231815" stroke="none"/><path d="M826.4088,296.90623c5.52891,1.79721 10.83878,4.20896 15.83,7.19c0.09,1.48 0.16,3 0.17,4.46c-0.39,-7.83 -11,-8.82 -14.14,-3l-1,-0.38c-0.14,-2.79333 -0.42667,-5.55 -0.86,-8.27z" id="Path 1" fill="#231815" stroke="none"/><path d="M743.4288,454.78623h45.43c-0.01725,1.24559 -0.31099,2.47179 -0.86,3.59l-15.85,32.16c11.82,-11.93333 23.64667,-23.86 35.48,-35.78h21.16c-25.84,26.06667 -51.68333,52.13 -77.53,78.19c-1.38793,2.38309 -4.18688,3.55816 -6.86,2.88c-4.8,-0.8 -8.68,-6.62 -5.58,-11.4l30.71,-62.37h-18.64c-4.02164,-0.06033 -7.29596,-3.25125 -7.46,-7.27z" id="Path 1" fill="#231815" stroke="none"/><path d="M744.4088,450.80623l10.82,-18.45c4.96,-8.48 9.92333,-16.95333 14.89,-25.42c1,-1.68 1.86,-3.41 2.83,-5c2,-3.29 4.45,-5.94 9.08,-6.11c2.27333,-0.06667 4.54667,-0.12 6.82,-0.16c13,-0.21 26,0.16 38.9,0.16c5.42,0 9.7,6.47 6.48,11.29l-12.06,18h18c6.52,0 9.87,8.2 5.3,12.8l-11.93,12c-1.6,1.61 -3.19,3.22 -4.79,4.82h-21.12l14.54,-14.66h-14c-5.42,0 -9.71,-6.47 -6.48,-11.29l12.06,-18h-28.53l-21.24,36.25h17.55c2.01262,-0.0113 3.94062,0.80885 5.32832,2.2666c1.38771,1.45776 2.11199,3.42377 2.00168,5.4334h-45.43c-0.055,-1.37667 0.28505,-2.74034 0.98,-3.93z" id="Path 1" fill="#231815" stroke="none"/><path d="M832.7188,316.00623c3.34,0.91 7.3,-0.24 8.94,-3.48c0.21,0.15 0.43,0.29 0.65,0.43c-0.14,2.95 -0.42,5.88 -0.82,8.78c-2.76789,-2.13795 -5.70034,-4.05391 -8.77,-5.73z" id="Path 1" fill="#231815" stroke="none"/><path d="M741.7888,326.11623l2,1.83c-1.39333,1.74 -2.72667,3.54 -4,5.4c-2.25753,-0.72665 -4.55458,-1.32429 -6.88,-1.79l0.4,-2z" id="Path 1" fill="#231815" stroke="none"/><path d="M827.4188,309.07623c-0.04615,2.08659 0.84119,4.08495 2.42,5.45c-0.85,-0.41 -1.71,-0.81 -2.57,-1.18c0.08,-1.42 0.14,-2.81 0.15,-4.27z" id="Path 1" fill="#231815" stroke="none"/><path d="M658.3988,392.53623c-0.01211,-10.14923 2.47073,-20.14584 7.23,-29.11c1.62,2.37 3.34,4.65 5.14,6.84c-5.19895,11.49041 -6.259,24.4265 -3,36.61c6.47,23.8 28.33,40.12 52.84,40.39c4.79,0.06 7.2,3.78 7.24,7.5h-7.24c-34.36087,-0.01104 -62.21,-27.86913 -62.21,-62.23z" id="Path 1" fill="#231815" stroke="none"/><path d="M736.7888,324.79623c1.67,0.38 3.33,0.81 5,1.32l-8.45,3.42c1.12,-1.62 2.27,-3.2 3.45,-4.74z" id="Path 1" fill="#231815" stroke="none"/><path d="M840.1688,425.12623h-18l12.06,-18c3.22,-4.82 -1.06,-11.29 -6.48,-11.29c-12.94,0 -25.95,-0.37 -38.9,-0.16c-2.28,0.04 -4.55333,0.09333 -6.82,0.16c-4.63,0.17 -7.06,2.82 -9.08,6.11c-1,1.58 -1.85,3.31 -2.83,5c-4.96667,8.46667 -9.93,16.94 -14.89,25.42l-10.82,18.45c-0.71505,1.20779 -1.06256,2.59781 -1,4h-15.53c0,-3.72 -2.45,-7.44 -7.24,-7.5c-24.51,-0.27 -46.37,-16.59 -52.84,-40.39c-3.259,-12.1835 -2.19895,-25.11959 3,-36.61c2.16567,-4.8561 5.01818,-9.37565 8.47,-13.42c4.01005,-4.70793 8.7957,-8.69541 14.15,-11.79c13.58,-7.83 29.54,-9.09 44.43,-4.49c3.34,1 6.63,-0.74 8.47,-3.45c14.65,-21.54 41.42,-33.14 67.16,-28.1c4.74881,0.93332 9.38252,2.37842 13.82,4.31c0.86,0.37 1.72,0.77 2.57,1.18c0.85,0.41 1.94,1 2.88,1.48c15.07163,8.24495 26.40678,21.95666 31.67,38.31c0.70508,2.54578 2.69422,4.53492 5.24,5.24c22.53,4.89 38.5,25.75 35.61,49c-2.74,22.1 -22,38.41 -44,38.7c-4.78,0.07 -7.19,3.79 -7.24,7.5h-25.24c1.6,-1.6 3.19,-3.21 4.79,-4.82l11.93,-12c4.53,-4.64 1.18,-12.84 -5.34,-12.84z" id="Path 1" fill="#b0b0b0" stroke="none"/><path d="M813.7088,410.83623l-12.06,18c-3.23,4.82 1.06,11.29 6.48,11.29h14l-14.54,14.66h-18.73c0.11031,-2.00963 -0.61397,-3.97564 -2.00168,-5.4334c-1.38771,-1.45776 -3.3157,-2.2779 -5.32832,-2.2666h-17.55l21.24,-36.25z" id="Path 1" fill="#faee00" stroke="none"/><path d="M842.4188,309.14623c0,0.14 0,0.28 0,0.42c0,-0.14 0,-0.28 0,-0.42z" id="Path 1" fill="#231815" stroke="none"/><path d="M674.9488,350.31623c1.31,2.24 2.75,4.42 4.29,6.55c-3.44477,4.04561 -6.29051,8.5651 -8.45,13.42c-1.8,-2.19 -3.52,-4.47 -5.14,-6.84c2.52362,-4.75768 5.64931,-9.17063 9.3,-13.13z" id="Path 1" fill="#231815" stroke="none"/><path d="M841.6588,312.53623c0.44457,-0.89852 0.69985,-1.87877 0.75,-2.88c0,1.11 -0.05,2.21 -0.1,3.31c-0.22,-0.15 -0.44,-0.29 -0.65,-0.43z" id="Path 1" fill="#231815" stroke="none"/><path d="M861.2788,454.78623c26.57719,0.01403 48.84419,-20.10631 51.5153,-46.54893c2.6711,-26.44262 -15.12221,-50.60966 -41.1653,-55.91107c-5.00915,-16.07709 -15.35184,-29.96494 -29.32,-39.37c0.05,-1.1 0.09,-2.2 0.1,-3.31v-0.11c0,-0.14 0,-0.28 0,-0.42v-0.07c0,-0.18 0,-0.35 0,-0.52c0,-1.5 -0.08,-3 -0.17,-4.46c16.07255,9.65503 28.43688,24.42813 35.11,41.95c-1.23,-0.35 -2.47,-0.68 -3.73,-0.95l5.24,5.24c-0.46,-1.45 -1,-2.87 -1.51,-4.29c27.42,7.88 46.27,35.15 42.73,63.9c-3.77507,29.68463 -28.8779,52.02956 -58.8,52.34c-4.87,0.07 -7.28,-3.71 -7.24,-7.5z" id="Path 1" fill="#231815" stroke="none"/><path d="M674.9488,350.31623c-1.31926,-2.2717 -2.5241,-4.60795 -3.61,-7c17.25229,-16.89383 41.9037,-23.8693 65.45,-18.52c-1.21333,1.54 -2.37667,3.13 -3.49,4.77l-0.4,2c-21.28261,-4.30036 -43.26717,2.81051 -58,18.76z" id="Path 1" fill="#231815" stroke="none"/><path d="M828.2688,305.53623c3.1,-5.83 13.75,-4.84 14.14,3c0,0.17 0,0.34 0,0.52v0.07c0,0.14 0,0.28 0,0.42v0.08c-0.05015,1.00123 -0.30543,1.98148 -0.75,2.88c-4.21489,-2.77231 -8.70141,-5.10772 -13.39,-6.97z" id="Path 1" fill="#231815" stroke="none"/><path d="M913.0288,403.04623c0,13.72403 -5.45254,26.88582 -15.15783,36.58924c-9.7053,9.70342 -22.86814,15.15341 -36.59217,15.15076h-7.24c0,-3.71 2.46,-7.43 7.24,-7.5c22,-0.29 41.22,-16.6 44,-38.7c2.89,-23.28 -13.08,-44.14 -35.61,-49c-2.54578,-0.70508 -4.53492,-2.69422 -5.24,-5.24c-4.14053,-12.93708 -12.12949,-24.30303 -22.9,-32.58c0.4,-2.9 0.68,-5.83 0.82,-8.78c13.96816,9.40506 24.31085,23.29291 29.32,39.37c24.06887,4.94072 41.34929,26.11926 41.36,50.69z" id="Path 1" fill="#231815" stroke="none"/><path d="M807.6288,454.78623c-11.82667,11.92667 -23.65333,23.84333 -35.48,35.75l15.85,-32.19c0.54901,-1.11821 0.84275,-2.34441 0.86,-3.59z" id="Path 1" fill="#faee00" stroke="none"/><path d="M661.1188,356.18623c-0.54,0.88 -1.06,1.79 -1.56,2.7c-15.17,27.66 -9.63,63.37 13.66,84.79c12.95332,11.86698 29.85295,18.49925 47.42,18.61c4.86,0.06 7.27,-3.72 7.24,-7.5" id="Path 1" fill="none" stroke="#231815"/><path d="M736.7888,324.79623c-23.55554,-5.36893 -48.22515,1.59989 -65.49,18.5" id="Path 1" fill="none" stroke="#231815"/><path d="M826.4088,296.90623c-3.38748,-1.10814 -6.84957,-1.97366 -10.36,-2.59c-30.02728,-5.31647 -60.53185,6.41428 -79.26,30.48" id="Path 1" fill="none" stroke="#231815"/><path d="M854.0388,454.78623c0,3.79 2.37,7.57 7.24,7.5c29.9221,-0.31044 55.02493,-22.65537 58.8,-52.34c3.54,-28.75 -15.31,-56 -42.73,-63.9" id="Path 1" fill="none" stroke="#231815"/><path d="M877.3488,346.04623c-6.67312,-17.52187 -19.03745,-32.29497 -35.11,-41.95" id="Path 1" fill="none" stroke="#231815"/><path d="M877.3488,346.04623c0.53,1.42 1,2.84 1.51,4.29l-5.24,-5.24c1.26,0.27 2.5,0.6 3.73,0.95z" id="Path 1" fill="none" stroke="#231815"/><path d="M741.7888,326.11623c-1.65,-0.51 -3.31,-0.94 -5,-1.32c-1.21333,1.54 -2.37667,3.13 -3.49,4.77z" id="Path 1" fill="none" stroke="#231815"/><path d="M842.4088,308.53623c0,-1.5 -0.08,-3 -0.17,-4.46c-4.99122,-2.98104 -10.30109,-5.39279 -15.83,-7.19c0.42667,2.72 0.72333,5.48 0.89,8.28" id="Path 1" fill="none" stroke="#231815"/><path d="M828.2688,305.53623c3.1,-5.83 13.75,-4.84 14.14,3" id="Path 1" fill="none" stroke="#231815"/><path d="M674.9488,350.31623c-1.31926,-2.2717 -2.5241,-4.60795 -3.61,-7c-3.91699,3.86614 -7.34889,8.19463 -10.22,12.89c0.54,1 1.08,1.91 1.65,2.85c0.92,1.51 1.88,3 2.86,4.41" id="Path 1" fill="none" stroke="#231815"/><path d="M842.4088,308.53623c0,0.17 0,0.34 0,0.52v0.07" id="Path 1" fill="none" stroke="#231815"/><path d="M842.4088,309.53623c0,-0.14 0,-0.28 0,-0.42" id="Path 1" fill="none" stroke="#231815"/><path d="M842.4088,309.53623v0.08" id="Path 1" fill="none" stroke="#231815"/><path d="M842.3088,312.95623c0.05,-1.1 0.09,-2.2 0.1,-3.31" id="Path 1" fill="none" stroke="#231815"/><path d="M841.4888,321.73623c10.77051,8.27697 18.75947,19.64292 22.9,32.58c0.70508,2.54578 2.69422,4.53492 5.24,5.24c22.53,4.89 38.5,25.75 35.61,49c-2.74,22.1 -22,38.41 -44,38.7c-4.78,0.07 -7.19,3.79 -7.24,7.5h7.24c26.57719,0.01403 48.84419,-20.10631 51.5153,-46.54893c2.6711,-26.44262 -15.12221,-50.60966 -41.1653,-55.91107c-5.00915,-16.07709 -15.35184,-29.96494 -29.32,-39.37" id="Path 1" fill="none" stroke="#231815"/><path d="M827.2988,305.18623c-29.8299,-11.26371 -63.52034,-2.08164 -83.51,22.76c-1.39333,1.74 -2.72667,3.54 -4,5.4c-2.25753,-0.72665 -4.55458,-1.32429 -6.88,-1.79c-21.28261,-4.30036 -43.26717,2.81051 -58,18.76" id="Path 1" fill="none" stroke="#231815"/><path d="M679.2388,356.86623c4.01005,-4.70793 8.7957,-8.69541 14.15,-11.79c13.58,-7.83 29.54,-9.09 44.43,-4.49c3.34,1 6.63,-0.74 8.47,-3.45c14.65,-21.54 41.42,-33.14 67.16,-28.1c4.74881,0.93332 9.38252,2.37842 13.82,4.31" id="Path 1" fill="none" stroke="#231815"/><path d="M665.6288,363.44623c-10.20863,19.28861 -9.56721,42.51534 1.69039,61.21115c11.2576,18.69581 31.48607,30.12828 53.30961,30.12885h7.24c0,-3.72 -2.45,-7.44 -7.24,-7.5c-24.51,-0.27 -46.37,-16.59 -52.84,-40.39c-3.259,-12.1835 -2.19895,-25.11959 3,-36.61" id="Path 1" fill="none" stroke="#231815"/><path d="M841.6588,312.53623c-4.21363,-2.78269 -8.70019,-5.12817 -13.39,-7" id="Path 1" fill="none" stroke="#231815"/><path d="M829.8388,314.53623c1,0.47 1.94,1 2.88,1.48" id="Path 1" fill="none" stroke="#231815"/><path d="M674.9488,350.31623c-3.65771,3.9582 -6.79017,8.3712 -9.32,13.13c1.62,2.37 3.34,4.65 5.14,6.84c2.16567,-4.8561 5.01818,-9.37565 8.47,-13.42c-1.54,-2.13 -2.98,-4.33 -4.29,-6.55z" id="Path 1" fill="none" stroke="#231815"/><path d="M828.2688,305.53623l-1,-0.38c0.07,1.29 0.11,2.58 0.12,3.89c0.00205,-1.22434 0.3042,-2.42951 0.88,-3.51z" id="Path 1" fill="none" stroke="#231815"/><path d="M827.4188,309.07623c0,1.42 -0.07,2.85 -0.15,4.27c0.86,0.37 1.72,0.77 2.57,1.18c-1.57881,-1.36505 -2.46615,-3.36341 -2.42,-5.45z" id="Path 1" fill="none" stroke="#231815"/><path d="M832.7188,316.00623c3.06966,1.67609 6.00211,3.59205 8.77,5.73c0.4,-2.9 0.68,-5.83 0.82,-8.78c-0.22,-0.14 -0.44,-0.28 -0.65,-0.43c-1.64,3.24 -5.6,4.39 -8.94,3.48z" id="Path 1" fill="none" stroke="#231815"/><path d="M828.7888,454.78623c1.6,-1.6 3.19,-3.21 4.79,-4.82l11.93,-12c4.57,-4.6 1.22,-12.8 -5.3,-12.8h-18l12.06,-18c3.22,-4.82 -1.06,-11.29 -6.48,-11.29c-12.94,0 -25.95,-0.37 -38.9,-0.16c-2.28,0.04 -4.55333,0.09333 -6.82,0.16c-4.63,0.17 -7.06,2.82 -9.08,6.11c-1,1.58 -1.85,3.31 -2.83,5c-4.96667,8.46667 -9.93,16.94 -14.89,25.42l-10.82,18.45c-0.71505,1.20779 -1.06256,2.59781 -1,4c0.14852,4.03051 3.42722,7.23888 7.46,7.3h18.6l-30.72,62.3c-3.1,4.78 0.78,10.6 5.58,11.4c2.67312,0.67816 5.47207,-0.49691 6.86,-2.88c25.83333,-26.06 51.68667,-52.12333 77.56,-78.19z" id="Path 1" fill="none" stroke="#231815"/><path d="M807.6288,454.78623c-11.82667,11.92667 -23.65333,23.84333 -35.48,35.75l15.85,-32.19c0.54901,-1.11821 0.84275,-2.34441 0.86,-3.59c0.11031,-2.00963 -0.61397,-3.97564 -2.00168,-5.4334c-1.38771,-1.45776 -3.3157,-2.2779 -5.32832,-2.2666h-17.55l21.24,-36.25h28.49l-12.06,18c-3.23,4.82 1.06,11.29 6.48,11.29h14z" id="Path 1" fill="none" stroke="#231815"/></g></g><g id="Group 1" stroke="none"><g id="Group 1" fill="none"><rect x="560" y="90.43806" width="582" height="402" id="Shape 1"/></g><g id="Group 1" fill="#1f3caf"><path d="M873.87,515.66806c1.46,3.8 -1.62,8.23 -5.24,9.22c-4.18,1.15 -7.77,-1.46 -9.22,-5.23l-7.41,-19.22c-1.46,-3.8 1.62,-8.23 5.24,-9.22c4.18,-1.15 7.77,1.46 9.22,5.24z" id="Path 1"/><path d="M835.91,515.66806c1.46,3.8 -1.63,8.23 -5.24,9.22c-4.18,1.15 -7.78,-1.46 -9.23,-5.23c-2.44667,-6.4 -4.90333,-12.80333 -7.37,-19.21c-1.46,-3.8 1.62,-8.23 5.24,-9.22c4.18,-1.15 7.77,1.46 9.22,5.24z" id="Path 1"/></g></g></g></g></g></svg>