<svg version="1.1" xmlns="http://www.w3.org/2000/svg" xmlns:xlink="http://www.w3.org/1999/xlink" width="510.51732" height="513.71731" viewBox="507.48268,105.28269,510.51732,513.71731"><g id="document" fill-opacity="0" fill="#ffffff" fill-rule="nonzero" stroke-opacity="0.8" stroke="#000000" stroke-width="0" stroke-linecap="butt" stroke-linejoin="miter" stroke-miterlimit="10" stroke-dasharray="" stroke-dashoffset="0" font-family="none" font-weight="none" font-size="none" text-anchor="none" style="mix-blend-mode: normal"><rect x="725.2" y="119" transform="scale(0.71429,1)" width="700" height="500" id="Shape 1 1" vector-effect="non-scaling-stroke"/></g><g fill="none" fill-rule="nonzero" stroke="none" stroke-width="1" stroke-linecap="butt" stroke-linejoin="miter" stroke-miterlimit="10" stroke-dasharray="" stroke-dashoffset="0" font-family="none" font-weight="none" font-size="none" text-anchor="none" style="mix-blend-mode: normal"><g id="stage"><g id="layer1 1"><g id="Group 1"><g id="Group 1" fill="none"><rect x="507.48268" y="105.28269" width="433.03465" height="433.03465" id="Shape 1"/></g><g id="Group 1"><path d="M736.98268,185.28269c-2.34971,5.64355 -4.29136,11.44847 -5.81,17.37c5.3702,-3.39951 10.99724,-6.37519 16.83,-8.9z" id="Path 1" fill="#231815"/><path d="M765.78268,306.11269c20.52217,4.12451 37.94642,17.58467 47.12,36.4c1.39305,2.85338 2.57619,5.80454 3.54,8.83c0.71214,2.54166 2.69834,4.52786 5.24,5.24c6.8829,1.48811 13.33624,4.52498 18.87,8.88c12.26805,9.49625 18.62847,24.75138 16.74,40.15c-0.49156,3.91817 -1.51777,7.7505 -3.05,11.39c-7.06096,16.36757 -23.08577,27.05338 -40.91,27.28c-4.78,0.06 -7.19,3.78 -7.24,7.5h-23.22l4.94,-5l11.93,-12c0.7735,-0.76938 1.35872,-1.70712 1.71,-2.74c1.55,-4.53 -1.65,-10.06 -7,-10.06h-18c1.2,-1.78 2.39667,-3.56667 3.59,-5.36c2.83333,-4.20667 5.65667,-8.42 8.47,-12.64c3.23,-4.81 -1.05,-11.28 -6.47,-11.28c-15.21,0 -30.52,-0.53 -45.72,0c-4.14,0.14 -6.52,2.28 -8.42,5.08c-1.25,1.84 -2.3,4 -3.49,6l-4.06,6.92l-10.87,18.52c-3.6,6.14667 -7.20333,12.29667 -10.81,18.45c-0.74204,1.24805 -1.09054,2.69084 -1,4.14h-17.75c0,-3.73 -2.44,-7.45 -7.24,-7.5c-24.5,-0.27 -46.36,-16.6 -52.84,-40.4c-6.33343,-24.02824 4.15956,-49.32763 25.64,-61.82c6.29244,-3.62057 13.25818,-5.91753 20.47,-6.75c5.35892,-0.62818 10.78,-0.49013 16.1,0.41c2.65849,0.43985 5.28441,1.05791 7.86,1.85c3.34,1 6.63,-0.74 8.47,-3.45c11.19419,-16.3271 28.99836,-26.90941 48.69,-28.94c6.16133,-0.62336 12.38075,-0.34035 18.46,0.84z" id="Path 1" fill="#b0b0b0"/><path d="M908.48268,356.81269l-8.47,-11l-0.53,-1.53c1.69,-0.61 3.36,-1.26 5,-2c6.82,-2.85 10.68,5.92 8.47,11c-8.92843,20.51249 -22.9398,38.4096 -40.71,52c0.58163,-6.17152 0.15267,-12.39659 -1.27,-18.43c7.74845,-7.17837 14.52279,-15.3412 20.15,-24.28c5.91791,-1.49916 11.7197,-3.42418 17.36,-5.76z" id="Path 1" fill="#231815"/><path d="M900.04267,345.79269l8.47,11c-5.63572,2.35237 -11.43417,4.2941 -17.35,5.81c3.38825,-5.36643 6.35707,-10.98646 8.88,-16.81z" id="Path 1" fill="#231815"/><path d="M899.48268,344.28269l0.55,1.48c-2.522,5.83039 -5.49084,11.45715 -8.88,16.83c-9.53126,2.45437 -19.31081,3.81646 -29.15,4.06c-4.23967,-6.15472 -9.57915,-11.47385 -15.75,-15.69c18.02042,1.84765 36.22491,-0.43689 53.23,-6.68z" id="Path 1" fill="#231815"/><path d="M876.00268,245.03269c5.58,-0.67 -1.95,7 1.38,7.91l-0.65,-0.2c-2.74337,-0.8897 -4.61667,-3.42629 -4.66,-6.31c0.63,-0.25 1.26,-0.5 1.9,-0.73c0.65095,-0.2948 1.33146,-0.5194 2.03,-0.67z" id="Path 1" fill="#231815"/><path d="M881.36268,238.47269c9.28,2.66 5.31,17.13 -4,14.47c-3.33,-0.9 4.2,-8.58 -1.38,-7.91c-0.6883,0.15263 -1.35865,0.3772 -2,0.67c-0.64,0.23 -1.27,0.48 -1.9,0.73c-0.2,-4.58 3.52,-9.51 9.28,-7.96z" id="Path 1" fill="#231815"/><path d="M891.16268,362.62269c-5.62721,8.9388 -12.40155,17.10163 -20.15,24.28c-1.70675,-7.24432 -4.75974,-14.10336 -9,-20.22c9.83919,-0.24354 19.61874,-1.60563 29.15,-4.06z" id="Path 1" fill="#f4ec90"/><path d="M872.12268,406.97269c-3.78828,29.66902 -28.88175,51.99662 -58.79,52.31c-4.88,0.06 -7.28,-3.72 -7.24,-7.5h7.24c24.24248,-0.00862 45.23257,-16.83893 50.51,-40.5c2.89333,-1.88 5.70667,-3.88 8.44,-6c-0.05,0.6 -0.09,1.14 -0.16,1.69z" id="Path 1" fill="#231815"/><path d="M872.07267,246.43269c0.04333,2.88371 1.91663,5.4203 4.66,6.31c-3.37691,-1.00926 -6.64606,-2.34908 -9.76,-4c0.64,-0.33 1.27,-0.66 1.93,-1c1.04,-0.46 2.1,-0.88 3.17,-1.31z" id="Path 1" fill="#231815"/><path d="M871.01268,386.90269c1.41723,6.01726 1.84616,12.225 1.27,18.38c-2.72667,2.10667 -5.54,4.10667 -8.44,6c1.38,-6.18179 1.61051,-12.56477 0.68,-18.83c2.22667,-1.75333 4.39,-3.60333 6.49,-5.55z" id="Path 1" fill="#231815"/><path d="M862.01268,366.68269c4.24026,6.11664 7.29325,12.97568 9,20.22c-2.08667,1.94 -4.25,3.80333 -6.49,5.59c-1.4074,-9.56635 -5.47545,-18.54446 -11.74,-25.91c3.08,0.14 6.15,0.18 9.23,0.1z" id="Path 1" fill="#231815"/><path d="M864.48268,392.49269c0.93051,6.26523 0.7,12.64821 -0.68,18.83c-3.12,2 -6.32,3.89333 -9.6,5.68c1.53223,-3.6395 2.55844,-7.47183 3.05,-11.39c0.32277,-2.6538 0.40644,-5.33123 0.25,-8c2.41333,-1.62 4.74,-3.32667 6.98,-5.12z" id="Path 1" fill="#231815"/><path d="M857.54267,397.63269c-0.80201,-12.66197 -6.99086,-24.37347 -17,-32.17c4,0.56 8.14,0.94 12.23,1.12c6.25372,7.369 10.31124,16.34681 11.71,25.91c-2.23333,1.8 -4.54667,3.51333 -6.94,5.14z" id="Path 1" fill="#231815"/><path d="M854.24268,417.00269c3.28,-1.76 6.48,-3.65333 9.6,-5.68c-5.28146,23.6571 -26.27052,40.48243 -50.51,40.49h-7.24c0.05,-3.72 2.46,-7.44 7.24,-7.5c17.83136,-0.23184 33.85809,-10.9307 40.91,-27.31z" id="Path 1" fill="#231815"/><path d="M852.78268,366.58269c-7.49522,-8.84878 -17.74778,-14.92071 -29.11,-17.24c-0.34,-1.1 -0.72,-2.2 -1.11,-3.28c7.70818,2.45879 15.65072,4.11097 23.7,4.93c6.17085,4.21615 11.51033,9.53528 15.75,15.69c-3.08,0.08 -6.15,0.04 -9.23,-0.1z" id="Path 1" fill="#231815"/><path d="M845.05267,226.86269c-0.98393,-1.84719 -1.85876,-3.75045 -2.62,-5.7c-0.52148,-1.0698 -0.91422,-2.19768 -1.17,-3.36c-0.14,-0.46 -0.27,-0.92 -0.4,-1.38h8.31c0,1.42 -1.08,3.48 -1.57,4.74c-0.76,1.94 -1.61,3.85 -2.55,5.7z" id="Path 1" fill="#231815"/><path d="M834.27268,256.58269c4.3698,3.99905 7.99888,8.73853 10.72,14c-1.54,2.8 -3.32,6.16 -3.73,9.17c-0.35,2.53 -2.15,1.38 3.75,1.38c4.86,0 4.53,1 3.54,-2.06c-0.64475,-1.966 -1.39585,-3.89551 -2.25,-5.78c-0.4,-0.91 -0.85,-1.82 -1.31,-2.71l0.59,-1.07c3.35867,-6.05449 7.91042,-11.36487 13.38,-15.61c2.50212,-1.96842 5.18008,-3.7024 8,-5.18c3.11394,1.65092 6.38309,2.99074 9.76,4l0.65,0.2c9.29,2.66 13.26,-11.81 4,-14.47c5.1397,1.44713 8.42834,6.459 7.71,11.75c-0.71,5.27 -4.47,7.67 -9.08,9.27c-9.45,3.28 -17.06,9.31 -21.8,18.22c-2,3.72 -2.42,8.45 -5.2,11.66c-3.043,3.43349 -7.94416,4.52981 -12.16,2.72c-5,-2.12 -5.66,-6.52 -7.44,-11c-1.41097,-3.58927 -3.38952,-6.9285 -5.86,-9.89c-2.87478,-3.42598 -6.33518,-6.31416 -10.22,-8.53c-3.47,-2 -7.46,-2.6 -10.9,-4.5c-4.34298,-2.38766 -6.49078,-7.43499 -5.2,-12.22c1.25,-4.54 4.71,-6.46 8.83,-7.84c8.01146,-2.51737 14.93869,-7.66522 19.66,-14.61c4.45,-6.8 5.18,-19.28 15.75,-18.87c9.91,0.38 10.56,12.28 14.88,18.87c4.97292,7.35827 12.42663,12.68236 21,15c-5.76,-1.55 -9.48,3.38 -9.29,8c-1.07,0.43 -2.13,0.87 -3.17,1.35c-0.66,0.3 -1.29,0.63 -1.93,1c-9.34288,-4.92011 -16.98283,-12.54612 -21.92,-21.88c0.94,-1.85 1.79,-3.76 2.55,-5.7c0.49,-1.26 1.58,-3.32 1.57,-4.74h-8.31c0.13,0.46 0.26,0.92 0.4,1.38c0.25578,1.16232 0.64852,2.2902 1.17,3.36c0.76124,1.94955 1.63607,3.85281 2.62,5.7c-0.63,1.22 -1.29,2.43 -2,3.59c-3.81694,5.97691 -8.77891,11.1394 -14.6,15.19c-1.6844,1.17183 -3.4487,2.2244 -5.28,3.15c-2.49311,-1.3092 -5.08426,-2.42256 -7.75,-3.33c-0.87364,-0.39389 -1.79464,-0.67288 -2.74,-0.83v4.15c-1.33333,3.38667 -1.10333,4.72 0.69,4c1.37,0 3.4,-1.11 4.7,-1.63c1.74,-0.7 3.45,-1.47 5.1,-2.32c4.01709,2.07047 7.75387,4.64455 11.12,7.66z" id="Path 1" fill="#231815"/><path d="M841.26268,279.77269c0.41,-3 2.19,-6.37 3.73,-9.17c0.46,0.89 0.91,1.8 1.31,2.71c0.85415,1.88449 1.60525,3.814 2.25,5.78c1,3.07 1.32,2.06 -3.54,2.06c-5.9,0 -4.1,1.13 -3.75,-1.38z" id="Path 1" fill="#231815"/><path d="M844.99268,270.60269c-2.72112,-5.26147 -6.3502,-10.00095 -10.72,-14c-3.36171,-3.06181 -7.10222,-5.67984 -11.13,-7.79c1.8313,-0.9256 3.5956,-1.97817 5.28,-3.15c5.82109,-4.0506 10.78306,-9.21309 14.6,-15.19c0.74,-1.16 1.4,-2.37 2,-3.59c4.93717,9.33388 12.57712,16.95989 21.92,21.88c-2.81992,1.4776 -5.49788,3.21158 -8,5.18c-5.46958,4.24513 -10.02133,9.55551 -13.38,15.61z" id="Path 1" fill="#ffffff"/><path d="M823.67268,349.34269c11.36222,2.31929 21.61478,8.39122 29.11,17.24c-4.09,-0.18 -8.18,-0.56 -12.23,-1.12c-5.53376,-4.35502 -11.9871,-7.39189 -18.87,-8.88c-2.54166,-0.71214 -4.52786,-2.69834 -5.24,-5.24c-0.96381,-3.02546 -2.14695,-5.97662 -3.54,-8.83c3.17,1.33 6.4,2.51 9.66,3.55c0.39,1.08 0.77,2.22 1.11,3.28z" id="Path 1" fill="#231815"/><path d="M830.90268,347.35269l-5.23,-5.24c1.26,0.28 2.49,0.6 3.72,1c0.54,1.37 1.09,2.79 1.51,4.24z" id="Path 1" fill="#231815"/><path d="M818.04267,251.11269c-1.3,0.52 -3.33,1.67 -4.7,1.63c-1.78667,0.75333 -2.01667,-0.58 -0.69,-4v-4.15c0.94536,0.15712 1.86636,0.43611 2.74,0.83c2.66574,0.90744 5.25689,2.0208 7.75,3.33c-1.66,0.89 -3.36,1.66 -5.1,2.36z" id="Path 1" fill="#231815"/><path d="M760.01268,297.76269c28.44452,2.62758 52.81354,21.4449 62.55,48.3c-3.26,-1 -6.49,-2.22 -9.66,-3.55c-9.17358,-18.81533 -26.59783,-32.27549 -47.12,-36.4c-2.05333,-2.71333 -3.97667,-5.49667 -5.77,-8.35z" id="Path 1" fill="#231815"/><path d="M792.48268,432.28269l1.93,4.66h-6.47z" id="Path 1" fill="#231815"/><path d="M794.48268,436.99269l-2,-4.71c3,0 6,-0.09 8.94,-0.28c-0.35128,1.03288 -0.9365,1.97062 -1.71,2.74l-11.93,12l-4.94,5h-9.32l14.42,-14.82z" id="Path 1" fill="#231815"/><path d="M789.14268,424.19269l3.34,8.09l-10.38,-1z" id="Path 1" fill="#231815"/><path d="M781.55267,431.83269c3.65,0.32 7.3,0.48 11,0.5l-4.54,4.66h-11.53z" id="Path 1" fill="#231815"/><path d="M792.48268,432.28269c-3.66,0 -7.31,-0.18 -11,-0.5l0.55,-0.55z" id="Path 1" fill="#231815"/><path d="M776.43268,421.99269h18c5.36,0 8.56,5.53 7,10.06c-3,0.19 -6,0.29 -8.94,0.28l-3.37,-8.14l-7,7.09l-11.14,-1.12z" id="Path 1" fill="#231815"/><path d="M782.02268,392.71269c5.42,0 9.7,6.47 6.47,11.28c-2.82,4.22 -5.64333,8.43333 -8.47,12.64c-2.6,-0.28 -5.2,-0.64 -7.78,-1.1l3,-7.82h6.81l-4.1,-7.14l-2.38,-4.15l-2.68,4l-37.3,-1.07l-1.37,2.39c-2.16,-1.24667 -4.26333,-2.58 -6.31,-4c1.9,-2.8 4.28,-4.94 8.42,-5.08c15.15,-0.48 30.48,0.05 45.69,0.05z" id="Path 1" fill="#231815"/><path d="M787.97268,436.99269l-14.42,14.82h-11.81l14.74,-14.82z" id="Path 1" fill="#231815"/><path d="M782.87268,451.81269l-77.39,78c0.15,-0.24 0.29,-0.49 0.43,-0.76c2.58,-5.24667 5.16333,-10.49333 7.75,-15.74l59.89,-61.53z" id="Path 1" fill="#231815"/><path d="M777.92268,400.57269l4.1,7.14h-6.81z" id="Path 1" fill="#231815"/><path d="M770.96268,430.16269l11.14,1.12l-0.55,0.55c-3.61333,-0.31333 -7.21,-0.77 -10.79,-1.37z" id="Path 1" fill="#231815"/><path d="M780.02268,416.63269c-1.18667,1.79333 -2.38333,3.58 -3.59,5.36h-6.65l2.46,-6.46c2.58,0.46 5.18,0.82 7.78,1.1z" id="Path 1" fill="#231815"/><path d="M775.54267,396.42269l2.38,4.15l-5.06,-0.14z" id="Path 1" fill="#231815"/><path d="M777.92268,400.57269l-2.71,7.14h-7.23l4.88,-7.28z" id="Path 1" fill="#231815"/><path d="M776.48268,436.99269l-14.7,14.82h-18.66c0.15363,-2.03561 -0.55094,-4.04273 -1.94322,-5.53568c-1.39228,-1.49295 -3.34541,-2.3357 -5.38678,-2.32432h-17.54l15.06,-25.67l6.17,-10.57h28.5l-4.07,6.06l-8,11.94c-0.24767,0.37392 -0.45547,0.77277 -0.62,1.19c-1.9,4.62 2.11,10.09 7.09,10.09z" id="Path 1" fill="#faee00"/><path d="M776.43268,421.99269l-5.47,8.17l-4.12,-0.42l2.94,-7.75z" id="Path 1" fill="#231815"/><path d="M775.21268,407.71269l-3,7.82c-2.79333,-0.48 -5.57,-1.06667 -8.33,-1.76l4.07,-6.06z" id="Path 1" fill="#231815"/><path d="M773.55267,451.81269l-59.89,61.53c4.25333,-8.66667 8.50667,-17.30333 12.76,-25.91c11.77333,-11.88 23.54667,-23.75333 35.32,-35.62z" id="Path 1" fill="#231815"/><path d="M755.30267,426.90269c3.81333,1.12 7.66,2.06667 11.54,2.84l2,3.54l1.89,-2.82c3.58,0.60667 7.17667,1.06333 10.79,1.37l-5.04,5.16h-14.09c-4.98,0 -8.99,-5.47 -7.09,-10.09z" id="Path 1" fill="#231815"/><path d="M772.86268,400.43269l-4.88,7.28h-22c-1.72,-0.74667 -3.41333,-1.53 -5.08,-2.35c0.27,-0.46 0.54,-0.91 0.8,-1.37l-1.63,0.94c-2,-1 -3.93,-2.06 -5.84,-3.18l1.37,-2.39z" id="Path 1" fill="#231815"/><path d="M766.84268,429.74269l4.12,0.42l-0.2,0.3c-1.28,-0.18 -2.62,-0.46 -3.92,-0.72z" id="Path 1" fill="#231815"/><path d="M770.76268,430.46269l-1.89,2.82l-2,-3.54c1.27,0.26 2.61,0.54 3.89,0.72z" id="Path 1" fill="#231815"/><path d="M769.78268,421.99269l-2.94,7.75c-1.48,-2.58 -2.96333,-5.16333 -4.45,-7.75z" id="Path 1" fill="#231815"/><path d="M766.84268,429.74269c-3.88,-0.78 -7.72667,-1.72667 -11.54,-2.84c0.16453,-0.41723 0.37233,-0.81608 0.62,-1.19l8,-11.94c2.76,0.66667 5.53667,1.25333 8.33,1.76l-2.46,6.46h-7.39c1.48,2.58 2.96,5.16333 4.44,7.75z" id="Path 1" fill="#231815"/><path d="M761.74268,451.81269c-11.76667,11.87333 -23.54,23.74667 -35.32,35.62l15.85,-32.15c0.52508,-1.06949 0.81492,-2.23908 0.85,-3.43z" id="Path 1" fill="#faee00"/><path d="M765.48268,306.05269c-6.07925,-1.18035 -12.29867,-1.46336 -18.46,-0.84c-1.43333,-2.31333 -2.78667,-4.64667 -4.06,-7c3.40634,-0.47314 6.84096,-0.7137 10.28,-0.72c2.28,0 4.54,0.12 6.76,0.32c1.79333,2.85333 3.71667,5.63667 5.77,8.35z" id="Path 1" fill="#231815"/><path d="M830.90268,347.35269c-0.46,-1.45 -1,-2.87 -1.51,-4.28c6.00873,1.72607 11.70363,4.39967 16.87,7.92c-8.04928,-0.81903 -15.99182,-2.47121 -23.7,-4.93c-9.73646,-26.8551 -34.10548,-45.67242 -62.55,-48.3c-1.56,-2.51 -3,-5.06 -4.4,-7.66c4.18412,0.07247 8.35645,0.46696 12.48,1.18c28.14,4.94 51.26,25.4 61.3,51.74c-1.23,-0.36 -2.46,-0.68 -3.72,-1z" id="Path 1" fill="#231815"/><path d="M742.97268,298.16269c-1.2,-2.24667 -2.34,-4.52667 -3.42,-6.84c5.29951,-0.93921 10.67943,-1.3479 16.06,-1.22c1.36,2.6 2.84,5.15 4.4,7.66c-2.22,-0.2 -4.48,-0.32 -6.76,-0.32c-3.43904,0.0063 -6.87366,0.24686 -10.28,0.72z" id="Path 1" fill="#231815"/><path d="M755.61268,290.10269c-5.37924,-0.1411 -10.75915,0.25418 -16.06,1.18c-12.93954,-27.70115 -15.90022,-59.02502 -8.38,-88.66c5.36777,-3.4037 10.99515,-6.37956 16.83,-8.9l1.48,0.56c-11.57903,31.37262 -9.35235,66.17861 6.13,95.82z" id="Path 1" fill="#231815"/><path d="M740.43268,180.80269c5.13,-2.22 13.88,1.63 11,8.47c-0.7,1.67 -1.36,3.36 -2,5l-1.48,-0.56l-11,-8.47l-1.15,-2.39c1.53333,-0.7 3.07667,-1.38333 4.63,-2.05z" id="Path 1" fill="#231815"/><path d="M735.79267,443.95269c2.04137,-0.01137 3.9945,0.83138 5.38678,2.32432c1.39228,1.49295 2.09685,3.50006 1.94322,5.53568h-11.43l-2.37,-4.14l-2,4.14h-13.68l4.61,-7.86z" id="Path 1" fill="#231815"/><path d="M731.69268,451.81269h11.43c-0.03508,1.19092 -0.32492,2.36051 -0.85,3.43l-15.85,32.19l-7.35,7.41l10.53,-35.89h6.19c-1.36,-2.38 -2.72667,-4.76 -4.1,-7.14z" id="Path 1" fill="#231815"/><path d="M691.86268,330.37269c11.65312,-17.54491 30.25429,-29.26754 51.11,-32.21c1.28,2.38667 2.63333,4.72 4.06,7c-19.69164,2.03059 -37.49581,12.6129 -48.69,28.94c-1.84,2.71 -5.13,4.48 -8.47,3.45c-2.57559,-0.79209 -5.20151,-1.41015 -7.86,-1.85c-0.82667,-2.66667 -1.56667,-5.33333 -2.22,-8c4.10237,0.48489 8.14587,1.37935 12.07,2.67z" id="Path 1" fill="#231815"/><path d="M741.66268,403.99269c-0.26,0.46 -0.53,0.91 -0.8,1.37l-0.83,-0.43z" id="Path 1" fill="#231815"/><path d="M740.86268,405.36269c1.67333,0.82 3.36667,1.60333 5.08,2.35h-6.46c0.46,-0.79 0.92,-1.57 1.38,-2.35z" id="Path 1" fill="#231815"/><path d="M739.48268,407.71269h-4.3l4.84,-2.78l0.83,0.43c-0.45,0.78 -0.91,1.56 -1.37,2.35z" id="Path 1" fill="#231815"/><path d="M740.03268,404.93269l-4.84,2.78h4.29l-6.17,10.57c-2.22,-1.11 -4.4,-2.3 -6.55,-3.54l7.43,-13c1.91,1.13 3.85,2.19 5.84,3.19z" id="Path 1" fill="#231815"/><path d="M735.84268,182.90269l1.15,2.38c-2.35272,5.64343 -4.29771,11.44832 -5.82,17.37c-24.82035,15.51881 -42.91586,39.78414 -50.71,68c-4.34839,16.15314 -5.10614,33.06266 -2.22,49.54c-5.12887,-0.36665 -10.28238,-0.17553 -15.37,0.57c-8.62053,-57.00992 21.00379,-112.96336 73,-137.88z" id="Path 1" fill="#231815"/><path d="M731.69268,451.81269c1.37333,2.38 2.74,4.76 4.1,7.14h-6.19z" id="Path 1" fill="#231815"/><path d="M734.19268,401.75269l-7.43,13c-2.18,-1.26 -4.33,-2.59 -6.43,-4l4.06,-6.92c1.19,-2 2.24,-4.17 3.49,-6c2.04667,1.36 4.15,2.66667 6.31,3.92z" id="Path 1" fill="#231815"/><path d="M733.31268,418.28269l-15.06,25.71h-8.26l16.77,-29.25c2.15,1.2 4.33,2.39 6.55,3.54z" id="Path 1" fill="#231815"/><path d="M729.32268,447.67269l2.37,4.14h-4.41z" id="Path 1" fill="#231815"/><path d="M731.69268,451.81269l-2.09,7.14h-5.84l3.52,-7.14z" id="Path 1" fill="#231815"/><path d="M680.48268,270.67269c7.79414,-28.21586 25.88965,-52.48119 50.71,-68c-7.51452,29.617 -4.56111,60.92102 8.36,88.61c-20.07233,3.5663 -38.11842,14.42529 -50.67,30.49c-3.50085,-0.80294 -7.05783,-1.33783 -10.64,-1.6c-2.8737,-16.46581 -2.10915,-33.36104 2.24,-49.5z" id="Path 1" fill="#f4ec90"/><path d="M729.60268,458.95269l-10.53,35.89l-13,13.11l-11.93,12c-0.40612,0.40381 -0.76815,0.84964 -1.08,1.33c10.23333,-20.78667 20.47,-41.57667 30.71,-62.37z" id="Path 1" fill="#231815"/><path d="M727.28268,451.81269l-3.52,7.14h-18.6c-3.97009,-0.06143 -7.21999,-3.1761 -7.45,-7.14h12l2,3.43l2,-3.43z" id="Path 1" fill="#231815"/><path d="M726.76268,414.70269l-16.77,29.25h-4.83l2.41,4.21l-2.09,3.65h-7.77c-0.09054,-1.44916 0.25796,-2.89195 1,-4.14c3.60667,-6.14667 7.21,-12.29667 10.81,-18.45l10.84,-18.5c2.07,1.39 4.22,2.72 6.4,3.98z" id="Path 1" fill="#231815"/><path d="M726.42268,487.43269c-4.26,8.62667 -8.51333,17.26333 -12.76,25.91v0l5.43,-18.52z" id="Path 1" fill="#231815"/><path d="M718.25268,443.95269l-4.61,7.86h-4l-2.1,-3.65l2.42,-4.21z" id="Path 1" fill="#231815"/><path d="M713.64268,451.81269l-2,3.43l-2,-3.43z" id="Path 1" fill="#231815"/><path d="M709.99268,443.95269l-2.42,4.21l-2.41,-4.21z" id="Path 1" fill="#231815"/><path d="M707.57268,448.16269l2.1,3.65h-4.19z" id="Path 1" fill="#231815"/><path d="M698.63268,532.72269c-4.39,-1 -8.29,-5.9 -5.68,-11.21c0.02728,-0.06634 0.06076,-0.12995 0.1,-0.19c0.31185,-0.48036 0.67388,-0.92619 1.08,-1.33l11.93,-12l13,-13.11l-5.43,18.52v0c-2.59333,5.24 -5.17667,10.48667 -7.75,15.74c-0.14,0.27 -0.28,0.52 -0.43,0.76l-0.75,0.75c-1.55047,1.66071 -3.82791,2.43737 -6.07,2.07z" id="Path 1" fill="#231815"/><path d="M698.63268,532.72269c2.26233,0.36305 4.55538,-0.43764 6.1,-2.13l0.75,-0.75c-1.37971,2.38684 -4.17925,3.56387 -6.85,2.88z" id="Path 1" fill="#231815"/><path d="M698.63268,532.72269c-4.8,-0.8 -8.68,-6.62 -5.58,-11.4c-0.03924,0.06005 -0.07272,0.12366 -0.1,0.19c-2.61,5.31 1.29,10.24 5.68,11.21z" id="Path 1" fill="#231815"/><path d="M693.86268,323.13269l-8.47,3.45c1.11,-1.64 2.28,-3.23 3.49,-4.77c1.67,0.38 3.33,0.81 4.98,1.32z" id="Path 1" fill="#231815"/><path d="M739.55267,291.28269c1.08,2.31333 2.22,4.59333 3.42,6.84c-20.85571,2.94246 -39.45688,14.66509 -51.11,32.21c-3.92589,-1.27368 -7.96936,-2.15138 -12.07,-2.62c-0.6,-2.49 -1.12,-5 -1.55,-7.54c3.58217,0.26217 7.13915,0.79706 10.64,1.6c-1.21,1.54 -2.38,3.13 -3.49,4.77l8.47,-3.45c-1.65,-0.51 -3.31,-0.94 -5,-1.32c12.55649,-16.0689 30.61042,-26.92832 50.69,-30.49z" id="Path 1" fill="#231815"/><path d="M679.79267,327.75269c0.66667,2.66667 1.40667,5.33333 2.22,8c-5.32,-0.90013 -10.74108,-1.03818 -16.1,-0.41c-0.66667,-2.45333 -1.25667,-4.92 -1.77,-7.4c5.18723,-0.73034 10.44657,-0.7942 15.65,-0.19z" id="Path 1" fill="#231815"/><path d="M678.24268,320.21269c0.43,2.53 1,5.05 1.55,7.54c-5.20343,-0.6042 -10.46277,-0.54034 -15.65,0.19c-0.49,-2.38 -0.91,-4.76 -1.27,-7.16c5.08762,-0.74553 10.24113,-0.93665 15.37,-0.57z" id="Path 1" fill="#231815"/><path d="M672.68268,444.28269c4.8,0.05 7.21,3.77 7.24,7.5h-7.24c-32.70411,-0.00466 -59.82437,-25.32316 -62.07376,-57.94982c-2.24939,-32.62666 21.13972,-61.42744 53.53376,-65.92018c0.52,2.48 1.11,4.94667 1.77,7.4c-7.20024,0.84703 -14.15198,3.15407 -20.43,6.78c-21.46519,12.50437 -31.94068,37.80106 -25.6,61.82c6.44,23.8 28.3,40.13 52.8,40.37z" id="Path 1" fill="#231815"/><path d="M610.48268,389.57269c0,34.3703 27.8597,62.23448 62.23,62.24h7.24c0,3.77 -2.38,7.55 -7.24,7.5c-17.56582,-0.12681 -34.461,-6.7609 -47.42,-18.62c-23.31,-21.41 -28.81,-57.13 -13.69,-84.78c10.63785,-19.09986 29.61782,-32.10486 51.27,-35.13c0.36,2.4 0.78,4.78 1.27,7.16c-30.76091,4.2726 -53.66082,30.57379 -53.66,61.63z" id="Path 1" fill="#231815"/></g></g><g id="Group 1"><g id="Group 1" fill="none"><rect x="916.24487" y="416.9408" transform="scale(0.65985,0.65985)" width="582" height="402" id="Shape 1"/></g><g id="Group 1"><path d="M827.01061,523.38301h-11.45505v-4.84332l1.97956,-1.14155c0.50809,0.26394 0.99638,0.52128 1.43848,0.77863l5.57576,3.23988c0.74326,0.44951 1.59273,0.69319 2.46125,0.70604z" id="Path 1" fill="#ffffff"/><path d="M770.24343,521.41664l5.56916,-3.23988c0.4355,-0.25074 0.93039,-0.50809 1.44508,-0.77863l2.10493,1.22073v4.76414h-11.58702v-1.26032c0.87096,-0.01041 1.72318,-0.25423 2.46785,-0.70604z" id="Path 1" fill="#ffffff"/><path d="M825.67111,501.27132c5.52957,-3.19369 10.50487,5.36461 4.99509,8.5451l-3.20029,1.84759l2.07854,1.20093c4.66516,2.712 1.8014,9.23795 -2.53384,9.23795c-0.86852,-0.01286 -1.71799,-0.25654 -2.46125,-0.70604l-5.57576,-3.23988c-0.4421,-0.25734 -0.93039,-0.51469 -1.43848,-0.77863l-1.97956,1.14155v4.84332h-9.8978v-4.82353c-1.10855,-0.63346 -2.20831,-1.27132 -3.29927,-1.91357l-1.63644,-0.94359l-3.24648,-1.87398l-0.06599,0.03959l-3.24648,1.87398l-1.70242,0.98318l-3.18709,1.83439v4.84332h-9.8978v-4.77734l-2.10493,-1.22073c-0.51469,0.27054 -1.00958,0.52788 -1.44508,0.77863l-5.56916,3.23988c-0.74467,0.45182 -1.5969,0.69564 -2.46785,0.70604c-4.34184,0 -7.1924,-6.54575 -2.53384,-9.23795l2.07854,-1.20093l-3.19369,-1.84759c-5.52297,-3.18709 -0.53448,-11.73879 4.99509,-8.5451l3.1475,1.8212c0,-0.79182 0,-1.58365 0,-2.37547c0,-6.38078 9.8978,-6.36758 9.8978,0v6.44677c0,0.51469 0,1.08216 0.04619,1.65623l2.04555,1.18774l4.98849,-2.87696c0.93039,-0.54108 2.03895,-1.31971 3.21349,-2.05214v-2.16432c-0.50809,-0.31673 -0.98978,-0.62686 -1.44508,-0.8842l-5.64175,-3.22668c-5.52957,-3.1673 -0.54108,-11.719 4.99509,-8.5451l2.03895,1.16794v-3.51042c-0.03955,-1.42353 0.56871,-2.78818 1.65384,-3.71041c1.08513,-0.92223 2.52999,-1.3025 3.92852,-1.03394c2.48089,0.16231 4.38823,2.25921 4.31544,4.74435v3.51042l2.03235,-1.16794c5.54277,-3.17389 10.51806,5.3778 4.99509,8.5451l-5.58896,3.21349c-0.4553,0.25734 -0.93699,0.56747 -1.43848,0.8842v2.06534c1.31971,0.80502 2.58003,1.70902 3.62259,2.30949l4.61897,2.679l1.97956,-1.14155c0,-0.59387 0.04619,-1.16134 0.04619,-1.66283v-6.44677c0,-6.38078 9.8978,-6.36758 9.8978,0c0,0.79182 0,1.58365 0,2.36887z" id="Path 1" fill="#1f3caf"/><path d="M830.53423,535.95348c5.52297,3.18709 0.52788,11.73879 -4.99509,8.57809l-3.02213,-1.74861c0,0.79182 0,1.58365 0,2.37547c0,6.38078 -9.8978,6.36758 -9.8978,0v-6.44677c0,-0.51469 0,-1.08216 -0.04619,-1.65623l-2.04555,-1.18774l-4.85652,2.80438c-0.96998,0.56088 -2.12473,1.37909 -3.33886,2.13133v2.10493c0.50149,0.31673 0.98978,0.62686 1.43848,0.8842l5.58896,3.21349c5.52957,3.1673 0.54108,11.719 -4.99509,8.5451l-2.03235,-1.16794v3.70178c0,6.38078 -9.8978,6.36758 -9.8978,0v-3.66219l-2.03895,1.16794c-5.53617,3.17389 -10.51806,-5.3778 -4.99509,-8.5451l5.58896,-3.21349c0.4553,-0.25734 0.93699,-0.56747 1.44508,-0.8842v-2.21711c-1.28012,-0.79182 -2.48765,-1.64963 -3.49722,-2.2369l-4.61897,-2.67241l-2.10493,1.21413c0,0.59387 -0.05279,1.15474 -0.05279,1.66283v6.44677c0,6.38078 -9.8978,6.36758 -9.8978,0c0,-0.79182 0,-1.58365 0,-2.37547l-3.01553,1.74861c-5.53617,3.19369 -10.51146,-5.36461 -5.00169,-8.57809l3.06832,-1.76841l-2.07194,-1.16134c-4.66516,-2.712 -1.8014,-9.23795 2.53384,-9.23795c0.87063,0.01264 1.72228,0.25629 2.46785,0.70604l5.56916,3.23988c0.4421,0.25734 0.93699,0.51469 1.43848,0.77863l2.11153,-1.22073v-4.61897h9.8978v4.61897l3.18709,1.77501l1.76841,1.01617l3.18049,1.84099l0.06599,0.03959l3.18049,-1.84099l1.70242,-0.98318l3.24648,-1.87398l0.06599,-0.03959v-4.61897h9.8978v4.69816l1.97956,1.14155c0.51469,-0.27054 1.00958,-0.52788 1.43848,-0.77863l5.57576,-3.23988c0.74428,-0.45272 1.59675,-0.69661 2.46785,-0.70604c4.33524,0 7.1858,6.54575 2.52724,9.23795l-2.07854,1.20093z" id="Path 1" fill="#1f3caf"/></g></g></g></g></g></svg>