<svg version="1.1" xmlns="http://www.w3.org/2000/svg" xmlns:xlink="http://www.w3.org/1999/xlink" width="592.56" height="500" viewBox="518,119,592.56,500"><g id="document" fill-opacity="0" fill="#ffffff" fill-rule="nonzero" stroke-opacity="0.8" stroke="#000000" stroke-width="0" stroke-linecap="butt" stroke-linejoin="miter" stroke-miterlimit="10" stroke-dasharray="" stroke-dashoffset="0" font-family="none" font-weight="none" font-size="none" text-anchor="none" style="mix-blend-mode: normal"><rect x="725.2" y="119" transform="scale(0.71429,1)" width="700" height="500" id="Shape 1 1" vector-effect="non-scaling-stroke"/></g><g fill="none" fill-rule="nonzero" stroke="none" stroke-width="1" stroke-linecap="butt" stroke-linejoin="miter" stroke-miterlimit="10" stroke-dasharray="" stroke-dashoffset="0" font-family="none" font-weight="none" font-size="none" text-anchor="none" style="mix-blend-mode: normal"><g id="stage"><g id="layer1 1"><g id="Group 1" stroke="none"><g id="Group 1" fill="none"><rect x="952.35405" y="369.11869" transform="scale(0.65985,0.65985)" width="582" height="402" id="Shape 1"/></g><g id="Group 1"><path d="M850.83738,491.82743h-11.45505v-4.84332l1.97956,-1.14155c0.50809,0.26394 0.99638,0.52128 1.43848,0.77863l5.57576,3.23988c0.74326,0.44951 1.59273,0.69319 2.46125,0.70604z" id="Path 1" fill="#ffffff"/><path d="M794.07019,489.86106l5.56916,-3.23988c0.4355,-0.25074 0.93039,-0.50809 1.44508,-0.77863l2.10493,1.22073v4.76414h-11.58702v-1.26032c0.87096,-0.01041 1.72318,-0.25423 2.46785,-0.70604z" id="Path 1" fill="#ffffff"/><path d="M849.49787,469.71574c5.52957,-3.19369 10.50487,5.36461 4.99509,8.5451l-3.20029,1.84759l2.07854,1.20093c4.66516,2.712 1.8014,9.23795 -2.53384,9.23795c-0.86852,-0.01286 -1.71799,-0.25654 -2.46125,-0.70604l-5.57576,-3.23988c-0.4421,-0.25734 -0.93039,-0.51469 -1.43848,-0.77863l-1.97956,1.14155v4.84332h-9.8978v-4.82353c-1.10855,-0.63346 -2.20831,-1.27132 -3.29927,-1.91357l-1.63644,-0.94359l-3.24648,-1.87398l-0.06599,0.03959l-3.24648,1.87398l-1.70242,0.98318l-3.18709,1.83439v4.84332h-9.8978v-4.77734l-2.10493,-1.22073c-0.51469,0.27054 -1.00958,0.52788 -1.44508,0.77863l-5.56916,3.23988c-0.74467,0.45182 -1.5969,0.69564 -2.46785,0.70604c-4.34184,0 -7.1924,-6.54575 -2.53384,-9.23795l2.07854,-1.20093l-3.19369,-1.84759c-5.52297,-3.18709 -0.53448,-11.73879 4.99509,-8.5451l3.1475,1.8212c0,-0.79182 0,-1.58365 0,-2.37547c0,-6.38078 9.8978,-6.36758 9.8978,0v6.44677c0,0.51469 0,1.08216 0.04619,1.65623l2.04555,1.18774l4.98849,-2.87696c0.93039,-0.54108 2.03895,-1.31971 3.21349,-2.05214v-2.16432c-0.50809,-0.31673 -0.98978,-0.62686 -1.44508,-0.8842l-5.64175,-3.22668c-5.52957,-3.1673 -0.54108,-11.719 4.99509,-8.5451l2.03895,1.16794v-3.51042c-0.03955,-1.42353 0.56871,-2.78818 1.65384,-3.71041c1.08513,-0.92223 2.52999,-1.3025 3.92852,-1.03394c2.48089,0.16231 4.38823,2.25921 4.31544,4.74435v3.51042l2.03235,-1.16794c5.54277,-3.17389 10.51806,5.3778 4.99509,8.5451l-5.58896,3.21349c-0.4553,0.25734 -0.93699,0.56747 -1.43848,0.8842v2.06534c1.31971,0.80502 2.58003,1.70902 3.62259,2.30949l4.61897,2.679l1.97956,-1.14155c0,-0.59387 0.04619,-1.16134 0.04619,-1.66283v-6.44677c0,-6.38078 9.8978,-6.36758 9.8978,0c0,0.79182 0,1.58365 0,2.36887z" id="Path 1" fill="#1f3caf"/><path d="M854.36099,504.3979c5.52297,3.18709 0.52788,11.73879 -4.99509,8.57809l-3.02213,-1.74861c0,0.79182 0,1.58365 0,2.37547c0,6.38078 -9.8978,6.36758 -9.8978,0v-6.44677c0,-0.51469 0,-1.08216 -0.04619,-1.65623l-2.04555,-1.18774l-4.85652,2.80438c-0.96998,0.56088 -2.12473,1.37909 -3.33886,2.13133v2.10493c0.50149,0.31673 0.98978,0.62686 1.43848,0.8842l5.58896,3.21349c5.52957,3.1673 0.54108,11.719 -4.99509,8.5451l-2.03235,-1.16794v3.70178c0,6.38078 -9.8978,6.36758 -9.8978,0v-3.66219l-2.03895,1.16794c-5.53617,3.17389 -10.51806,-5.3778 -4.99509,-8.5451l5.58896,-3.21349c0.4553,-0.25734 0.93699,-0.56747 1.44508,-0.8842v-2.21711c-1.28012,-0.79182 -2.48765,-1.64963 -3.49722,-2.2369l-4.61897,-2.67241l-2.10493,1.21413c0,0.59387 -0.05279,1.15474 -0.05279,1.66283v6.44677c0,6.38078 -9.8978,6.36758 -9.8978,0c0,-0.79182 0,-1.58365 0,-2.37547l-3.01553,1.74861c-5.53617,3.19369 -10.51146,-5.36461 -5.00169,-8.57809l3.06832,-1.76841l-2.07194,-1.16134c-4.66516,-2.712 -1.8014,-9.23795 2.53384,-9.23795c0.87063,0.01264 1.72228,0.25629 2.46785,0.70604l5.56916,3.23988c0.4421,0.25734 0.93699,0.51469 1.43848,0.77863l2.11153,-1.22073v-4.61897h9.8978v4.61897l3.18709,1.77501l1.76841,1.01617l3.18049,1.84099l0.06599,0.03959l3.18049,-1.84099l1.70242,-0.98318l3.24648,-1.87398l0.06599,-0.03959v-4.61897h9.8978v4.69816l1.97956,1.14155c0.51469,-0.27054 1.00958,-0.52788 1.43848,-0.77863l5.57576,-3.23988c0.74428,-0.45272 1.59675,-0.69661 2.46785,-0.70604c4.33524,0 7.1858,6.54575 2.52724,9.23795l-2.07854,1.20093z" id="Path 1" fill="#1f3caf"/></g></g><g id="Group 1"><g id="Group 1" fill="none" stroke="none"><rect x="528.56" y="149.31002" width="582" height="402" id="Shape 1"/></g><g id="Group 1"><path d="M803.86676,271.31002c-0.56538,1.08316 -0.8572,2.28818 -0.85,3.51c0,-1.31 -0.05,-2.6 -0.12,-3.89z" id="Path 1" fill="#231815" stroke="none"/><path d="M646.93676,309.07002c1.0859,2.39205 2.29074,4.7283 3.61,7c-3.65771,3.9582 -6.79017,8.3712 -9.32,13.13c-1,-1.44 -1.94,-2.9 -2.86,-4.41c-0.57,-0.94 -1.11,-1.89 -1.65,-2.85c2.87245,-4.68836 6.3043,-9.01008 10.22,-12.87z" id="Path 1" fill="#231815" stroke="none"/><path d="M802.00676,262.68002c0.42667,2.72 0.72333,5.48 0.89,8.28c-29.8299,-11.26371 -63.52034,-2.08164 -83.51,22.76l-2,-1.83c-1.65,-0.51 -3.31,-0.94 -5,-1.32c18.72085,-24.05157 49.20582,-35.78071 79.22,-30.48c3.52394,0.61448 6.99946,1.48002 10.4,2.59z" id="Path 1" fill="#231815" stroke="none"/><path d="M854.45676,316.11002l-5.24,-5.24c1.26,0.27 2.5,0.6 3.73,0.95c0.53,1.42 1.05,2.84 1.51,4.29z" id="Path 1" fill="#231815" stroke="none"/><path d="M638.38676,324.81002c0.92,1.51 1.88,3 2.86,4.41c-10.20863,19.28861 -9.56721,42.51534 1.69039,61.21115c11.2576,18.69581 31.48607,30.12828 53.30961,30.12885h7.24c0,3.78 -2.38,7.56 -7.24,7.5c-17.56705,-0.11075 -34.46668,-6.74302 -47.42,-18.61c-23.29,-21.42 -28.83,-57.13 -13.66,-84.79c0.5,-0.91 1,-1.82 1.56,-2.7c0.53,0.96 1.07,1.91 1.66,2.85z" id="Path 1" fill="#231815" stroke="none"/><path d="M802.89676,270.96002c0.07,1.29 0.11,2.58 0.12,3.89c0.01,1.31 -0.07,2.85 -0.15,4.27c-4.43748,-1.93158 -9.07119,-3.37668 -13.82,-4.31c-25.74,-5 -52.51,6.56 -67.16,28.1c-1.84,2.71 -5.13,4.47 -8.47,3.45c-14.89,-4.6 -30.85,-3.34 -44.43,4.49c-5.3543,3.09459 -10.13995,7.08207 -14.15,11.79c-1.54,-2.13 -3,-4.31 -4.29,-6.55c16.47958,-17.79607 41.78053,-24.4265 64.87,-17c1.24,-1.86 2.57333,-3.66 4,-5.4c19.99266,-24.8505 53.6944,-34.03344 83.53,-22.76z" id="Path 1" fill="#231815" stroke="none"/><path d="M803.86676,271.31002c4.68981,1.87183 9.17637,4.21731 13.39,7c-1.64,3.24 -5.6,4.39 -8.94,3.48c-0.94,-0.52 -1.91,-1 -2.88,-1.48c-1.57881,-1.36505 -2.46615,-3.36341 -2.42,-5.45c-0.01377,-1.23532 0.27823,-2.45487 0.85,-3.55z" id="Path 1" fill="#231815" stroke="none"/><path d="M802.00676,262.68002c5.52891,1.79721 10.83878,4.20896 15.83,7.19c0.09,1.48 0.16,3 0.17,4.46c-0.39,-7.83 -11,-8.82 -14.14,-3l-1,-0.38c-0.14,-2.79333 -0.42667,-5.55 -0.86,-8.27z" id="Path 1" fill="#231815" stroke="none"/><path d="M719.02676,420.56002h45.43c-0.01725,1.24559 -0.31099,2.47179 -0.86,3.59l-15.85,32.16c11.82,-11.93333 23.64667,-23.86 35.48,-35.78h21.16c-25.84,26.06667 -51.68333,52.13 -77.53,78.19c-1.38793,2.38309 -4.18688,3.55816 -6.86,2.88c-4.8,-0.8 -8.68,-6.62 -5.58,-11.4l30.71,-62.37h-18.64c-4.02164,-0.06033 -7.29596,-3.25125 -7.46,-7.27z" id="Path 1" fill="#231815" stroke="none"/><path d="M720.00676,416.58002l10.82,-18.45c4.96,-8.48 9.92333,-16.95333 14.89,-25.42c1,-1.68 1.86,-3.41 2.83,-5c2,-3.29 4.45,-5.94 9.08,-6.11c2.27333,-0.06667 4.54667,-0.12 6.82,-0.16c13,-0.21 26,0.16 38.9,0.16c5.42,0 9.7,6.47 6.48,11.29l-12.06,18h18c6.52,0 9.87,8.2 5.3,12.8l-11.93,12c-1.6,1.61 -3.19,3.22 -4.79,4.82h-21.12l14.54,-14.66h-14c-5.42,0 -9.71,-6.47 -6.48,-11.29l12.06,-18h-28.53l-21.24,36.25h17.55c2.01262,-0.0113 3.94062,0.80885 5.32832,2.2666c1.38771,1.45776 2.11199,3.42377 2.00168,5.4334h-45.43c-0.055,-1.37667 0.28505,-2.74034 0.98,-3.93z" id="Path 1" fill="#231815" stroke="none"/><path d="M808.31676,281.78002c3.34,0.91 7.3,-0.24 8.94,-3.48c0.21,0.15 0.43,0.29 0.65,0.43c-0.14,2.95 -0.42,5.88 -0.82,8.78c-2.76789,-2.13795 -5.70034,-4.05391 -8.77,-5.73z" id="Path 1" fill="#231815" stroke="none"/><path d="M717.38676,291.89002l2,1.83c-1.39333,1.74 -2.72667,3.54 -4,5.4c-2.25753,-0.72665 -4.55458,-1.32429 -6.88,-1.79l0.4,-2z" id="Path 1" fill="#231815" stroke="none"/><path d="M803.01676,274.85002c-0.04615,2.08659 0.84119,4.08495 2.42,5.45c-0.85,-0.41 -1.71,-0.81 -2.57,-1.18c0.08,-1.42 0.14,-2.81 0.15,-4.27z" id="Path 1" fill="#231815" stroke="none"/><path d="M633.99676,358.31002c-0.01211,-10.14923 2.47073,-20.14584 7.23,-29.11c1.62,2.37 3.34,4.65 5.14,6.84c-5.19895,11.49041 -6.259,24.4265 -3,36.61c6.47,23.8 28.33,40.12 52.84,40.39c4.79,0.06 7.2,3.78 7.24,7.5h-7.24c-34.36087,-0.01104 -62.21,-27.86913 -62.21,-62.23z" id="Path 1" fill="#231815" stroke="none"/><path d="M712.38676,290.57002c1.67,0.38 3.33,0.81 5,1.32l-8.45,3.42c1.12,-1.62 2.27,-3.2 3.45,-4.74z" id="Path 1" fill="#231815" stroke="none"/><path d="M815.76676,390.90002h-18l12.06,-18c3.22,-4.82 -1.06,-11.29 -6.48,-11.29c-12.94,0 -25.95,-0.37 -38.9,-0.16c-2.28,0.04 -4.55333,0.09333 -6.82,0.16c-4.63,0.17 -7.06,2.82 -9.08,6.11c-1,1.58 -1.85,3.31 -2.83,5c-4.96667,8.46667 -9.93,16.94 -14.89,25.42l-10.82,18.45c-0.71505,1.20779 -1.06256,2.59781 -1,4h-15.53c0,-3.72 -2.45,-7.44 -7.24,-7.5c-24.51,-0.27 -46.37,-16.59 -52.84,-40.39c-3.259,-12.1835 -2.19895,-25.11959 3,-36.61c2.16567,-4.8561 5.01818,-9.37565 8.47,-13.42c4.01005,-4.70793 8.7957,-8.69541 14.15,-11.79c13.58,-7.83 29.54,-9.09 44.43,-4.49c3.34,1 6.63,-0.74 8.47,-3.45c14.65,-21.54 41.42,-33.14 67.16,-28.1c4.74881,0.93332 9.38252,2.37842 13.82,4.31c0.86,0.37 1.72,0.77 2.57,1.18c0.85,0.41 1.94,1 2.88,1.48c15.07163,8.24495 26.40678,21.95666 31.67,38.31c0.70508,2.54578 2.69422,4.53492 5.24,5.24c22.53,4.89 38.5,25.75 35.61,49c-2.74,22.1 -22,38.41 -44,38.7c-4.78,0.07 -7.19,3.79 -7.24,7.5h-25.24c1.6,-1.6 3.19,-3.21 4.79,-4.82l11.93,-12c4.53,-4.64 1.18,-12.84 -5.34,-12.84z" id="Path 1" fill="#b0b0b0" stroke="none"/><path d="M789.30676,376.61002l-12.06,18c-3.23,4.82 1.06,11.29 6.48,11.29h14l-14.54,14.66h-18.73c0.11031,-2.00963 -0.61397,-3.97564 -2.00168,-5.4334c-1.38771,-1.45776 -3.3157,-2.2779 -5.32832,-2.2666h-17.55l21.24,-36.25z" id="Path 1" fill="#faee00" stroke="none"/><path d="M818.01676,274.92002c0,0.14 0,0.28 0,0.42c0,-0.14 0,-0.28 0,-0.42z" id="Path 1" fill="#231815" stroke="none"/><path d="M650.54676,316.09002c1.31,2.24 2.75,4.42 4.29,6.55c-3.44477,4.04561 -6.29051,8.5651 -8.45,13.42c-1.8,-2.19 -3.52,-4.47 -5.14,-6.84c2.52362,-4.75768 5.64931,-9.17063 9.3,-13.13z" id="Path 1" fill="#231815" stroke="none"/><path d="M817.25676,278.31002c0.44457,-0.89852 0.69985,-1.87877 0.75,-2.88c0,1.11 -0.05,2.21 -0.1,3.31c-0.22,-0.15 -0.44,-0.29 -0.65,-0.43z" id="Path 1" fill="#231815" stroke="none"/><path d="M836.87676,420.56002c26.57719,0.01403 48.84419,-20.10631 51.5153,-46.54893c2.6711,-26.44262 -15.12221,-50.60966 -41.1653,-55.91107c-5.00915,-16.07709 -15.35184,-29.96494 -29.32,-39.37c0.05,-1.1 0.09,-2.2 0.1,-3.31v-0.11c0,-0.14 0,-0.28 0,-0.42v-0.07c0,-0.18 0,-0.35 0,-0.52c0,-1.5 -0.08,-3 -0.17,-4.46c16.07255,9.65503 28.43688,24.42813 35.11,41.95c-1.23,-0.35 -2.47,-0.68 -3.73,-0.95l5.24,5.24c-0.46,-1.45 -1,-2.87 -1.51,-4.29c27.42,7.88 46.27,35.15 42.73,63.9c-3.77507,29.68463 -28.8779,52.02956 -58.8,52.34c-4.87,0.07 -7.28,-3.71 -7.24,-7.5z" id="Path 1" fill="#231815" stroke="none"/><path d="M650.54676,316.09002c-1.31926,-2.2717 -2.5241,-4.60795 -3.61,-7c17.25229,-16.89383 41.9037,-23.8693 65.45,-18.52c-1.21333,1.54 -2.37667,3.13 -3.49,4.77l-0.4,2c-21.28261,-4.30036 -43.26717,2.81051 -58,18.76z" id="Path 1" fill="#231815" stroke="none"/><path d="M803.86676,271.31002c3.1,-5.83 13.75,-4.84 14.14,3c0,0.17 0,0.34 0,0.52v0.07c0,0.14 0,0.28 0,0.42v0.08c-0.05015,1.00123 -0.30543,1.98148 -0.75,2.88c-4.21489,-2.77231 -8.70141,-5.10772 -13.39,-6.97z" id="Path 1" fill="#231815" stroke="none"/><path d="M888.62676,368.82002c0,13.72403 -5.45254,26.88582 -15.15783,36.58924c-9.7053,9.70342 -22.86814,15.15341 -36.59217,15.15076h-7.24c0,-3.71 2.46,-7.43 7.24,-7.5c22,-0.29 41.22,-16.6 44,-38.7c2.89,-23.28 -13.08,-44.14 -35.61,-49c-2.54578,-0.70508 -4.53492,-2.69422 -5.24,-5.24c-4.14053,-12.93708 -12.12949,-24.30303 -22.9,-32.58c0.4,-2.9 0.68,-5.83 0.82,-8.78c13.96816,9.40506 24.31085,23.29291 29.32,39.37c24.06887,4.94072 41.34929,26.11926 41.36,50.69z" id="Path 1" fill="#231815" stroke="none"/><path d="M783.22676,420.56002c-11.82667,11.92667 -23.65333,23.84333 -35.48,35.75l15.85,-32.19c0.54901,-1.11821 0.84275,-2.34441 0.86,-3.59z" id="Path 1" fill="#faee00" stroke="none"/><path d="M636.71676,321.96002c-0.54,0.88 -1.06,1.79 -1.56,2.7c-15.17,27.66 -9.63,63.37 13.66,84.79c12.95332,11.86698 29.85295,18.49925 47.42,18.61c4.86,0.06 7.27,-3.72 7.24,-7.5" id="Path 1" fill="none" stroke="#231815"/><path d="M712.38676,290.57002c-23.55554,-5.36893 -48.22515,1.59989 -65.49,18.5" id="Path 1" fill="none" stroke="#231815"/><path d="M802.00676,262.68002c-3.38748,-1.10814 -6.84957,-1.97366 -10.36,-2.59c-30.02728,-5.31647 -60.53185,6.41428 -79.26,30.48" id="Path 1" fill="none" stroke="#231815"/><path d="M829.63676,420.56002c0,3.79 2.37,7.57 7.24,7.5c29.9221,-0.31044 55.02493,-22.65537 58.8,-52.34c3.54,-28.75 -15.31,-56 -42.73,-63.9" id="Path 1" fill="none" stroke="#231815"/><path d="M852.94676,311.82002c-6.67312,-17.52187 -19.03745,-32.29497 -35.11,-41.95" id="Path 1" fill="none" stroke="#231815"/><path d="M852.94676,311.82002c0.53,1.42 1,2.84 1.51,4.29l-5.24,-5.24c1.26,0.27 2.5,0.6 3.73,0.95z" id="Path 1" fill="none" stroke="#231815"/><path d="M717.38676,291.89002c-1.65,-0.51 -3.31,-0.94 -5,-1.32c-1.21333,1.54 -2.37667,3.13 -3.49,4.77z" id="Path 1" fill="none" stroke="#231815"/><path d="M818.00676,274.31002c0,-1.5 -0.08,-3 -0.17,-4.46c-4.99122,-2.98104 -10.30109,-5.39279 -15.83,-7.19c0.42667,2.72 0.72333,5.48 0.89,8.28" id="Path 1" fill="none" stroke="#231815"/><path d="M803.86676,271.31002c3.1,-5.83 13.75,-4.84 14.14,3" id="Path 1" fill="none" stroke="#231815"/><path d="M650.54676,316.09002c-1.31926,-2.2717 -2.5241,-4.60795 -3.61,-7c-3.91699,3.86614 -7.34889,8.19463 -10.22,12.89c0.54,1 1.08,1.91 1.65,2.85c0.92,1.51 1.88,3 2.86,4.41" id="Path 1" fill="none" stroke="#231815"/><path d="M818.00676,274.31002c0,0.17 0,0.34 0,0.52v0.07" id="Path 1" fill="none" stroke="#231815"/><path d="M818.00676,275.31002c0,-0.14 0,-0.28 0,-0.42" id="Path 1" fill="none" stroke="#231815"/><path d="M818.00676,275.31002v0.08" id="Path 1" fill="none" stroke="#231815"/><path d="M817.90676,278.73002c0.05,-1.1 0.09,-2.2 0.1,-3.31" id="Path 1" fill="none" stroke="#231815"/><path d="M817.08677,287.51002c10.77051,8.27697 18.75947,19.64292 22.9,32.58c0.70508,2.54578 2.69422,4.53492 5.24,5.24c22.53,4.89 38.5,25.75 35.61,49c-2.74,22.1 -22,38.41 -44,38.7c-4.78,0.07 -7.19,3.79 -7.24,7.5h7.24c26.57719,0.01403 48.84419,-20.10631 51.5153,-46.54893c2.6711,-26.44262 -15.12221,-50.60966 -41.1653,-55.91107c-5.00915,-16.07709 -15.35184,-29.96494 -29.32,-39.37" id="Path 1" fill="none" stroke="#231815"/><path d="M802.89676,270.96002c-29.8299,-11.26371 -63.52034,-2.08164 -83.51,22.76c-1.39333,1.74 -2.72667,3.54 -4,5.4c-2.25753,-0.72665 -4.55458,-1.32429 -6.88,-1.79c-21.28261,-4.30036 -43.26717,2.81051 -58,18.76" id="Path 1" fill="none" stroke="#231815"/><path d="M654.83676,322.64002c4.01005,-4.70793 8.7957,-8.69541 14.15,-11.79c13.58,-7.83 29.54,-9.09 44.43,-4.49c3.34,1 6.63,-0.74 8.47,-3.45c14.65,-21.54 41.42,-33.14 67.16,-28.1c4.74881,0.93332 9.38252,2.37842 13.82,4.31" id="Path 1" fill="none" stroke="#231815"/><path d="M641.22676,329.22002c-10.20863,19.28861 -9.56721,42.51534 1.69039,61.21115c11.2576,18.69581 31.48607,30.12828 53.30961,30.12885h7.24c0,-3.72 -2.45,-7.44 -7.24,-7.5c-24.51,-0.27 -46.37,-16.59 -52.84,-40.39c-3.259,-12.1835 -2.19895,-25.11959 3,-36.61" id="Path 1" fill="none" stroke="#231815"/><path d="M817.25676,278.31002c-4.21363,-2.78269 -8.70019,-5.12817 -13.39,-7" id="Path 1" fill="none" stroke="#231815"/><path d="M805.43676,280.31002c1,0.47 1.94,1 2.88,1.48" id="Path 1" fill="none" stroke="#231815"/><path d="M650.54676,316.09002c-3.65771,3.9582 -6.79017,8.3712 -9.32,13.13c1.62,2.37 3.34,4.65 5.14,6.84c2.16567,-4.8561 5.01818,-9.37565 8.47,-13.42c-1.54,-2.13 -2.98,-4.33 -4.29,-6.55z" id="Path 1" fill="none" stroke="#231815"/><path d="M803.86676,271.31002l-1,-0.38c0.07,1.29 0.11,2.58 0.12,3.89c0.00205,-1.22434 0.3042,-2.42951 0.88,-3.51z" id="Path 1" fill="none" stroke="#231815"/><path d="M803.01676,274.85002c0,1.42 -0.07,2.85 -0.15,4.27c0.86,0.37 1.72,0.77 2.57,1.18c-1.57881,-1.36505 -2.46615,-3.36341 -2.42,-5.45z" id="Path 1" fill="none" stroke="#231815"/><path d="M808.31676,281.78002c3.06966,1.67609 6.00211,3.59205 8.77,5.73c0.4,-2.9 0.68,-5.83 0.82,-8.78c-0.22,-0.14 -0.44,-0.28 -0.65,-0.43c-1.64,3.24 -5.6,4.39 -8.94,3.48z" id="Path 1" fill="none" stroke="#231815"/><path d="M804.38676,420.56002c1.6,-1.6 3.19,-3.21 4.79,-4.82l11.93,-12c4.57,-4.6 1.22,-12.8 -5.3,-12.8h-18l12.06,-18c3.22,-4.82 -1.06,-11.29 -6.48,-11.29c-12.94,0 -25.95,-0.37 -38.9,-0.16c-2.28,0.04 -4.55333,0.09333 -6.82,0.16c-4.63,0.17 -7.06,2.82 -9.08,6.11c-1,1.58 -1.85,3.31 -2.83,5c-4.96667,8.46667 -9.93,16.94 -14.89,25.42l-10.82,18.45c-0.71505,1.20779 -1.06256,2.59781 -1,4c0.14852,4.03051 3.42722,7.23888 7.46,7.3h18.6l-30.72,62.3c-3.1,4.78 0.78,10.6 5.58,11.4c2.67312,0.67816 5.47207,-0.49691 6.86,-2.88c25.83333,-26.06 51.68667,-52.12333 77.56,-78.19z" id="Path 1" fill="none" stroke="#231815"/><path d="M783.22676,420.56002c-11.82667,11.92667 -23.65333,23.84333 -35.48,35.75l15.85,-32.19c0.54901,-1.11821 0.84275,-2.34441 0.86,-3.59c0.11031,-2.00963 -0.61397,-3.97564 -2.00168,-5.4334c-1.38771,-1.45776 -3.3157,-2.2779 -5.32832,-2.2666h-17.55l21.24,-36.25h28.49l-12.06,18c-3.23,4.82 1.06,11.29 6.48,11.29h14z" id="Path 1" fill="none" stroke="#231815"/></g></g></g></g></g></svg>