<svg width="500" height="500" xmlns="http://www.w3.org/2000/svg">

 <title/>
 <g>
  <title>background</title>
  <rect fill="none" id="canvas_background" height="402" width="582" y="-1" x="-1"/>
 </g>
 <g>
  <title>Layer 1</title>
  <path fill="#231815" id="svg_1" d="m306.62,148.53c-0.39,-7.82 -11,-8.81 -14.14,-3l-1,-0.38c-0.15,-2.8 -0.46,-5.56 -0.88,-8.29a78.12,78.12 0 0 1 15.83,7.19c0.11,1.51 0.18,2.95 0.19,4.48z" class="cls-1"/>
  <path fill="#231815" id="svg_2" d="m291.63,149c0,-0.28 0,-0.56 0,-0.84a0.12,0.12 0 0 1 0.08,0a6.49,6.49 0 0 0 -0.08,0.84z" class="cls-1"/>
  <path fill="#231815" id="svg_3" d="m329.28,244.34a22.14,22.14 0 0 1 -22.14,22.14l-111.39,0l19.63,-7.5l79.27,0c6.26,0 14.74,1.26 20.26,-2.23a14.79,14.79 0 0 0 3.72,-21.55c-6.32,-8 -17.32,-6.58 -23.48,0.62c-4.14,4.81 -10.1,1.88 -12,-2.77l6.64,-2.54a22.14,22.14 0 0 1 39.45,13.82l0.04,0.01z" class="cls-1"/>
  <path fill="#231815" id="svg_4" d="m204,173.33a61.87,61.87 0 0 0 -6.9,-1.81l0.42,-2q4.25,-1.71 8.48,-3.45l2,1.84c-1.41,1.76 -2.73,3.56 -4,5.42z" class="cls-1"/>
  <path fill="#231815" id="svg_5" d="m292.48,145.55a73.43,73.43 0 0 1 13.39,7a6.31,6.31 0 0 1 -1.65,2c-1.31,-0.84 -2.66,-1.63 -4,-2.38c-1,-0.56 -2.06,-1.09 -3.11,-1.59s-1.83,-0.87 -2.77,-1.28s-1.74,-0.73 -2.63,-1.07a7,7 0 0 1 0.77,-2.68z" class="cls-1"/>
  <path fill="#231815" id="svg_6" d="m129.64,203.11c0.8,-1.28 1.65,-2.54 2.56,-3.77l0.12,-0.15c-0.89,1.38 -1.71,2.79 -2.48,4.23l-0.2,-0.31z" class="cls-1"/>
  <path fill="#231815" id="svg_7" d="m286,323.06a18.3,18.3 0 1 1 -14.3,29.71l-5.87,-4.06c2.41,-3.67 7.51,-5.48 11.18,-1.24c4.35,5 11.55,6.58 16.63,1.52a10.87,10.87 0 0 0 0,-15.27c-4.44,-4.44 -12,-3.16 -17.73,-3.16l-36.32,0l-10.83,-7.51l57.24,0.01z" class="cls-1"/>
  <path fill="#dcdddd" id="svg_8" d="m264.27,274l37.18,0c2.35,0 4.74,0.1 7.09,0a30,30 0 0 0 26.46,-19.66c4.64,-12.67 -0.37,-27.14 -11.46,-34.64c-12.35,-8.37 -29.43,-5.7 -39,5.54a7.48,7.48 0 0 0 -1.35,7.84c1.85,4.65 7.82,7.58 12,2.77c6.16,-7.2 17.15,-8.59 23.48,-0.62a14.79,14.79 0 0 1 -3.72,21.55c-5.51,3.49 -14,2.23 -20.26,2.23l-98.9,0c-9.65,0 -9.67,15 0,15l68.48,-0.01zm-25.32,19.59a7,7 0 0 0 -7.16,-6.28l-20.79,0a7,7 0 0 0 -7.15,6.28l-11.85,0a7,7 0 0 0 -7.14,-6.29c-24.51,-0.28 -46.37,-16.61 -52.84,-40.4a54.63,54.63 0 0 1 3,-36.6a55.74,55.74 0 0 1 8.48,-13.43a54,54 0 0 1 14.15,-11.78a55.07,55.07 0 0 1 40.73,-5.5c1.24,0.29 2.48,0.64 3.7,1c3.34,1 6.62,-0.74 8.46,-3.46c14.65,-21.53 41.42,-33.14 67.15,-28.1a66.67,66.67 0 0 1 13.82,4.31c0.87,0.38 1.73,0.78 2.57,1.18s1.94,1 2.89,1.49a67.66,67.66 0 0 1 8.77,5.72a66.87,66.87 0 0 1 22.86,32.57a7.55,7.55 0 0 0 5.24,5.24a44.76,44.76 0 0 1 4.78,1.31c20,6.6 33.51,26.11 30.82,47.72c-2.75,22.09 -22,38.41 -44,38.7a7.05,7.05 0 0 0 -7.13,6.28l-79.36,0.04z" class="cls-2"/>
  <path fill="#231815" id="svg_9" d="m201,164.78q-1.83,2.31 -3.5,4.76l-0.42,2a62.28,62.28 0 0 0 -58,18.77c-1.32,-2.28 -2.52,-4.62 -3.61,-7a71.06,71.06 0 0 1 65.53,-18.53z" class="cls-1"/>
  <path fill="#231815" id="svg_10" d="m291.69,148.24c0.88,0.33 1.76,0.69 2.63,1.07s1.85,0.83 2.77,1.28s2.09,1 3.11,1.59c1.37,0.75 2.71,1.54 4,2.38a8.2,8.2 0 0 1 -7.29,1.43c-0.95,-0.52 -1.91,-1 -2.89,-1.49a7,7 0 0 1 -2.41,-5.46a6.49,6.49 0 0 1 0.08,-0.8z" class="cls-1"/>
  <path fill="#231815" id="svg_11" d="m211,294.77l-7.25,0a7.62,7.62 0 0 1 0.1,-1.22l103.58,0a9.12,9.12 0 0 1 0.09,1.22l-96.52,0z" class="cls-1"/>
  <path fill="#231815" id="svg_12" d="m343.07,190.32l-5.23,-5.23c1.26,0.27 2.5,0.6 3.73,0.95c0.53,1.41 1.03,2.83 1.5,4.28z" class="cls-1"/>
  <path fill="#231815" id="svg_13" d="m334.22,193.22a72.06,72.06 0 0 0 -24.6,-34.88c-1.08,-0.83 -2.18,-1.63 -3.31,-2.39q0.13,-1.5 0.19,-3a73.87,73.87 0 0 1 29.32,39.36a51.8,51.8 0 0 1 38.8,34.48a49.44,49.44 0 0 0 -34.71,-27.71q-0.32,-0.06 -0.65,-0.16a6.76,6.76 0 0 1 -5.04,-5.7z" class="cls-1"/>
  <path fill="#231815" id="svg_14" d="m306.32,156q-1,-0.71 -2.1,-1.39a6.31,6.31 0 0 0 1.65,-2l0.65,0.43q-0.07,1.41 -0.2,2.96z" class="cls-1"/>
  <path fill="#231815" id="svg_15" d="m296.93,156a8.2,8.2 0 0 0 7.29,-1.43q1.07,0.68 2.1,1.39c-0.15,1.93 -0.36,3.86 -0.62,5.76a67.66,67.66 0 0 0 -8.77,-5.72z" class="cls-1"/>
  <path fill="#231815" id="svg_16" d="m291.5,145.17l1,0.38a7,7 0 0 0 -0.8,2.69a0.12,0.12 0 0 0 -0.08,0c-0.02,-1.04 -0.06,-2.07 -0.12,-3.07z" class="cls-1"/>
  <path fill="#231815" id="svg_17" d="m179.5,293.56c4.16,0 8.32,0 12.49,0a7.49,7.49 0 0 1 0.1,1.21l-7.24,0a62.18,62.18 0 0 1 -18.39,-2.77a60.57,60.57 0 0 0 13.04,1.56z" class="cls-1"/>
  <path fill="#231815" id="svg_18" d="m125.33,196.16a67.93,67.93 0 0 1 10.22,-12.88c1.09,2.39 2.28,4.73 3.61,7a61.58,61.58 0 0 0 -6.84,8.89l-0.12,0.15c-0.92,1.23 -1.77,2.49 -2.56,3.77q-1.39,-2 -2.65,-4.08c-0.57,-0.93 -1.12,-1.89 -1.66,-2.85z" class="cls-1"/>
  <path fill="#231815" id="svg_19" d="m306.63,149l0,0.08c0,0.14 0,0.27 0,0.41l0,0.1a7.45,7.45 0 0 1 -0.75,2.89a73.43,73.43 0 0 0 -13.39,-7c3.1,-5.83 13.75,-4.84 14.14,3c0,0.22 0,0.4 0,0.52z" class="cls-1"/>
  <path fill="#231815" id="svg_20" d="m125.71,210.53a59.6,59.6 0 0 0 3.37,54.65a59,59 0 0 0 37.38,26.82a62.18,62.18 0 0 0 18.39,2.77l7.24,0c0,3.78 -2.38,7.56 -7.24,7.51a71,71 0 0 1 -47.43,-18.62c-23.28,-21.42 -28.82,-57.14 -13.65,-84.78c0.5,-0.93 1,-1.82 1.56,-2.71c0.54,1 1.09,1.92 1.66,2.86q1.26,2.08 2.65,4.08a57.58,57.58 0 0 0 -3.93,7.42z" class="cls-1"/>
  <path fill="#231815" id="svg_21" d="m143.46,196.84a55.74,55.74 0 0 0 -8.46,13.43c-1.8,-2.2 -3.52,-4.48 -5.14,-6.85c0.76,-1.44 1.58,-2.85 2.48,-4.23c0.8,-1.08 1.65,-2.11 2.51,-3.11a56.73,56.73 0 0 1 4.82,-5c1.16,2 2.43,3.92 3.79,5.76z" class="cls-1"/>
  <path fill="#231815" id="svg_22" d="m143.46,196.84c-1.36,-1.86 -2.63,-3.76 -3.8,-5.72c15.54,-14.12 37.86,-18.79 58.34,-12.48l0.53,0.14l-0.19,0.78a55.07,55.07 0 0 0 -40.73,5.5a54,54 0 0 0 -14.15,11.78z" class="cls-1"/>
  <path fill="#231815" id="svg_23" d="m122.61,232.54a62,62 0 0 1 7.24,-29.12c1.62,2.37 3.34,4.65 5.14,6.85a54.63,54.63 0 0 0 -3,36.6c6.47,23.8 28.33,40.12 52.84,40.4a7,7 0 0 1 7.14,6.29c-4.17,0 -8.34,0 -12.49,0a60.57,60.57 0 0 1 -13,-1.55a62.25,62.25 0 0 1 -43.87,-59.47z" class="cls-1"/>
  <path fill="#231815" id="svg_24" d="m341.05,292.39c-6.4,1.26 -12.86,1.16 -19.5,1.16l-3.19,0a7.05,7.05 0 0 1 7.13,-6.28c22,-0.29 41.21,-16.62 44,-38.7c2.69,-21.6 -10.87,-41.12 -30.82,-47.72l0.66,-1.94q0.32,0.1 0.65,0.16a49.44,49.44 0 0 1 34.71,27.71a51.79,51.79 0 0 1 -33.59,65.6l-0.05,0.01z" class="cls-1"/>
  <path fill="#231815" id="svg_25" d="m211,294.77l96.51,0c0,3.75 -2.41,7.51 -7.25,7.51l-89.26,0c-4.84,0 -7.25,-3.76 -7.25,-7.51l7.25,0z" class="cls-1"/>
  <path fill="#231815" id="svg_26" d="m198.53,178.78c3.4,0.78 6.7,-1.07 8.59,-3.84c15.77,-23.2 44.6,-35.69 72.31,-30.26a71.59,71.59 0 0 1 12.18,3.53c0,0.28 0,0.56 0,0.84c0,1.43 -0.08,2.85 -0.16,4.28a66.67,66.67 0 0 0 -13.79,-4.33c-25.74,-5 -52.51,6.57 -67.15,28.1c-1.84,2.71 -5.13,4.48 -8.46,3.46c-1.23,-0.38 -2.47,-0.72 -3.7,-1l0.18,-0.78z" class="cls-1"/>
  <path fill="#231815" id="svg_27" d="m305.87,152.52a7.45,7.45 0 0 0 0.75,-2.89c0,1.11 -0.05,2.22 -0.11,3.32l-0.64,-0.43z" class="cls-1"/>
  <path fill="#231815" id="svg_28" d="m341.05,292.39a51.57,51.57 0 0 1 -15.56,2.38l-7.24,0a7.63,7.63 0 0 1 0.11,-1.22l3.19,0c6.64,0.01 13.11,0.1 19.5,-1.16z" class="cls-1"/>
  <path fill="#231815" id="svg_29" d="m325.49,294.77a51.57,51.57 0 0 0 15.56,-2.38a41.71,41.71 0 0 0 7.12,-2c19.36,-7.41 31.47,-27 30.35,-47.57a45.29,45.29 0 0 0 -3.88,-16a51.8,51.8 0 0 0 -38.8,-34.48a73.87,73.87 0 0 0 -29.32,-39.36c0.05,-1.1 0.1,-2.21 0.11,-3.32l0,-0.1c0,-0.13 0,-0.27 0,-0.41l0,-0.15c0,-0.17 0,-0.34 0,-0.52c0,-1.49 -0.09,-3 -0.17,-4.46a83.7,83.7 0 0 1 35.11,42c-1.23,-0.34 -2.47,-0.68 -3.73,-0.95l5.23,5.23c-0.46,-1.44 -1,-2.86 -1.51,-4.29c27.43,7.88 46.27,35.15 42.73,63.9a59.91,59.91 0 0 1 -58.8,52.35c-4.87,0.06 -7.28,-3.73 -7.24,-7.51l7.24,0.02z" class="cls-1"/>
  <path fill="#231815" id="svg_30" d="m122.61,232.54a62.25,62.25 0 0 0 43.85,59.46a59,59 0 0 1 -37.38,-26.82a59.6,59.6 0 0 1 -3.37,-54.65a57.58,57.58 0 0 1 3.93,-7.42l0.2,0.31a62,62 0 0 0 -7.23,29.12z" class="cls-1"/>
  <path fill="#231815" id="svg_31" d="m307.14,266.48a22.14,22.14 0 1 0 -17.31,-36l-6.64,2.54a7.48,7.48 0 0 1 1.35,-7.84c9.61,-11.23 26.68,-13.9 39,-5.54c11.09,7.51 16.1,22 11.46,34.64a30,30 0 0 1 -26.49,19.6c-2.35,0.14 -4.74,0 -7.09,0l-105.67,0c-9.67,0 -9.65,-15 0,-15l19.63,0l-19.63,7.5l111.39,0.1z" class="cls-1"/>
  <path fill="#231815" id="svg_32" d="m341.05,292.39a51.79,51.79 0 0 0 33.59,-65.6a45.29,45.29 0 0 1 3.88,16c1.12,20.53 -11,40.16 -30.35,47.57a41.71,41.71 0 0 1 -7.12,2.03z" class="cls-1"/>
  <path fill="#231815" id="svg_33" d="m291.47,153.32c0.09,-1.42 0.15,-2.84 0.16,-4.28a7,7 0 0 0 2.41,5.46c-0.83,-0.4 -1.7,-0.8 -2.57,-1.18z" class="cls-1"/>
  <path fill="#231815" id="svg_34" d="m139.65,191.12a56.73,56.73 0 0 0 -4.82,5c-0.86,1 -1.71,2 -2.51,3.11a61.58,61.58 0 0 1 6.84,-8.89l0.49,0.78z" class="cls-1"/>
  <path fill="#231815" id="svg_35" d="m300.27,287.28a7,7 0 0 1 7.16,6.28l-103.57,0a7,7 0 0 1 7.15,-6.28l89.26,0z" class="cls-1"/>
  <path fill="#231815" id="svg_36" d="m304.25,341.36a18.3,18.3 0 0 0 -18.3,-18.3l-57.2,0l10.83,7.51l-10.82,0c-9.67,0 -9.65,-15 0,-15l48.63,0c7.33,0 14.52,-0.41 21.21,3.31c13.48,7.47 17.13,25.88 7.86,38a26,26 0 0 1 -40.1,1.16a7.54,7.54 0 0 1 -0.57,-9.37l5.87,4.06a18.3,18.3 0 0 0 32.6,-11.41l-0.01,0.04z" class="cls-1"/>
  <path fill="#231815" id="svg_37" d="m201,164.78c1.66,0.38 3.33,0.81 5,1.31q-4.23,1.73 -8.48,3.45q1.71,-2.45 3.48,-4.76z" class="cls-1"/>
  <path fill="#231815" id="svg_38" d="m290.62,136.88c0.42,2.74 0.73,5.49 0.88,8.29a73.74,73.74 0 0 0 -83.5,22.77l-2,-1.84c-1.65,-0.51 -3.32,-0.94 -5,-1.31a82.24,82.24 0 0 1 79.21,-30.49a77.9,77.9 0 0 1 10.41,2.58z" class="cls-1"/>
  <path fill="#231815" id="svg_39" d="m197.13,171.52a61.87,61.87 0 0 1 6.9,1.81c1.24,-1.86 2.56,-3.66 4,-5.4a73.74,73.74 0 0 1 83.52,-22.77c0.05,1 0.1,2 0.11,3a71.59,71.59 0 0 0 -12.18,-3.53c-27.71,-5.43 -56.55,7.06 -72.31,30.26c-1.9,2.78 -5.19,4.62 -8.59,3.84l-0.53,-0.14c-20.48,-6.31 -42.8,-1.68 -58.35,12.48l-0.5,-0.83a62.28,62.28 0 0 1 58,-18.77l-0.07,0.05z" class="cls-1"/>
  <path fill="#231815" id="svg_40" d="m306.62,149.53c0,-0.14 0,-0.27 0,-0.41c0.01,0.14 0.01,0.28 0,0.41z" class="cls-1"/>
  <path fill="#231815" id="svg_41" d="m339.29,198.92l-0.66,1.94a44.76,44.76 0 0 0 -4.78,-1.31a7.55,7.55 0 0 1 -5.24,-5.24a66.87,66.87 0 0 0 -22.91,-32.59c0.27,-1.91 0.47,-3.83 0.62,-5.76c1.13,0.76 2.23,1.56 3.31,2.39a72.06,72.06 0 0 1 24.6,34.88a6.76,6.76 0 0 0 5.06,5.69z" class="cls-1"/>
 </g>
</svg>